<svg width="307" height="195" viewBox="0 0 307 195" fill="none" xmlns="http://www.w3.org/2000/svg">
<path d="M0.440848 71.1229V113.738C0.146952 115.354 0 117.118 0 118.881C0 160.908 68.4778 195 152.973 195C236.88 195 305.064 161.349 305.946 119.763V71.1229H0.440848Z" fill="#4275BB"/>
<path d="M306.093 76.1191C306.093 118.146 237.615 152.238 152.973 152.238C68.4778 152.238 0 118.146 0 76.1191C0 34.0919 68.4778 0 152.973 0C237.615 0.146948 306.093 34.0919 306.093 76.1191Z" fill="#488ECC"/>
<path d="M153.12 76.1191L235.264 11.9028C211.605 4.40845 183.391 0 153.12 0C111.534 0 73.768 8.22909 46.1417 21.7483L153.12 76.1191Z" fill="#EFA40F"/>
<path d="M0 76.119C0 77.8824 0.146952 79.4989 0.440849 81.2622L153.12 76.119L46.1417 21.7483C17.6338 35.5614 0 54.8116 0 76.119Z" fill="#DD0726"/>
<path d="M126.275 110.816C128.681 109.762 130.871 109.293 132.846 109.41C134.806 109.515 136.486 110.099 137.886 111.161C138.777 111.837 139.331 112.558 139.548 113.326C139.766 114.094 139.583 114.86 138.999 115.623C138.415 116.386 137.384 117.092 135.904 117.74C134.685 118.274 133.358 118.678 131.923 118.952C130.474 119.214 129.09 119.313 127.772 119.247L126.971 117.035C128.058 117.1 129.174 117.042 130.321 116.861C131.47 116.663 132.515 116.357 133.458 115.944C134.58 115.452 135.26 114.917 135.498 114.339C135.738 113.743 135.505 113.177 134.798 112.641C134.034 112.062 133.112 111.781 132.031 111.797C130.952 111.796 129.575 112.162 127.901 112.896L123.78 114.702L116.575 108.187L126.598 103.796L128.91 105.55L121.57 108.766L124.641 111.532L126.275 110.816ZM151.608 110.86C150.243 111.458 148.726 111.767 147.059 111.787C145.378 111.796 143.656 111.501 141.893 110.903C140.116 110.294 138.435 109.389 136.851 108.188C135.267 106.987 134.211 105.816 133.683 104.677C133.142 103.527 133.11 102.491 133.589 101.571C134.054 100.639 134.969 99.8746 136.335 99.2763C137.701 98.678 139.224 98.3744 140.905 98.3655C142.588 98.3387 144.318 98.6298 146.096 99.2386C147.859 99.8367 149.533 100.736 151.117 101.938C152.701 103.139 153.763 104.315 154.305 105.465C154.833 106.604 154.856 107.643 154.375 108.581C153.896 109.502 152.974 110.261 151.608 110.86ZM149.211 109.042C150.431 108.508 150.951 107.755 150.774 106.784C150.612 105.805 149.662 104.656 147.922 103.337C146.183 102.018 144.517 101.183 142.925 100.831C141.349 100.472 139.951 100.56 138.732 101.094C137.529 101.621 137.008 102.374 137.17 103.352C137.347 104.324 138.306 105.469 140.045 106.788C141.785 108.107 143.443 108.946 145.018 109.305C146.611 109.657 148.008 109.569 149.211 109.042ZM157.636 99.7666C156.417 100.301 155.058 100.448 153.561 100.207C152.064 99.9659 150.707 99.3843 149.491 98.4619C148.274 97.5396 147.665 96.6303 147.664 95.7342C147.662 94.8381 148.271 94.123 149.49 93.5888C150.709 93.0545 152.068 92.9078 153.565 93.1486C155.065 93.3716 156.43 93.9496 157.66 94.8827C158.89 95.8158 159.498 96.734 159.484 97.6372C159.471 98.5226 158.855 99.2324 157.636 99.7666ZM159.881 89.214L162.27 88.1669L165.463 104.536L163.073 105.583L159.881 89.214ZM156.151 98.6404C156.818 98.3484 157.103 97.9524 157.009 97.4525C156.93 96.9455 156.48 96.3809 155.66 95.7588C154.84 95.1368 154.017 94.736 153.19 94.5566C152.38 94.3701 151.642 94.4229 150.975 94.7149C150.341 94.9927 150.062 95.3941 150.139 95.9189C150.217 96.426 150.66 96.9852 151.466 97.5965C152.272 98.2079 153.095 98.6086 153.936 98.7987C154.779 98.971 155.517 98.9182 156.151 98.6404ZM175.829 100.172C174.61 100.706 173.252 100.853 171.754 100.612C170.257 100.371 168.9 99.7894 167.684 98.867C166.468 97.9446 165.859 97.0354 165.857 96.1393C165.855 95.2432 166.464 94.528 167.684 93.9938C168.903 93.4596 170.261 93.3129 171.759 93.5537C173.272 93.7873 174.637 94.3654 175.853 95.2878C177.069 96.2102 177.67 97.123 177.656 98.0262C177.657 98.9223 177.049 99.6374 175.829 100.172ZM174.344 99.0455C174.995 98.7606 175.281 98.3646 175.202 97.8575C175.109 97.3398 174.66 96.7752 173.854 96.1639C173.048 95.5525 172.231 95.1572 171.405 94.9778C170.564 94.7876 169.819 94.835 169.168 95.12C168.518 95.4049 168.232 95.8008 168.311 96.3079C168.39 96.8149 168.839 97.3795 169.659 98.0016C170.48 98.6236 171.303 99.0244 172.129 99.2038C172.956 99.3831 173.694 99.3304 174.344 99.0455Z" fill="white"/>
<path d="M125.615 33.7626L127.405 35.2558L117.197 39.1732L115.782 37.9922L116.986 32.2979C117.118 31.6528 117.11 31.1405 116.963 30.7608C116.819 30.3671 116.567 30.0209 116.209 29.7223C115.678 29.2788 115.054 29.023 114.336 28.9547C113.619 28.8864 112.838 29.0142 111.994 29.3382C110.583 29.8797 109.898 30.625 109.938 31.5742L106.999 31.3148C106.943 30.6096 107.207 29.9466 107.792 29.3258C108.379 28.691 109.239 28.156 110.373 27.7207C111.877 27.1437 113.37 26.9275 114.853 27.072C116.335 27.2165 117.581 27.7096 118.589 28.5513C119.208 29.0671 119.63 29.612 119.856 30.186C120.081 30.7599 120.093 31.5086 119.89 32.4319L119.087 36.2679L125.615 33.7626ZM134.771 32.6274C133.663 33.0525 132.446 33.2421 131.12 33.196C129.783 33.1409 128.425 32.843 127.045 32.3023C125.655 31.7525 124.352 30.9709 123.137 29.9573C121.922 28.9437 121.126 27.9742 120.749 27.0489C120.36 26.1144 120.374 25.2902 120.788 24.576C121.192 23.8528 121.948 23.2787 123.056 22.8535C124.164 22.4284 125.386 22.2434 126.723 22.2985C128.062 22.3395 129.427 22.6348 130.818 23.1846C132.198 23.7253 133.495 24.5025 134.71 25.516C135.925 26.5296 136.726 27.5036 137.115 28.438C137.492 29.3634 137.472 30.1902 137.055 30.9184C136.64 31.6326 135.879 32.2022 134.771 32.6274ZM132.932 31.0934C133.921 30.7138 134.363 30.1347 134.258 29.3559C134.166 28.5722 133.452 27.6237 132.118 26.5106C130.784 25.3974 129.491 24.6717 128.238 24.3333C126.998 23.9898 125.884 24.0079 124.895 24.3875C123.919 24.762 123.477 25.3412 123.569 26.125C123.675 26.9037 124.394 27.8496 125.728 28.9627C127.063 30.0759 128.35 30.8042 129.589 31.1476C130.842 31.486 131.956 31.4679 132.932 31.0934ZM139.973 24.0313C138.984 24.4109 137.899 24.4772 136.717 24.2304C135.536 23.9836 134.478 23.471 133.546 22.6928C132.613 21.9145 132.162 21.1691 132.194 20.4566C132.226 19.7442 132.736 19.1982 133.725 18.8186C134.715 18.439 135.8 18.3726 136.981 18.6194C138.165 18.8521 139.229 19.3621 140.173 20.1495C141.116 20.9368 141.566 21.6892 141.521 22.4068C141.478 23.1102 140.962 23.6517 139.973 24.0313ZM142.148 15.725L144.087 14.981L146.02 28.1122L144.081 28.8562L142.148 15.725ZM138.834 23.081C139.375 22.8735 139.617 22.5693 139.56 22.1684C139.516 21.7623 139.18 21.2969 138.551 20.772C137.922 20.2471 137.282 19.8981 136.631 19.7249C135.994 19.5467 135.405 19.5613 134.864 19.7688C134.35 19.9662 134.114 20.2749 134.155 20.695C134.199 21.1011 134.53 21.562 135.148 22.0778C135.766 22.5937 136.406 22.9427 137.067 23.1249C137.731 23.2931 138.32 23.2784 138.834 23.081ZM154.423 25.0263C153.434 25.4059 152.348 25.4722 151.167 25.2254C149.985 24.9786 148.928 24.466 147.995 23.6878C147.062 22.9095 146.612 22.1641 146.643 21.4516C146.675 20.7392 147.186 20.1932 148.175 19.8136C149.164 19.434 150.249 19.3676 151.431 19.6144C152.626 19.8562 153.689 20.3662 154.622 21.1445C155.555 21.9228 155.999 22.6707 155.954 23.3882C155.922 24.1006 155.412 24.6467 154.423 25.0263ZM153.284 24.076C153.811 23.8736 154.053 23.5694 154.009 23.1634C153.955 22.7483 153.618 22.2829 153 21.767C152.382 21.2512 151.747 20.9067 151.097 20.7335C150.436 20.5512 149.841 20.5613 149.314 20.7638C148.786 20.9662 148.544 21.2705 148.588 21.6765C148.632 22.0825 148.968 22.5479 149.597 23.0728C150.227 23.5977 150.866 23.9467 151.517 24.1199C152.167 24.2931 152.756 24.2785 153.284 24.076Z" fill="white"/>
<path d="M27.8079 54.3388L37.2836 62.2447L35.1439 63.0658L27.1437 56.391L24.7077 57.3258L23.2322 56.0947L27.8079 54.3388ZM37.3664 55.1391C38.9904 54.5159 40.4537 54.2731 41.7562 54.4109C43.0496 54.5411 44.1431 54.9789 45.0365 55.7243C45.6051 56.1986 45.9494 56.6931 46.0695 57.2076C46.1896 57.7222 46.0448 58.2229 45.6352 58.7099C45.2257 59.1969 44.5216 59.6319 43.5231 60.0151C42.7001 60.331 41.8098 60.5572 40.8522 60.6938C39.8856 60.823 38.9674 60.8455 38.0978 60.7615L37.6359 59.2734C38.3526 59.3501 39.0929 59.3463 39.8569 59.262C40.6229 59.1659 41.3241 58.9958 41.9605 58.7515C42.7176 58.461 43.1838 58.1282 43.3591 57.7531C43.5363 57.3663 43.3993 56.9847 42.948 56.6082C42.4607 56.2016 41.8593 55.9872 41.1438 55.965C40.4303 55.931 39.5084 56.1309 38.3782 56.5646L35.5966 57.6321L31.0316 53.1016L37.7963 50.5056L39.2718 51.7366L34.3176 53.6379L36.2637 55.5623L37.3664 55.1391ZM47.2156 53.1072C46.3927 53.423 45.4897 53.4783 44.5066 53.2729C43.5236 53.0675 42.644 52.6411 41.8679 51.9936C41.0918 51.346 40.7169 50.7259 40.7434 50.1331C40.7698 49.5403 41.1945 49.086 42.0175 48.7702C42.8405 48.4544 43.7435 48.3992 44.7265 48.6045C45.7115 48.7981 46.5966 49.2225 47.3817 49.8776C48.1668 50.5326 48.5407 51.1586 48.5033 51.7556C48.4678 52.3408 48.0386 52.7914 47.2156 53.1072ZM49.0251 46.1964L50.6381 45.5774L52.2464 56.5026L50.6334 57.1216L49.0251 46.1964ZM46.268 52.3166C46.7179 52.144 46.9192 51.8908 46.8718 51.5573C46.8354 51.2195 46.5555 50.8322 46.0321 50.3955C45.5086 49.9588 44.9763 49.6684 44.4352 49.5243C43.905 49.376 43.415 49.3882 42.9651 49.5608C42.5371 49.725 42.3404 49.9819 42.3748 50.3315C42.4113 50.6693 42.6867 51.0527 43.2011 51.4819C43.7155 51.9111 44.2478 52.2015 44.7979 52.3531C45.3501 52.493 45.8401 52.4808 46.268 52.3166ZM59.2376 53.935C58.4146 54.2509 57.5116 54.3061 56.5285 54.1007C55.5455 53.8954 54.6659 53.4689 53.8898 52.8214C53.1137 52.1739 52.7389 51.5537 52.7653 50.9609C52.7918 50.3682 53.2165 49.9139 54.0394 49.5981C54.8624 49.2822 55.7654 49.227 56.7485 49.4324C57.7425 49.6335 58.6275 50.0579 59.4037 50.7054C60.1798 51.3529 60.5491 51.9752 60.5117 52.5722C60.4852 53.1649 60.0605 53.6192 59.2376 53.935ZM58.29 53.1444C58.7289 52.976 58.9302 52.7229 58.8937 52.3851C58.8483 52.0398 58.5684 51.6525 58.054 51.2233C57.5396 50.7942 57.0118 50.5075 56.4707 50.3634C55.9205 50.2118 55.4259 50.2202 54.987 50.3887C54.5481 50.5571 54.3468 50.8102 54.3833 51.148C54.4197 51.4858 54.6996 51.8731 55.223 52.3098C55.7464 52.7465 56.2787 53.0369 56.8199 53.181C57.361 53.3251 57.8511 53.3129 58.29 53.1444Z" fill="white"/>
<path d="M305.064 67.0083C305.064 69.0656 150.622 77.0008 150.622 77.0008L235.117 11.9028C266.564 21.7483 304.329 42.1741 305.064 67.0083Z" fill="#0F3293"/>
<path d="M217.003 41.8482L226.479 49.7541L224.34 50.5752L216.339 43.9004L213.903 44.8352L212.428 43.6041L217.003 41.8482ZM226.562 42.6485C228.186 42.0253 229.649 41.7825 230.952 41.9203C232.245 42.0505 233.339 42.4883 234.232 43.2337C234.801 43.708 235.145 44.2025 235.265 44.717C235.385 45.2316 235.24 45.7323 234.831 46.2193C234.421 46.7063 233.717 47.1413 232.719 47.5245C231.896 47.8404 231.005 48.0666 230.048 48.2032C229.081 48.3324 228.163 48.3549 227.293 48.2709L226.831 46.7828C227.548 46.8595 228.289 46.8557 229.053 46.7714C229.819 46.6753 230.52 46.5052 231.156 46.2609C231.913 45.9704 232.379 45.6376 232.555 45.2625C232.732 44.8757 232.595 44.4941 232.144 44.1176C231.656 43.711 231.055 43.4966 230.339 43.4744C229.626 43.4404 228.704 43.6403 227.574 44.074L224.792 45.1415L220.227 40.611L226.992 38.015L228.467 39.246L223.513 41.1473L225.459 43.0717L226.562 42.6485ZM236.411 40.6166C235.588 40.9324 234.685 40.9877 233.702 40.7823C232.719 40.5769 231.84 40.1505 231.063 39.503C230.287 38.8554 229.913 38.2353 229.939 37.6425C229.965 37.0497 230.39 36.5954 231.213 36.2796C232.036 35.9638 232.939 35.9086 233.922 36.1139C234.907 36.3075 235.792 36.7319 236.577 37.387C237.362 38.042 237.736 38.668 237.699 39.265C237.663 39.8502 237.234 40.3008 236.411 40.6166ZM238.221 33.7058L239.834 33.0868L241.442 44.012L239.829 44.631L238.221 33.7058ZM235.464 39.826C235.914 39.6534 236.115 39.4002 236.067 39.0667C236.031 38.7289 235.751 38.3416 235.228 37.9049C234.704 37.4682 234.172 37.1778 233.631 37.0337C233.101 36.8854 232.611 36.8976 232.161 37.0702C231.733 37.2344 231.536 37.4913 231.57 37.8409C231.607 38.1787 231.882 38.5621 232.397 38.9913C232.911 39.4205 233.443 39.7109 233.994 39.8625C234.546 40.0024 235.036 39.9902 235.464 39.826ZM248.433 41.4444C247.61 41.7603 246.707 41.8155 245.724 41.6101C244.741 41.4048 243.862 40.9783 243.085 40.3308C242.309 39.6833 241.934 39.0631 241.961 38.4703C241.987 37.8776 242.412 37.4233 243.235 37.1075C244.058 36.7916 244.961 36.7364 245.944 36.9418C246.938 37.1429 247.823 37.5673 248.599 38.2148C249.375 38.8623 249.745 39.4846 249.707 40.0816C249.681 40.6743 249.256 41.1286 248.433 41.4444ZM247.486 40.6538C247.925 40.4854 248.126 40.2323 248.089 39.8945C248.044 39.5492 247.764 39.1619 247.25 38.7327C246.735 38.3036 246.207 38.0169 245.666 37.8728C245.116 37.7212 244.622 37.7296 244.183 37.8981C243.744 38.0665 243.542 38.3196 243.579 38.6574C243.615 38.9952 243.895 39.3825 244.419 39.8192C244.942 40.2559 245.474 40.5463 246.015 40.6904C246.557 40.8345 247.047 40.8223 247.486 40.6538Z" fill="white"/>
</svg>
