<svg width="705" height="234" viewBox="0 0 705 234" fill="none" xmlns="http://www.w3.org/2000/svg">
<rect x="80.5" y="28.5" width="48" height="157" fill="#FFF3B7" stroke="#DFCA0C"/>
<rect x="128.5" y="28.5" width="48" height="157" fill="#FFF3B7" stroke="#DFCA0C"/>
<rect x="176.5" y="28.5" width="48" height="157" fill="#FFF3B7" stroke="#DFCA0C"/>
<rect x="224.5" y="28.5" width="49" height="157" fill="#FFF3B7" stroke="#DFCA0C"/>
<rect x="272.5" y="28.5" width="47" height="157" fill="#FFF3B7" stroke="#DFCA0C"/>
<rect x="319.5" y="28.5" width="49" height="157" fill="#FFF3B7" stroke="#DFCA0C"/>
<rect x="368.5" y="28.5" width="48" height="157" fill="#FFF3B7" stroke="#DFCA0C"/>
<rect x="416.5" y="28.5" width="48" height="157" fill="#FFF3B7" stroke="#DFCA0C"/>
<rect x="464.5" y="28.5" width="48" height="157" fill="#FFF3B7" stroke="#DFCA0C"/>
<rect x="511.5" y="28.5" width="49" height="157" fill="#FFF3B7" stroke="#DFCA0C"/>
<rect x="560.5" y="28.5" width="48" height="157" fill="#FFF3B7" stroke="#DFCA0C"/>
<rect x="608.5" y="28.5" width="48" height="157" fill="#FFF3B7" stroke="#DFCA0C"/>
<rect x="656.5" y="28.5" width="48" height="157" fill="#FFF3B7" stroke="#DFCA0C"/>
<circle cx="128" cy="200" r="5" fill="#324979"/>
<path d="M124.6 233V231.431H128.281V220.316L125.02 222.644V220.9L128.435 218.552H130.137V231.431H133.654V233H124.6Z" fill="black"/>
<circle cx="82" cy="200" r="5" fill="#324979"/>
<path d="M87.8589 225.771C87.8589 228.184 87.4316 230.026 86.5771 231.298C85.7295 232.569 84.4751 233.205 82.814 233.205C81.1528 233.205 79.9053 232.573 79.0713 231.308C78.2373 230.043 77.8203 228.198 77.8203 225.771C77.8203 223.29 78.2236 221.43 79.0303 220.193C79.8438 218.956 81.1255 218.337 82.8755 218.337C84.5776 218.337 85.832 218.962 86.6387 220.213C87.4521 221.464 87.8589 223.317 87.8589 225.771ZM85.9824 225.771C85.9824 223.686 85.7397 222.175 85.2544 221.239C84.7759 220.302 83.9829 219.834 82.8755 219.834C81.7407 219.834 80.9238 220.295 80.4248 221.218C79.9326 222.141 79.6865 223.659 79.6865 225.771C79.6865 227.822 79.936 229.322 80.4351 230.272C80.9409 231.223 81.7407 231.698 82.8345 231.698C83.9214 231.698 84.7178 231.212 85.2236 230.242C85.7295 229.271 85.9824 227.781 85.9824 225.771Z" fill="black"/>
<circle cx="176" cy="200" r="5" fill="#324979"/>
<path d="M171.056 233V231.698C171.405 230.898 171.829 230.194 172.328 229.585C172.833 228.97 173.363 228.417 173.917 227.924C174.471 227.425 175.018 226.964 175.558 226.54C176.104 226.116 176.597 225.692 177.034 225.269C177.472 224.845 177.824 224.4 178.09 223.936C178.364 223.471 178.5 222.944 178.5 222.356C178.5 221.563 178.268 220.948 177.803 220.511C177.338 220.073 176.692 219.854 175.865 219.854C175.079 219.854 174.43 220.07 173.917 220.5C173.411 220.924 173.114 221.522 173.025 222.295L171.138 222.121C171.275 220.965 171.764 220.046 172.604 219.362C173.452 218.679 174.539 218.337 175.865 218.337C177.321 218.337 178.439 218.682 179.218 219.373C180.004 220.056 180.397 221.03 180.397 222.295C180.397 222.855 180.268 223.413 180.008 223.966C179.755 224.52 179.375 225.074 178.87 225.627C178.364 226.181 177.396 227.039 175.968 228.201C175.182 228.844 174.556 229.425 174.091 229.944C173.626 230.457 173.292 230.953 173.086 231.431H180.623V233H171.056Z" fill="black"/>
<circle cx="225" cy="200" r="5" fill="#324979"/>
<path d="M229.756 229.011C229.756 230.344 229.333 231.376 228.485 232.108C227.637 232.839 226.427 233.205 224.855 233.205C223.392 233.205 222.223 232.877 221.348 232.221C220.48 231.558 219.964 230.58 219.8 229.288L221.707 229.114C221.953 230.823 223.002 231.677 224.855 231.677C225.785 231.677 226.513 231.448 227.039 230.99C227.572 230.532 227.839 229.852 227.839 228.95C227.839 228.164 227.535 227.552 226.926 227.114C226.325 226.67 225.453 226.448 224.312 226.448H223.266V224.848H224.271C225.282 224.848 226.065 224.629 226.619 224.192C227.179 223.748 227.459 223.136 227.459 222.356C227.459 221.584 227.23 220.976 226.772 220.531C226.321 220.08 225.648 219.854 224.752 219.854C223.939 219.854 223.279 220.063 222.773 220.48C222.274 220.897 221.984 221.485 221.902 222.244L220.046 222.1C220.183 220.917 220.671 219.995 221.512 219.332C222.36 218.668 223.447 218.337 224.773 218.337C226.222 218.337 227.347 218.675 228.146 219.352C228.953 220.022 229.356 220.958 229.356 222.162C229.356 223.084 229.097 223.836 228.577 224.417C228.064 224.992 227.316 225.381 226.332 225.586V225.627C227.412 225.744 228.252 226.106 228.854 226.714C229.456 227.323 229.756 228.088 229.756 229.011Z" fill="black"/>
<circle cx="273" cy="200" r="5" fill="#324979"/>
<path d="M275.034 229.729V233H273.291V229.729H266.482V228.293L273.096 218.552H275.034V228.273H277.064V229.729H275.034ZM273.291 220.634C273.277 220.675 273.181 220.856 273.003 221.177C272.826 221.499 272.692 221.724 272.604 221.854L268.902 227.309L268.348 228.068L268.184 228.273H273.291V220.634Z" fill="black"/>
<circle cx="320" cy="200" r="5" fill="#324979"/>
<path d="M325.797 228.293C325.797 229.818 325.343 231.018 324.434 231.893C323.531 232.768 322.277 233.205 320.67 233.205C319.324 233.205 318.237 232.911 317.41 232.323C316.583 231.735 316.06 230.884 315.841 229.77L317.707 229.555C318.097 230.983 319.098 231.698 320.711 231.698C321.703 231.698 322.479 231.4 323.039 230.806C323.6 230.204 323.88 229.38 323.88 228.334C323.88 227.425 323.596 226.69 323.029 226.13C322.468 225.569 321.709 225.289 320.752 225.289C320.253 225.289 319.789 225.368 319.358 225.525C318.927 225.682 318.497 225.949 318.066 226.325H316.261L316.743 218.552H324.957V220.121H318.425L318.148 224.705C318.948 224.089 319.942 223.782 321.132 223.782C322.554 223.782 323.685 224.199 324.526 225.033C325.374 225.867 325.797 226.954 325.797 228.293Z" fill="black"/>
<circle cx="368" cy="200" r="5" fill="#324979"/>
<path d="M374.756 228.273C374.756 229.797 374.343 231 373.516 231.882C372.688 232.764 371.547 233.205 370.091 233.205C368.464 233.205 367.22 232.6 366.358 231.39C365.497 230.18 365.066 228.42 365.066 226.109C365.066 223.607 365.514 221.687 366.41 220.347C367.305 219.007 368.58 218.337 370.234 218.337C372.415 218.337 373.789 219.318 374.356 221.28L372.593 221.598C372.23 220.422 371.438 219.834 370.214 219.834C369.161 219.834 368.344 220.326 367.763 221.311C367.189 222.288 366.902 223.707 366.902 225.566C367.237 224.944 367.708 224.472 368.317 224.151C368.925 223.823 369.623 223.659 370.409 223.659C371.742 223.659 372.798 224.076 373.577 224.91C374.363 225.744 374.756 226.865 374.756 228.273ZM372.88 228.355C372.88 227.309 372.624 226.502 372.111 225.935C371.598 225.368 370.884 225.084 369.968 225.084C369.106 225.084 368.409 225.337 367.876 225.843C367.35 226.342 367.086 227.032 367.086 227.914C367.086 229.028 367.36 229.941 367.907 230.652C368.46 231.363 369.168 231.718 370.029 231.718C370.918 231.718 371.615 231.421 372.121 230.826C372.627 230.225 372.88 229.401 372.88 228.355Z" fill="black"/>
<circle cx="417" cy="200" r="5" fill="#324979"/>
<path d="M422.623 220.049C421.146 222.305 420.104 224.072 419.496 225.351C418.887 226.629 418.429 227.89 418.122 229.134C417.821 230.378 417.67 231.667 417.67 233H415.743C415.743 231.154 416.132 229.213 416.912 227.176C417.698 225.132 419.007 222.78 420.839 220.121H413.077V218.552H422.623V220.049Z" fill="black"/>
<circle cx="465" cy="200" r="5" fill="#324979"/>
<path d="M470.767 228.97C470.767 230.303 470.343 231.342 469.495 232.087C468.647 232.833 467.431 233.205 465.845 233.205C464.3 233.205 463.09 232.839 462.215 232.108C461.347 231.376 460.913 230.337 460.913 228.991C460.913 228.047 461.183 227.254 461.723 226.612C462.263 225.969 462.953 225.58 463.794 225.443V225.402C463.008 225.217 462.386 224.817 461.928 224.202C461.477 223.587 461.251 222.866 461.251 222.039C461.251 220.938 461.661 220.046 462.481 219.362C463.309 218.679 464.416 218.337 465.804 218.337C467.226 218.337 468.347 218.672 469.167 219.342C469.994 220.012 470.408 220.917 470.408 222.059C470.408 222.886 470.179 223.607 469.721 224.223C469.263 224.838 468.637 225.224 467.844 225.381V225.422C468.767 225.573 469.485 225.966 469.998 226.602C470.51 227.23 470.767 228.02 470.767 228.97ZM468.49 222.162C468.49 220.528 467.595 219.711 465.804 219.711C464.936 219.711 464.272 219.916 463.814 220.326C463.363 220.736 463.138 221.348 463.138 222.162C463.138 222.989 463.37 223.621 463.835 224.059C464.307 224.489 464.97 224.705 465.824 224.705C466.692 224.705 467.352 224.506 467.803 224.11C468.261 223.707 468.49 223.057 468.49 222.162ZM468.849 228.796C468.849 227.9 468.583 227.227 468.049 226.776C467.516 226.318 466.768 226.089 465.804 226.089C464.867 226.089 464.136 226.335 463.609 226.827C463.083 227.312 462.82 227.982 462.82 228.837C462.82 230.826 463.835 231.821 465.865 231.821C466.87 231.821 467.619 231.582 468.111 231.103C468.603 230.618 468.849 229.849 468.849 228.796Z" fill="black"/>
<circle cx="514" cy="200" r="5" fill="#324979"/>
<path d="M520.685 225.484C520.685 227.965 520.23 229.873 519.321 231.206C518.418 232.539 517.13 233.205 515.455 233.205C514.327 233.205 513.421 232.969 512.738 232.498C512.061 232.019 511.576 231.25 511.282 230.19L513.045 229.914C513.415 231.117 514.228 231.718 515.486 231.718C516.545 231.718 517.366 231.226 517.947 230.242C518.528 229.257 518.832 227.853 518.859 226.027C518.586 226.643 518.118 227.138 517.455 227.514C516.792 227.883 516.063 228.068 515.271 228.068C513.972 228.068 512.933 227.624 512.153 226.735C511.374 225.846 510.984 224.667 510.984 223.197C510.984 221.687 511.408 220.5 512.256 219.639C513.104 218.771 514.283 218.337 515.793 218.337C517.4 218.337 518.617 218.932 519.444 220.121C520.271 221.311 520.685 223.098 520.685 225.484ZM518.675 223.7C518.675 222.538 518.408 221.604 517.875 220.9C517.342 220.189 516.627 219.834 515.732 219.834C514.843 219.834 514.143 220.138 513.63 220.747C513.117 221.348 512.861 222.165 512.861 223.197C512.861 224.25 513.117 225.084 513.63 225.699C514.143 226.308 514.836 226.612 515.711 226.612C516.245 226.612 516.74 226.492 517.198 226.253C517.656 226.007 518.015 225.662 518.275 225.217C518.542 224.773 518.675 224.267 518.675 223.7Z" fill="black"/>
<circle cx="562" cy="200" r="5" fill="#324979"/>
<path d="M552.6 233V231.431H556.281V220.316L553.02 222.644V220.9L556.435 218.552H558.137V231.431H561.654V233H552.6ZM573.548 225.771C573.548 228.184 573.121 230.026 572.267 231.298C571.419 232.569 570.165 233.205 568.503 233.205C566.842 233.205 565.595 232.573 564.761 231.308C563.927 230.043 563.51 228.198 563.51 225.771C563.51 223.29 563.913 221.43 564.72 220.193C565.533 218.956 566.815 218.337 568.565 218.337C570.267 218.337 571.521 218.962 572.328 220.213C573.142 221.464 573.548 223.317 573.548 225.771ZM571.672 225.771C571.672 223.686 571.429 222.175 570.944 221.239C570.465 220.302 569.672 219.834 568.565 219.834C567.43 219.834 566.613 220.295 566.114 221.218C565.622 222.141 565.376 223.659 565.376 225.771C565.376 227.822 565.625 229.322 566.125 230.272C566.63 231.223 567.43 231.698 568.524 231.698C569.611 231.698 570.407 231.212 570.913 230.242C571.419 229.271 571.672 227.781 571.672 225.771Z" fill="black"/>
<circle cx="611" cy="200" r="5" fill="#324979"/>
<path d="M604.6 233V231.431H608.281V220.316L605.02 222.644V220.9L608.435 218.552H610.137V231.431H613.654V233H604.6ZM614.73 233V231.431H618.412V220.316L615.151 222.644V220.9L618.565 218.552H620.268V231.431H623.785V233H614.73Z" fill="black"/>
<circle cx="659" cy="200" r="5" fill="#324979"/>
<path d="M652.6 233V231.431H656.281V220.316L653.02 222.644V220.9L656.435 218.552H658.137V231.431H661.654V233H652.6ZM663.746 233V231.698C664.094 230.898 664.518 230.194 665.017 229.585C665.523 228.97 666.053 228.417 666.606 227.924C667.16 227.425 667.707 226.964 668.247 226.54C668.794 226.116 669.286 225.692 669.724 225.269C670.161 224.845 670.513 224.4 670.78 223.936C671.053 223.471 671.19 222.944 671.19 222.356C671.19 221.563 670.958 220.948 670.493 220.511C670.028 220.073 669.382 219.854 668.555 219.854C667.769 219.854 667.119 220.07 666.606 220.5C666.101 220.924 665.803 221.522 665.714 222.295L663.828 222.121C663.964 220.965 664.453 220.046 665.294 219.362C666.142 218.679 667.229 218.337 668.555 218.337C670.011 218.337 671.128 218.682 671.908 219.373C672.694 220.056 673.087 221.03 673.087 222.295C673.087 222.855 672.957 223.413 672.697 223.966C672.444 224.52 672.065 225.074 671.559 225.627C671.053 226.181 670.086 227.039 668.657 228.201C667.871 228.844 667.246 229.425 666.781 229.944C666.316 230.457 665.981 230.953 665.776 231.431H673.312V233H663.746Z" fill="black"/>
<path d="M81.415 0.905273H83.2607V5.76562C83.4658 5.76562 83.6504 5.73828 83.8145 5.68359C83.9785 5.62891 84.1494 5.51611 84.3271 5.34521C84.5049 5.16748 84.7065 4.92139 84.9321 4.60693C85.1577 4.29248 85.937 3.05859 87.27 0.905273H89.1978L86.9829 4.23779C86.3472 5.16748 85.9097 5.73145 85.6704 5.92969L89.29 12H87.2393L84.3887 6.90381C84.2588 6.9585 84.0811 7.00635 83.8555 7.04736C83.6367 7.08838 83.4385 7.10889 83.2607 7.10889V12H81.415V0.905273ZM100.231 6.44238C100.231 8.38379 99.8037 9.82959 98.9492 10.7798C98.0947 11.73 96.854 12.2051 95.2271 12.2051C93.6069 12.2051 92.3833 11.7129 91.5562 10.7285C90.729 9.7373 90.3154 8.30859 90.3154 6.44238C90.3154 2.61426 91.9731 0.700195 95.2886 0.700195C96.9839 0.700195 98.2314 1.16846 99.0312 2.10498C99.8311 3.03467 100.231 4.48047 100.231 6.44238ZM98.293 6.44238C98.293 4.91113 98.064 3.80029 97.606 3.10986C97.1548 2.4126 96.3926 2.06396 95.3193 2.06396C94.2393 2.06396 93.4565 2.41943 92.9712 3.13037C92.4927 3.83447 92.2534 4.93848 92.2534 6.44238C92.2534 7.90527 92.4893 9.00586 92.9609 9.74414C93.4395 10.4756 94.188 10.8413 95.2065 10.8413C96.314 10.8413 97.1035 10.4858 97.5752 9.7749C98.0537 9.06396 98.293 7.95312 98.293 6.44238ZM109.593 12V2.24854H105.748C105.344 5.229 105.033 7.24219 104.814 8.28809C104.596 9.32715 104.36 10.1133 104.107 10.6465C103.854 11.1797 103.54 11.5728 103.164 11.8257C102.794 12.0786 102.316 12.2051 101.728 12.2051C101.386 12.2051 101.065 12.1606 100.764 12.0718V10.749C100.935 10.8105 101.167 10.8413 101.461 10.8413C101.837 10.8413 102.138 10.6533 102.364 10.2773C102.596 9.90137 102.805 9.25195 102.989 8.3291C103.181 7.40625 103.396 6.04248 103.635 4.23779L104.086 0.905273H111.449V12H109.593ZM116.155 0.905273V6.97559L116.053 9.81592L121.169 0.905273H123.189V12H121.426V5.23242C121.426 4.98633 121.436 4.61377 121.457 4.11475C121.484 3.61572 121.508 3.26025 121.528 3.04834L116.34 12H114.371V0.905273H116.155ZM127.742 0.905273V5.02734C127.742 6.13477 128.31 6.68848 129.444 6.68848C130.196 6.68848 131.14 6.52783 132.274 6.20654V0.905273H134.12V12H132.274V7.27295L131.475 7.58057C130.477 7.96338 129.547 8.15479 128.686 8.15479C127.804 8.15479 127.117 7.8916 126.625 7.36523C126.139 6.83203 125.896 6.0835 125.896 5.11963V0.905273H127.742ZM138.427 6.84229C138.427 8.11377 138.69 9.09473 139.216 9.78516C139.743 10.4756 140.512 10.8208 141.523 10.8208C142.323 10.8208 142.962 10.6602 143.441 10.3389C143.926 10.0176 144.254 9.61084 144.425 9.11865L146.045 9.58008C145.382 11.3301 143.875 12.2051 141.523 12.2051C139.883 12.2051 138.632 11.7163 137.771 10.7388C136.916 9.76123 136.489 8.30859 136.489 6.38086C136.489 4.54883 136.916 3.14404 137.771 2.1665C138.632 1.18896 139.859 0.700195 141.452 0.700195C144.712 0.700195 146.343 2.66553 146.343 6.59619V6.84229H138.427ZM144.436 5.42725C144.333 4.2583 144.036 3.40723 143.543 2.87402C143.051 2.33398 142.344 2.06396 141.421 2.06396C140.525 2.06396 139.814 2.36475 139.288 2.96631C138.769 3.56104 138.488 4.38135 138.447 5.42725H144.436ZM150.106 6.40137C150.106 7.87793 150.338 8.97168 150.803 9.68262C151.268 10.3936 151.969 10.749 152.905 10.749C153.562 10.749 154.108 10.5713 154.546 10.2158C154.99 9.86035 155.264 9.31348 155.366 8.5752L157.232 8.69824C157.089 9.76465 156.634 10.6157 155.869 11.2515C155.103 11.8872 154.132 12.2051 152.957 12.2051C151.405 12.2051 150.219 11.7163 149.398 10.7388C148.585 9.75439 148.178 8.32227 148.178 6.44238C148.178 4.57617 148.588 3.1543 149.409 2.17676C150.229 1.19238 151.405 0.700195 152.936 0.700195C154.071 0.700195 155.011 0.994141 155.756 1.58203C156.508 2.16992 156.979 2.97998 157.171 4.01221L155.274 4.15576C155.178 3.54053 154.936 3.05176 154.546 2.68945C154.156 2.32715 153.603 2.146 152.885 2.146C151.907 2.146 151.2 2.4707 150.762 3.12012C150.325 3.76953 150.106 4.86328 150.106 6.40137ZM158.145 0.905273H167.045V2.24854H163.518V12H161.672V2.24854H158.145V0.905273ZM173.188 0.905273C174.555 0.905273 175.58 1.14453 176.264 1.62305C176.947 2.10156 177.289 2.78857 177.289 3.68408C177.289 4.31982 177.094 4.84961 176.705 5.27344C176.315 5.69727 175.748 5.98096 175.002 6.12451V6.19629C175.884 6.3125 176.544 6.59277 176.981 7.03711C177.426 7.48145 177.648 8.06934 177.648 8.80078C177.648 9.80566 177.272 10.5918 176.52 11.1592C175.775 11.7197 174.743 12 173.423 12H168.86V0.905273H173.188ZM170.706 10.6362H173.126C174.069 10.6362 174.732 10.4927 175.115 10.2056C175.498 9.91162 175.689 9.44678 175.689 8.81104C175.689 8.12061 175.484 7.63525 175.074 7.35498C174.671 7.06787 173.98 6.92432 173.003 6.92432H170.706V10.6362ZM170.706 2.31006V5.59131H172.921C173.796 5.59131 174.418 5.46826 174.787 5.22217C175.163 4.97607 175.351 4.54541 175.351 3.93018C175.351 3.36963 175.177 2.95947 174.828 2.69971C174.479 2.43994 173.892 2.31006 173.064 2.31006H170.706ZM189.112 6.44238C189.112 8.38379 188.685 9.82959 187.83 10.7798C186.976 11.73 185.735 12.2051 184.108 12.2051C182.488 12.2051 181.264 11.7129 180.437 10.7285C179.61 9.7373 179.196 8.30859 179.196 6.44238C179.196 2.61426 180.854 0.700195 184.169 0.700195C185.865 0.700195 187.112 1.16846 187.912 2.10498C188.712 3.03467 189.112 4.48047 189.112 6.44238ZM187.174 6.44238C187.174 4.91113 186.945 3.80029 186.487 3.10986C186.036 2.4126 185.273 2.06396 184.2 2.06396C183.12 2.06396 182.337 2.41943 181.852 3.13037C181.374 3.83447 181.134 4.93848 181.134 6.44238C181.134 7.90527 181.37 9.00586 181.842 9.74414C182.32 10.4756 183.069 10.8413 184.087 10.8413C185.195 10.8413 185.984 10.4858 186.456 9.7749C186.935 9.06396 187.174 7.95312 187.174 6.44238ZM201.632 0.905273C202.999 0.905273 204.024 1.14453 204.708 1.62305C205.392 2.10156 205.733 2.78857 205.733 3.68408C205.733 4.31982 205.539 4.84961 205.149 5.27344C204.759 5.69727 204.192 5.98096 203.447 6.12451V6.19629C204.329 6.3125 204.988 6.59277 205.426 7.03711C205.87 7.48145 206.092 8.06934 206.092 8.80078C206.092 9.80566 205.716 10.5918 204.964 11.1592C204.219 11.7197 203.187 12 201.868 12H197.305V0.905273H201.632ZM199.15 10.6362H201.57C202.514 10.6362 203.177 10.4927 203.56 10.2056C203.942 9.91162 204.134 9.44678 204.134 8.81104C204.134 8.12061 203.929 7.63525 203.519 7.35498C203.115 7.06787 202.425 6.92432 201.447 6.92432H199.15V10.6362ZM199.15 2.31006V5.59131H201.365C202.24 5.59131 202.862 5.46826 203.231 5.22217C203.607 4.97607 203.795 4.54541 203.795 3.93018C203.795 3.36963 203.621 2.95947 203.272 2.69971C202.924 2.43994 202.336 2.31006 201.509 2.31006H199.15ZM217.556 6.44238C217.556 8.38379 217.129 9.82959 216.274 10.7798C215.42 11.73 214.179 12.2051 212.552 12.2051C210.932 12.2051 209.708 11.7129 208.881 10.7285C208.054 9.7373 207.641 8.30859 207.641 6.44238C207.641 2.61426 209.298 0.700195 212.614 0.700195C214.309 0.700195 215.557 1.16846 216.356 2.10498C217.156 3.03467 217.556 4.48047 217.556 6.44238ZM215.618 6.44238C215.618 4.91113 215.389 3.80029 214.931 3.10986C214.48 2.4126 213.718 2.06396 212.645 2.06396C211.564 2.06396 210.782 2.41943 210.296 3.13037C209.818 3.83447 209.579 4.93848 209.579 6.44238C209.579 7.90527 209.814 9.00586 210.286 9.74414C210.765 10.4756 211.513 10.8413 212.532 10.8413C213.639 10.8413 214.429 10.4858 214.9 9.7749C215.379 9.06396 215.618 7.95312 215.618 6.44238ZM228.364 0.905273V12H226.518V2.24854H221.75V12H219.904V0.905273H228.364ZM240.627 6.40137C240.627 10.2705 239.267 12.2051 236.546 12.2051C234.837 12.2051 233.689 11.5625 233.101 10.2773H233.05C233.077 10.332 233.091 10.9131 233.091 12.0205V16.3579H231.245V3.17139C231.245 2.02979 231.225 1.27441 231.184 0.905273H232.968C232.975 0.932617 232.985 1.03174 232.999 1.20264C233.012 1.3667 233.026 1.62305 233.04 1.97168C233.06 2.32031 233.07 2.55957 233.07 2.68945H233.111C233.439 2.00586 233.874 1.50684 234.414 1.19238C234.954 0.871094 235.665 0.710449 236.546 0.710449C237.914 0.710449 238.936 1.16846 239.612 2.08447C240.289 3.00049 240.627 4.43945 240.627 6.40137ZM238.689 6.44238C238.689 4.89746 238.481 3.79346 238.064 3.13037C237.647 2.46729 236.984 2.13574 236.075 2.13574C235.343 2.13574 234.769 2.28955 234.352 2.59717C233.942 2.90479 233.627 3.38672 233.409 4.04297C233.197 4.69238 233.091 5.54004 233.091 6.58594C233.091 8.04199 233.323 9.11523 233.788 9.80566C234.253 10.4961 235.008 10.8413 236.054 10.8413C236.97 10.8413 237.637 10.5063 238.054 9.83643C238.478 9.15967 238.689 8.02832 238.689 6.44238ZM252.317 6.44238C252.317 8.38379 251.89 9.82959 251.035 10.7798C250.181 11.73 248.94 12.2051 247.313 12.2051C245.693 12.2051 244.469 11.7129 243.642 10.7285C242.815 9.7373 242.401 8.30859 242.401 6.44238C242.401 2.61426 244.059 0.700195 247.375 0.700195C249.07 0.700195 250.317 1.16846 251.117 2.10498C251.917 3.03467 252.317 4.48047 252.317 6.44238ZM250.379 6.44238C250.379 4.91113 250.15 3.80029 249.692 3.10986C249.241 2.4126 248.479 2.06396 247.405 2.06396C246.325 2.06396 245.542 2.41943 245.057 3.13037C244.579 3.83447 244.339 4.93848 244.339 6.44238C244.339 7.90527 244.575 9.00586 245.047 9.74414C245.525 10.4756 246.274 10.8413 247.292 10.8413C248.4 10.8413 249.189 10.4858 249.661 9.7749C250.14 9.06396 250.379 7.95312 250.379 6.44238ZM256.029 6.40137C256.029 7.87793 256.261 8.97168 256.726 9.68262C257.191 10.3936 257.892 10.749 258.828 10.749C259.484 10.749 260.031 10.5713 260.469 10.2158C260.913 9.86035 261.187 9.31348 261.289 8.5752L263.155 8.69824C263.012 9.76465 262.557 10.6157 261.792 11.2515C261.026 11.8872 260.055 12.2051 258.879 12.2051C257.328 12.2051 256.142 11.7163 255.321 10.7388C254.508 9.75439 254.101 8.32227 254.101 6.44238C254.101 4.57617 254.511 3.1543 255.332 2.17676C256.152 1.19238 257.328 0.700195 258.859 0.700195C259.994 0.700195 260.934 0.994141 261.679 1.58203C262.431 2.16992 262.902 2.97998 263.094 4.01221L261.197 4.15576C261.101 3.54053 260.858 3.05176 260.469 2.68945C260.079 2.32715 259.525 2.146 258.808 2.146C257.83 2.146 257.123 2.4707 256.685 3.12012C256.248 3.76953 256.029 4.86328 256.029 6.40137ZM274.752 6.44238C274.752 8.38379 274.325 9.82959 273.471 10.7798C272.616 11.73 271.375 12.2051 269.749 12.2051C268.128 12.2051 266.905 11.7129 266.078 10.7285C265.25 9.7373 264.837 8.30859 264.837 6.44238C264.837 2.61426 266.495 0.700195 269.81 0.700195C271.505 0.700195 272.753 1.16846 273.553 2.10498C274.353 3.03467 274.752 4.48047 274.752 6.44238ZM272.814 6.44238C272.814 4.91113 272.585 3.80029 272.127 3.10986C271.676 2.4126 270.914 2.06396 269.841 2.06396C268.761 2.06396 267.978 2.41943 267.493 3.13037C267.014 3.83447 266.775 4.93848 266.775 6.44238C266.775 7.90527 267.011 9.00586 267.482 9.74414C267.961 10.4756 268.709 10.8413 269.728 10.8413C270.835 10.8413 271.625 10.4858 272.097 9.7749C272.575 9.06396 272.814 7.95312 272.814 6.44238ZM281.428 0.905273C282.795 0.905273 283.82 1.14453 284.504 1.62305C285.188 2.10156 285.529 2.78857 285.529 3.68408C285.529 4.31982 285.334 4.84961 284.945 5.27344C284.555 5.69727 283.988 5.98096 283.243 6.12451V6.19629C284.125 6.3125 284.784 6.59277 285.222 7.03711C285.666 7.48145 285.888 8.06934 285.888 8.80078C285.888 9.80566 285.512 10.5918 284.76 11.1592C284.015 11.7197 282.983 12 281.664 12H277.101V0.905273H281.428ZM278.946 10.6362H281.366C282.31 10.6362 282.973 10.4927 283.355 10.2056C283.738 9.91162 283.93 9.44678 283.93 8.81104C283.93 8.12061 283.725 7.63525 283.314 7.35498C282.911 7.06787 282.221 6.92432 281.243 6.92432H278.946V10.6362ZM278.946 2.31006V5.59131H281.161C282.036 5.59131 282.658 5.46826 283.027 5.22217C283.403 4.97607 283.591 4.54541 283.591 3.93018C283.591 3.36963 283.417 2.95947 283.068 2.69971C282.72 2.43994 282.132 2.31006 281.305 2.31006H278.946Z" fill="black"/>
<path d="M0.415039 145.905H2.26074V150.766C2.46582 150.766 2.65039 150.738 2.81445 150.684C2.97852 150.629 3.14941 150.516 3.32715 150.345C3.50488 150.167 3.70654 149.921 3.93213 149.607C4.15771 149.292 4.93701 148.059 6.27002 145.905H8.19775L5.98291 149.238C5.34717 150.167 4.90967 150.731 4.67041 150.93L8.29004 157H6.23926L3.38867 151.904C3.25879 151.958 3.08105 152.006 2.85547 152.047C2.63672 152.088 2.43848 152.109 2.26074 152.109V157H0.415039V145.905ZM11.2637 151.842C11.2637 153.114 11.5269 154.095 12.0532 154.785C12.5796 155.476 13.3486 155.821 14.3604 155.821C15.1602 155.821 15.7993 155.66 16.2778 155.339C16.7632 155.018 17.0913 154.611 17.2622 154.119L18.8823 154.58C18.2192 156.33 16.7119 157.205 14.3604 157.205C12.7197 157.205 11.4688 156.716 10.6074 155.739C9.75293 154.761 9.32568 153.309 9.32568 151.381C9.32568 149.549 9.75293 148.144 10.6074 147.167C11.4688 146.189 12.6958 145.7 14.2886 145.7C17.5493 145.7 19.1797 147.666 19.1797 151.596V151.842H11.2637ZM17.2725 150.427C17.1699 149.258 16.8726 148.407 16.3804 147.874C15.8882 147.334 15.1807 147.064 14.2578 147.064C13.3623 147.064 12.6514 147.365 12.125 147.966C11.6055 148.561 11.3252 149.381 11.2842 150.427H17.2725ZM23.3633 145.905V151.976L23.2607 154.816L28.3774 145.905H30.3975V157H28.6338V150.232C28.6338 149.986 28.644 149.614 28.6646 149.115C28.6919 148.616 28.7158 148.26 28.7363 148.048L23.5479 157H21.5791V145.905H23.3633ZM26.0088 144.695C23.5752 144.695 22.3208 143.602 22.2456 141.414H23.9272C24.0093 142.774 24.7031 143.455 26.0088 143.455C27.3145 143.455 28.0083 142.774 28.0903 141.414H29.772C29.6968 143.602 28.4424 144.695 26.0088 144.695ZM34.6733 151.401C34.6733 152.878 34.9058 153.972 35.3706 154.683C35.8354 155.394 36.5361 155.749 37.4727 155.749C38.1289 155.749 38.6758 155.571 39.1133 155.216C39.5576 154.86 39.8311 154.313 39.9336 153.575L41.7998 153.698C41.6562 154.765 41.2017 155.616 40.436 156.251C39.6704 156.887 38.6997 157.205 37.5239 157.205C35.9722 157.205 34.7861 156.716 33.9658 155.739C33.1523 154.754 32.7456 153.322 32.7456 151.442C32.7456 149.576 33.1558 148.154 33.9761 147.177C34.7964 146.192 35.9722 145.7 37.5034 145.7C38.6382 145.7 39.5781 145.994 40.3232 146.582C41.0752 147.17 41.5469 147.98 41.7383 149.012L39.8413 149.156C39.7456 148.541 39.5029 148.052 39.1133 147.689C38.7236 147.327 38.1699 147.146 37.4521 147.146C36.4746 147.146 35.7671 147.471 35.3296 148.12C34.8921 148.77 34.6733 149.863 34.6733 151.401ZM49.7979 157V155.431H53.479V144.316L50.2183 146.644V144.9L53.6328 142.552H55.335V155.431H58.8521V157H49.7979Z" fill="black"/>
<path d="M0.415039 68.9053H2.26074V73.7656C2.46582 73.7656 2.65039 73.7383 2.81445 73.6836C2.97852 73.6289 3.14941 73.5161 3.32715 73.3452C3.50488 73.1675 3.70654 72.9214 3.93213 72.6069C4.15771 72.2925 4.93701 71.0586 6.27002 68.9053H8.19775L5.98291 72.2378C5.34717 73.1675 4.90967 73.7314 4.67041 73.9297L8.29004 80H6.23926L3.38867 74.9038C3.25879 74.9585 3.08105 75.0063 2.85547 75.0474C2.63672 75.0884 2.43848 75.1089 2.26074 75.1089V80H0.415039V68.9053ZM11.2637 74.8423C11.2637 76.1138 11.5269 77.0947 12.0532 77.7852C12.5796 78.4756 13.3486 78.8208 14.3604 78.8208C15.1602 78.8208 15.7993 78.6602 16.2778 78.3389C16.7632 78.0176 17.0913 77.6108 17.2622 77.1187L18.8823 77.5801C18.2192 79.3301 16.7119 80.2051 14.3604 80.2051C12.7197 80.2051 11.4688 79.7163 10.6074 78.7388C9.75293 77.7612 9.32568 76.3086 9.32568 74.3809C9.32568 72.5488 9.75293 71.144 10.6074 70.1665C11.4688 69.189 12.6958 68.7002 14.2886 68.7002C17.5493 68.7002 19.1797 70.6655 19.1797 74.5962V74.8423H11.2637ZM17.2725 73.4272C17.1699 72.2583 16.8726 71.4072 16.3804 70.874C15.8882 70.334 15.1807 70.064 14.2578 70.064C13.3623 70.064 12.6514 70.3647 12.125 70.9663C11.6055 71.561 11.3252 72.3813 11.2842 73.4272H17.2725ZM23.3633 68.9053V74.9756L23.2607 77.8159L28.3774 68.9053H30.3975V80H28.6338V73.2324C28.6338 72.9863 28.644 72.6138 28.6646 72.1147C28.6919 71.6157 28.7158 71.2603 28.7363 71.0483L23.5479 80H21.5791V68.9053H23.3633ZM26.0088 67.6953C23.5752 67.6953 22.3208 66.6016 22.2456 64.4141H23.9272C24.0093 65.7744 24.7031 66.4546 26.0088 66.4546C27.3145 66.4546 28.0083 65.7744 28.0903 64.4141H29.772C29.6968 66.6016 28.4424 67.6953 26.0088 67.6953ZM34.6733 74.4014C34.6733 75.8779 34.9058 76.9717 35.3706 77.6826C35.8354 78.3936 36.5361 78.749 37.4727 78.749C38.1289 78.749 38.6758 78.5713 39.1133 78.2158C39.5576 77.8604 39.8311 77.3135 39.9336 76.5752L41.7998 76.6982C41.6562 77.7646 41.2017 78.6157 40.436 79.2515C39.6704 79.8872 38.6997 80.2051 37.5239 80.2051C35.9722 80.2051 34.7861 79.7163 33.9658 78.7388C33.1523 77.7544 32.7456 76.3223 32.7456 74.4424C32.7456 72.5762 33.1558 71.1543 33.9761 70.1768C34.7964 69.1924 35.9722 68.7002 37.5034 68.7002C38.6382 68.7002 39.5781 68.9941 40.3232 69.582C41.0752 70.1699 41.5469 70.98 41.7383 72.0122L39.8413 72.1558C39.7456 71.5405 39.5029 71.0518 39.1133 70.6895C38.7236 70.3271 38.1699 70.146 37.4521 70.146C36.4746 70.146 35.7671 70.4707 35.3296 71.1201C34.8921 71.7695 34.6733 72.8633 34.6733 74.4014ZM49.2544 80V78.6978C49.603 77.8979 50.0269 77.1938 50.5259 76.5854C51.0317 75.9702 51.5615 75.4165 52.1152 74.9243C52.6689 74.4253 53.2158 73.9639 53.7559 73.54C54.3027 73.1162 54.7949 72.6924 55.2324 72.2686C55.6699 71.8447 56.022 71.4004 56.2886 70.9355C56.562 70.4707 56.6987 69.9443 56.6987 69.3564C56.6987 68.5635 56.4663 67.9482 56.0015 67.5107C55.5366 67.0732 54.8906 66.8545 54.0635 66.8545C53.2773 66.8545 52.6279 67.0698 52.1152 67.5005C51.6094 67.9243 51.312 68.5225 51.2231 69.2949L49.3364 69.1206C49.4731 67.9653 49.9619 67.0459 50.8027 66.3623C51.6504 65.6787 52.7373 65.3369 54.0635 65.3369C55.5195 65.3369 56.6372 65.6821 57.4165 66.3726C58.2026 67.0562 58.5957 68.0303 58.5957 69.2949C58.5957 69.8555 58.4658 70.4126 58.2061 70.9663C57.9531 71.52 57.5737 72.0737 57.0679 72.6274C56.562 73.1812 55.5947 74.0391 54.166 75.2012C53.3799 75.8438 52.7544 76.4248 52.2896 76.9443C51.8247 77.457 51.4897 77.9526 51.2847 78.4312H58.8213V80H49.2544Z" fill="black"/>
<rect x="80.5" y="123.5" width="576" height="16" fill="#07AD54"/>
<rect x="80.5" y="123.5" width="576" height="16" fill="url(#paint0_linear)"/>
<rect x="80.5" y="123.5" width="576" height="16" stroke="#06803E"/>
<rect x="80.5" y="140.5" width="96" height="16" fill="#FF0606" stroke="#FF0606"/>
<rect x="80" y="157" width="49" height="17" fill="#67687C"/>
<rect x="80.5" y="48.5" width="480" height="16" fill="#07AD54"/>
<rect x="80.5" y="48.5" width="480" height="16" fill="url(#paint1_linear)"/>
<rect x="80.5" y="48.5" width="480" height="16" stroke="#06803E"/>
<rect x="80" y="82" width="192" height="17" fill="#67687C"/>
<defs>
<linearGradient id="paint0_linear" x1="368.5" y1="123" x2="368.5" y2="140" gradientUnits="userSpaceOnUse">
<stop stop-color="#179B15" stop-opacity="0.31"/>
<stop offset="1" stop-color="white" stop-opacity="0"/>
</linearGradient>
<linearGradient id="paint1_linear" x1="320.5" y1="48" x2="320.5" y2="65" gradientUnits="userSpaceOnUse">
<stop stop-color="#179B15" stop-opacity="0.31"/>
<stop offset="1" stop-color="white" stop-opacity="0"/>
</linearGradient>
</defs>
</svg>
