<svg width="15" height="15" viewBox="0 0 15 15" fill="none" xmlns="http://www.w3.org/2000/svg" style="transform: rotate(180deg);">
    <g clip-path="url(#clip0)">
        <path d="M0.597275 6.32335L6.80338 2.35819C7.01574 2.22245 7.25792 2.15463 7.49993 2.15463C7.74191 2.15463 7.98412 2.22242 8.19648 2.35819L14.4026 6.32335C15.0046 6.70801 15.1811 7.50809 14.7962 8.11013C14.4117 8.71233 13.6115 8.88827 13.0095 8.50378L7.49996 4.98383L1.99057 8.50392C1.3887 8.88844 0.588453 8.71233 0.20379 8.11027C-0.18107 7.50809 -0.00476291 6.70818 0.597275 6.32335Z" fill="#1956D7"/>
        <path d="M0.597554 10.461L6.80366 6.4959C7.01602 6.36015 7.2582 6.29233 7.50021 6.29233C7.74219 6.29233 7.9844 6.36012 8.19676 6.4959L14.4029 10.461C15.0049 10.8457 15.1814 11.6458 14.7965 12.2478C14.4117 12.85 13.6118 13.0259 13.0097 12.6415L7.50024 9.12137L1.99085 12.6416C1.38898 13.0261 0.588732 12.85 0.204069 12.248C-0.180594 11.6459 -0.00448407 10.8459 0.597554 10.461Z" fill="#1956D7"/>
    </g>
    <defs>
    <clipPath id="clip0">
        <rect width="15" height="15" fill="white" transform="matrix(1 0 0 -1 0 15);"/>
    </clipPath>
    </defs>
</svg>
