<svg width="79" height="61" viewBox="0 0 79 61" fill="none" xmlns="http://www.w3.org/2000/svg">
<path d="M64.3657 31.9296C63.1747 31.1301 61.5235 31.3973 60.68 32.526C52.2703 43.7777 35.8102 46.4754 23.9879 38.5398C18.8626 35.0995 15.3111 30.167 13.7769 24.5469L15.8492 25.9379C17.0401 26.7373 18.6914 26.4702 19.5349 25.3415C20.3785 24.2128 20.0965 22.648 18.9056 21.8486L11.8234 17.0947C11.804 17.0817 11.7829 17.0752 11.7646 17.0629C11.6811 17.0099 11.5925 16.9659 11.5021 16.9221C11.4356 16.8897 11.3714 16.8543 11.3021 16.8277C11.2195 16.7953 11.131 16.7727 11.0441 16.7482C10.9633 16.7262 10.8837 16.7004 10.8013 16.685C10.7229 16.6707 10.6423 16.6658 10.5622 16.6581C10.4667 16.6493 10.3731 16.6401 10.2774 16.6404C10.2528 16.6407 10.2299 16.6346 10.2045 16.636C10.148 16.6379 10.0955 16.6518 10.0396 16.6573C9.94723 16.6659 9.85491 16.6746 9.76339 16.693C9.67817 16.7095 9.59789 16.7323 9.51685 16.7562C9.43581 16.7801 9.35585 16.8048 9.27683 16.8346C9.19629 16.8665 9.1196 16.9041 9.044 16.9424C8.96916 16.9797 8.89572 17.0194 8.82506 17.0641C8.75287 17.1108 8.68608 17.1612 8.61884 17.2143C8.55497 17.2651 8.49002 17.3151 8.43109 17.3723C8.3639 17.4362 8.30425 17.5051 8.24384 17.5751C8.20928 17.6149 8.169 17.6493 8.13691 17.6922L3.09996 24.4314C2.25639 25.56 2.53834 27.1249 3.72931 27.9243C4.92027 28.7237 6.57149 28.4565 7.41506 27.3279L8.62998 25.7024C10.4559 32.4993 14.7361 38.4705 20.9315 42.6291C35.1335 52.1621 54.9005 48.9285 64.995 35.4225C65.8386 34.2938 65.5567 32.729 64.3657 31.9296Z" fill="#324979"/>
<path d="M13.5232 31.3035C14.6781 30.4901 16.3684 30.79 17.2961 31.9729C26.5449 43.7661 43.3967 46.7909 54.8613 38.7161C59.8315 35.2154 63.1107 30.1446 64.3014 24.3324L62.2918 25.7478C61.1368 26.5613 59.4465 26.2614 58.5188 25.0784C57.5911 23.8955 57.7755 22.2752 58.9304 21.4617L65.7983 16.6245C65.8171 16.6112 65.8381 16.6048 65.8559 16.5923C65.9371 16.5384 66.0239 16.4939 66.1127 16.4497C66.178 16.417 66.2408 16.3811 66.3092 16.3545C66.3909 16.3219 66.479 16.2997 66.5655 16.2754C66.6459 16.2537 66.7249 16.228 66.8074 16.2132C66.886 16.1994 66.9672 16.1954 67.0479 16.1885C67.1441 16.1807 67.2383 16.1725 67.3353 16.174C67.3603 16.1747 67.3831 16.1686 67.4089 16.1704C67.4663 16.1733 67.5204 16.1884 67.5774 16.1948C67.6715 16.2051 67.7656 16.2153 67.8595 16.2356C67.9469 16.2539 68.0297 16.2788 68.1134 16.3047C68.1971 16.3306 68.2797 16.3572 68.3617 16.3893C68.4453 16.4235 68.5255 16.4636 68.6045 16.5043C68.6828 16.544 68.7598 16.5863 68.8342 16.6336C68.9104 16.6831 68.9813 16.7363 69.0529 16.7924C69.1209 16.8459 69.1899 16.8988 69.2533 16.9589C69.3256 17.0261 69.3905 17.0985 69.4562 17.172C69.4938 17.2137 69.5368 17.25 69.5721 17.295L75.1116 24.3584C76.0393 25.5414 75.855 27.1617 74.7 27.9751C73.5451 28.7886 71.8548 28.4887 70.9271 27.3057L69.5909 25.602C68.1808 32.6316 64.2306 38.7706 58.2226 43.0022C44.4502 52.7024 24.2133 49.0761 13.1116 34.9202C12.1839 33.7373 12.3683 32.117 13.5232 31.3035Z" fill="#324979"/>
</svg>
