<svg width="28" height="28" viewBox="0 0 28 28" fill="none" xmlns="http://www.w3.org/2000/svg">
<path d="M27.4167 27.5491H0.583333C0.261333 27.5491 0 27.2878 0 26.9658C0 26.6438 0.261333 26.3824 0.583333 26.3824H27.4167C27.7387 26.3824 28 26.6438 28 26.9658C28 27.2878 27.7387 27.5491 27.4167 27.5491Z" fill="#07AD54"/>
<path d="M27.4167 27.5491H0.583333C0.261333 27.5491 0 27.2878 0 26.9658C0 26.6438 0.261333 26.3824 0.583333 26.3824H27.4167C27.7387 26.3824 28 26.6438 28 26.9658C28 27.2878 27.7387 27.5491 27.4167 27.5491Z" fill="url(#paint0_linear)"/>
<path d="M7.58332 27.5491H1.74999C1.42799 27.5491 1.16666 27.2878 1.16666 26.9658V20.5491C1.16666 19.9063 1.69049 19.3824 2.33332 19.3824H6.99999C7.64282 19.3824 8.16666 19.9063 8.16666 20.5491V26.9658C8.16666 27.2878 7.90532 27.5491 7.58332 27.5491ZM2.33332 26.3825H6.99999V20.5491H2.33332V26.3825Z" fill="#07AD54"/>
<path d="M7.58332 27.5491H1.74999C1.42799 27.5491 1.16666 27.2878 1.16666 26.9658V20.5491C1.16666 19.9063 1.69049 19.3824 2.33332 19.3824H6.99999C7.64282 19.3824 8.16666 19.9063 8.16666 20.5491V26.9658C8.16666 27.2878 7.90532 27.5491 7.58332 27.5491ZM2.33332 26.3825H6.99999V20.5491H2.33332V26.3825Z" fill="url(#paint1_linear)"/>
<path d="M16.9167 27.5491H11.0833C10.7613 27.5491 10.5 27.2878 10.5 26.9658V13.5491C10.5 12.9063 11.0238 12.3824 11.6667 12.3824H16.3333C16.9762 12.3824 17.5 12.9063 17.5 13.5491V26.9658C17.5 27.2878 17.2387 27.5491 16.9167 27.5491ZM11.6667 26.3824H16.3333V13.5491H11.6667V26.3824Z" fill="#07AD54"/>
<path d="M16.9167 27.5491H11.0833C10.7613 27.5491 10.5 27.2878 10.5 26.9658V13.5491C10.5 12.9063 11.0238 12.3824 11.6667 12.3824H16.3333C16.9762 12.3824 17.5 12.9063 17.5 13.5491V26.9658C17.5 27.2878 17.2387 27.5491 16.9167 27.5491ZM11.6667 26.3824H16.3333V13.5491H11.6667V26.3824Z" fill="url(#paint2_linear)"/>
<path d="M26.25 27.5491H20.4167C20.0947 27.5491 19.8333 27.2878 19.8333 26.9658V6.54911C19.8333 5.90628 20.3572 5.38245 21 5.38245H25.6667C26.3095 5.38245 26.8333 5.90628 26.8333 6.54911V26.9658C26.8333 27.2878 26.572 27.5491 26.25 27.5491ZM21 26.3825H25.6667V6.54911H21V26.3825Z" fill="#07AD54"/>
<path d="M26.25 27.5491H20.4167C20.0947 27.5491 19.8333 27.2878 19.8333 26.9658V6.54911C19.8333 5.90628 20.3572 5.38245 21 5.38245H25.6667C26.3095 5.38245 26.8333 5.90628 26.8333 6.54911V26.9658C26.8333 27.2878 26.572 27.5491 26.25 27.5491ZM21 26.3825H25.6667V6.54911H21V26.3825Z" fill="url(#paint3_linear)"/>
<path d="M2.91666 12.3823C2.76733 12.3823 2.618 12.3252 2.50366 12.212C2.27616 11.9845 2.27616 11.6147 2.50366 11.3872L13.0037 0.887178C13.2312 0.659678 13.601 0.659678 13.8285 0.887178C14.056 1.11468 14.056 1.48451 13.8285 1.71201L3.3285 12.212C3.21533 12.3252 3.066 12.3823 2.91666 12.3823Z" fill="#07AD54"/>
<path d="M2.91666 12.3823C2.76733 12.3823 2.618 12.3252 2.50366 12.212C2.27616 11.9845 2.27616 11.6147 2.50366 11.3872L13.0037 0.887178C13.2312 0.659678 13.601 0.659678 13.8285 0.887178C14.056 1.11468 14.056 1.48451 13.8285 1.71201L3.3285 12.212C3.21533 12.3252 3.066 12.3823 2.91666 12.3823Z" fill="url(#paint4_linear)"/>
<path d="M13.4167 6.54904C13.0947 6.54904 12.8333 6.2877 12.8333 5.9657V1.88237H8.75001C8.42801 1.88237 8.16667 1.62103 8.16667 1.29903C8.16667 0.977032 8.42801 0.715698 8.75001 0.715698H13.4167C13.7387 0.715698 14 0.977032 14 1.29903V5.9657C14 6.2877 13.7387 6.54904 13.4167 6.54904Z" fill="#07AD54"/>
<path d="M13.4167 6.54904C13.0947 6.54904 12.8333 6.2877 12.8333 5.9657V1.88237H8.75001C8.42801 1.88237 8.16667 1.62103 8.16667 1.29903C8.16667 0.977032 8.42801 0.715698 8.75001 0.715698H13.4167C13.7387 0.715698 14 0.977032 14 1.29903V5.9657C14 6.2877 13.7387 6.54904 13.4167 6.54904Z" fill="url(#paint5_linear)"/>
<defs>
<linearGradient id="paint0_linear" x1="14" y1="26.3824" x2="14" y2="27.5491" gradientUnits="userSpaceOnUse">
<stop stop-color="#179B15" stop-opacity="0.31"/>
<stop offset="1" stop-color="white" stop-opacity="0"/>
</linearGradient>
<linearGradient id="paint1_linear" x1="4.66666" y1="19.3824" x2="4.66666" y2="27.5491" gradientUnits="userSpaceOnUse">
<stop stop-color="#179B15" stop-opacity="0.31"/>
<stop offset="1" stop-color="white" stop-opacity="0"/>
</linearGradient>
<linearGradient id="paint2_linear" x1="14" y1="12.3824" x2="14" y2="27.5491" gradientUnits="userSpaceOnUse">
<stop stop-color="#179B15" stop-opacity="0.31"/>
<stop offset="1" stop-color="white" stop-opacity="0"/>
</linearGradient>
<linearGradient id="paint3_linear" x1="23.3333" y1="5.38245" x2="23.3333" y2="27.5491" gradientUnits="userSpaceOnUse">
<stop stop-color="#179B15" stop-opacity="0.31"/>
<stop offset="1" stop-color="white" stop-opacity="0"/>
</linearGradient>
<linearGradient id="paint4_linear" x1="8.16608" y1="0.716553" x2="8.16608" y2="12.3823" gradientUnits="userSpaceOnUse">
<stop stop-color="#179B15" stop-opacity="0.31"/>
<stop offset="1" stop-color="white" stop-opacity="0"/>
</linearGradient>
<linearGradient id="paint5_linear" x1="11.0833" y1="0.715698" x2="11.0833" y2="6.54904" gradientUnits="userSpaceOnUse">
<stop stop-color="#179B15" stop-opacity="0.31"/>
<stop offset="1" stop-color="white" stop-opacity="0"/>
</linearGradient>
</defs>
</svg>
