<svg width="292" height="87" viewBox="0 0 292 87" fill="none" xmlns="http://www.w3.org/2000/svg">
<g filter="url(#filter0_d)">
<rect x="3" y="1" width="277" height="81" rx="10" fill="#324979"/>
<rect x="3" y="1" width="277" height="81" rx="10" fill="url(#paint0_linear)"/>
</g>
<path d="M58.3555 35.6699C58.3555 36.5 58.1357 37.2528 57.6963 37.9282C57.265 38.5955 56.6587 39.1123 55.8774 39.4785C56.9517 39.7552 57.7777 40.2679 58.3555 41.0166C58.9333 41.7653 59.2222 42.693 59.2222 43.7998C59.2222 44.8903 58.9699 45.8262 58.4653 46.6074C57.9689 47.3805 57.2487 47.9746 56.3047 48.3896C55.3607 48.7965 54.2376 49 52.9355 49H45.9531V31.1045H52.5571C53.8429 31.1045 54.9172 31.2957 55.7798 31.6782C56.6506 32.0607 57.2975 32.5938 57.7207 33.2773C58.1439 33.9609 58.3555 34.7585 58.3555 35.6699ZM55.9751 35.731C55.9751 34.9334 55.6659 34.319 55.0474 33.8877C54.4289 33.4482 53.4238 33.2285 52.0322 33.2285H48.3213V38.5996H52.3252C53.5459 38.5996 54.4574 38.3799 55.0596 37.9404C55.6699 37.501 55.9751 36.7645 55.9751 35.731ZM56.7808 43.7998C56.7808 42.7256 56.4105 41.9443 55.6699 41.4561C54.9375 40.9678 53.8348 40.7236 52.3618 40.7236H48.3213V46.876H52.667C54.0911 46.876 55.1328 46.6237 55.792 46.1191C56.4512 45.6064 56.7808 44.8333 56.7808 43.7998ZM61.2607 42.5303C61.2607 41.1224 61.513 39.9098 62.0176 38.8926C62.5221 37.8753 63.2301 37.0981 64.1416 36.561C65.0612 36.0239 66.1232 35.7554 67.3276 35.7554C68.5402 35.7554 69.6022 36.0158 70.5137 36.5366C71.4251 37.0575 72.1331 37.8265 72.6377 38.8438C73.1504 39.8529 73.4067 41.0736 73.4067 42.5059C73.4067 43.93 73.1504 45.1548 72.6377 46.1802C72.125 47.1974 71.4089 47.9746 70.4893 48.5117C69.5778 49.0407 68.5239 49.3052 67.3276 49.3052C66.1395 49.3052 65.0897 49.0488 64.1782 48.5361C63.2668 48.0153 62.5506 47.2463 62.0298 46.229C61.5171 45.2118 61.2607 43.9788 61.2607 42.5303ZM67.3154 37.562C66.583 37.562 65.9279 37.7533 65.3501 38.1357C64.7804 38.5101 64.3288 39.0716 63.9951 39.8203C63.6696 40.5609 63.5068 41.4642 63.5068 42.5303C63.5068 43.5964 63.6696 44.5037 63.9951 45.2524C64.3206 45.993 64.7682 46.5545 65.3379 46.937C65.9157 47.3114 66.5789 47.4985 67.3276 47.4985C68.1007 47.4985 68.7762 47.3032 69.354 46.9126C69.9318 46.522 70.3753 45.9523 70.6846 45.2036C71.002 44.4549 71.1606 43.5557 71.1606 42.5059C71.1606 41.4479 70.9979 40.5487 70.6724 39.8081C70.3468 39.0675 69.8952 38.5101 69.3174 38.1357C68.7396 37.7533 68.0723 37.562 67.3154 37.562ZM78.1919 36.0483V45.3867L84.2222 36.0483H86.5049V49H84.3076V39.6616L78.2773 49H75.9946V36.0483H78.1919ZM81.1948 32.7524C81.8621 32.7524 82.3626 32.61 82.6963 32.3252C83.0381 32.0322 83.27 31.5643 83.3921 30.9214H85.0767C84.9871 31.9142 84.5965 32.6914 83.9048 33.2529C83.2212 33.8145 82.3382 34.0952 81.2559 34.0952C80.2061 34.0952 79.3312 33.8267 78.6313 33.2896C77.9315 32.7524 77.5246 31.9631 77.4106 30.9214H79.0952C79.1766 31.4992 79.3923 31.9508 79.7422 32.2764C80.1003 32.5938 80.5845 32.7524 81.1948 32.7524ZM97.7354 37.855H94.293V49H92.0957V37.855H88.6533V36.0483H97.7354V37.855ZM102.069 36.0483V45.3867L108.099 36.0483H110.382V49H108.185V39.6616L102.154 49H99.8716V36.0483H102.069ZM130.011 39.5396C130.011 40.1174 129.856 40.6382 129.547 41.1021C129.246 41.5659 128.806 41.9443 128.229 42.2373C129.05 42.514 129.653 42.925 130.035 43.4702C130.426 44.0073 130.621 44.6421 130.621 45.3745C130.621 46.4731 130.218 47.3521 129.413 48.0112C128.615 48.6704 127.374 49 125.689 49H120.672V36.0483H125.384C127.036 36.0483 128.22 36.3494 128.937 36.9517C129.653 37.5539 130.011 38.4165 130.011 39.5396ZM122.87 47.2422H125.726C127.492 47.2422 128.375 46.5749 128.375 45.2402C128.375 44.5566 128.163 44.048 127.74 43.7144C127.317 43.3726 126.629 43.2017 125.677 43.2017H122.87V47.2422ZM127.801 39.6616C127.801 39.0757 127.602 38.62 127.203 38.2944C126.812 37.9689 126.206 37.8062 125.384 37.8062H122.87V41.5171H125.458C126.288 41.5171 126.886 41.3625 127.252 41.0532C127.618 40.7358 127.801 40.272 127.801 39.6616ZM145.794 37.562C144.517 37.562 143.532 37.9933 142.84 38.856C142.149 39.7186 141.803 40.9352 141.803 42.5059C141.803 43.4824 141.957 44.3491 142.267 45.106C142.576 45.8547 143.023 46.4406 143.609 46.8638C144.195 47.2869 144.883 47.4985 145.672 47.4985C146.608 47.4985 147.377 47.2096 147.979 46.6318C148.582 46.054 148.956 45.2606 149.103 44.2515L151.275 44.5811C151.137 45.5413 150.803 46.3796 150.274 47.0957C149.745 47.8037 149.074 48.349 148.26 48.7314C147.446 49.1139 146.555 49.3052 145.587 49.3052C144.391 49.3052 143.337 49.0326 142.425 48.4873C141.514 47.9339 140.806 47.1486 140.301 46.1313C139.805 45.1141 139.557 43.9178 139.557 42.5425C139.557 41.0939 139.805 39.861 140.301 38.8438C140.806 37.8265 141.518 37.0575 142.438 36.5366C143.357 36.0158 144.444 35.7554 145.697 35.7554C146.616 35.7554 147.455 35.9181 148.211 36.2437C148.968 36.561 149.591 37.029 150.079 37.6475C150.576 38.2578 150.901 38.9902 151.056 39.8447L148.932 40.1621C148.728 39.3402 148.35 38.7013 147.796 38.2456C147.243 37.7899 146.576 37.562 145.794 37.562ZM155.877 36.0483V45.3867L161.908 36.0483H164.19V49H161.993V39.6616L155.963 49H153.68V36.0483H155.877ZM173.016 37.562C171.738 37.562 170.754 37.9933 170.062 38.856C169.37 39.7186 169.024 40.9352 169.024 42.5059C169.024 43.4824 169.179 44.3491 169.488 45.106C169.798 45.8547 170.245 46.4406 170.831 46.8638C171.417 47.2869 172.105 47.4985 172.894 47.4985C173.83 47.4985 174.599 47.2096 175.201 46.6318C175.803 46.054 176.178 45.2606 176.324 44.2515L178.497 44.5811C178.359 45.5413 178.025 46.3796 177.496 47.0957C176.967 47.8037 176.296 48.349 175.482 48.7314C174.668 49.1139 173.777 49.3052 172.809 49.3052C171.612 49.3052 170.558 49.0326 169.647 48.4873C168.736 47.9339 168.028 47.1486 167.523 46.1313C167.027 45.1141 166.778 43.9178 166.778 42.5425C166.778 41.0939 167.027 39.861 167.523 38.8438C168.028 37.8265 168.74 37.0575 169.659 36.5366C170.579 36.0158 171.665 35.7554 172.918 35.7554C173.838 35.7554 174.676 35.9181 175.433 36.2437C176.19 36.561 176.812 37.029 177.301 37.6475C177.797 38.2578 178.123 38.9902 178.277 39.8447L176.153 40.1621C175.95 39.3402 175.571 38.7013 175.018 38.2456C174.465 37.7899 173.797 37.562 173.016 37.562ZM188.531 37.855H185.089V49H182.892V37.855H179.449V36.0483H188.531V37.855ZM196.051 47.4985C196.881 47.4985 197.597 47.2544 198.199 46.7661C198.81 46.2778 199.233 45.6309 199.469 44.8252L201.617 45.1548C201.251 46.465 200.563 47.4863 199.554 48.2188C198.553 48.943 197.349 49.3052 195.941 49.3052C194.704 49.3052 193.626 49.0326 192.706 48.4873C191.795 47.9421 191.091 47.1689 190.594 46.168C190.098 45.1589 189.85 43.9788 189.85 42.6279C189.85 41.2363 190.094 40.0238 190.582 38.9902C191.07 37.9567 191.77 37.1592 192.682 36.5977C193.601 36.0361 194.68 35.7554 195.917 35.7554C197.113 35.7554 198.154 36.0239 199.042 36.561C199.929 37.09 200.612 37.8713 201.092 38.9048C201.572 39.9383 201.812 41.1794 201.812 42.6279V43.0796H192.12C192.169 44.0073 192.36 44.8049 192.694 45.4722C193.028 46.1313 193.479 46.6359 194.049 46.9858C194.627 47.3276 195.294 47.4985 196.051 47.4985ZM195.892 37.5498C195.241 37.5498 194.655 37.7044 194.134 38.0137C193.613 38.3229 193.182 38.7583 192.84 39.3198C192.507 39.8813 192.291 40.5324 192.193 41.2729H199.493C199.363 40.0767 198.985 39.1571 198.358 38.5142C197.739 37.8713 196.917 37.5498 195.892 37.5498ZM210.931 45.7407L214.276 36.0483H217.486V49H215.362V38.7827L211.871 49H209.979L206.488 38.7827V49H204.364V36.0483H207.574L210.931 45.7407ZM224.664 43.519C224.916 44.2189 225.095 44.752 225.201 45.1182C225.315 45.4844 225.445 45.9604 225.592 46.5464H225.641C225.803 45.8221 225.93 45.3094 226.019 45.0083C226.117 44.6991 226.34 44.0643 226.69 43.104L229.266 36.0483H231.5L226.251 49.9644C225.828 51.0874 225.421 51.9541 225.03 52.5645C224.64 53.1829 224.221 53.6183 223.773 53.8706C223.325 54.1229 222.792 54.249 222.174 54.249C221.946 54.249 221.649 54.2205 221.283 54.1636C220.917 54.1147 220.603 54.0618 220.343 54.0049L220.794 52.1494C221.136 52.2796 221.466 52.3447 221.783 52.3447C222.255 52.3447 222.642 52.2267 222.943 51.9907C223.252 51.7547 223.5 51.4373 223.688 51.0386C223.883 50.6479 224.062 50.237 224.225 49.8057C224.387 49.3743 224.485 49.1139 224.518 49.0244L219.598 36.0483H221.966L224.664 43.519Z" fill="#EFF3FD"/>
<defs>
<filter id="filter0_d" x="0" y="0" width="283" height="87" filterUnits="userSpaceOnUse" color-interpolation-filters="sRGB">
<feFlood flood-opacity="0" result="BackgroundImageFix"/>
<feColorMatrix in="SourceAlpha" type="matrix" values="0 0 0 0 0 0 0 0 0 0 0 0 0 0 0 0 0 0 127 0"/>
<feMorphology radius="1" operator="dilate" in="SourceAlpha" result="effect1_dropShadow"/>
<feOffset dy="2"/>
<feGaussianBlur stdDeviation="1"/>
<feColorMatrix type="matrix" values="0 0 0 0 0 0 0 0 0 0 0 0 0 0 0 0 0 0 0.25 0"/>
<feBlend mode="normal" in2="BackgroundImageFix" result="effect1_dropShadow"/>
<feBlend mode="normal" in="SourceGraphic" in2="effect1_dropShadow" result="shape"/>
</filter>
<linearGradient id="paint0_linear" x1="141.5" y1="1" x2="142.075" y2="298.422" gradientUnits="userSpaceOnUse">
<stop stop-color="#1F4699"/>
<stop offset="1" stop-color="#2254BC" stop-opacity="0"/>
</linearGradient>
</defs>
</svg>
