<svg width="958" height="73" viewBox="0 0 958 73" fill="none" xmlns="http://www.w3.org/2000/svg">
<path d="M415.2 10.36H425.48C426.92 10.36 428.267 10.6933 429.52 11.36C430.8 12.0267 431.813 12.9467 432.56 14.12C433.307 15.2933 433.68 16.6133 433.68 18.08C433.68 19.4667 433.32 20.68 432.6 21.72C431.907 22.76 430.96 23.56 429.76 24.12V24.28C431.2 24.76 432.373 25.5867 433.28 26.76C434.187 27.9333 434.64 29.3067 434.64 30.88C434.64 32.4267 434.24 33.8267 433.44 35.08C432.667 36.3067 431.613 37.2667 430.28 37.96C428.973 38.6533 427.56 39 426.04 39H415.2V10.36ZM425.48 22.76C426.44 22.76 427.28 22.5333 428 22.08C428.747 21.6267 429.32 21.0533 429.72 20.36C430.12 19.64 430.32 18.9067 430.32 18.16C430.32 17.44 430.12 16.7333 429.72 16.04C429.347 15.32 428.8 14.7333 428.08 14.28C427.387 13.8267 426.573 13.6 425.64 13.6H418.56V22.76H425.48ZM426.24 35.76C427.2 35.76 428.053 35.52 428.8 35.04C429.573 34.56 430.16 33.9467 430.56 33.2C430.987 32.4267 431.2 31.64 431.2 30.84C431.2 30.04 430.987 29.2667 430.56 28.52C430.133 27.7467 429.533 27.1333 428.76 26.68C427.987 26.2 427.093 25.96 426.08 25.96H418.56V35.76H426.24ZM438.778 18.6H442.178V30.08L442.018 33.92H442.178L453.178 18.6H456.538V39H453.178V27.52L453.338 23.68H453.178L442.178 39H438.778V18.6ZM461.43 18.6H464.67V21.64H464.83C465.444 20.6 466.364 19.7333 467.59 19.04C468.844 18.32 470.244 17.96 471.79 17.96C473.604 17.96 475.257 18.4267 476.75 19.36C478.244 20.2933 479.417 21.5867 480.27 23.24C481.124 24.8933 481.55 26.7467 481.55 28.8C481.55 30.88 481.124 32.7467 480.27 34.4C479.417 36.0267 478.244 37.3067 476.75 38.24C475.257 39.1733 473.604 39.64 471.79 39.64C470.244 39.64 468.844 39.2933 467.59 38.6C466.364 37.88 465.444 37.0133 464.83 36H464.67L464.83 38.8V47.64H461.43V18.6ZM471.39 36.56C472.564 36.56 473.67 36.24 474.71 35.6C475.75 34.96 476.577 34.0533 477.19 32.88C477.83 31.68 478.15 30.32 478.15 28.8C478.15 27.28 477.83 25.9333 477.19 24.76C476.577 23.56 475.75 22.64 474.71 22C473.67 21.36 472.564 21.04 471.39 21.04C470.217 21.04 469.11 21.36 468.07 22C467.03 22.64 466.204 23.5467 465.59 24.72C464.977 25.8933 464.67 27.2533 464.67 28.8C464.67 30.3467 464.977 31.7067 465.59 32.88C466.204 34.0533 467.03 34.96 468.07 35.6C469.11 36.24 470.217 36.56 471.39 36.56ZM490.346 21.68H483.706V18.6H500.386V21.68H493.706V39H490.346V21.68ZM510.213 37.72L501.773 18.6H505.453L511.853 33.76H511.933L518.093 18.6H521.773L509.173 47.64H505.653L510.213 37.72ZM530.103 39.64C528.609 39.64 527.276 39.3467 526.103 38.76C524.929 38.1733 524.023 37.3733 523.383 36.36C522.743 35.32 522.423 34.1467 522.423 32.84C522.423 30.68 523.236 29 524.863 27.8C526.489 26.5733 528.543 25.96 531.023 25.96C532.249 25.96 533.383 26.0933 534.423 26.36C535.489 26.6267 536.303 26.9333 536.863 27.28V26.04C536.863 24.52 536.329 23.3067 535.263 22.4C534.196 21.4667 532.849 21 531.223 21C530.076 21 529.023 21.2533 528.063 21.76C527.103 22.24 526.343 22.92 525.783 23.8L523.223 21.88C524.023 20.6533 525.116 19.6933 526.503 19C527.916 18.3067 529.476 17.96 531.183 17.96C533.956 17.96 536.129 18.6933 537.703 20.16C539.303 21.6 540.103 23.5733 540.103 26.08V39H536.863V36.08H536.703C536.116 37.0667 535.236 37.9067 534.063 38.6C532.889 39.2933 531.569 39.64 530.103 39.64ZM530.423 36.64C531.569 36.64 532.636 36.3467 533.623 35.76C534.609 35.1733 535.396 34.3867 535.983 33.4C536.569 32.4133 536.863 31.3333 536.863 30.16C536.223 29.7333 535.436 29.3867 534.503 29.12C533.569 28.8533 532.583 28.72 531.543 28.72C529.676 28.72 528.263 29.1067 527.303 29.88C526.369 30.6533 525.903 31.6533 525.903 32.88C525.903 34 526.329 34.9067 527.183 35.6C528.036 36.2933 529.116 36.64 530.423 36.64ZM545.682 39.32C544.989 39.32 544.375 39.2133 543.842 39L543.882 35.96C544.309 36.0933 544.762 36.16 545.242 36.16C545.855 36.16 546.322 35.96 546.642 35.56C546.962 35.1333 547.175 34.4533 547.282 33.52C547.415 32.56 547.482 31.2267 547.482 29.52V18.6H564.322V39H560.962V21.68H550.802V30.6C550.802 33.7467 550.335 35.9867 549.402 37.32C548.469 38.6533 547.229 39.32 545.682 39.32ZM569.403 18.6H572.803V25.76H579.123C580.429 25.76 581.616 26.04 582.683 26.6C583.776 27.16 584.629 27.9467 585.243 28.96C585.856 29.9733 586.163 31.12 586.163 32.4C586.163 33.68 585.856 34.8267 585.243 35.84C584.629 36.8267 583.776 37.6 582.683 38.16C581.616 38.72 580.429 39 579.123 39H569.403V18.6ZM579.043 35.92C580.056 35.92 580.923 35.6 581.643 34.96C582.363 34.2933 582.723 33.44 582.723 32.4C582.723 31.36 582.363 30.5067 581.643 29.84C580.923 29.1733 580.056 28.84 579.043 28.84H572.803V35.92H579.043ZM589.793 18.6H593.193V27.16H604.313V18.6H607.673V39H604.313V30.32H593.193V39H589.793V18.6ZM612.723 18.6H616.123V25.76H622.443C623.75 25.76 624.936 26.04 626.003 26.6C627.096 27.16 627.95 27.9467 628.563 28.96C629.176 29.9733 629.483 31.12 629.483 32.4C629.483 33.68 629.176 34.8267 628.563 35.84C627.95 36.8267 627.096 37.6 626.003 38.16C624.936 38.72 623.75 39 622.443 39H612.723V18.6ZM632.643 18.6H636.003V39H632.643V18.6ZM622.363 35.92C623.376 35.92 624.243 35.6 624.963 34.96C625.683 34.2933 626.043 33.44 626.043 32.4C626.043 31.36 625.683 30.5067 624.963 29.84C624.243 29.1733 623.376 28.84 622.363 28.84H616.123V35.92H622.363ZM641.083 18.6H644.483V30.08L644.323 33.92H644.483L655.483 18.6H658.843V39H655.483V27.52L655.643 23.68H655.483L644.483 39H641.083V18.6ZM650.003 14.72C649.123 14.72 648.283 14.5067 647.483 14.08C646.709 13.6267 646.083 13.0267 645.603 12.28C645.123 11.5067 644.883 10.6533 644.883 9.72H647.643C647.643 10.3867 647.856 10.96 648.283 11.44C648.709 11.92 649.283 12.16 650.003 12.16C650.669 12.16 651.216 11.92 651.643 11.44C652.069 10.96 652.283 10.3867 652.283 9.72H655.003C655.003 10.6533 654.763 11.5067 654.283 12.28C653.829 13.0267 653.216 13.6267 652.443 14.08C651.669 14.5067 650.856 14.72 650.003 14.72ZM673.192 18.6H690.392V39H686.992V21.68H676.592V39H673.192V18.6ZM701.743 39.64C700.25 39.64 698.916 39.3467 697.743 38.76C696.57 38.1733 695.663 37.3733 695.023 36.36C694.383 35.32 694.063 34.1467 694.063 32.84C694.063 30.68 694.876 29 696.503 27.8C698.13 26.5733 700.183 25.96 702.663 25.96C703.89 25.96 705.023 26.0933 706.063 26.36C707.13 26.6267 707.943 26.9333 708.503 27.28V26.04C708.503 24.52 707.97 23.3067 706.903 22.4C705.836 21.4667 704.49 21 702.863 21C701.716 21 700.663 21.2533 699.703 21.76C698.743 22.24 697.983 22.92 697.423 23.8L694.863 21.88C695.663 20.6533 696.756 19.6933 698.143 19C699.556 18.3067 701.116 17.96 702.823 17.96C705.596 17.96 707.77 18.6933 709.343 20.16C710.943 21.6 711.743 23.5733 711.743 26.08V39H708.503V36.08H708.343C707.756 37.0667 706.876 37.9067 705.703 38.6C704.53 39.2933 703.21 39.64 701.743 39.64ZM702.063 36.64C703.21 36.64 704.276 36.3467 705.263 35.76C706.25 35.1733 707.036 34.3867 707.623 33.4C708.21 32.4133 708.503 31.3333 708.503 30.16C707.863 29.7333 707.076 29.3867 706.143 29.12C705.21 28.8533 704.223 28.72 703.183 28.72C701.316 28.72 699.903 29.1067 698.943 29.88C698.01 30.6533 697.543 31.6533 697.543 32.88C697.543 34 697.97 34.9067 698.823 35.6C699.676 36.2933 700.756 36.64 702.063 36.64ZM733.473 39H716.473V18.6H719.873V35.92H730.273V18.6H733.673V35.92H736.713V45.08H733.473V39ZM740.497 18.6H743.897V30.08L743.737 33.92H743.897L754.897 18.6H758.257V39H754.897V27.52L755.057 23.68H754.897L743.897 39H740.497V18.6ZM772.194 39.64C770.247 39.64 768.5 39.1733 766.954 38.24C765.407 37.3067 764.194 36.0267 763.314 34.4C762.46 32.7467 762.034 30.8933 762.034 28.84C762.034 26.8667 762.434 25.0533 763.234 23.4C764.06 21.7467 765.22 20.4267 766.714 19.44C768.207 18.4533 769.94 17.96 771.914 17.96C773.914 17.96 775.647 18.4133 777.114 19.32C778.58 20.2 779.7 21.4267 780.474 23C781.274 24.5733 781.674 26.3733 781.674 28.4C781.674 28.8 781.634 29.1467 781.554 29.44H765.434C765.514 30.9867 765.887 32.2933 766.554 33.36C767.22 34.4267 768.06 35.2267 769.074 35.76C770.114 36.2933 771.194 36.56 772.314 36.56C774.927 36.56 776.94 35.3333 778.354 32.88L781.234 34.28C780.354 35.9333 779.154 37.24 777.634 38.2C776.14 39.16 774.327 39.64 772.194 39.64ZM778.074 26.64C778.02 25.7867 777.78 24.9333 777.354 24.08C776.927 23.2267 776.247 22.5067 775.314 21.92C774.407 21.3333 773.26 21.04 771.874 21.04C770.274 21.04 768.914 21.56 767.794 22.6C766.7 23.6133 765.98 24.96 765.634 26.64H778.074ZM785.653 18.6H789.053V27.16H800.173V18.6H803.533V39H800.173V30.32H789.053V39H785.653V18.6ZM813.823 21.68H807.183V18.6H823.863V21.68H817.183V39H813.823V21.68Z" fill="#56CCF2"/>
<path d="M16.64 39.64C13.8667 39.64 11.3467 38.9867 9.08 37.68C6.81333 36.3733 5.02667 34.5867 3.72 32.32C2.44 30.0267 1.8 27.48 1.8 24.68C1.8 21.88 2.44 19.3467 3.72 17.08C5.02667 14.7867 6.81333 12.9867 9.08 11.68C11.3467 10.3733 13.8667 9.72 16.64 9.72C18.7733 9.72 20.72 10.1333 22.48 10.96C24.2667 11.76 25.8133 12.9067 27.12 14.4L24.68 16.76C23.5867 15.4533 22.3867 14.4933 21.08 13.88C19.8 13.2667 18.32 12.96 16.64 12.96C14.56 12.96 12.6533 13.4533 10.92 14.44C9.18667 15.4 7.8 16.7733 6.76 18.56C5.74667 20.32 5.24 22.36 5.24 24.68C5.24 27 5.74667 29.0533 6.76 30.84C7.8 32.6 9.18667 33.9733 10.92 34.96C12.6533 35.92 14.56 36.4 16.64 36.4C20.1067 36.4 23.0533 34.9733 25.48 32.12L27.96 34.52C26.6267 36.0933 24.9867 37.3467 23.04 38.28C21.0933 39.1867 18.96 39.64 16.64 39.64ZM31.7778 18.6H35.1778V30.08L35.0178 33.92H35.1778L46.1778 18.6H49.5378V39H46.1778V27.52L46.3378 23.68H46.1778L35.1778 39H31.7778V18.6ZM63.635 39.64C61.6617 39.64 59.8883 39.1733 58.315 38.24C56.7417 37.28 55.515 35.9867 54.635 34.36C53.755 32.7067 53.315 30.8533 53.315 28.8C53.315 26.7467 53.755 24.8933 54.635 23.24C55.515 21.5867 56.7417 20.2933 58.315 19.36C59.8883 18.4267 61.6617 17.96 63.635 17.96C65.8483 17.96 67.7017 18.48 69.195 19.52C70.715 20.5333 71.795 21.8933 72.435 23.6L69.355 24.88C68.8483 23.6267 68.0883 22.68 67.075 22.04C66.0883 21.3733 64.8883 21.04 63.475 21.04C62.275 21.04 61.155 21.3733 60.115 22.04C59.075 22.68 58.235 23.5867 57.595 24.76C56.9817 25.9333 56.675 27.28 56.675 28.8C56.675 30.32 56.9817 31.6667 57.595 32.84C58.235 34.0133 59.075 34.9333 60.115 35.6C61.155 36.24 62.275 36.56 63.475 36.56C64.915 36.56 66.155 36.2267 67.195 35.56C68.235 34.8933 69.0083 33.9467 69.515 32.72L72.555 34C71.8617 35.68 70.7417 37.04 69.195 38.08C67.675 39.12 65.8217 39.64 63.635 39.64ZM81.4709 21.68H74.8309V18.6H91.5109V21.68H84.8309V39H81.4709V21.68ZM103.788 39.64C101.841 39.64 100.094 39.1733 98.5475 38.24C97.0008 37.3067 95.7875 36.0267 94.9075 34.4C94.0542 32.7467 93.6275 30.8933 93.6275 28.84C93.6275 26.8667 94.0275 25.0533 94.8275 23.4C95.6542 21.7467 96.8142 20.4267 98.3075 19.44C99.8008 18.4533 101.534 17.96 103.508 17.96C105.508 17.96 107.241 18.4133 108.708 19.32C110.174 20.2 111.294 21.4267 112.068 23C112.868 24.5733 113.268 26.3733 113.268 28.4C113.268 28.8 113.228 29.1467 113.148 29.44H97.0275C97.1075 30.9867 97.4808 32.2933 98.1475 33.36C98.8142 34.4267 99.6542 35.2267 100.668 35.76C101.708 36.2933 102.788 36.56 103.908 36.56C106.521 36.56 108.534 35.3333 109.948 32.88L112.828 34.28C111.948 35.9333 110.748 37.24 109.228 38.2C107.734 39.16 105.921 39.64 103.788 39.64ZM109.668 26.64C109.614 25.7867 109.374 24.9333 108.948 24.08C108.521 23.2267 107.841 22.5067 106.908 21.92C106.001 21.3333 104.854 21.04 103.468 21.04C101.868 21.04 100.508 21.56 99.3875 22.6C98.2942 23.6133 97.5742 24.96 97.2275 26.64H109.668ZM117.207 18.6H121.247L128.447 32.32H128.567L135.767 18.6H139.847V39H136.447V27.76L136.607 23.92H136.447L129.727 36.44H127.327L120.567 23.92H120.407L120.567 27.76V39H117.207V18.6ZM151.188 39.64C149.695 39.64 148.362 39.3467 147.188 38.76C146.015 38.1733 145.108 37.3733 144.468 36.36C143.828 35.32 143.508 34.1467 143.508 32.84C143.508 30.68 144.322 29 145.948 27.8C147.575 26.5733 149.628 25.96 152.108 25.96C153.335 25.96 154.468 26.0933 155.508 26.36C156.575 26.6267 157.388 26.9333 157.948 27.28V26.04C157.948 24.52 157.415 23.3067 156.348 22.4C155.282 21.4667 153.935 21 152.308 21C151.162 21 150.108 21.2533 149.148 21.76C148.188 22.24 147.428 22.92 146.868 23.8L144.308 21.88C145.108 20.6533 146.202 19.6933 147.588 19C149.002 18.3067 150.562 17.96 152.268 17.96C155.042 17.96 157.215 18.6933 158.788 20.16C160.388 21.6 161.188 23.5733 161.188 26.08V39H157.948V36.08H157.788C157.202 37.0667 156.322 37.9067 155.148 38.6C153.975 39.2933 152.655 39.64 151.188 39.64ZM151.508 36.64C152.655 36.64 153.722 36.3467 154.708 35.76C155.695 35.1733 156.482 34.3867 157.068 33.4C157.655 32.4133 157.948 31.3333 157.948 30.16C157.308 29.7333 156.522 29.3867 155.588 29.12C154.655 28.8533 153.668 28.72 152.628 28.72C150.762 28.72 149.348 29.1067 148.388 29.88C147.455 30.6533 146.988 31.6533 146.988 32.88C146.988 34 147.415 34.9067 148.268 35.6C149.122 36.2933 150.202 36.64 151.508 36.64ZM165.878 25.2H178.558V28H165.878V25.2ZM188.815 21.68H182.175V18.6H198.855V21.68H192.175V39H188.815V21.68ZM202.282 18.6H205.522V21.64H205.682C206.295 20.6 207.215 19.7333 208.442 19.04C209.695 18.32 211.095 17.96 212.642 17.96C214.455 17.96 216.109 18.4267 217.602 19.36C219.095 20.2933 220.269 21.5867 221.122 23.24C221.975 24.8933 222.402 26.7467 222.402 28.8C222.402 30.88 221.975 32.7467 221.122 34.4C220.269 36.0267 219.095 37.3067 217.602 38.24C216.109 39.1733 214.455 39.64 212.642 39.64C211.095 39.64 209.695 39.2933 208.442 38.6C207.215 37.88 206.295 37.0133 205.682 36H205.522L205.682 38.8V47.64H202.282V18.6ZM212.242 36.56C213.415 36.56 214.522 36.24 215.562 35.6C216.602 34.96 217.429 34.0533 218.042 32.88C218.682 31.68 219.002 30.32 219.002 28.8C219.002 27.28 218.682 25.9333 218.042 24.76C217.429 23.56 216.602 22.64 215.562 22C214.522 21.36 213.415 21.04 212.242 21.04C211.069 21.04 209.962 21.36 208.922 22C207.882 22.64 207.055 23.5467 206.442 24.72C205.829 25.8933 205.522 27.2533 205.522 28.8C205.522 30.3467 205.829 31.7067 206.442 32.88C207.055 34.0533 207.882 34.96 208.922 35.6C209.962 36.24 211.069 36.56 212.242 36.56ZM235.428 39.64C233.481 39.64 231.735 39.1733 230.188 38.24C228.641 37.3067 227.428 36.0267 226.548 34.4C225.695 32.7467 225.268 30.8933 225.268 28.84C225.268 26.8667 225.668 25.0533 226.468 23.4C227.295 21.7467 228.455 20.4267 229.948 19.44C231.441 18.4533 233.175 17.96 235.148 17.96C237.148 17.96 238.881 18.4133 240.348 19.32C241.815 20.2 242.935 21.4267 243.708 23C244.508 24.5733 244.908 26.3733 244.908 28.4C244.908 28.8 244.868 29.1467 244.788 29.44H228.668C228.748 30.9867 229.121 32.2933 229.788 33.36C230.455 34.4267 231.295 35.2267 232.308 35.76C233.348 36.2933 234.428 36.56 235.548 36.56C238.161 36.56 240.175 35.3333 241.588 32.88L244.468 34.28C243.588 35.9333 242.388 37.24 240.868 38.2C239.375 39.16 237.561 39.64 235.428 39.64ZM241.308 26.64C241.255 25.7867 241.015 24.9333 240.588 24.08C240.161 23.2267 239.481 22.5067 238.548 21.92C237.641 21.3333 236.495 21.04 235.108 21.04C233.508 21.04 232.148 21.56 231.028 22.6C229.935 23.6133 229.215 24.96 228.868 26.64H241.308ZM248.887 18.6H252.287V27.16H263.407V18.6H266.767V39H263.407V30.32H252.287V39H248.887V18.6ZM278.142 39.64C276.648 39.64 275.315 39.3467 274.142 38.76C272.968 38.1733 272.062 37.3733 271.422 36.36C270.782 35.32 270.462 34.1467 270.462 32.84C270.462 30.68 271.275 29 272.902 27.8C274.528 26.5733 276.582 25.96 279.062 25.96C280.288 25.96 281.422 26.0933 282.462 26.36C283.528 26.6267 284.342 26.9333 284.902 27.28V26.04C284.902 24.52 284.368 23.3067 283.302 22.4C282.235 21.4667 280.888 21 279.262 21C278.115 21 277.062 21.2533 276.102 21.76C275.142 22.24 274.382 22.92 273.822 23.8L271.262 21.88C272.062 20.6533 273.155 19.6933 274.542 19C275.955 18.3067 277.515 17.96 279.222 17.96C281.995 17.96 284.168 18.6933 285.742 20.16C287.342 21.6 288.142 23.5733 288.142 26.08V39H284.902V36.08H284.742C284.155 37.0667 283.275 37.9067 282.102 38.6C280.928 39.2933 279.608 39.64 278.142 39.64ZM278.462 36.64C279.608 36.64 280.675 36.3467 281.662 35.76C282.648 35.1733 283.435 34.3867 284.022 33.4C284.608 32.4133 284.902 31.3333 284.902 30.16C284.262 29.7333 283.475 29.3867 282.542 29.12C281.608 28.8533 280.622 28.72 279.582 28.72C277.715 28.72 276.302 29.1067 275.342 29.88C274.408 30.6533 273.942 31.6533 273.942 32.88C273.942 34 274.368 34.9067 275.222 35.6C276.075 36.2933 277.155 36.64 278.462 36.64ZM290.512 38.84L299.712 28.2L290.952 18.76V18.6H295.192L303.272 27.64H303.432V18.6H306.792V27.64H306.952L315.072 18.6H319.312V18.76L310.512 28.2L319.752 38.84V39H315.512L306.952 28.92H306.792V39H303.432V28.92H303.272L294.752 39H290.512V38.84ZM331.092 39.64C329.146 39.64 327.399 39.1733 325.852 38.24C324.306 37.3067 323.092 36.0267 322.212 34.4C321.359 32.7467 320.932 30.8933 320.932 28.84C320.932 26.8667 321.332 25.0533 322.132 23.4C322.959 21.7467 324.119 20.4267 325.612 19.44C327.106 18.4533 328.839 17.96 330.812 17.96C332.812 17.96 334.546 18.4133 336.012 19.32C337.479 20.2 338.599 21.4267 339.372 23C340.172 24.5733 340.572 26.3733 340.572 28.4C340.572 28.8 340.532 29.1467 340.452 29.44H324.332C324.412 30.9867 324.786 32.2933 325.452 33.36C326.119 34.4267 326.959 35.2267 327.972 35.76C329.012 36.2933 330.092 36.56 331.212 36.56C333.826 36.56 335.839 35.3333 337.252 32.88L340.132 34.28C339.252 35.9333 338.052 37.24 336.532 38.2C335.039 39.16 333.226 39.64 331.092 39.64ZM336.972 26.64C336.919 25.7867 336.679 24.9333 336.252 24.08C335.826 23.2267 335.146 22.5067 334.212 21.92C333.306 21.3333 332.159 21.04 330.772 21.04C329.172 21.04 327.812 21.56 326.692 22.6C325.599 23.6133 324.879 24.96 324.532 26.64H336.972ZM344.391 18.6H347.631V21.64H347.791C348.405 20.6 349.325 19.7333 350.551 19.04C351.805 18.32 353.205 17.96 354.751 17.96C356.565 17.96 358.218 18.4267 359.711 19.36C361.205 20.2933 362.378 21.5867 363.231 23.24C364.085 24.8933 364.511 26.7467 364.511 28.8C364.511 30.88 364.085 32.7467 363.231 34.4C362.378 36.0267 361.205 37.3067 359.711 38.24C358.218 39.1733 356.565 39.64 354.751 39.64C353.205 39.64 351.805 39.2933 350.551 38.6C349.325 37.88 348.405 37.0133 347.791 36H347.631L347.791 38.8V47.64H344.391V18.6ZM354.351 36.56C355.525 36.56 356.631 36.24 357.671 35.6C358.711 34.96 359.538 34.0533 360.151 32.88C360.791 31.68 361.111 30.32 361.111 28.8C361.111 27.28 360.791 25.9333 360.151 24.76C359.538 23.56 358.711 22.64 357.671 22C356.631 21.36 355.525 21.04 354.351 21.04C353.178 21.04 352.071 21.36 351.031 22C349.991 22.64 349.165 23.5467 348.551 24.72C347.938 25.8933 347.631 27.2533 347.631 28.8C347.631 30.3467 347.938 31.7067 348.551 32.88C349.165 34.0533 349.991 34.96 351.031 35.6C352.071 36.24 353.178 36.56 354.351 36.56Z" fill="white"/>
</svg>
