<svg width="320" height="314" viewBox="0 0 320 314" fill="none" xmlns="http://www.w3.org/2000/svg">
<path d="M0 314L320 0V314H0Z" fill="white"/>
<path d="M0 314L320 0V314H0Z" fill="url(#paint0_linear)"/>
<path d="M139.188 270.081C139.188 278.061 132.612 284.512 124.478 284.512C116.344 284.512 109.768 278.061 109.768 270.081C109.768 262.101 116.344 255.65 124.478 255.65C132.612 255.65 139.188 262.101 139.188 270.081Z" fill="#FF0000"/>
<path d="M114.505 247.945C114.505 252.868 110.454 256.842 105.437 256.842C100.419 256.842 96.3677 252.868 96.3677 247.945C96.3677 243.023 100.419 239.048 105.437 239.048C110.454 239.048 114.505 243.023 114.505 247.945Z" fill="#FF0000"/>
<path d="M142.273 247.242C142.273 250.085 139.904 252.409 137.006 252.409C134.108 252.409 131.739 250.085 131.739 247.242C131.739 244.399 134.108 242.075 137.006 242.075C139.904 242.075 142.273 244.399 142.273 247.242Z" fill="#FF0000"/>
<path d="M108.694 250.647L107.035 252.175L115.097 260.601L116.756 259.074L108.694 250.647Z" fill="#FF0000"/>
<path d="M134.595 250.027L128.146 259.699L130.05 260.92L136.499 251.248L134.595 250.027Z" fill="#FF0000"/>
<path d="M153.773 248.709H157.45L166.083 261.703V248.709H169.916V268.46H166.207L157.606 255.497V268.46H153.773V248.709Z" fill="black"/>
<path d="M175.557 247.853C176.211 247.853 176.772 248.098 177.239 248.556C177.707 249.015 177.956 249.596 177.956 250.238C177.956 250.88 177.738 251.43 177.271 251.92C176.803 252.378 176.242 252.623 175.588 252.623C174.933 252.623 174.341 252.378 173.874 251.92C173.406 251.461 173.157 250.88 173.157 250.207C173.157 249.565 173.375 249.015 173.842 248.556C174.341 248.067 174.902 247.853 175.557 247.853ZM173.687 253.846H177.426V268.46H173.687V253.846Z" fill="black"/>
<path d="M181.26 248.465H184.999V253.846H187.212V256.995H184.999V268.46H181.26V256.995H179.359V253.846H181.26V248.465Z" fill="black"/>
<path d="M188.334 253.846H191.544V255.68C191.887 254.947 192.354 254.396 192.915 254.029C193.476 253.662 194.131 253.479 194.816 253.479C195.315 253.479 195.813 253.601 196.343 253.846L195.19 256.995C194.754 256.781 194.38 256.659 194.099 256.659C193.538 256.659 193.04 256.995 192.635 257.698C192.23 258.401 192.043 259.777 192.043 261.795V262.498V268.399H188.334V253.846Z" fill="black"/>
<path d="M205.194 253.479C206.596 253.479 207.905 253.815 209.152 254.519C210.398 255.222 211.365 256.139 212.05 257.331C212.736 258.524 213.079 259.777 213.079 261.153C213.079 262.529 212.736 263.813 212.019 265.005C211.333 266.198 210.367 267.146 209.152 267.818C207.936 268.491 206.628 268.827 205.163 268.827C203.012 268.827 201.205 268.093 199.678 266.595C198.182 265.097 197.403 263.293 197.403 261.184C197.403 258.891 198.244 256.995 199.958 255.497C201.517 254.152 203.262 253.479 205.194 253.479ZM205.256 256.934C204.103 256.934 203.137 257.331 202.358 258.126C201.579 258.921 201.205 259.93 201.205 261.153C201.205 262.407 201.579 263.446 202.358 264.241C203.106 265.036 204.072 265.403 205.256 265.403C206.441 265.403 207.407 265.005 208.186 264.211C208.965 263.416 209.339 262.407 209.339 261.153C209.339 259.9 208.965 258.891 208.186 258.096C207.407 257.331 206.441 256.934 205.256 256.934Z" fill="black"/>
<path d="M225.295 255.894L222.989 258.157C222.054 257.24 221.181 256.781 220.433 256.781C219.997 256.781 219.685 256.873 219.436 257.056C219.187 257.24 219.093 257.454 219.093 257.698C219.093 257.882 219.156 258.065 219.311 258.249C219.467 258.401 219.841 258.646 220.433 258.921L221.805 259.594C223.238 260.297 224.235 261 224.796 261.734C225.326 262.468 225.607 263.293 225.607 264.272C225.607 265.556 225.108 266.656 224.142 267.513C223.176 268.369 221.867 268.827 220.215 268.827C218.034 268.827 216.32 268.002 215.011 266.32L217.317 263.844C217.753 264.333 218.283 264.761 218.844 265.067C219.436 265.372 219.966 265.525 220.402 265.525C220.901 265.525 221.306 265.403 221.586 265.189C221.898 264.944 222.054 264.7 222.054 264.394C222.054 263.844 221.524 263.293 220.433 262.743L219.187 262.132C216.787 260.939 215.572 259.472 215.572 257.668C215.572 256.506 216.039 255.527 216.943 254.702C217.847 253.876 219 253.479 220.433 253.479C221.399 253.479 222.303 253.693 223.176 254.09C223.986 254.519 224.703 255.13 225.295 255.894Z" fill="black"/>
<path d="M228.941 248.709H233.491C236.421 248.709 238.602 249.076 240.005 249.78C241.438 250.483 242.591 251.645 243.526 253.265C244.461 254.855 244.897 256.75 244.897 258.891C244.897 260.419 244.648 261.826 244.118 263.079C243.589 264.333 242.903 265.403 241.968 266.259C241.064 267.115 240.067 267.696 239.007 268.002C237.948 268.338 236.109 268.491 233.491 268.491H228.879V248.709H228.941ZM232.712 252.317V264.791H234.489C236.234 264.791 237.511 264.608 238.322 264.211C239.101 263.813 239.755 263.14 240.254 262.223C240.753 261.306 241.002 260.144 241.002 258.768C241.002 256.659 240.41 255.038 239.194 253.877C238.104 252.837 236.39 252.317 233.99 252.317H232.712Z" fill="black"/>
<path d="M259.14 253.846H262.879V268.46H259.14V266.901C258.423 267.574 257.675 268.063 256.958 268.369C256.21 268.674 255.431 268.827 254.559 268.827C252.626 268.827 250.975 268.093 249.572 266.626C248.17 265.158 247.453 263.354 247.453 261.184C247.453 258.921 248.139 257.087 249.479 255.65C250.85 254.213 252.502 253.479 254.434 253.479C255.338 253.479 256.179 253.632 256.958 253.968C257.737 254.305 258.454 254.794 259.14 255.466V253.846ZM255.213 256.873C254.06 256.873 253.094 257.27 252.346 258.065C251.567 258.86 251.193 259.9 251.193 261.153C251.193 262.407 251.567 263.446 252.346 264.272C253.125 265.097 254.091 265.495 255.213 265.495C256.397 265.495 257.363 265.097 258.142 264.302C258.922 263.507 259.296 262.468 259.296 261.153C259.296 259.9 258.922 258.86 258.142 258.065C257.363 257.24 256.397 256.873 255.213 256.873Z" fill="black"/>
<path d="M267.118 248.465H270.858V253.846H273.07V256.995H270.858V268.46H267.118V256.995H265.217V253.846H267.118V248.465Z" fill="black"/>
<path d="M286.097 253.846H289.837V268.46H286.097V266.901C285.38 267.574 284.632 268.063 283.915 268.369C283.167 268.674 282.388 268.827 281.516 268.827C279.583 268.827 277.932 268.093 276.529 266.626C275.127 265.158 274.41 263.354 274.41 261.184C274.41 258.921 275.096 257.087 276.436 255.65C277.807 254.213 279.459 253.479 281.391 253.479C282.295 253.479 283.136 253.632 283.915 253.968C284.694 254.305 285.411 254.794 286.097 255.466V253.846ZM282.139 256.873C280.986 256.873 280.02 257.27 279.272 258.065C278.493 258.86 278.119 259.9 278.119 261.153C278.119 262.407 278.493 263.446 279.272 264.272C280.051 265.097 281.017 265.495 282.139 265.495C283.323 265.495 284.289 265.097 285.068 264.302C285.848 263.507 286.222 262.468 286.222 261.153C286.222 259.9 285.848 258.86 285.068 258.065C284.289 257.24 283.323 256.873 282.139 256.873Z" fill="black"/>
<path d="M154.396 276.716H155.144V283.259H158.011V283.962H154.427V276.716H154.396Z" fill="black"/>
<path d="M159.289 276.379C159.445 276.379 159.569 276.441 159.694 276.532C159.819 276.655 159.85 276.777 159.85 276.93C159.85 277.083 159.787 277.205 159.694 277.327C159.569 277.449 159.445 277.48 159.289 277.48C159.133 277.48 159.008 277.419 158.884 277.327C158.759 277.205 158.728 277.083 158.728 276.93C158.728 276.777 158.79 276.624 158.884 276.532C158.977 276.441 159.133 276.379 159.289 276.379ZM158.946 278.581H159.663V283.962H158.946V278.581Z" fill="black"/>
<path d="M161.096 278.581H161.813V279.528C162.093 279.162 162.405 278.886 162.748 278.703C163.091 278.519 163.465 278.428 163.87 278.428C164.275 278.428 164.649 278.519 164.961 278.733C165.272 278.947 165.522 279.223 165.677 279.559C165.833 279.895 165.896 280.446 165.896 281.179V283.931H165.179V281.363C165.179 280.751 165.148 280.323 165.085 280.14C164.992 279.773 164.836 279.528 164.618 279.345C164.4 279.162 164.088 279.07 163.714 279.07C163.278 279.07 162.904 279.223 162.561 279.498C162.218 279.773 162 280.109 161.906 280.537C161.844 280.813 161.813 281.302 161.813 282.005V283.962H161.096V278.581Z" fill="black"/>
<path d="M167.392 276.531H168.108V280.781L170.664 278.61H171.692L168.669 281.179L171.848 283.991H170.851L168.077 281.576V283.991H167.36V276.531H167.392Z" fill="black"/>
<path d="M177.676 276.532V277.205C177.426 277.083 177.208 277.052 177.021 277.052C176.897 277.052 176.772 277.083 176.678 277.144C176.585 277.205 176.523 277.266 176.523 277.327C176.491 277.388 176.491 277.572 176.491 277.878V278.611H177.645V279.223H176.491V283.992H175.775V279.223H175.058V278.611H175.775V277.786C175.775 277.388 175.806 277.113 175.868 276.96C175.93 276.808 176.055 276.655 176.242 276.563C176.429 276.471 176.616 276.41 176.865 276.41C177.084 276.379 177.333 276.441 177.676 276.532Z" fill="black"/>
<path d="M184.096 278.581V283.962H183.41V283.045C183.13 283.412 182.787 283.656 182.413 283.84C182.039 284.023 181.634 284.115 181.197 284.115C180.418 284.115 179.764 283.84 179.203 283.289C178.642 282.739 178.393 282.066 178.393 281.271C178.393 280.507 178.673 279.834 179.234 279.284C179.795 278.734 180.449 278.458 181.229 278.458C181.665 278.458 182.07 278.55 182.444 278.734C182.818 278.917 183.13 279.192 183.41 279.59V278.611H184.096V278.581ZM181.291 279.131C180.886 279.131 180.543 279.223 180.2 279.406C179.857 279.59 179.608 279.865 179.421 280.201C179.234 280.538 179.141 280.904 179.141 281.271C179.141 281.638 179.234 282.005 179.452 282.341C179.639 282.678 179.92 282.953 180.262 283.136C180.605 283.32 180.948 283.412 181.322 283.412C181.696 283.412 182.07 283.32 182.413 283.136C182.756 282.953 183.036 282.678 183.223 282.372C183.41 282.036 183.504 281.669 183.504 281.271C183.504 280.66 183.285 280.14 182.88 279.712C182.413 279.345 181.883 279.131 181.291 279.131Z" fill="black"/>
<path d="M191.014 279.712L190.453 280.048C189.955 279.406 189.3 279.1 188.459 279.1C187.773 279.1 187.243 279.314 186.776 279.743C186.339 280.171 186.121 280.66 186.121 281.271C186.121 281.669 186.215 282.036 186.433 282.372C186.651 282.708 186.932 282.983 187.274 283.167C187.617 283.35 188.022 283.442 188.459 283.442C189.269 283.442 189.923 283.136 190.453 282.494L191.014 282.861C190.765 283.259 190.391 283.564 189.955 283.778C189.518 283.992 189.02 284.115 188.428 284.115C187.555 284.115 186.838 283.839 186.277 283.32C185.716 282.769 185.405 282.127 185.405 281.363C185.405 280.843 185.529 280.354 185.81 279.926C186.09 279.467 186.433 279.131 186.9 278.886C187.368 278.642 187.898 278.52 188.459 278.52C188.833 278.52 189.175 278.581 189.518 278.672C189.861 278.795 190.142 278.917 190.391 279.1C190.64 279.223 190.858 279.437 191.014 279.712Z" fill="black"/>
<path d="M192.978 276.593H193.694V278.581H194.816V279.192H193.694V283.962H192.978V279.192H192.011V278.581H192.978V276.593Z" fill="black"/>
<path d="M198.587 279.192L198.12 279.651C197.746 279.284 197.372 279.1 196.998 279.1C196.78 279.1 196.561 279.162 196.406 279.314C196.25 279.467 196.156 279.62 196.156 279.834C196.156 280.018 196.219 280.17 196.343 280.323C196.468 280.476 196.748 280.66 197.185 280.904C197.714 281.179 198.057 281.424 198.244 281.669C198.431 281.913 198.525 282.188 198.525 282.525C198.525 282.953 198.369 283.35 198.057 283.656C197.746 283.962 197.34 284.115 196.873 284.115C196.561 284.115 196.25 284.053 195.969 283.901C195.689 283.778 195.439 283.564 195.252 283.35L195.689 282.861C196.063 283.258 196.437 283.472 196.842 283.472C197.122 283.472 197.372 283.381 197.559 283.197C197.746 283.014 197.87 282.8 197.87 282.586C197.87 282.402 197.808 282.219 197.683 282.066C197.559 281.913 197.247 281.73 196.78 281.485C196.281 281.241 195.938 280.996 195.782 280.751C195.595 280.507 195.502 280.232 195.502 279.926C195.502 279.528 195.658 279.192 195.938 278.917C196.219 278.642 196.593 278.519 197.029 278.519C197.59 278.458 198.088 278.703 198.587 279.192Z" fill="black"/>
<path d="M200.644 282.861C200.8 282.861 200.956 282.922 201.08 283.044C201.205 283.167 201.267 283.319 201.267 283.472C201.267 283.625 201.205 283.778 201.08 283.9C200.956 284.023 200.8 284.084 200.644 284.084C200.488 284.084 200.332 284.023 200.208 283.9C200.083 283.778 200.021 283.625 200.021 283.472C200.021 283.289 200.083 283.167 200.208 283.044C200.301 282.922 200.457 282.861 200.644 282.861Z" fill="black"/>
<path d="M205.693 276.716H207.157C207.749 276.716 208.186 276.777 208.497 276.93C208.809 277.052 209.058 277.266 209.245 277.572C209.432 277.847 209.526 278.183 209.526 278.519C209.526 278.856 209.432 279.131 209.277 279.406C209.121 279.681 208.871 279.895 208.56 280.048C208.934 280.17 209.245 280.323 209.432 280.507C209.651 280.69 209.806 280.874 209.931 281.118C210.056 281.363 210.118 281.638 210.118 281.913C210.118 282.494 209.9 282.983 209.464 283.381C209.027 283.778 208.435 283.992 207.718 283.992H205.693V276.716ZM206.409 277.419V279.742H206.846C207.376 279.742 207.749 279.681 207.968 279.59C208.217 279.498 208.404 279.345 208.529 279.131C208.684 278.917 208.747 278.703 208.747 278.458C208.747 278.122 208.622 277.877 208.404 277.663C208.155 277.48 207.781 277.388 207.282 277.388H206.409V277.419ZM206.409 280.476V283.258H207.313C207.843 283.258 208.248 283.197 208.497 283.106C208.747 283.014 208.965 282.83 209.09 282.616C209.245 282.402 209.308 282.158 209.308 281.913C209.308 281.577 209.214 281.302 208.996 281.057C208.778 280.813 208.497 280.66 208.123 280.568C207.874 280.507 207.438 280.476 206.815 280.476H206.409Z" fill="black"/>
<path d="M211.396 278.581H212.113V281.088C212.113 281.699 212.144 282.127 212.206 282.341C212.3 282.678 212.487 282.922 212.798 283.106C213.079 283.289 213.421 283.381 213.827 283.381C214.232 283.381 214.543 283.289 214.824 283.106C215.104 282.922 215.291 282.678 215.385 282.372C215.447 282.158 215.478 281.73 215.478 281.057V278.55H216.195V281.179C216.195 281.913 216.102 282.464 215.946 282.861C215.759 283.228 215.509 283.534 215.135 283.748C214.793 283.962 214.325 284.053 213.795 284.053C213.266 284.053 212.829 283.962 212.455 283.748C212.113 283.534 211.832 283.228 211.645 282.861C211.458 282.494 211.396 281.913 211.396 281.149V278.581Z" fill="black"/>
<path d="M218.003 276.379C218.158 276.379 218.283 276.441 218.408 276.532C218.532 276.655 218.564 276.777 218.564 276.93C218.564 277.083 218.501 277.205 218.408 277.327C218.283 277.449 218.158 277.48 218.003 277.48C217.847 277.48 217.722 277.419 217.597 277.327C217.473 277.205 217.442 277.083 217.442 276.93C217.442 276.777 217.504 276.624 217.597 276.532C217.691 276.441 217.847 276.379 218.003 276.379ZM217.629 278.581H218.345V283.962H217.629V278.581Z" fill="black"/>
<path d="M219.717 276.531H220.433V283.961H219.717V276.531Z" fill="black"/>
<path d="M227.352 276.531V283.961H226.635V283.044C226.355 283.41 226.012 283.655 225.638 283.838C225.264 284.022 224.859 284.114 224.422 284.114C223.643 284.114 222.989 283.838 222.428 283.288C221.867 282.738 221.618 282.065 221.618 281.27C221.618 280.506 221.898 279.833 222.459 279.283C223.02 278.733 223.675 278.457 224.454 278.457C224.89 278.457 225.295 278.549 225.669 278.733C226.043 278.916 226.355 279.191 226.635 279.589V276.531H227.352ZM224.516 279.13C224.111 279.13 223.768 279.222 223.425 279.405C223.082 279.589 222.833 279.864 222.646 280.2C222.459 280.536 222.366 280.903 222.366 281.27C222.366 281.637 222.459 282.004 222.677 282.34C222.864 282.677 223.145 282.952 223.488 283.135C223.83 283.319 224.173 283.41 224.547 283.41C224.921 283.41 225.295 283.319 225.638 283.135C225.981 282.952 226.261 282.677 226.448 282.371C226.635 282.035 226.729 281.668 226.729 281.27C226.729 280.659 226.511 280.139 226.105 279.711C225.638 279.344 225.108 279.13 224.516 279.13Z" fill="black"/>
<path d="M231.777 276.531H232.494V280.781L235.05 278.61H236.078L233.055 281.179L236.234 283.991H235.237L232.463 281.576V283.991H231.746V276.531H231.777Z" fill="black"/>
<path d="M236.951 278.581H237.667V279.528C237.948 279.162 238.259 278.886 238.602 278.703C238.945 278.519 239.319 278.428 239.724 278.428C240.129 278.428 240.503 278.519 240.815 278.733C241.127 278.947 241.376 279.223 241.532 279.559C241.688 279.895 241.75 280.446 241.75 281.179V283.931H241.033V281.363C241.033 280.751 241.002 280.323 240.94 280.14C240.846 279.773 240.69 279.528 240.472 279.345C240.254 279.162 239.942 279.07 239.568 279.07C239.132 279.07 238.758 279.223 238.415 279.498C238.072 279.773 237.854 280.109 237.761 280.537C237.699 280.813 237.667 281.302 237.667 282.005V283.962H236.951V278.581Z" fill="black"/>
<path d="M245.832 278.458C246.674 278.458 247.391 278.764 247.92 279.345C248.419 279.895 248.668 280.538 248.668 281.271C248.668 282.036 248.388 282.678 247.858 283.228C247.328 283.778 246.643 284.054 245.801 284.054C244.96 284.054 244.274 283.778 243.744 283.228C243.215 282.678 242.934 282.005 242.934 281.271C242.934 280.538 243.183 279.895 243.682 279.345C244.305 278.764 244.991 278.458 245.832 278.458ZM245.832 279.131C245.24 279.131 244.742 279.345 244.336 279.773C243.931 280.201 243.713 280.721 243.713 281.302C243.713 281.699 243.807 282.036 243.994 282.372C244.181 282.708 244.43 282.953 244.773 283.136C245.084 283.32 245.458 283.411 245.832 283.411C246.206 283.411 246.58 283.32 246.892 283.136C247.204 282.953 247.484 282.708 247.671 282.372C247.858 282.036 247.952 281.669 247.952 281.302C247.952 280.69 247.733 280.201 247.328 279.773C246.923 279.345 246.425 279.131 245.832 279.131Z" fill="black"/>
<path d="M249.26 278.581H249.977L251.66 282.494L253.405 278.581H253.53L255.306 282.494L257.02 278.581H257.737L255.369 283.962H255.244L253.499 280.109L251.754 283.962H251.598L249.26 278.581Z" fill="black"/>
<path d="M258.454 276.531H259.171V283.961H258.454V276.531Z" fill="black"/>
<path d="M265.248 282.188L265.84 282.494C265.653 282.861 265.404 283.167 265.154 283.411C264.905 283.625 264.625 283.809 264.282 283.931C263.97 284.053 263.596 284.114 263.191 284.114C262.287 284.114 261.602 283.839 261.103 283.258C260.604 282.677 260.355 282.035 260.355 281.302C260.355 280.629 260.573 280.017 261.01 279.498C261.539 278.825 262.287 278.489 263.191 278.489C264.126 278.489 264.874 278.825 265.435 279.528C265.84 280.017 266.027 280.629 266.027 281.363H261.072C261.072 281.974 261.29 282.494 261.695 282.891C262.1 283.289 262.568 283.472 263.16 283.472C263.44 283.472 263.721 283.411 263.97 283.32C264.22 283.228 264.469 283.105 264.656 282.953C264.843 282.8 265.03 282.525 265.248 282.188ZM265.248 280.721C265.154 280.354 265.03 280.048 264.843 279.834C264.656 279.62 264.438 279.437 264.126 279.314C263.814 279.192 263.503 279.1 263.191 279.1C262.661 279.1 262.194 279.284 261.789 279.62C261.508 279.865 261.29 280.232 261.134 280.721H265.248Z" fill="black"/>
<path d="M272.79 276.531V283.961H272.073V283.044C271.792 283.41 271.45 283.655 271.076 283.838C270.702 284.022 270.297 284.114 269.86 284.114C269.081 284.114 268.427 283.838 267.866 283.288C267.305 282.738 267.055 282.065 267.055 281.27C267.055 280.506 267.336 279.833 267.897 279.283C268.458 278.733 269.112 278.457 269.891 278.457C270.328 278.457 270.733 278.549 271.107 278.733C271.481 278.916 271.792 279.191 272.073 279.589V276.531H272.79ZM269.954 279.13C269.549 279.13 269.206 279.222 268.863 279.405C268.52 279.589 268.271 279.864 268.084 280.2C267.897 280.536 267.803 280.903 267.803 281.27C267.803 281.637 267.897 282.004 268.115 282.34C268.302 282.677 268.582 282.952 268.925 283.135C269.268 283.319 269.611 283.41 269.985 283.41C270.359 283.41 270.733 283.319 271.076 283.135C271.418 282.952 271.699 282.677 271.886 282.371C272.073 282.035 272.166 281.668 272.166 281.27C272.166 280.659 271.948 280.139 271.543 279.711C271.076 279.344 270.577 279.13 269.954 279.13Z" fill="black"/>
<path d="M279.116 278.581H279.833V282.861C279.833 283.626 279.771 284.176 279.646 284.512C279.459 285.001 279.147 285.399 278.68 285.643C278.212 285.919 277.683 286.041 277.028 286.041C276.561 286.041 276.124 285.98 275.75 285.857C275.376 285.735 275.065 285.552 274.847 285.338C274.597 285.124 274.41 284.787 274.192 284.359H274.971C275.189 284.726 275.439 284.971 275.781 285.154C276.124 285.338 276.529 285.399 276.997 285.399C277.464 285.399 277.87 285.307 278.212 285.124C278.555 284.94 278.773 284.726 278.929 284.451C279.085 284.176 279.147 283.748 279.147 283.167V282.892C278.867 283.228 278.555 283.473 278.181 283.656C277.807 283.84 277.402 283.931 276.966 283.931C276.467 283.931 276 283.809 275.532 283.564C275.096 283.32 274.753 282.983 274.504 282.586C274.254 282.158 274.13 281.73 274.13 281.21C274.13 280.721 274.254 280.262 274.504 279.834C274.753 279.406 275.096 279.07 275.563 278.825C276 278.581 276.467 278.458 276.966 278.458C277.371 278.458 277.745 278.55 278.119 278.703C278.462 278.856 278.804 279.131 279.147 279.529V278.581H279.116ZM277.028 279.131C276.623 279.131 276.249 279.223 275.906 279.406C275.563 279.59 275.283 279.865 275.096 280.201C274.909 280.538 274.815 280.904 274.815 281.271C274.815 281.852 275.002 282.341 275.408 282.739C275.813 283.136 276.342 283.32 276.966 283.32C277.62 283.32 278.15 283.136 278.524 282.739C278.929 282.372 279.116 281.852 279.116 281.241C279.116 280.843 279.023 280.476 278.836 280.171C278.649 279.865 278.399 279.59 278.057 279.406C277.776 279.223 277.402 279.131 277.028 279.131Z" fill="black"/>
<path d="M285.941 282.188L286.533 282.494C286.346 282.861 286.128 283.167 285.848 283.411C285.598 283.625 285.318 283.809 284.975 283.931C284.663 284.053 284.289 284.114 283.884 284.114C282.981 284.114 282.295 283.839 281.796 283.258C281.298 282.677 281.048 282.035 281.048 281.302C281.048 280.629 281.267 280.017 281.703 279.498C282.233 278.825 282.981 278.489 283.884 278.489C284.819 278.489 285.567 278.825 286.128 279.528C286.533 280.017 286.72 280.629 286.72 281.363H281.765C281.765 281.974 281.983 282.494 282.388 282.891C282.794 283.289 283.261 283.472 283.853 283.472C284.134 283.472 284.414 283.411 284.663 283.32C284.913 283.228 285.162 283.105 285.349 282.953C285.536 282.8 285.723 282.525 285.941 282.188ZM285.941 280.721C285.848 280.354 285.723 280.048 285.536 279.834C285.349 279.62 285.131 279.437 284.819 279.314C284.508 279.192 284.196 279.1 283.884 279.1C283.354 279.1 282.887 279.284 282.482 279.62C282.201 279.865 281.983 280.232 281.827 280.721H285.941Z" fill="black"/>
<path d="M288.808 282.861C288.964 282.861 289.12 282.922 289.245 283.044C289.369 283.167 289.432 283.319 289.432 283.472C289.432 283.625 289.369 283.778 289.245 283.9C289.12 284.023 288.964 284.084 288.808 284.084C288.652 284.084 288.497 284.023 288.372 283.9C288.247 283.778 288.185 283.625 288.185 283.472C288.185 283.289 288.247 283.167 288.372 283.044C288.497 282.922 288.621 282.861 288.808 282.861Z" fill="black"/>
<path d="M179.062 223.695H180.52V225.063H180.592C180.868 224.595 181.282 224.205 181.834 223.893C182.398 223.569 183.028 223.407 183.724 223.407C184.54 223.407 185.284 223.617 185.956 224.037C186.628 224.457 187.156 225.039 187.54 225.783C187.924 226.527 188.116 227.361 188.116 228.285C188.116 229.221 187.924 230.061 187.54 230.805C187.156 231.537 186.628 232.113 185.956 232.533C185.284 232.953 184.54 233.163 183.724 233.163C183.028 233.163 182.398 233.007 181.834 232.695C181.282 232.371 180.868 231.981 180.592 231.525H180.52L180.592 232.785V236.763H179.062V223.695ZM183.544 231.777C184.072 231.777 184.57 231.633 185.038 231.345C185.506 231.057 185.878 230.649 186.154 230.121C186.442 229.581 186.586 228.969 186.586 228.285C186.586 227.601 186.442 226.995 186.154 226.467C185.878 225.927 185.506 225.513 185.038 225.225C184.57 224.937 184.072 224.793 183.544 224.793C183.016 224.793 182.518 224.937 182.05 225.225C181.582 225.513 181.21 225.921 180.934 226.449C180.658 226.977 180.52 227.589 180.52 228.285C180.52 228.981 180.658 229.593 180.934 230.121C181.21 230.649 181.582 231.057 182.05 231.345C182.518 231.633 183.016 231.777 183.544 231.777ZM192.826 233.163C192.154 233.163 191.554 233.031 191.026 232.767C190.498 232.503 190.09 232.143 189.802 231.687C189.514 231.219 189.37 230.691 189.37 230.103C189.37 229.131 189.736 228.375 190.468 227.835C191.2 227.283 192.124 227.007 193.24 227.007C193.792 227.007 194.302 227.067 194.77 227.187C195.25 227.307 195.616 227.445 195.868 227.601V227.043C195.868 226.359 195.628 225.813 195.148 225.405C194.668 224.985 194.062 224.775 193.33 224.775C192.814 224.775 192.34 224.889 191.908 225.117C191.476 225.333 191.134 225.639 190.882 226.035L189.73 225.171C190.09 224.619 190.582 224.187 191.206 223.875C191.842 223.563 192.544 223.407 193.312 223.407C194.56 223.407 195.538 223.737 196.246 224.397C196.966 225.045 197.326 225.933 197.326 227.061V232.875H195.868V231.561H195.796C195.532 232.005 195.136 232.383 194.608 232.695C194.08 233.007 193.486 233.163 192.826 233.163ZM192.97 231.813C193.486 231.813 193.966 231.681 194.41 231.417C194.854 231.153 195.208 230.799 195.472 230.355C195.736 229.911 195.868 229.425 195.868 228.897C195.58 228.705 195.226 228.549 194.806 228.429C194.386 228.309 193.942 228.249 193.474 228.249C192.634 228.249 191.998 228.423 191.566 228.771C191.146 229.119 190.936 229.569 190.936 230.121C190.936 230.625 191.128 231.033 191.512 231.345C191.896 231.657 192.382 231.813 192.97 231.813ZM202.802 233.163C202.106 233.163 201.44 233.019 200.804 232.731C200.168 232.443 199.622 232.041 199.166 231.525L200.21 230.517C200.606 230.937 201.008 231.255 201.416 231.471C201.836 231.675 202.298 231.777 202.802 231.777C203.486 231.777 204.026 231.639 204.422 231.363C204.818 231.087 205.016 230.727 205.016 230.283C205.016 229.887 204.848 229.545 204.512 229.257C204.188 228.969 203.75 228.825 203.198 228.825H201.74V227.601H203.09C203.546 227.601 203.93 227.475 204.242 227.223C204.566 226.971 204.728 226.623 204.728 226.179C204.728 225.807 204.554 225.483 204.206 225.207C203.87 224.931 203.414 224.793 202.838 224.793C202.382 224.793 201.974 224.871 201.614 225.027C201.254 225.183 200.894 225.447 200.534 225.819L199.526 224.829C199.982 224.337 200.474 223.977 201.002 223.749C201.542 223.521 202.154 223.407 202.838 223.407C203.462 223.407 204.032 223.527 204.548 223.767C205.076 223.995 205.49 224.313 205.79 224.721C206.09 225.129 206.24 225.585 206.24 226.089C206.24 226.581 206.126 227.001 205.898 227.349C205.67 227.685 205.364 227.937 204.98 228.105V228.177C205.472 228.381 205.856 228.675 206.132 229.059C206.42 229.431 206.564 229.863 206.564 230.355C206.564 231.207 206.222 231.891 205.538 232.407C204.854 232.911 203.942 233.163 202.802 233.163ZM208.4 223.695H209.858V225.063H209.93C210.206 224.595 210.62 224.205 211.172 223.893C211.736 223.569 212.366 223.407 213.062 223.407C213.878 223.407 214.622 223.617 215.294 224.037C215.966 224.457 216.494 225.039 216.878 225.783C217.262 226.527 217.454 227.361 217.454 228.285C217.454 229.221 217.262 230.061 216.878 230.805C216.494 231.537 215.966 232.113 215.294 232.533C214.622 232.953 213.878 233.163 213.062 233.163C212.366 233.163 211.736 233.007 211.172 232.695C210.62 232.371 210.206 231.981 209.93 231.525H209.858L209.93 232.785V236.763H208.4V223.695ZM212.882 231.777C213.41 231.777 213.908 231.633 214.376 231.345C214.844 231.057 215.216 230.649 215.492 230.121C215.78 229.581 215.924 228.969 215.924 228.285C215.924 227.601 215.78 226.995 215.492 226.467C215.216 225.927 214.844 225.513 214.376 225.225C213.908 224.937 213.41 224.793 212.882 224.793C212.354 224.793 211.856 224.937 211.388 225.225C210.92 225.513 210.548 225.921 210.272 226.449C209.996 226.977 209.858 227.589 209.858 228.285C209.858 228.981 209.996 229.593 210.272 230.121C210.548 230.649 210.92 231.057 211.388 231.345C211.856 231.633 212.354 231.777 212.882 231.777ZM222.164 233.163C221.492 233.163 220.892 233.031 220.364 232.767C219.836 232.503 219.428 232.143 219.14 231.687C218.852 231.219 218.708 230.691 218.708 230.103C218.708 229.131 219.074 228.375 219.806 227.835C220.538 227.283 221.462 227.007 222.578 227.007C223.13 227.007 223.64 227.067 224.108 227.187C224.588 227.307 224.954 227.445 225.206 227.601V227.043C225.206 226.359 224.966 225.813 224.486 225.405C224.006 224.985 223.4 224.775 222.668 224.775C222.152 224.775 221.678 224.889 221.246 225.117C220.814 225.333 220.472 225.639 220.22 226.035L219.068 225.171C219.428 224.619 219.92 224.187 220.544 223.875C221.18 223.563 221.882 223.407 222.65 223.407C223.898 223.407 224.876 223.737 225.584 224.397C226.304 225.045 226.664 225.933 226.664 227.061V232.875H225.206V231.561H225.134C224.87 232.005 224.474 232.383 223.946 232.695C223.418 233.007 222.824 233.163 222.164 233.163ZM222.308 231.813C222.824 231.813 223.304 231.681 223.748 231.417C224.192 231.153 224.546 230.799 224.81 230.355C225.074 229.911 225.206 229.425 225.206 228.897C224.918 228.705 224.564 228.549 224.144 228.429C223.724 228.309 223.28 228.249 222.812 228.249C221.972 228.249 221.336 228.423 220.904 228.771C220.484 229.119 220.274 229.569 220.274 230.121C220.274 230.625 220.466 231.033 220.85 231.345C221.234 231.657 221.72 231.813 222.308 231.813ZM233.472 233.163C232.572 233.163 231.768 232.953 231.06 232.533C230.352 232.101 229.788 231.447 229.368 230.571C228.96 229.683 228.756 228.579 228.756 227.259C228.756 225.819 228.9 224.667 229.188 223.803C229.488 222.939 229.896 222.243 230.412 221.715C230.868 221.271 231.408 220.929 232.032 220.689C232.668 220.437 233.364 220.311 234.12 220.311C234.576 220.311 234.918 220.293 235.146 220.257C235.386 220.209 235.554 220.143 235.65 220.059C235.758 219.975 235.842 219.849 235.902 219.681H237.414C237.246 220.461 236.916 220.995 236.424 221.283C235.944 221.559 235.206 221.697 234.21 221.697C233.514 221.697 232.962 221.781 232.554 221.949C232.146 222.105 231.792 222.333 231.492 222.633C230.844 223.281 230.454 224.145 230.322 225.225H230.394C230.73 224.709 231.18 224.277 231.744 223.929C232.32 223.581 233.016 223.407 233.832 223.407C234.66 223.407 235.404 223.623 236.064 224.055C236.724 224.487 237.24 225.075 237.612 225.819C237.984 226.563 238.17 227.385 238.17 228.285C238.17 229.197 237.966 230.025 237.558 230.769C237.162 231.513 236.604 232.101 235.884 232.533C235.176 232.953 234.372 233.163 233.472 233.163ZM233.472 231.777C234.036 231.777 234.558 231.639 235.038 231.363C235.53 231.075 235.92 230.667 236.208 230.139C236.508 229.611 236.658 228.993 236.658 228.285C236.658 227.577 236.508 226.959 236.208 226.431C235.92 225.903 235.53 225.501 235.038 225.225C234.558 224.937 234.036 224.793 233.472 224.793C232.908 224.793 232.386 224.937 231.906 225.225C231.426 225.501 231.042 225.903 230.754 226.431C230.466 226.959 230.322 227.577 230.322 228.285C230.322 228.981 230.466 229.593 230.754 230.121C231.042 230.649 231.426 231.057 231.906 231.345C232.386 231.633 232.908 231.777 233.472 231.777ZM244.149 233.163C243.249 233.163 242.439 232.947 241.719 232.515C240.999 232.083 240.435 231.495 240.027 230.751C239.631 230.007 239.433 229.185 239.433 228.285C239.433 227.385 239.631 226.563 240.027 225.819C240.435 225.075 240.999 224.487 241.719 224.055C242.439 223.623 243.249 223.407 244.149 223.407C245.049 223.407 245.859 223.623 246.579 224.055C247.299 224.487 247.857 225.075 248.253 225.819C248.661 226.563 248.865 227.385 248.865 228.285C248.865 229.185 248.661 230.007 248.253 230.751C247.857 231.495 247.299 232.083 246.579 232.515C245.859 232.947 245.049 233.163 244.149 233.163ZM244.149 231.777C244.713 231.777 245.235 231.639 245.715 231.363C246.207 231.075 246.597 230.667 246.885 230.139C247.185 229.611 247.335 228.993 247.335 228.285C247.335 227.577 247.185 226.959 246.885 226.431C246.597 225.903 246.207 225.501 245.715 225.225C245.235 224.937 244.713 224.793 244.149 224.793C243.585 224.793 243.057 224.937 242.565 225.225C242.073 225.501 241.677 225.903 241.377 226.431C241.089 226.959 240.945 227.577 240.945 228.285C240.945 228.993 241.089 229.611 241.377 230.139C241.677 230.667 242.073 231.075 242.565 231.363C243.057 231.639 243.585 231.777 244.149 231.777ZM252.824 225.081H249.836V223.695H257.342V225.081H254.336V232.875H252.824V225.081ZM261.89 233.163C261.218 233.163 260.618 233.031 260.09 232.767C259.562 232.503 259.154 232.143 258.866 231.687C258.578 231.219 258.434 230.691 258.434 230.103C258.434 229.131 258.8 228.375 259.532 227.835C260.264 227.283 261.188 227.007 262.304 227.007C262.856 227.007 263.366 227.067 263.834 227.187C264.314 227.307 264.68 227.445 264.932 227.601V227.043C264.932 226.359 264.692 225.813 264.212 225.405C263.732 224.985 263.126 224.775 262.394 224.775C261.878 224.775 261.404 224.889 260.972 225.117C260.54 225.333 260.198 225.639 259.946 226.035L258.794 225.171C259.154 224.619 259.646 224.187 260.27 223.875C260.906 223.563 261.608 223.407 262.376 223.407C263.624 223.407 264.602 223.737 265.31 224.397C266.03 225.045 266.39 225.933 266.39 227.061V232.875H264.932V231.561H264.86C264.596 232.005 264.2 232.383 263.672 232.695C263.144 233.007 262.55 233.163 261.89 233.163ZM262.034 231.813C262.55 231.813 263.03 231.681 263.474 231.417C263.918 231.153 264.272 230.799 264.536 230.355C264.8 229.911 264.932 229.425 264.932 228.897C264.644 228.705 264.29 228.549 263.87 228.429C263.45 228.309 263.006 228.249 262.538 228.249C261.698 228.249 261.062 228.423 260.63 228.771C260.21 229.119 260 229.569 260 230.121C260 230.625 260.192 231.033 260.576 231.345C260.96 231.657 261.446 231.813 262.034 231.813ZM268.519 223.695H270.049V227.547H275.053V223.695H276.565V232.875H275.053V228.969H270.049V232.875H268.519V223.695ZM282.979 233.163C282.079 233.163 281.269 232.947 280.549 232.515C279.829 232.083 279.265 231.495 278.857 230.751C278.461 230.007 278.263 229.185 278.263 228.285C278.263 227.385 278.461 226.563 278.857 225.819C279.265 225.075 279.829 224.487 280.549 224.055C281.269 223.623 282.079 223.407 282.979 223.407C283.879 223.407 284.689 223.623 285.409 224.055C286.129 224.487 286.687 225.075 287.083 225.819C287.491 226.563 287.695 227.385 287.695 228.285C287.695 229.185 287.491 230.007 287.083 230.751C286.687 231.495 286.129 232.083 285.409 232.515C284.689 232.947 283.879 233.163 282.979 233.163ZM282.979 231.777C283.543 231.777 284.065 231.639 284.545 231.363C285.037 231.075 285.427 230.667 285.715 230.139C286.015 229.611 286.165 228.993 286.165 228.285C286.165 227.577 286.015 226.959 285.715 226.431C285.427 225.903 285.037 225.501 284.545 225.225C284.065 224.937 283.543 224.793 282.979 224.793C282.415 224.793 281.887 224.937 281.395 225.225C280.903 225.501 280.507 225.903 280.207 226.431C279.919 226.959 279.775 227.577 279.775 228.285C279.775 228.993 279.919 229.611 280.207 230.139C280.507 230.667 280.903 231.075 281.395 231.363C281.887 231.639 282.415 231.777 282.979 231.777Z" fill="black"/>
<defs>
<linearGradient id="paint0_linear" x1="492" y1="-79.4813" x2="207.024" y2="186.906" gradientUnits="userSpaceOnUse">
<stop stop-color="#AAB5DA"/>
<stop offset="1" stop-color="#F2F4FB"/>
</linearGradient>
</defs>
</svg>
