<svg width="27" height="27" viewBox="0 0 27 27" fill="none" xmlns="http://www.w3.org/2000/svg">
<path d="M9.81821 0H2.45457C1.10081 0 0 1.10081 0 2.45457V9.81821C0 11.1719 1.10081 12.2728 2.45457 12.2728H9.81821C11.1719 12.2728 12.2728 11.172 12.2728 9.81821V2.45457C12.2727 1.10081 11.1719 0 9.81821 0ZM11.0455 9.81821C11.0455 10.4947 10.4947 11.0455 9.81821 11.0455H2.45457C1.77803 11.0455 1.22731 10.4947 1.22731 9.81821V2.45457C1.22731 1.77803 1.77803 1.22731 2.45457 1.22731H9.81821C10.4947 1.22731 11.0455 1.77803 11.0455 2.45457V9.81821Z" fill="#0B9D4E"/>
<path d="M24.5455 0H17.1819C15.8281 0 14.7273 1.10081 14.7273 2.45457V9.81821C14.7273 11.1719 15.8281 12.2728 17.1819 12.2728H24.5455C25.8992 12.2728 27.0001 11.172 27.0001 9.81821V2.45457C27 1.10081 25.8992 0 24.5455 0ZM25.7728 9.81821C25.7728 10.4947 25.222 11.0455 24.5455 11.0455H17.1819C16.5053 11.0455 15.9546 10.4947 15.9546 9.81821V2.45457C15.9546 1.77803 16.5053 1.22731 17.1819 1.22731H24.5455C25.222 1.22731 25.7728 1.77803 25.7728 2.45457V9.81821Z" fill="#0B9D4E"/>
<path d="M9.81821 14.7273H2.45457C1.10081 14.7273 0 15.8281 0 17.1819V24.5455C0 25.8992 1.10081 27.0001 2.45457 27.0001H9.81821C11.1719 27.0001 12.2728 25.8993 12.2728 24.5455V17.1819C12.2727 15.8281 11.1719 14.7273 9.81821 14.7273ZM11.0455 24.5455C11.0455 25.222 10.4947 25.7728 9.81821 25.7728H2.45457C1.77803 25.7728 1.22731 25.222 1.22731 24.5455V17.1819C1.22731 16.5053 1.77803 15.9546 2.45457 15.9546H9.81821C10.4947 15.9546 11.0455 16.5053 11.0455 17.1819V24.5455Z" fill="#0B9D4E"/>
<path d="M23.9319 20.2501H21.4773V17.7955C21.4773 17.4564 21.2028 17.1819 20.8636 17.1819C20.5245 17.1819 20.25 17.4564 20.25 17.7955V20.2501H17.7954C17.4562 20.2501 17.1818 20.5246 17.1818 20.8638C17.1818 21.2029 17.4562 21.4774 17.7954 21.4774H20.25V23.9319C20.25 24.2711 20.5245 24.5456 20.8637 24.5456C21.2029 24.5456 21.4774 24.2711 21.4774 23.9319V21.4774H23.9319C24.2711 21.4774 24.5455 21.2029 24.5455 20.8637C24.5455 20.5246 24.2711 20.2501 23.9319 20.2501Z" fill="#0B9D4E"/>
</svg>
