<svg width="23" height="28" viewBox="0 0 23 28" fill="none" xmlns="http://www.w3.org/2000/svg">
<path d="M15.464 0.232433C15.3367 0.0983276 15.1621 0.0178223 14.9812 0.0178223H4.1488C2.14994 0.0178223 0.5 1.66119 0.5 3.65984V24.144C0.5 26.1429 2.14994 27.7862 4.1488 27.7862H18.8512C20.8501 27.7862 22.5 26.1429 22.5 24.144V7.87875C22.5 7.70439 22.4195 7.53681 22.3055 7.40927L15.464 0.232433ZM15.6585 2.38553L20.2397 7.19466H17.2616C16.3763 7.19466 15.6585 6.48367 15.6585 5.59833V2.38553ZM18.8512 26.4448H4.1488C2.89461 26.4448 1.84147 25.4052 1.84147 24.144V3.65984C1.84147 2.40565 2.88783 1.3593 4.1488 1.3593H14.3171V5.59833C14.3171 7.22814 15.6318 8.53614 17.2616 8.53614H21.1585V24.144C21.1585 25.4052 20.1122 26.4448 18.8512 26.4448Z" fill="#06803E"/>
<path d="M17.0201 21.8168H5.97982C5.61098 21.8168 5.30908 22.1185 5.30908 22.4875C5.30908 22.8563 5.61098 23.1582 5.97982 23.1582H17.0268C17.3957 23.1582 17.6976 22.8563 17.6976 22.4875C17.6976 22.1185 17.3957 21.8168 17.0201 21.8168Z" fill="#06803E"/>
<path d="M14.2433 13.5667H12.1707V11.4941C12.1707 11.1253 11.8688 10.8234 11.4999 10.8234C11.1311 10.8234 10.8292 11.1253 10.8292 11.4941V13.5667H8.75662C8.38778 13.5667 8.08588 13.8686 8.08588 14.2374C8.08588 14.6063 8.38778 14.9082 8.75662 14.9082H10.8292V16.9808C10.8292 17.3496 11.1311 17.6515 11.4999 17.6515C11.8688 17.6515 12.1707 17.3496 12.1707 16.9808V14.9082H14.2433C14.6121 14.9082 14.914 14.6063 14.914 14.2374C14.914 13.8686 14.6121 13.5667 14.2433 13.5667Z" fill="#06803E"/>
<path d="M11.4999 7.40271C7.73039 7.40271 4.66525 10.4678 4.66525 14.2374C4.66525 18.007 7.73039 21.0723 11.4999 21.0723C15.2695 21.0723 18.3349 18.007 18.3349 14.2374C18.3349 10.4678 15.2695 7.40271 11.4999 7.40271ZM11.4999 19.7306C8.46828 19.7306 6.00673 17.2691 6.00673 14.2374C6.00673 11.2057 8.46828 8.74418 11.4999 8.74418C14.5316 8.74418 16.9932 11.2057 16.9932 14.2374C16.9932 17.2691 14.5316 19.7306 11.4999 19.7306Z" fill="#06803E"/>
</svg>
