<svg width="23" height="34" viewBox="0 0 27 34" fill="none" xmlns="http://www.w3.org/2000/svg">
<path d="M18.4488 0.255421C18.2974 0.0958142 18.0897 0 17.8746 0H4.99138C2.61409 0 0.651794 1.95587 0.651794 4.33459V28.714C0.651794 31.093 2.61409 33.0489 4.99138 33.0489H22.4772C24.8545 33.0489 26.8168 31.093 26.8168 28.714V9.35576C26.8168 9.14824 26.721 8.9488 26.5855 8.79701L18.4488 0.255421ZM18.6801 2.81795L24.1286 8.54159H20.5867C19.5337 8.54159 18.6801 7.6954 18.6801 6.64169V2.81795ZM22.4772 31.4523H4.99138C3.49975 31.4523 2.24723 30.215 2.24723 28.714V4.33459C2.24723 2.8419 3.49168 1.59657 4.99138 1.59657H17.0847V6.64169C17.0847 8.58143 18.6483 10.1382 20.5867 10.1382H25.2213V28.714C25.2213 30.215 23.9769 31.4523 22.4772 31.4523Z" fill="white"/>
<path d="M20.2994 25.9442H7.16906C6.73039 25.9442 6.37134 26.3033 6.37134 26.7425C6.37134 27.1815 6.73039 27.5408 7.16906 27.5408H20.3075C20.7462 27.5408 21.1052 27.1815 21.1052 26.7425C21.1052 26.3033 20.7462 25.9442 20.2994 25.9442Z" fill="white"/>
<path d="M17.3214 16.265H14.8564V13.7983C14.8564 13.3593 14.4974 13 14.0587 13C13.62 13 13.261 13.3593 13.261 13.7983V16.265H10.796C10.3573 16.265 9.99829 16.6243 9.99829 17.0633C9.99829 17.5023 10.3573 17.8616 10.796 17.8616H13.261V20.3283C13.261 20.7673 13.62 21.1266 14.0587 21.1266C14.4974 21.1266 14.8564 20.7673 14.8564 20.3283V17.8616H17.3214C17.7601 17.8616 18.1191 17.5023 18.1191 17.0633C18.1191 16.6243 17.7601 16.265 17.3214 16.265Z" fill="white"/>
<path d="M13.7342 8.78918C9.25101 8.78918 5.60559 12.4372 5.60559 16.9236C5.60559 21.4099 9.25101 25.0582 13.7342 25.0582C18.2174 25.0582 21.8631 21.4099 21.8631 16.9236C21.8631 12.4372 18.2174 8.78918 13.7342 8.78918ZM13.7342 23.4614C10.1286 23.4614 7.20103 20.5317 7.20103 16.9236C7.20103 13.3154 10.1286 10.3858 13.7342 10.3858C17.3398 10.3858 20.2674 13.3154 20.2674 16.9236C20.2674 20.5317 17.3398 23.4614 13.7342 23.4614Z" fill="white"/>
</svg>
