<svg width="98" height="97" viewBox="0 0 98 97" fill="none" xmlns="http://www.w3.org/2000/svg">
<g clip-path="url(#clip0)">
<path d="M75.862 8.11533C65.6675 1.3393 53.4287 -1.31943 41.3594 0.615981C41.1493 0.61996 40.9392 0.640231 40.7291 0.676605C27.969 2.8907 16.8331 9.94162 9.37014 20.5279C1.91531 31.1183 -0.973796 43.9752 1.23651 56.7396C1.60423 58.8447 2.11726 60.966 2.76385 63.0266C5.43471 71.7017 4.77599 80.9991 0.91331 89.2055C0.238491 90.6277 0.460715 92.3168 1.47503 93.5249C2.48915 94.7331 4.09739 95.2342 5.63268 94.8219L23.7465 89.8763C31.4156 94.5715 40.0744 96.9998 48.9152 96.9998C52.1276 96.9998 55.3639 96.6806 58.5844 96.03C71.2839 93.4723 82.2258 86.1266 89.3938 75.3424C104.195 53.0788 98.1255 22.924 75.862 8.11533ZM82.6662 70.8695C76.6902 79.8598 67.5707 85.9813 56.9924 88.1107C46.4223 90.2401 35.642 88.1228 26.6477 82.1428C25.9771 81.6984 25.1971 81.468 24.4092 81.468C24.0536 81.468 23.694 81.5165 23.3424 81.6135L11.0106 84.9793C13.0915 77.0355 12.9379 68.623 10.4813 60.6267C9.93584 58.8853 9.50352 57.1115 9.2004 55.3577C7.35781 44.723 9.76609 34.0074 15.9804 25.1826C22.0898 16.5076 31.1608 10.685 41.5735 8.74146C41.7675 8.73331 41.9573 8.71323 42.1513 8.68084C52.37 6.91517 62.7542 9.10918 71.393 14.8508C89.9473 27.1868 95.002 52.3152 82.6662 70.8695Z" fill="#F2C94C"/>
<path d="M49.0159 23.8533C46.7815 23.8533 44.9753 25.6595 44.9753 27.8939V52.1374C44.9753 54.3717 46.7815 56.1779 49.0159 56.1779C51.2503 56.1779 53.0565 54.3677 53.0565 52.1374V27.8939C53.0565 25.6595 51.2505 23.8533 49.0159 23.8533Z" fill="#F2C94C"/>
<path d="M52.7294 67.1643C52.5274 66.639 52.2446 66.1945 51.8809 65.831C51.6789 65.6694 51.4768 65.4672 51.2345 65.3462C51.0325 65.1846 50.79 65.0673 50.5475 64.9824C50.305 64.8572 50.0627 64.7805 49.7799 64.7399C48.4908 64.4571 47.0726 64.9055 46.1473 65.831C45.7836 66.1945 45.5009 66.6392 45.2988 67.1643C45.0968 67.6491 44.9756 68.1745 44.9756 68.6998C44.9756 69.2251 45.0968 69.7503 45.2988 70.2353C45.5007 70.7201 45.7836 71.1645 46.1473 71.5686C46.5514 71.9322 46.9959 72.215 47.4807 72.4172C47.9655 72.6191 48.4908 72.7404 49.0162 72.7404C49.5415 72.7404 50.0627 72.6191 50.5475 72.4172C51.0323 72.2152 51.4728 71.9324 51.8809 71.5686C52.2446 71.1645 52.5273 70.7201 52.7294 70.2353C52.9314 69.7505 53.0526 69.2251 53.0526 68.6998C53.0526 68.1745 52.9314 67.6491 52.7294 67.1643Z" fill="#F2C94C"/>
</g>
<defs>
<clipPath id="clip0">
<rect width="97" height="97" fill="white" transform="translate(0.5)"/>
</clipPath>
</defs>
</svg>
