<svg width="28" height="28" viewBox="0 0 28 28" fill="none" xmlns="http://www.w3.org/2000/svg">
<path d="M14 6.10352e-05C6.26802 6.10352e-05 0 6.26808 0 14.0001C0 21.732 6.26802 28.0001 14 28.0001C21.732 28.0001 28 21.732 28 14.0001C27.9918 6.27153 21.7286 0.00832277 14 6.10352e-05ZM14 26.0001C7.37257 26.0001 1.99998 20.6275 1.99998 14.0001C1.99998 7.37263 7.37257 2.00004 14 2.00004C20.6274 2.00004 26 7.37263 26 14.0001C25.9929 20.6246 20.6245 25.9929 14 26.0001Z" fill="#F2F4FB"/>
<path d="M14 6.10352e-05C6.26802 6.10352e-05 0 6.26808 0 14.0001C0 21.732 6.26802 28.0001 14 28.0001C21.732 28.0001 28 21.732 28 14.0001C27.9918 6.27153 21.7286 0.00832277 14 6.10352e-05ZM14 26.0001C7.37257 26.0001 1.99998 20.6275 1.99998 14.0001C1.99998 7.37263 7.37257 2.00004 14 2.00004C20.6274 2.00004 26 7.37263 26 14.0001C25.9929 20.6246 20.6245 25.9929 14 26.0001Z" fill="url(#paint0_linear)"/>
<path d="M19.896 13.5538C19.7991 13.3594 19.6415 13.2018 19.447 13.1049L11.447 9.10483C10.953 8.85797 10.3524 9.0583 10.1055 9.55237C10.036 9.69129 9.99994 9.84452 10 9.99985V17.9999C9.99977 18.5522 10.4472 19.0001 10.9996 19.0004C11.1549 19.0004 11.3081 18.9644 11.447 18.8949L19.447 14.8949C19.9413 14.6486 20.1424 14.0481 19.896 13.5538ZM12 16.3819V11.6179L16.7641 13.9999L12 16.3819Z" fill="#F2F4FB"/>
<path d="M19.896 13.5538C19.7991 13.3594 19.6415 13.2018 19.447 13.1049L11.447 9.10483C10.953 8.85797 10.3524 9.0583 10.1055 9.55237C10.036 9.69129 9.99994 9.84452 10 9.99985V17.9999C9.99977 18.5522 10.4472 19.0001 10.9996 19.0004C11.1549 19.0004 11.3081 18.9644 11.447 18.8949L19.447 14.8949C19.9413 14.6486 20.1424 14.0481 19.896 13.5538ZM12 16.3819V11.6179L16.7641 13.9999L12 16.3819Z" fill="url(#paint1_linear)"/>
<defs>
<linearGradient id="paint0_linear" x1="14" y1="6.10352e-05" x2="14" y2="28.0001" gradientUnits="userSpaceOnUse">
<stop stop-color="white"/>
<stop offset="1" stop-color="white" stop-opacity="0"/>
</linearGradient>
<linearGradient id="paint1_linear" x1="15.0006" y1="8.99915" x2="15.0006" y2="19.0004" gradientUnits="userSpaceOnUse">
<stop stop-color="white"/>
<stop offset="1" stop-color="white" stop-opacity="0"/>
</linearGradient>
</defs>
</svg>
