<svg width="43" height="30" viewBox="0 0 43 30" fill="none" xmlns="http://www.w3.org/2000/svg">
<path d="M41.9619 2.492C41.9591 2.492 41.9563 2.492 41.9537 2.492H39.1667V1.55348C39.1817 1.18202 38.9375 0.848175 38.5748 0.744412C36.6399 0.245419 34.6475 -0.00478511 32.6473 6.92991e-05C29.3588 6.92991e-05 24.8783 0.728231 21.5652 4.04541C18.2767 0.695868 13.7633 6.92991e-05 10.483 6.92991e-05C8.4828 -0.00478511 6.4904 0.245419 4.55555 0.744412C4.19279 0.848175 3.94862 1.18202 3.96362 1.55348V2.48391H1.19309C0.739075 2.48391 0.370972 2.84617 0.370972 3.29298V29.1346C0.370972 29.5814 0.739075 29.9437 1.19309 29.9437C1.33429 29.9433 1.47302 29.9071 1.59593 29.8385C1.67814 29.7981 9.89931 25.3725 21.3761 28.2204H21.4994H21.5734C21.6389 28.2282 21.7051 28.2282 21.7707 28.2204C33.2803 25.3482 41.5015 29.7657 41.5508 29.8385C41.8052 29.983 42.1186 29.983 42.3729 29.8385C42.6257 29.6949 42.7822 29.43 42.784 29.1427V3.30107C42.784 2.85426 42.416 2.492 41.9619 2.492ZM2.01521 27.8482V4.11014H3.98007V24.4016C3.97493 24.8484 4.33882 25.2147 4.79283 25.2197C4.83723 25.2203 4.88162 25.2172 4.9255 25.2106C6.62626 24.9551 8.34335 24.8199 10.0637 24.8061C12.4468 24.7655 14.82 25.1182 17.0846 25.8498C11.9705 25.2412 6.78318 25.9291 2.01521 27.8482ZM10.0637 23.1961C8.5684 23.1994 7.07482 23.294 5.59142 23.4792V2.19265C7.19208 1.84171 8.82665 1.6626 10.4666 1.65866C13.5413 1.65866 17.7834 2.35446 20.7266 5.6231L20.7513 25.777C19.0413 24.6767 15.7035 23.1961 10.0637 23.1961ZM22.3955 5.6231C25.3387 2.38682 29.5808 1.65866 32.6555 1.65866C34.2953 1.66341 35.9299 1.84242 37.5307 2.19265V23.4792C36.0556 23.2922 34.5702 23.195 33.083 23.188C27.4762 23.188 24.1302 24.6686 22.3955 25.7689V5.6231ZM41.1315 27.8482C36.3534 25.9238 31.1541 25.2358 26.0292 25.8498C28.3046 25.1156 30.689 24.7627 33.083 24.8061C34.8142 24.8156 36.5424 24.9481 38.2541 25.2026C38.703 25.2696 39.1222 24.9658 39.1903 24.5241C39.197 24.4809 39.2001 24.4372 39.1996 24.3935V4.11014H41.1644L41.1315 27.8482Z" fill="#67687C"/>
</svg>
