<svg width="53" height="30" viewBox="0 0 53 30" fill="none" xmlns="http://www.w3.org/2000/svg">
<path d="M51.8687 10.8838L26.7243 0.0644891C26.525 -0.0214964 26.2976 -0.0214964 26.0984 0.0644891L15.9041 4.45089C15.5178 4.61716 15.3446 5.05317 15.5174 5.42527C15.6902 5.79736 16.1437 5.96401 16.5304 5.79774L26.4111 1.54603L35.4568 5.4382V10.872C30.6562 9.18276 26.6143 9.05454 26.4325 9.04959C26.4182 9.04921 26.404 9.04921 26.3898 9.04959C26.1948 9.05454 21.5587 9.20178 16.309 11.2651C14.2147 12.0876 12.3015 13.1118 10.6227 14.3088C10.497 14.3986 10.4053 14.5218 10.3554 14.6603L3.14465 11.5573L13.2535 7.20737C13.6402 7.04111 13.8134 6.60509 13.6402 6.233C13.4674 5.8609 13.0139 5.69426 12.6276 5.86052L0.953492 10.8838C0.677522 11.0025 0.5 11.2666 0.5 11.5573C0.5 11.8483 0.677522 12.112 0.953492 12.2307L10.3123 16.2583V19.7909C10.3123 20.1984 10.6559 20.5287 11.079 20.5287C11.5024 20.5287 11.8456 20.1984 11.8456 19.7909V15.7957V15.7941V15.2771C13.3464 14.246 15.041 13.3565 16.8886 12.6309C21.6931 10.7427 26.0695 10.5384 26.4115 10.525C26.7464 10.5376 30.8338 10.7256 35.4568 12.4483V19.7791C34.336 20.098 33.5152 21.0978 33.5152 22.2788C33.5152 23.3639 34.2079 24.296 35.1904 24.6875L34.6542 26.0454C31.156 26.6249 28.386 27.4223 26.4111 28.4214C21.8624 26.1219 14.2451 25.4721 11.846 25.3195V23.2501C11.846 22.8427 11.5024 22.5124 11.0794 22.5124C10.6559 22.5124 10.3127 22.8427 10.3127 23.2501V26.0165C10.3127 26.4111 10.6358 26.736 11.0458 26.7535C11.1458 26.7577 21.1092 27.2055 26.032 29.9034C26.1494 29.9677 26.2802 30 26.4115 30C26.5424 30 26.6733 29.9677 26.7911 29.903C28.4461 28.9952 30.9278 28.2251 34.0185 27.6552L33.5654 28.8034C33.4756 29.0302 33.5077 29.2847 33.6508 29.4845C33.7939 29.6838 34.0299 29.8033 34.2818 29.8033H38.1659C38.4182 29.8033 38.6538 29.6838 38.7969 29.4845C38.9401 29.2847 38.9721 29.0302 38.8827 28.8034L38.1897 27.0483C40.2756 26.8185 41.7599 26.7539 41.7769 26.7531C42.1869 26.736 42.5103 26.4111 42.5103 26.0161V23.2498C42.5103 22.8427 42.1667 22.512 41.7437 22.512C41.3202 22.512 40.977 22.8427 40.977 23.2498V25.3203C40.2614 25.3667 39.0721 25.4584 37.6278 25.6262L37.2574 24.6875C38.2395 24.296 38.9326 23.3639 38.9326 22.2788C38.9326 21.0975 38.1118 20.098 36.9905 19.7791V13.0734C38.4304 13.7092 39.7676 14.4461 40.977 15.2771V15.7941V15.7957V19.7909C40.977 20.1984 41.3202 20.5287 41.7437 20.5287C42.1671 20.5287 42.5103 20.1984 42.5103 19.7909V16.2583L51.8691 12.2307C52.1451 12.112 52.3226 11.8483 52.3226 11.5573C52.3226 11.2666 52.1447 11.0025 51.8687 10.8838ZM35.3928 28.3278L36.2235 26.2242L37.0541 28.3278H35.3928ZM37.3989 22.2788C37.3989 22.9024 36.8719 23.4096 36.2235 23.4096C35.5755 23.4096 35.0484 22.9024 35.0484 22.2788C35.0484 21.6548 35.5755 21.1477 36.2235 21.1477C36.8719 21.1477 37.3989 21.6548 37.3989 22.2788ZM42.4668 14.6603C42.417 14.5218 42.3252 14.3986 42.1995 14.3088C40.6497 13.2035 38.8978 12.2478 36.9901 11.4599V6.09793L49.6776 11.5573L42.4668 14.6603Z" fill="#67687C"/>
</svg>
