<svg width="105" height="80" viewBox="0 0 105 80" fill="none" xmlns="http://www.w3.org/2000/svg">
<path d="M85.6715 41.6213C84.0979 40.565 81.9161 40.918 80.8015 42.4093C69.6898 57.2763 47.9409 60.8408 32.32 50.3554C25.548 45.8097 20.8553 39.2924 18.8282 31.8665L21.5663 33.7045C23.14 34.7608 25.3217 34.4077 26.4363 32.9164C27.551 31.4251 27.1784 29.3575 25.6048 28.3012L16.2471 22.0199C16.2214 22.0027 16.1936 21.9942 16.1693 21.9779C16.059 21.9079 15.942 21.8496 15.8226 21.7918C15.7347 21.749 15.6498 21.7022 15.5583 21.6671C15.449 21.6242 15.3322 21.5945 15.2173 21.562C15.1106 21.5329 15.0055 21.4989 14.8965 21.4785C14.7929 21.4597 14.6865 21.4531 14.5806 21.4429C14.4545 21.4313 14.3308 21.4193 14.2043 21.4195C14.1718 21.42 14.1415 21.4119 14.108 21.4137C14.0333 21.4163 13.9639 21.4347 13.89 21.4419C13.7681 21.4533 13.6461 21.4647 13.5251 21.4891C13.4125 21.5108 13.3065 21.5411 13.1994 21.5727C13.0923 21.6042 12.9867 21.6368 12.8822 21.6762C12.7758 21.7184 12.6745 21.768 12.5746 21.8186C12.4757 21.8679 12.3787 21.9204 12.2853 21.9794C12.1899 22.0412 12.1017 22.1077 12.0128 22.1779C11.9284 22.245 11.8426 22.3111 11.7648 22.3866C11.676 22.4711 11.5972 22.5622 11.5174 22.6547C11.4717 22.7072 11.4185 22.7526 11.3761 22.8093L4.72071 31.7139C3.6061 33.2052 3.97864 35.2728 5.55227 36.3291C7.1259 37.3854 9.30767 37.0323 10.4223 35.541L12.0276 33.3932C14.4401 42.3741 20.0956 50.2638 28.2816 55.7586C47.0469 68.3547 73.1651 64.082 86.5031 46.2365C87.6177 44.7452 87.2452 42.6776 85.6715 41.6213Z" fill="#324979"/>
<path d="M18.4932 40.794C20.0192 39.7191 22.2526 40.1154 23.4784 41.6784C35.6989 57.2608 57.9652 61.2576 73.1135 50.5882C79.6807 45.9628 84.0135 39.2626 85.5868 31.5829L82.9315 33.4532C81.4054 34.528 79.172 34.1317 77.9462 32.5687C76.7204 31.0056 76.9641 28.8648 78.4901 27.7899L87.5647 21.3985C87.5896 21.3809 87.6172 21.3724 87.6407 21.3559C87.748 21.2847 87.8628 21.2259 87.98 21.1674C88.0663 21.1243 88.1493 21.0768 88.2397 21.0417C88.3476 20.9987 88.4641 20.9694 88.5784 20.9372C88.6847 20.9085 88.789 20.8746 88.898 20.855C89.0018 20.8368 89.1092 20.8315 89.2158 20.8224C89.3428 20.812 89.4674 20.8012 89.5956 20.8032C89.6285 20.8042 89.6587 20.7961 89.6927 20.7985C89.7686 20.8022 89.8401 20.8222 89.9154 20.8307C90.0397 20.8442 90.1641 20.8578 90.2882 20.8847C90.4037 20.9088 90.5131 20.9416 90.6236 20.9759C90.7342 21.0101 90.8433 21.0453 90.9516 21.0877C91.0622 21.1329 91.1681 21.1858 91.2726 21.2397C91.3759 21.2922 91.4777 21.348 91.5761 21.4106C91.6767 21.4759 91.7704 21.5462 91.865 21.6203C91.9548 21.691 92.0461 21.7609 92.1298 21.8403C92.2253 21.9292 92.311 22.0248 92.3979 22.1219C92.4475 22.177 92.5044 22.2249 92.551 22.2843L99.8704 31.6173C101.096 33.1804 100.853 35.3213 99.3266 36.3961C97.8005 37.4709 95.5672 37.0747 94.3413 35.5116L92.5759 33.2605C90.7127 42.5488 85.4933 50.6602 77.5549 56.2515C59.3573 69.0685 32.6181 64.2769 17.9494 45.5727C16.7235 44.0097 16.9672 41.8688 18.4932 40.794Z" fill="#324979"/>
</svg>
