<svg width="94" height="94" viewBox="0 0 94 94" fill="none" xmlns="http://www.w3.org/2000/svg">
<path d="M47 0C21.0826 0 0 21.0826 0 47C0 72.9174 21.0826 94 47 94C72.9174 94 94 72.9137 94 47C94 21.0863 72.9174 0 47 0ZM47 86.7189C25.1019 86.7189 7.28114 68.9018 7.28114 47C7.28114 25.0982 25.1019 7.28114 47 7.28114C68.9018 7.28114 86.7189 25.0982 86.7189 47C86.7189 68.9018 68.8981 86.7189 47 86.7189Z" fill="#1CB159"/>
<path d="M68.5634 30.6538C67.0816 29.3068 64.7771 29.4124 63.423 30.9013L41.2153 55.3553L30.4864 44.4481C29.0702 43.0137 26.7694 42.9919 25.3386 44.4044C23.9042 45.8133 23.8824 48.1178 25.2949 49.5522L38.725 63.2044C39.4131 63.9034 40.345 64.293 41.3207 64.293C41.3425 64.293 41.368 64.293 41.3899 64.2966C42.3947 64.2748 43.3413 63.8452 44.0147 63.1025L68.8107 35.7981C70.1616 34.3053 70.0523 32.0045 68.5634 30.6538Z" fill="#1CB159"/>
</svg>
