<svg width="19" height="19" viewBox="0 0 19 19" fill="none" xmlns="http://www.w3.org/2000/svg">
<path d="M10.6194 9.50227L18.7679 1.3538C19.0774 1.04427 19.0774 0.543946 18.7679 0.23441C18.4583 -0.0751257 17.958 -0.0751257 17.6485 0.23441L9.50001 8.38288L1.35154 0.23441C1.04201 -0.0751257 0.541688 -0.0751257 0.232152 0.23441C-0.077384 0.543946 -0.077384 1.04427 0.232152 1.3538L8.38062 9.50227L0.232152 17.6507C-0.077384 17.9603 -0.077384 18.4606 0.232152 18.7701C0.38653 18.9245 0.589189 19.0021 0.791847 19.0021C0.994506 19.0021 1.19716 18.9245 1.35154 18.7701L9.50001 10.6217L17.6485 18.7701C17.8029 18.9245 18.0055 19.0021 18.2082 19.0021C18.4108 19.0021 18.6135 18.9245 18.7679 18.7701C19.0774 18.4606 19.0774 17.9603 18.7679 17.6507L10.6194 9.50227Z" fill="#DD0726"/>
</svg>
