<svg width="24" height="29" viewBox="0 0 24 29" fill="" xmlns="http://www.w3.org/2000/svg">
<path d="M21.002 3.95093H16.1895V3.07593C16.1895 1.62851 15.0119 0.450928 13.5645 0.450928H10.0645C8.61704 0.450928 7.43945 1.62851 7.43945 3.07593V3.95093H2.62695C1.42077 3.95093 0.439453 4.93224 0.439453 6.13843V9.20093C0.439453 9.68415 0.831234 10.0759 1.31445 10.0759H1.79264L2.54859 25.9508C2.61536 27.3527 3.76708 28.4509 5.17058 28.4509H18.4583C19.8619 28.4509 21.0136 27.3527 21.0803 25.9508L21.8363 10.0759H22.3145C22.7977 10.0759 23.1895 9.68415 23.1895 9.20093V6.13843C23.1895 4.93224 22.2081 3.95093 21.002 3.95093ZM9.18945 3.07593C9.18945 2.59347 9.582 2.20093 10.0645 2.20093H13.5645C14.0469 2.20093 14.4395 2.59347 14.4395 3.07593V3.95093H9.18945V3.07593ZM2.18945 6.13843C2.18945 5.8972 2.38573 5.70093 2.62695 5.70093H21.002C21.2432 5.70093 21.4395 5.8972 21.4395 6.13843V8.32593C21.1698 8.32593 3.30688 8.32593 2.18945 8.32593V6.13843ZM19.3323 25.8675C19.31 26.3348 18.9261 26.7009 18.4583 26.7009H5.17058C4.70273 26.7009 4.31882 26.3348 4.29662 25.8675L3.54461 10.0759H20.0843L19.3323 25.8675Z" fill="white"/>
<path d="M11.8145 24.9509C12.2977 24.9509 12.6895 24.5591 12.6895 24.0759V12.7009C12.6895 12.2177 12.2977 11.8259 11.8145 11.8259C11.3312 11.8259 10.9395 12.2177 10.9395 12.7009V24.0759C10.9395 24.5591 11.3312 24.9509 11.8145 24.9509Z" fill="white"/>
<path d="M16.1895 24.9509C16.6727 24.9509 17.0645 24.5591 17.0645 24.0759V12.7009C17.0645 12.2177 16.6727 11.8259 16.1895 11.8259C15.7062 11.8259 15.3145 12.2177 15.3145 12.7009V24.0759C15.3145 24.5591 15.7062 24.9509 16.1895 24.9509Z" fill="white"/>
<path d="M7.43945 24.9509C7.92267 24.9509 8.31445 24.5591 8.31445 24.0759V12.7009C8.31445 12.2177 7.92267 11.8259 7.43945 11.8259C6.95623 11.8259 6.56445 12.2177 6.56445 12.7009V24.0759C6.56445 24.5591 6.95618 24.9509 7.43945 24.9509Z" fill="white"/>
</svg>
