<svg width="25" height="26" viewBox="0 0 25 26" fill="none" xmlns="http://www.w3.org/2000/svg">
<path d="M2.80443 20.4509H2.93958L9.45983 19.032C9.58683 19.0108 9.70451 18.952 9.79763 18.8631L20.8448 7.81585C21.6518 7.01059 22.1021 5.91531 22.0948 4.77535C22.0963 3.62654 21.6475 2.52292 20.8448 1.70104C20.0396 0.894038 18.9443 0.443784 17.8043 0.451091C16.657 0.440938 15.5566 0.905548 14.7638 1.73486L3.75033 12.782C3.65321 12.8602 3.5824 12.9663 3.54761 13.0861L2.12876 19.6063C2.09003 19.8404 2.1653 20.0789 2.33148 20.2482C2.45622 20.3755 2.62622 20.4484 2.80443 20.4509ZM17.8043 1.80244C19.4276 1.80231 20.7435 3.11815 20.7437 4.74141C20.7437 4.75272 20.7436 4.76404 20.7435 4.77535C20.7545 5.54867 20.4494 6.29302 19.8989 6.83613L15.7435 2.64694C16.291 2.10293 17.0325 1.79901 17.8043 1.80244ZM14.7976 3.62673L18.9529 7.78209L9.32461 17.3766L5.16925 13.255L14.7976 3.62673ZM4.62873 14.6064L7.97327 17.9509L3.68276 18.8969L4.62873 14.6064Z" fill="#06803E"/>
<path d="M24.2569 24.0996H1.62196C1.24879 24.0996 0.946289 24.4021 0.946289 24.7753C0.946289 25.1485 1.24879 25.451 1.62196 25.451H24.2569C24.6301 25.451 24.9326 25.1485 24.9326 24.7753C24.9326 24.4021 24.6301 24.0996 24.2569 24.0996Z" fill="#06803E"/>
</svg>
