<svg width="32" height="31" viewBox="0 0 32 31" fill="none" xmlns="http://www.w3.org/2000/svg">
<path d="M0.830566 30.95H26.6118C26.7486 30.95 26.8797 30.8956 26.9764 30.7989C27.0731 30.7022 27.1274 30.5711 27.1274 30.4343V28.8875H30.7368C30.8736 28.8875 31.0047 28.8331 31.1014 28.7364C31.1981 28.6397 31.2524 28.5086 31.2524 28.3718V2.59058C31.2516 1.90707 30.9797 1.25179 30.4964 0.768471C30.0131 0.285156 29.3578 0.0132699 28.6743 0.0124512H2.89307C2.20956 0.0132699 1.55428 0.285156 1.07096 0.768471C0.587646 1.25179 0.31576 1.90707 0.314941 2.59058V30.4343C0.314941 30.5711 0.369266 30.7022 0.465964 30.7989C0.562663 30.8956 0.693814 30.95 0.830566 30.95ZM7.01807 22.7V21.6687H8.04932V22.7H9.08057V21.6687H10.1118V22.7H11.1431V21.6687H12.1743V23.7312H4.95557V21.6687H5.98682V22.7H7.01807ZM4.43994 24.7625H5.47119V25.7937H6.50244V24.7625H7.53369V25.7937H8.56494V24.7625H9.59619V25.7937H10.6274V24.7625H11.6587V26.825H4.43994V24.7625ZM4.43994 29.9187V27.8562H5.47119V28.8875H6.50244V27.8562H7.53369V28.8875H8.56494V27.8562H9.59619V28.8875H10.6274V27.8562H11.6587V29.9187H4.43994ZM28.6743 1.0437C29.0846 1.0437 29.478 1.20668 29.7681 1.49677C30.0582 1.78687 30.2212 2.18032 30.2212 2.59058V27.8562H27.1274V2.59058C27.1274 2.18032 27.2904 1.78687 27.5805 1.49677C27.8706 1.20668 28.2641 1.0437 28.6743 1.0437ZM1.34619 2.59058C1.34619 2.18032 1.50917 1.78687 1.79926 1.49677C2.08936 1.20668 2.48281 1.0437 2.89307 1.0437H26.6118C26.2764 1.48961 26.0954 2.03263 26.0962 2.59058V8.77808H25.134C25.1588 8.60504 25.1719 8.43054 25.1732 8.25575C25.1708 7.69756 25.0505 7.14617 24.8203 6.63766C24.59 6.12915 24.2551 5.67497 23.8372 5.30483C23.019 4.58706 21.9814 4.168 20.8942 4.11611C19.807 4.06423 18.7343 4.38258 17.8513 5.01917C16.9684 4.38258 15.8957 4.06423 14.8085 4.11611C13.7213 4.168 12.6837 4.58706 11.8655 5.30483C11.4457 5.67338 11.1094 6.12725 10.879 6.63612C10.6486 7.14499 10.5295 7.69716 10.5295 8.25575C10.5295 8.81434 10.6486 9.36651 10.879 9.87538C11.1094 10.3842 11.4457 10.8381 11.8655 11.2067L17.5038 16.3464C17.5988 16.4331 17.7228 16.4811 17.8513 16.4811C17.9799 16.4811 18.1039 16.4331 18.1989 16.3464L23.8372 11.2067C24.2682 10.8171 24.612 10.3409 24.8463 9.80933H26.0962V29.9187H12.6899V24.7625C12.8267 24.7625 12.9578 24.7081 13.0545 24.6114C13.1512 24.5147 13.2056 24.3836 13.2056 24.2468V21.1531C13.2056 21.0163 13.1512 20.8852 13.0545 20.7885C12.9578 20.6918 12.8267 20.6375 12.6899 20.6375H4.43994C4.30319 20.6375 4.17204 20.6918 4.07534 20.7885C3.97864 20.8852 3.92432 21.0163 3.92432 21.1531V23.7312C3.78756 23.7312 3.65641 23.7855 3.55971 23.8822C3.46302 23.9789 3.40869 24.1101 3.40869 24.2468V29.9187H1.34619V2.59058ZM15.2634 9.80933C15.3435 9.80933 15.4224 9.79069 15.494 9.75489C15.5656 9.71909 15.6279 9.66712 15.6759 9.60308L16.7221 8.21089L18.4134 11.5877C18.4551 11.6711 18.5187 11.7416 18.5973 11.7917C18.6759 11.8419 18.7667 11.8697 18.8599 11.8723H18.8743C18.965 11.8725 19.0542 11.8488 19.1327 11.8035C19.2113 11.7583 19.2766 11.6931 19.3219 11.6145L20.9719 8.72703L21.5391 9.57987C21.5862 9.65047 21.65 9.70835 21.7248 9.74838C21.7997 9.7884 21.8832 9.80934 21.9681 9.80933H23.6784C23.5287 10.0434 23.3489 10.2568 23.1437 10.4441L17.8513 15.2677L12.5605 10.4446C12.2467 10.1728 11.995 9.83669 11.8225 9.45908C11.65 9.08146 11.5607 8.67116 11.5607 8.25601C11.5607 7.84085 11.65 7.43055 11.8225 7.05294C11.995 6.67532 12.2467 6.33922 12.5605 6.06744C13.2438 5.46686 14.1224 5.13562 15.0322 5.13562C15.9419 5.13562 16.8205 5.46686 17.5038 6.06744C17.5988 6.1541 17.7228 6.20215 17.8513 6.20215C17.9799 6.20215 18.1039 6.1541 18.1989 6.06744C18.8821 5.46665 19.7607 5.13528 20.6705 5.13528C21.5803 5.13528 22.459 5.46665 23.1422 6.06744C23.4534 6.34142 23.7034 6.67799 23.8756 7.05517C24.0479 7.43234 24.1387 7.84162 24.142 8.25626C24.1409 8.43142 24.1236 8.6061 24.0904 8.77808H22.2424L21.3658 7.46065C21.3179 7.38643 21.2512 7.32615 21.1726 7.28587C21.0939 7.2456 21.006 7.22674 20.9178 7.2312C20.8301 7.23404 20.7446 7.2592 20.6693 7.30432C20.5941 7.34943 20.5316 7.413 20.4877 7.48901L18.9032 10.2646L17.2718 7.00175C17.2327 6.92252 17.1739 6.85466 17.101 6.8047C17.0281 6.75473 16.9436 6.72433 16.8556 6.71641C16.7676 6.70849 16.6791 6.72332 16.5984 6.75947C16.5178 6.79562 16.4478 6.85188 16.3952 6.92286L15.003 8.77911H13.1983V9.81036L15.2634 9.80933Z" fill="#219653"/>
<path d="M14.7524 23.7312H24.0337V24.7625H14.7524V23.7312Z" fill="#219653"/>
<path d="M14.7524 21.6687H25.0649V22.7H14.7524V21.6687Z" fill="#219653"/>
<path d="M14.7524 27.8562H25.0649V28.8875H14.7524V27.8562Z" fill="#219653"/>
<path d="M14.7524 25.7937H23.0024V26.825H14.7524V25.7937Z" fill="#219653"/>
<path d="M14.7524 19.6062H23.0024V20.6375H14.7524V19.6062Z" fill="#219653"/>
<path d="M14.7524 17.5437H25.0649V18.575H14.7524V17.5437Z" fill="#219653"/>
<path d="M2.89307 13.4187H8.04932V14.45H2.89307V13.4187Z" fill="#219653"/>
<path d="M2.89307 15.4812H3.92432V16.5125H2.89307V15.4812Z" fill="#219653"/>
<path d="M4.95557 15.4812H8.04932V16.5125H4.95557V15.4812Z" fill="#219653"/>
<path d="M2.89307 17.5437H9.08057V18.575H2.89307V17.5437Z" fill="#219653"/>
<path d="M9.08057 13.4187H11.1431V14.45H9.08057V13.4187Z" fill="#219653"/>
<path d="M9.08057 15.4812H12.6899V16.5125H9.08057V15.4812Z" fill="#219653"/>
<path d="M10.1118 17.5437H12.1743V18.575H10.1118V17.5437Z" fill="#219653"/>
<path d="M4.43994 12.3875H7.53369V7.2312H9.59619V4.13745H7.53369V2.07495H4.43994V4.13745H2.37744V7.2312H4.43994V12.3875ZM3.40869 6.19995V5.1687H5.47119V3.1062H6.50244V5.1687H8.56494V6.19995H6.50244V11.3562H5.47119V6.19995H3.40869Z" fill="#219653"/>
<path d="M24.0337 2.07495H25.0649V3.1062H24.0337V2.07495Z" fill="#219653"/>
<path d="M23.0024 3.1062H24.0337V4.13745H23.0024V3.1062Z" fill="#219653"/>
</svg>