<svg width="34" height="34" viewBox="0 0 34 34" fill="none" xmlns="http://www.w3.org/2000/svg">
<path d="M1.25226 32.0437H21.3687V31.075H17.2679V30.0604C17.2679 28.5468 18.4964 27.3153 20.0065 27.3153C20.1236 27.3153 20.2426 27.3229 20.3601 27.3379L21.8721 27.5309L21.9948 26.5701L20.4827 26.377C20.3246 26.3569 20.1644 26.3467 20.0065 26.3467C18.6277 26.3467 17.4222 27.1047 16.7836 28.2265C16.1449 27.1047 14.9394 26.3467 13.5605 26.3467C13.4027 26.3467 13.2424 26.3569 13.0843 26.3771L1.1231 27.9039V31.075H0.283569V33.981H4.06146V33.0124H1.25226V32.0437ZM2.09179 28.7568L13.207 27.3378C13.3244 27.3229 13.4434 27.3152 13.5605 27.3152C15.0707 27.3152 16.2992 28.5467 16.2992 30.0603V31.075H2.09179V28.7568Z" fill="#219653"/>
<path d="M32.444 27.9041L22.9557 26.6929L22.833 27.6537L31.4754 28.7571V31.0752H22.3374V32.0439H32.3149V33.0126H5.03015V33.9813H33.2836V31.0752H32.444V27.9041Z" fill="#219653"/>
<path d="M7.83933 25.9088V23.9714H9.77671V20.4196H7.83933V18.4822H4.28748V20.4196H2.3501V23.9714H4.28748V25.9088H7.83933ZM3.31879 23.0027V21.3882H5.25616V19.4509H6.87065V21.3882H8.80802V23.0027H6.87065V24.9401H5.25616V23.0027H3.31879Z" fill="#219653"/>
<path d="M31.3462 2.91858V0.981201H27.7943V2.91858H25.8569V6.47044H27.7943V8.40782H31.3462V6.47044H33.2835V2.91858H31.3462ZM32.3149 5.50175H30.3775V7.43913H28.763V5.50175H26.8256V3.88727H28.763V1.94989H30.3775V3.88727H32.3149V5.50175Z" fill="#219653"/>
<path d="M1.60742 15.124H2.57611V16.0927H1.60742V15.124Z" fill="#219653"/>
<path d="M30.991 15.124H31.9597V16.0927H30.991V15.124Z" fill="#219653"/>
<path d="M7.32771 13.7428C7.06784 13.12 6.9361 12.4606 6.9361 11.7828C6.9361 10.4221 7.46681 9.14416 8.4304 8.18432C9.3892 7.22919 10.6626 6.70313 12.016 6.70313C13.3769 6.70313 14.6553 7.2341 15.6157 8.1982L16.7835 9.37064L17.9514 8.1982C18.9118 7.23403 20.1902 6.70306 21.5509 6.70306C21.7192 6.70306 21.8896 6.71152 22.0572 6.72819L22.153 5.76421C21.9536 5.74439 21.751 5.73438 21.5509 5.73438C19.9307 5.73438 18.4086 6.36661 17.2651 7.51457L16.7835 7.99801L16.302 7.51457C15.1585 6.36661 13.6364 5.73444 12.016 5.73444C10.4045 5.73444 8.88833 6.36073 7.74676 7.49797C6.59932 8.64089 5.96741 10.1626 5.96741 11.7828C5.96741 12.5893 6.12433 13.3743 6.43373 14.1158L7.32771 13.7428Z" fill="#219653"/>
<path d="M26.631 11.7829C26.631 12.4606 26.4993 13.1201 26.2394 13.7429L27.1335 14.1159C27.4429 13.3742 27.5998 12.5893 27.5998 11.7829C27.5998 10.1628 26.9679 8.6411 25.8204 7.49812C25.0877 6.76818 24.1769 6.23585 23.1864 5.95874L22.9254 6.89159C23.7566 7.12414 24.5213 7.57115 25.1368 8.1844C26.1004 9.14424 26.631 10.4222 26.631 11.7829Z" fill="#219653"/>
<path d="M24.2672 17.6292L23.5809 16.9456L16.7835 23.7694L9.98609 16.9456L9.2998 17.6292L16.7835 25.142L24.2672 17.6292Z" fill="#219653"/>
<path d="M12.9497 14.4773L15.5673 20.8836L17.7095 13.5747L19.3847 18.7736L21.4157 16.0929H30.0223V15.1242H20.9342L19.7362 16.7057L17.6658 10.2803L15.4166 17.9538L13.1262 12.3483L11.4117 15.1242H3.5448V16.0929H11.9519L12.9497 14.4773Z" fill="#219653"/>
<path d="M10.4548 7.82666H11.4235V8.79535H10.4548V7.82666Z" fill="#219653"/>
<path d="M8.51746 9.37646H9.48614V10.3452H8.51746V9.37646Z" fill="#219653"/>
</svg>