<svg width="55" height="55" viewBox="0 0 55 55" fill="none" xmlns="http://www.w3.org/2000/svg">
<path d="M16.9254 24.8977C15.5794 23.5139 13.2987 23.5073 11.9303 24.862C11.4262 25.361 11.0922 25.984 10.9554 26.6628L9.25418 24.9975C8.84243 24.5945 8.57398 24.058 8.49804 23.4869L7.21553 13.8401C6.97716 12.0466 5.43297 10.6941 3.62355 10.6941C1.62551 10.6941 0 12.3196 0 14.3175V28.1725C0 29.4984 0.472334 30.7855 1.3301 31.7967L5.87179 37.1512C6.16086 37.492 6.66961 37.5311 7.00734 37.2445C7.34658 36.9566 7.38848 36.4482 7.10059 36.1089L2.5589 30.7543C1.94788 30.034 1.61133 29.117 1.61133 28.1725V14.3175C1.61133 13.2081 2.51399 12.3054 3.62355 12.3054C4.62838 12.3054 5.48582 13.0565 5.61816 14.0525L6.90057 23.6994C7.02367 24.6255 7.45916 25.4955 8.12689 26.1491L11.9442 29.8856L11.9443 29.8857L15.5579 33.4228C15.8667 33.726 16.3816 33.7329 16.6971 33.4107C17.0083 33.0927 17.003 32.5827 16.685 32.2715L13.0714 28.7343C12.7022 28.3728 12.4981 27.8891 12.4966 27.3724C12.4951 26.8556 12.6965 26.3709 13.0637 26.0074C13.8059 25.2726 15.045 25.2754 15.7752 26.0267L23.2297 33.6208C24.2254 34.6351 24.7736 35.9764 24.7736 37.3976V54.1943C24.7736 54.6394 25.1342 55 25.5793 55C26.0243 55 26.385 54.6394 26.385 54.1943V37.3975C26.385 35.5515 25.6728 33.8093 24.3796 32.4919L16.9254 24.8977ZM9.57387 39.0245C9.28619 38.6853 8.77787 38.6436 8.43831 38.9313C8.09907 39.2192 8.05718 39.7275 8.34507 40.0669L12.2315 44.6487C12.6472 45.1388 12.8762 45.7628 12.8762 46.4056V54.1943C12.8762 54.6394 13.2368 55 13.6819 55C14.1269 55 14.4876 54.6394 14.4876 54.1943V46.4057C14.4876 45.3817 14.1228 44.3875 13.4604 43.6064L9.57387 39.0245ZM26.2825 21.4983H28.7175C29.6094 21.4983 30.335 20.7728 30.335 19.8809V15.6133H34.6025C35.4944 15.6133 36.22 14.8878 36.22 13.9959V11.5607C36.22 10.6688 35.4944 9.94329 34.6025 9.94329H30.335V5.67596C30.335 4.78403 29.6094 4.05851 28.7175 4.05851H26.2825C25.3906 4.05851 24.665 4.78403 24.665 5.67596V9.94351H20.3975C19.5056 9.94351 18.78 10.669 18.78 11.561V13.9961C18.78 14.888 19.5056 15.6136 20.3975 15.6136H24.665V19.8811C24.665 20.7728 25.3906 21.4983 26.2825 21.4983ZM20.3915 13.996L20.3976 11.5547H25.0649C25.7329 11.5547 26.2764 11.0112 26.2764 10.3432L26.2825 5.66983L28.7236 5.67596V10.3432C28.7236 11.0113 29.2672 11.5547 29.9351 11.5547H34.6024L34.6085 11.5609L34.6024 14.0021H29.9351C29.2671 14.0021 28.7236 14.5456 28.7236 15.2135L28.7175 19.887L26.2764 19.8809V15.2135C26.2764 14.5455 25.7328 14.0021 25.0649 14.0021L20.3915 13.996ZM38.8507 18.6446C39.0556 18.2496 38.9016 17.7633 38.5067 17.5584C38.1118 17.3535 37.6255 17.5075 37.4205 17.9025C35.4868 21.6299 31.6855 23.9455 27.5 23.9455C21.3425 23.9455 16.333 18.9359 16.333 12.7784C16.333 6.62084 21.3425 1.61133 27.5 1.61133C33.6575 1.61133 38.667 6.62084 38.667 12.7784C38.667 13.3769 38.6191 13.9774 38.5247 14.563C38.4539 15.0022 38.7525 15.4158 39.1918 15.4867C39.6315 15.5581 40.0445 15.2588 40.1155 14.8196C40.2236 14.1495 40.2785 13.4626 40.2785 12.7784C40.2784 5.73235 34.546 0 27.5 0C20.454 0 14.7216 5.73235 14.7216 12.7784C14.7216 19.8245 20.454 25.5568 27.5 25.5568C32.2895 25.5568 36.6389 22.9083 38.8507 18.6446ZM51.3764 10.6941C49.567 10.6941 48.0228 12.0466 47.7845 13.8401L46.5021 23.487C46.4262 24.058 46.1577 24.5946 45.7459 24.9976L44.0447 26.6629C43.908 25.9841 43.5739 25.361 43.0698 24.8621C41.6948 23.501 39.4168 23.5186 38.0747 24.8978L30.6203 32.4919C29.3271 33.8093 28.6149 35.5515 28.6149 37.3975V54.1943C28.6149 54.6394 28.9755 55 29.4206 55C29.8656 55 30.2263 54.6394 30.2263 54.1943V37.3975C30.2263 35.9763 30.7745 34.635 31.7702 33.6207L39.2247 26.0266C39.9508 25.2771 41.1933 25.2717 41.9362 26.0073C42.3034 26.3708 42.5048 26.8555 42.5033 27.3723C42.5018 27.889 42.2977 28.3727 41.9285 28.7342L38.3149 32.2714C37.9969 32.5826 37.9915 33.0927 38.3028 33.4106C38.6139 33.7284 39.1241 33.7342 39.442 33.4227L43.0555 29.8856L43.0557 29.8855L46.873 26.149C47.5407 25.4954 47.9763 24.6254 48.0993 23.6993L49.3817 14.0524C49.5141 13.0565 50.3716 12.3053 51.3763 12.3053C52.4859 12.3053 53.3886 13.2079 53.3886 14.3174V28.1725C53.3886 29.117 53.052 30.034 52.441 30.7543L41.5397 43.6065C40.8774 44.3876 40.5126 45.3817 40.5126 46.4058V54.1943C40.5126 54.6394 40.8732 55 41.3182 55C41.7633 55 42.1239 54.6394 42.1239 54.1943V46.4057C42.1239 45.7629 42.3529 45.1389 42.7686 44.6488L53.6699 31.7967C54.5277 30.7855 55 29.4984 55 28.1725V14.3175C55 12.3196 53.3744 10.6941 51.3764 10.6941Z" fill="#1956D7"/>
</svg>
