<svg width="26" height="26" viewBox="0 0 26 26" fill="none" xmlns="http://www.w3.org/2000/svg">
<path d="M13 7.46484C13.5609 7.46484 14.0156 7.01013 14.0156 6.44922C14.0156 5.8883 13.5609 5.43359 13 5.43359C12.4391 5.43359 11.9844 5.8883 11.9844 6.44922C11.9844 7.01013 12.4391 7.46484 13 7.46484Z" fill="#324979"/>
<path d="M13 7.46484C13.5609 7.46484 14.0156 7.01013 14.0156 6.44922C14.0156 5.8883 13.5609 5.43359 13 5.43359C12.4391 5.43359 11.9844 5.8883 11.9844 6.44922C11.9844 7.01013 12.4391 7.46484 13 7.46484Z" fill="url(#paint0_linear)"/>
<path d="M22.1924 3.80758C19.737 1.35225 16.4724 0 13 0C9.52758 0 6.263 1.35225 3.80758 3.80758C1.35225 6.263 0 9.52758 0 13C0 16.4724 1.35225 19.737 3.80758 22.1924C6.263 24.6477 9.52758 26 13 26C15.3772 26 17.7033 25.3521 19.7265 24.1265C20.2063 23.8359 20.3596 23.2113 20.069 22.7316C19.7784 22.2518 19.1539 22.0985 18.6741 22.3891C16.9683 23.4225 15.0062 23.9688 13 23.9688C6.9518 23.9688 2.03125 19.0482 2.03125 13C2.03125 6.9518 6.9518 2.03125 13 2.03125C19.0482 2.03125 23.9688 6.9518 23.9688 13C23.9688 15.1627 23.3256 17.2679 22.1088 19.0879C21.797 19.5541 21.9223 20.1849 22.3886 20.4966C22.855 20.8083 23.4857 20.6832 23.7974 20.2168C25.2383 18.0616 26 15.566 26 13C26 9.52758 24.6477 6.263 22.1924 3.80758Z" fill="#324979"/>
<path d="M22.1924 3.80758C19.737 1.35225 16.4724 0 13 0C9.52758 0 6.263 1.35225 3.80758 3.80758C1.35225 6.263 0 9.52758 0 13C0 16.4724 1.35225 19.737 3.80758 22.1924C6.263 24.6477 9.52758 26 13 26C15.3772 26 17.7033 25.3521 19.7265 24.1265C20.2063 23.8359 20.3596 23.2113 20.069 22.7316C19.7784 22.2518 19.1539 22.0985 18.6741 22.3891C16.9683 23.4225 15.0062 23.9688 13 23.9688C6.9518 23.9688 2.03125 19.0482 2.03125 13C2.03125 6.9518 6.9518 2.03125 13 2.03125C19.0482 2.03125 23.9688 6.9518 23.9688 13C23.9688 15.1627 23.3256 17.2679 22.1088 19.0879C21.797 19.5541 21.9223 20.1849 22.3886 20.4966C22.855 20.8083 23.4857 20.6832 23.7974 20.2168C25.2383 18.0616 26 15.566 26 13C26 9.52758 24.6477 6.263 22.1924 3.80758Z" fill="url(#paint1_linear)"/>
<path d="M13 9.49609C12.4391 9.49609 11.9844 9.95079 11.9844 10.5117V19.5508C11.9844 20.1117 12.4391 20.5664 13 20.5664C13.5609 20.5664 14.0156 20.1117 14.0156 19.5508V10.5117C14.0156 9.95079 13.5609 9.49609 13 9.49609Z" fill="#324979"/>
<path d="M13 9.49609C12.4391 9.49609 11.9844 9.95079 11.9844 10.5117V19.5508C11.9844 20.1117 12.4391 20.5664 13 20.5664C13.5609 20.5664 14.0156 20.1117 14.0156 19.5508V10.5117C14.0156 9.95079 13.5609 9.49609 13 9.49609Z" fill="url(#paint2_linear)"/>
<defs>
<linearGradient id="paint0_linear" x1="13" y1="5.43359" x2="13.0493" y2="12.8918" gradientUnits="userSpaceOnUse">
<stop stop-color="#1F4699"/>
<stop offset="1" stop-color="#2254BC" stop-opacity="0"/>
</linearGradient>
<linearGradient id="paint1_linear" x1="13" y1="-9.41145e-09" x2="13.6316" y2="95.465" gradientUnits="userSpaceOnUse">
<stop stop-color="#1F4699"/>
<stop offset="1" stop-color="#2254BC" stop-opacity="0"/>
</linearGradient>
<linearGradient id="paint2_linear" x1="13" y1="9.49609" x2="14.4637" y2="50.0923" gradientUnits="userSpaceOnUse">
<stop stop-color="#1F4699"/>
<stop offset="1" stop-color="#2254BC" stop-opacity="0"/>
</linearGradient>
</defs>
</svg>
