<svg width="55" height="55" viewBox="0 0 55 55" fill="none" xmlns="http://www.w3.org/2000/svg">
<g clip-path="url(#clip0)">
<path d="M42.3242 7.09586H35.8656V0.750664C35.8652 0.551457 35.7859 0.360526 35.6449 0.219786C35.5039 0.0790463 35.3128 -1.69793e-07 35.1136 1.2292e-07H19.8864C19.7876 -5.6362e-05 19.6898 0.0193549 19.5985 0.0571241C19.5073 0.0948933 19.4244 0.15028 19.3545 0.220116C19.2847 0.289953 19.2293 0.37287 19.1915 0.464126C19.1538 0.555383 19.1344 0.653189 19.1344 0.751953V7.09586H12.6758C11.5651 7.09711 10.5002 7.5389 9.71477 8.3243C8.92937 9.10971 8.48758 10.1746 8.48633 11.2853V50.8088C8.48712 51.9199 8.92871 52.9852 9.71417 53.7709C10.4996 54.5567 11.5648 54.9987 12.6758 55H42.3242C43.4349 54.9987 44.4998 54.557 45.2852 53.7716C46.0706 52.9862 46.5124 51.9213 46.5137 50.8105V11.2853C46.5124 10.1746 46.0706 9.10971 45.2852 8.3243C44.4998 7.5389 43.4349 7.09711 42.3242 7.09586ZM19.8864 12.8966H40.7129V49.1992H14.2871V12.8966H19.8864ZM20.6383 1.50391H34.3617V11.3927H20.6383V1.50391ZM45.0098 50.8088C45.009 51.5208 44.7258 52.2034 44.2223 52.7069C43.7188 53.2104 43.0362 53.4936 42.3242 53.4944H12.6758C11.9638 53.4936 11.2812 53.2104 10.7777 52.7069C10.2742 52.2034 9.99103 51.5208 9.99023 50.8088V11.2853C9.99103 10.5733 10.2742 9.89069 10.7777 9.38722C11.2812 8.88376 11.9638 8.60056 12.6758 8.59977H19.1344V11.3927H13.5352C13.4364 11.3927 13.3386 11.4121 13.2473 11.4499C13.1561 11.4876 13.0732 11.543 13.0033 11.6129C12.9335 11.6827 12.8781 11.7656 12.8403 11.8569C12.8026 11.9481 12.7831 12.0459 12.7832 12.1447V49.9495C12.7829 50.0484 12.8022 50.1464 12.8398 50.2378C12.8775 50.3293 12.9329 50.4124 13.0027 50.4824C13.0726 50.5524 13.1556 50.608 13.2469 50.6458C13.3383 50.6837 13.4362 50.7032 13.5352 50.7031H41.4648C41.5636 50.7032 41.6614 50.6838 41.7527 50.646C41.8439 50.6082 41.9268 50.5528 41.9967 50.483C42.0665 50.4132 42.1219 50.3303 42.1597 50.239C42.1974 50.1477 42.2169 50.0499 42.2168 49.9512V12.1447C42.2169 12.0459 42.1974 11.9481 42.1597 11.8569C42.1219 11.7656 42.0665 11.6827 41.9967 11.6129C41.9268 11.543 41.8439 11.4876 41.7527 11.4499C41.6614 11.4121 41.5636 11.3927 41.4648 11.3927H35.8656V8.59977H42.3242C43.0362 8.60056 43.7188 8.88376 44.2223 9.38722C44.7258 9.89069 45.009 10.5733 45.0098 11.2853V50.8088Z" fill="#1753D0"/>
<path d="M25.1233 7.19984H26.7479V8.82449C26.7479 9.02392 26.8272 9.21518 26.9682 9.3562C27.1092 9.49722 27.3005 9.57644 27.4999 9.57644C27.6993 9.57644 27.8906 9.49722 28.0316 9.3562C28.1726 9.21518 28.2518 9.02392 28.2518 8.82449V7.19984H29.8765C30.0759 7.19984 30.2672 7.12062 30.4082 6.9796C30.5492 6.83858 30.6284 6.64732 30.6284 6.44789C30.6284 6.24846 30.5492 6.0572 30.4082 5.91618C30.2672 5.77516 30.0759 5.69594 29.8765 5.69594H28.2518V4.07129C28.2518 3.87186 28.1726 3.6806 28.0316 3.53958C27.8906 3.39856 27.6993 3.31934 27.4999 3.31934C27.3005 3.31934 27.1092 3.39856 26.9682 3.53958C26.8272 3.6806 26.7479 3.87186 26.7479 4.07129V5.69594H25.1233C24.9239 5.69594 24.7326 5.77516 24.5916 5.91618C24.4506 6.0572 24.3713 6.24846 24.3713 6.44789C24.3713 6.64732 24.4506 6.83858 24.5916 6.9796C24.7326 7.12062 24.9239 7.19984 25.1233 7.19984Z" fill="#1753D0"/>
<path d="M19.4403 25.4448C19.5921 25.5728 19.7884 25.6357 19.9863 25.6196C20.1842 25.6035 20.3678 25.5098 20.4969 25.3589L24.6868 20.4776C24.7574 20.4038 24.8122 20.3163 24.8479 20.2206C24.8836 20.1248 24.8994 20.0228 24.8944 19.9208C24.8893 19.8187 24.8635 19.7188 24.8185 19.627C24.7736 19.5353 24.7104 19.4536 24.6328 19.3871C24.5552 19.3206 24.4649 19.2706 24.3674 19.2402C24.2699 19.2097 24.1671 19.1995 24.0655 19.21C23.9639 19.2206 23.8655 19.2518 23.7763 19.3017C23.6871 19.3515 23.609 19.4191 23.5468 19.5001L19.8421 23.8146L18.318 22.5255C18.2426 22.4617 18.1553 22.4134 18.0613 22.3833C17.9672 22.3531 17.8681 22.3419 17.7697 22.35C17.6713 22.3582 17.5754 22.3857 17.4876 22.4309C17.3998 22.4762 17.3217 22.5382 17.2579 22.6136C17.1941 22.689 17.1458 22.7762 17.1156 22.8703C17.0855 22.9644 17.0742 23.0635 17.0824 23.1619C17.0906 23.2603 17.1181 23.3562 17.1633 23.444C17.2085 23.5318 17.2706 23.6098 17.346 23.6737L19.4403 25.4448Z" fill="#1753D0"/>
<path d="M27.5 21.4934H37.168C37.3674 21.4934 37.5587 21.4142 37.6997 21.2732C37.8407 21.1321 37.9199 20.9409 37.9199 20.7415C37.9199 20.542 37.8407 20.3508 37.6997 20.2097C37.5587 20.0687 37.3674 19.9895 37.168 19.9895H27.5C27.3006 19.9895 27.1093 20.0687 26.9683 20.2097C26.8273 20.3508 26.748 20.542 26.748 20.7415C26.748 20.9409 26.8273 21.1321 26.9683 21.2732C27.1093 21.4142 27.3006 21.4934 27.5 21.4934Z" fill="#1753D0"/>
<path d="M27.5 24.8712H34.0527C34.2522 24.8712 34.4434 24.7919 34.5844 24.6509C34.7255 24.5099 34.8047 24.3186 34.8047 24.1192C34.8047 23.9198 34.7255 23.7285 34.5844 23.5875C34.4434 23.4465 34.2522 23.3672 34.0527 23.3672H27.5C27.3006 23.3672 27.1093 23.4465 26.9683 23.5875C26.8273 23.7285 26.748 23.9198 26.748 24.1192C26.748 24.3186 26.8273 24.5099 26.9683 24.6509C27.1093 24.7919 27.3006 24.8712 27.5 24.8712Z" fill="#1753D0"/>
<path d="M19.4403 34.0617C19.5921 34.1899 19.7884 34.2527 19.9863 34.2366C20.1843 34.2205 20.3678 34.1268 20.4969 33.9758L24.6868 29.095C24.8167 28.9436 24.8812 28.7469 24.866 28.548C24.8509 28.3491 24.7573 28.1644 24.606 28.0345C24.4547 27.9046 24.2579 27.8401 24.059 27.8553C23.8602 27.8704 23.6754 27.9639 23.5455 28.1153L19.8421 32.4315L18.318 31.1424C18.2426 31.0786 18.1553 31.0303 18.0613 31.0002C17.9672 30.97 17.8681 30.9588 17.7697 30.9669C17.6713 30.9751 17.5754 31.0026 17.4876 31.0478C17.3998 31.0931 17.3217 31.1551 17.2579 31.2305C17.1941 31.3059 17.1458 31.3931 17.1156 31.4872C17.0855 31.5813 17.0742 31.6803 17.0824 31.7788C17.0906 31.8772 17.1181 31.9731 17.1633 32.0609C17.2085 32.1487 17.2706 32.2267 17.346 32.2906L19.4403 34.0617Z" fill="#1753D0"/>
<path d="M27.5 30.1099H37.168C37.3674 30.1099 37.5587 30.0307 37.6997 29.8897C37.8407 29.7486 37.9199 29.5574 37.9199 29.3579C37.9199 29.1585 37.8407 28.9672 37.6997 28.8262C37.5587 28.6852 37.3674 28.606 37.168 28.606H27.5C27.3006 28.606 27.1093 28.6852 26.9683 28.8262C26.8273 28.9672 26.748 29.1585 26.748 29.3579C26.748 29.5574 26.8273 29.7486 26.9683 29.8897C27.1093 30.0307 27.3006 30.1099 27.5 30.1099Z" fill="#1753D0"/>
<path d="M27.5 33.4877H34.0527C34.2522 33.4877 34.4434 33.4085 34.5844 33.2675C34.7255 33.1264 34.8047 32.9352 34.8047 32.7358C34.8047 32.5363 34.7255 32.3451 34.5844 32.204C34.4434 32.063 34.2522 31.9838 34.0527 31.9838H27.5C27.3006 31.9838 27.1093 32.063 26.9683 32.204C26.8273 32.3451 26.748 32.5363 26.748 32.7358C26.748 32.9352 26.8273 33.1264 26.9683 33.2675C27.1093 33.4085 27.3006 33.4877 27.5 33.4877Z" fill="#1753D0"/>
<path d="M19.4403 42.6783C19.5921 42.8063 19.7884 42.8691 19.9863 42.853C20.1842 42.8369 20.3678 42.7432 20.4969 42.5924L24.6868 37.7115C24.8167 37.5602 24.8812 37.3635 24.866 37.1646C24.8509 36.9657 24.7574 36.781 24.606 36.6511C24.4547 36.5212 24.2579 36.4567 24.0591 36.4718C23.8602 36.487 23.6755 36.5805 23.5455 36.7319L19.8421 41.0481L18.318 39.759C18.2429 39.693 18.1555 39.6425 18.0608 39.6107C17.966 39.5788 17.8659 39.5661 17.7662 39.5734C17.6665 39.5807 17.5693 39.6078 17.4802 39.6531C17.3911 39.6984 17.3119 39.761 17.2473 39.8373C17.1827 39.9136 17.1339 40.002 17.1039 40.0973C17.0738 40.1926 17.0631 40.293 17.0723 40.3925C17.0815 40.492 17.1104 40.5887 17.1574 40.677C17.2044 40.7652 17.2685 40.8431 17.346 40.9063L19.4403 42.6783Z" fill="#1753D0"/>
<path d="M27.5 38.7269H37.168C37.3674 38.7269 37.5587 38.6476 37.6997 38.5066C37.8407 38.3656 37.9199 38.1743 37.9199 37.9749C37.9199 37.7755 37.8407 37.5842 37.6997 37.4432C37.5587 37.3022 37.3674 37.223 37.168 37.223H27.5C27.3006 37.223 27.1093 37.3022 26.9683 37.4432C26.8273 37.5842 26.748 37.7755 26.748 37.9749C26.748 38.1743 26.8273 38.3656 26.9683 38.5066C27.1093 38.6476 27.3006 38.7269 27.5 38.7269Z" fill="#1753D0"/>
<path d="M27.5 42.1046H34.0527C34.2522 42.1046 34.4434 42.0254 34.5844 41.8844C34.7255 41.7434 34.8047 41.5521 34.8047 41.3527C34.8047 41.1532 34.7255 40.962 34.5844 40.821C34.4434 40.6799 34.2522 40.6007 34.0527 40.6007H27.5C27.3006 40.6007 27.1093 40.6799 26.9683 40.821C26.8273 40.962 26.748 41.1532 26.748 41.3527C26.748 41.5521 26.8273 41.7434 26.9683 41.8844C27.1093 42.0254 27.3006 42.1046 27.5 42.1046Z" fill="#1753D0"/>
</g>
<defs>
<clipPath id="clip0">
<rect width="55" height="55" fill="white"/>
</clipPath>
</defs>
</svg>
