<svg width="26" height="26" viewBox="0 0 26 26" fill="none" xmlns="http://www.w3.org/2000/svg">
<path d="M16.2917 18.8906H18.3219V22.9532C18.3219 24.6333 16.9558 26 15.2766 26H3.04509C1.36613 26 0 24.6333 0 22.9532V3.04679C0 1.3669 1.36613 0 3.04509 0H15.2766C16.9558 0 18.3219 1.3669 18.3219 3.04679V7.10937H16.2917V3.04679C16.2917 2.48689 15.8364 2.03119 15.2766 2.03119H3.04509C2.4855 2.03119 2.03006 2.48689 2.03006 3.04679V22.9532C2.03006 23.5131 2.4855 23.9688 3.04509 23.9688H15.2766C15.8364 23.9688 16.2917 23.5131 16.2917 22.9532V18.8906ZM21.2149 8.21209L19.7793 9.64846L22.1138 11.9845H8.98332V14.0157H22.1138L19.7793 16.3515L21.2149 17.7879L26 13.0001L21.2149 8.21209Z" fill="#324979"/>
<path d="M16.2917 18.8906H18.3219V22.9532C18.3219 24.6333 16.9558 26 15.2766 26H3.04509C1.36613 26 0 24.6333 0 22.9532V3.04679C0 1.3669 1.36613 0 3.04509 0H15.2766C16.9558 0 18.3219 1.3669 18.3219 3.04679V7.10937H16.2917V3.04679C16.2917 2.48689 15.8364 2.03119 15.2766 2.03119H3.04509C2.4855 2.03119 2.03006 2.48689 2.03006 3.04679V22.9532C2.03006 23.5131 2.4855 23.9688 3.04509 23.9688H15.2766C15.8364 23.9688 16.2917 23.5131 16.2917 22.9532V18.8906ZM21.2149 8.21209L19.7793 9.64846L22.1138 11.9845H8.98332V14.0157H22.1138L19.7793 16.3515L21.2149 17.7879L26 13.0001L21.2149 8.21209Z" fill="url(#paint0_linear)"/>
<defs>
<linearGradient id="paint0_linear" x1="13" y1="-9.41145e-09" x2="13.6316" y2="95.465" gradientUnits="userSpaceOnUse">
<stop stop-color="#1F4699"/>
<stop offset="1" stop-color="#2254BC" stop-opacity="0"/>
</linearGradient>
</defs>
</svg>
