<svg width="27" height="27" viewBox="0 0 27 27" fill="none" xmlns="http://www.w3.org/2000/svg">
<g clip-path="url(#clip0)">
<path d="M16.8315 19.2014H18.8617V23.2617C18.8617 24.9409 17.4956 26.3068 15.8164 26.3068H3.58488C1.90593 26.3068 0.539795 24.9409 0.539795 23.2617V3.36638C0.539795 1.68742 1.90593 0.321289 3.58488 0.321289H15.8164C17.4956 0.321289 18.8617 1.68742 18.8617 3.36638V7.4267H16.8315V3.36638C16.8315 2.80679 16.3762 2.35135 15.8164 2.35135H3.58488C3.0253 2.35135 2.56985 2.80679 2.56985 3.36638V23.2617C2.56985 23.8213 3.0253 24.2767 3.58488 24.2767H15.8164C16.3762 24.2767 16.8315 23.8213 16.8315 23.2617V19.2014ZM21.7547 8.52881L20.3191 9.96437L22.6536 12.2991H9.52312V14.3292H22.6536L20.3191 16.6637L21.7547 18.0993L26.5398 13.3141L21.7547 8.52881Z" fill="#1956D7"/>
</g>
<defs>
<clipPath id="clip0">
<rect width="26" height="26" fill="white" transform="translate(0.539795 0.321289)"/>
</clipPath>
</defs>
</svg>
