<svg width="34" height="34" viewBox="0 0 34 34" fill="none" xmlns="http://www.w3.org/2000/svg">
<path d="M33.9354 16.7088C33.7828 7.53284 26.1911 0.189436 17.0152 0.341984C12.5695 0.416766 8.41873 2.21736 5.3279 5.4127C2.23707 8.60803 0.575449 12.8164 0.649346 17.2612C0.725637 21.8501 2.66173 25.9794 5.72544 28.9429C8.78916 31.9065 12.9806 33.7043 17.5695 33.6279C26.7454 33.4754 34.087 25.8855 33.9354 16.7088ZM17.5267 31.05C9.77098 31.179 3.3562 24.974 3.22726 17.2183C3.16482 13.4627 4.56917 9.90599 7.18133 7.20551C9.79349 4.50503 13.3015 2.98323 17.0581 2.91985C24.8137 2.79092 31.2276 8.99683 31.3575 16.7516C31.4855 24.5063 25.2805 30.9211 17.5267 31.05Z" fill="white"/>
<path d="M18.8077 23.4093L18.7182 18.2517L23.876 18.1697C24.587 18.1578 25.1544 17.5712 25.1444 16.8601C25.1335 16.1464 24.546 15.5799 23.8341 15.5908L18.6727 15.673L18.5832 10.5117C18.5705 9.79984 17.9848 9.23148 17.271 9.24426C16.5591 9.25702 15.9917 9.84363 16.0044 10.5556L16.0939 15.7132L10.9361 15.7953C10.2242 15.8062 9.65677 16.3928 9.66764 17.1048C9.67269 17.4612 9.82389 17.7814 10.0611 18.0109C10.2984 18.2404 10.6235 18.3791 10.9781 18.3741L16.1395 18.2919L16.2289 23.4532C16.2348 23.8087 16.3851 24.1281 16.6224 24.3576C16.8596 24.5871 17.1856 24.7266 17.5411 24.7207C18.253 24.7078 18.8204 24.1212 18.8077 23.4093Z" fill="white"/>
</svg>
