<svg width="51" height="51" viewBox="0 0 51 51" fill="none" xmlns="http://www.w3.org/2000/svg">
<path d="M25.5 51C11.4387 51 0 39.5613 0 25.5C0 11.4387 11.4387 0 25.5 0C39.5613 0 51 11.4387 51 25.5C51 39.5613 39.5613 51 25.5 51ZM25.5 3.1875C13.1963 3.1875 3.1875 13.1963 3.1875 25.5C3.1875 37.8037 13.1963 47.8125 25.5 47.8125C37.8037 47.8125 47.8125 37.8037 47.8125 25.5C47.8125 13.1963 37.8037 3.1875 25.5 3.1875Z" fill="#07AD54"/>
<path d="M25.5 51C11.4387 51 0 39.5613 0 25.5C0 11.4387 11.4387 0 25.5 0C39.5613 0 51 11.4387 51 25.5C51 39.5613 39.5613 51 25.5 51ZM25.5 3.1875C13.1963 3.1875 3.1875 13.1963 3.1875 25.5C3.1875 37.8037 13.1963 47.8125 25.5 47.8125C37.8037 47.8125 47.8125 37.8037 47.8125 25.5C47.8125 13.1963 37.8037 3.1875 25.5 3.1875Z" fill="url(#paint0_linear)"/>
<path d="M36.6562 27.0938H14.3438C13.464 27.0938 12.75 26.3798 12.75 25.5C12.75 24.6202 13.464 23.9062 14.3438 23.9062H36.6562C37.536 23.9062 38.25 24.6202 38.25 25.5C38.25 26.3798 37.536 27.0938 36.6562 27.0938Z" fill="#07AD54"/>
<path d="M36.6562 27.0938H14.3438C13.464 27.0938 12.75 26.3798 12.75 25.5C12.75 24.6202 13.464 23.9062 14.3438 23.9062H36.6562C37.536 23.9062 38.25 24.6202 38.25 25.5C38.25 26.3798 37.536 27.0938 36.6562 27.0938Z" fill="url(#paint1_linear)"/>
<path d="M25.5 38.25C24.6202 38.25 23.9062 37.536 23.9062 36.6562V14.3438C23.9062 13.464 24.6202 12.75 25.5 12.75C26.3798 12.75 27.0938 13.464 27.0938 14.3438V36.6562C27.0938 37.536 26.3798 38.25 25.5 38.25Z" fill="#07AD54"/>
<path d="M25.5 38.25C24.6202 38.25 23.9062 37.536 23.9062 36.6562V14.3438C23.9062 13.464 24.6202 12.75 25.5 12.75C26.3798 12.75 27.0938 13.464 27.0938 14.3438V36.6562C27.0938 37.536 26.3798 38.25 25.5 38.25Z" fill="url(#paint2_linear)"/>
<defs>
<linearGradient id="paint0_linear" x1="25.5" y1="0" x2="25.5" y2="51" gradientUnits="userSpaceOnUse">
<stop stop-color="#179B15" stop-opacity="0.31"/>
<stop offset="1" stop-color="white" stop-opacity="0"/>
</linearGradient>
<linearGradient id="paint1_linear" x1="25.5" y1="23.9062" x2="25.5" y2="27.0938" gradientUnits="userSpaceOnUse">
<stop stop-color="#179B15" stop-opacity="0.31"/>
<stop offset="1" stop-color="white" stop-opacity="0"/>
</linearGradient>
<linearGradient id="paint2_linear" x1="25.5" y1="12.75" x2="25.5" y2="38.25" gradientUnits="userSpaceOnUse">
<stop stop-color="#179B15" stop-opacity="0.31"/>
<stop offset="1" stop-color="white" stop-opacity="0"/>
</linearGradient>
</defs>
</svg>
