<svg id="Слой_1" data-name="Слой 1" xmlns="http://www.w3.org/2000/svg" viewBox="0 0 21 26" height="25"><defs><style>.cls-1{fill:#1956d7;}</style></defs><title>i_profile</title><path class="cls-1" d="M8.3,12.55h4.4a7.85,7.85,0,0,1,7.84,7.84v5.19H.46V20.39A7.85,7.85,0,0,1,8.3,12.55ZM19,24.05V20.39a6.33,6.33,0,0,0-6.32-6.32H8.3A6.33,6.33,0,0,0,2,20.39v3.66Z"/><path class="cls-1" d="M10.5.42A6.07,6.07,0,1,1,4.44,6.49,6.07,6.07,0,0,1,10.5.42ZM10.5,11A4.54,4.54,0,1,0,6,6.49,4.55,4.55,0,0,0,10.5,11Z"/></svg>