<svg width="22" height="23" viewBox="0 0 22 23" fill="none" xmlns="http://www.w3.org/2000/svg">
<g clip-path="url(#clip0)">
<path d="M21.0825 6.62257C21.0781 6.61815 15.577 1.07415 15.5816 1.07879C15.4559 0.952546 15.2889 0.889038 15.125 0.889038C14.5661 0.889038 2.50856 0.889038 2.01953 0.889038C1.30874 0.889038 0.730469 1.46731 0.730469 2.1781V21.6C0.730469 22.3108 1.30874 22.889 2.01953 22.889H19.9805C20.6913 22.889 21.2695 22.3108 21.2695 21.6V7.07654C21.2695 6.90647 21.2023 6.74332 21.0825 6.62257ZM11.7305 2.1781V5.01404C11.7305 5.36999 12.019 5.65857 12.375 5.65857C12.731 5.65857 13.0195 5.36999 13.0195 5.01404V2.1781H14.4805V7.11951H7.51953V2.1781H11.7305ZM19.9805 21.6H2.01953V2.1781H6.23047V7.76404C6.23047 8.11999 6.51905 8.40857 6.875 8.40857H15.125C15.481 8.40857 15.7695 8.11999 15.7695 7.76404V3.09819L19.9805 7.34204V21.6Z" fill="white"/>
<path d="M4.125 11.2445C3.76905 11.2445 3.48047 11.5331 3.48047 11.889V19.4515C3.48047 19.8075 3.76905 20.0961 4.125 20.0961H17.875C18.231 20.0961 18.5195 19.8075 18.5195 19.4515V11.889C18.5195 11.5331 18.231 11.2445 17.875 11.2445H4.125ZM17.2305 18.807H4.76953V12.5336H17.2305V18.807Z" fill="white"/>
<path d="M6.875 15.2836H8.9375C9.29345 15.2836 9.58203 14.995 9.58203 14.639C9.58203 14.2831 9.29345 13.9945 8.9375 13.9945H6.875C6.51905 13.9945 6.23047 14.2831 6.23047 14.639C6.23047 14.995 6.51905 15.2836 6.875 15.2836Z" fill="white"/>
</g>
<defs>
<clipPath id="clip0">
<rect width="22" height="22" fill="white" transform="translate(0 0.889038)"/>
</clipPath>
</defs>
</svg>
