<svg width="30" height="29" viewBox="0 0 30 29" fill="none" xmlns="http://www.w3.org/2000/svg">
<path d="M28.9861 14.2953H25.8378L24.1579 11.5236C24.0809 11.3966 23.9431 11.319 23.7946 11.319H15.3357V8.5684C17.2662 8.35617 18.7733 6.71597 18.7733 4.72987C18.7733 2.60007 17.0406 0.867432 14.9109 0.867432C12.7811 0.867432 11.0485 2.60012 11.0485 4.72987C11.0485 5.70041 11.4099 6.62818 12.0661 7.34236C12.2248 7.51511 12.4935 7.5265 12.6663 7.36774C12.839 7.20903 12.8504 6.94027 12.6917 6.76752C12.18 6.21051 11.8981 5.48687 11.8981 4.72981C11.8981 3.06854 13.2496 1.71698 14.9109 1.71698C16.5722 1.71698 17.9237 3.06854 17.9237 4.72981C17.9237 6.39108 16.5722 7.74264 14.9109 7.74264C14.6065 7.74264 14.3064 7.69755 14.0191 7.60857C13.7951 7.53919 13.5571 7.66465 13.4876 7.88877C13.4182 8.1129 13.5437 8.35079 13.7678 8.42023C14.0018 8.49262 14.2421 8.54224 14.4861 8.56891V11.3189H6.0272C5.87863 11.3189 5.74088 11.3965 5.66391 11.5235L3.98401 14.2953H0.835693C0.601031 14.2953 0.410889 14.4854 0.410889 14.7201V27.7076C0.410889 27.9423 0.601031 28.1324 0.835693 28.1324H7.61087C7.84554 28.1324 8.03568 27.9423 8.03568 27.7076V18.1249C8.03568 17.8903 7.84554 17.7001 7.61087 17.7001C7.37621 17.7001 7.18607 17.8903 7.18607 18.1249V27.2829H1.2605V15.1449H7.18607V16.3885C7.18607 16.6232 7.37621 16.8134 7.61087 16.8134C7.84554 16.8134 8.03568 16.6232 8.03568 16.3885V14.7201C8.03568 14.4855 7.84554 14.2953 7.61087 14.2953H4.97754L6.26651 12.1686H14.4861V14.2953H11.5233C11.2886 14.2953 11.0985 14.4855 11.0985 14.7201V27.7077C11.0985 27.9423 11.2886 28.1325 11.5233 28.1325H18.2985C18.5331 28.1325 18.7233 27.9423 18.7233 27.7077V25.6203C18.7233 25.3857 18.5331 25.1955 18.2985 25.1955C18.0638 25.1955 17.8736 25.3857 17.8736 25.6203V27.2829H11.9481V15.1449H17.8736V23.905C17.8736 24.1397 18.0638 24.3298 18.2985 24.3298C18.5331 24.3298 18.7233 24.1397 18.7233 23.905V14.7201C18.7233 14.4855 18.5331 14.2953 18.2985 14.2953H15.3357V12.1686H23.5553L24.8442 14.2953H22.2108C21.9762 14.2953 21.786 14.4855 21.786 14.7201V27.7077C21.786 27.9423 21.9762 28.1325 22.2108 28.1325H28.9861C29.2207 28.1325 29.4109 27.9423 29.4109 27.7077V14.7201C29.4109 14.4855 29.2207 14.2953 28.9861 14.2953ZM28.5613 27.2829H22.6357V15.1449H25.598C25.5983 15.1449 25.5986 15.145 25.5989 15.145C25.5991 15.145 25.5994 15.1449 25.5997 15.1449H28.5613V27.2829Z" fill="#324979"/>
<path d="M3.36578 17.2893H2.52393C2.28926 17.2893 2.09912 17.4794 2.09912 17.7141C2.09912 17.9488 2.28926 18.1389 2.52393 18.1389H3.36578C3.60044 18.1389 3.79058 17.9488 3.79058 17.7141C3.79058 17.4794 3.60044 17.2893 3.36578 17.2893Z" fill="#324979"/>
<path d="M6.07161 19.2736H2.52393C2.28926 19.2736 2.09912 19.4637 2.09912 19.6984C2.09912 19.933 2.28926 20.1232 2.52393 20.1232H6.07167C6.30633 20.1232 6.49647 19.933 6.49647 19.6984C6.49647 19.4637 6.30627 19.2736 6.07161 19.2736Z" fill="#324979"/>
<path d="M6.07161 20.7891H2.52393C2.28926 20.7891 2.09912 20.9792 2.09912 21.2139C2.09912 21.4485 2.28926 21.6387 2.52393 21.6387H6.07167C6.30633 21.6387 6.49647 21.4485 6.49647 21.2139C6.49647 20.9792 6.30627 20.7891 6.07161 20.7891Z" fill="#324979"/>
<path d="M6.07161 22.3046H2.52393C2.28926 22.3046 2.09912 22.4947 2.09912 22.7294C2.09912 22.964 2.28926 23.1542 2.52393 23.1542H6.07167C6.30633 23.1542 6.49647 22.964 6.49647 22.7294C6.49647 22.4947 6.30627 22.3046 6.07161 22.3046Z" fill="#324979"/>
<path d="M6.07161 23.8202H2.52393C2.28926 23.8202 2.09912 24.0103 2.09912 24.245C2.09912 24.4797 2.28926 24.6698 2.52393 24.6698H6.07167C6.30633 24.6698 6.49647 24.4797 6.49647 24.245C6.49647 24.0103 6.30627 23.8202 6.07161 23.8202Z" fill="#324979"/>
<path d="M13.9788 17.2893H13.137C12.9023 17.2893 12.7122 17.4794 12.7122 17.7141C12.7122 17.9488 12.9023 18.1389 13.137 18.1389H13.9788C14.2134 18.1389 14.4036 17.9488 14.4036 17.7141C14.4036 17.4794 14.2134 17.2893 13.9788 17.2893Z" fill="#324979"/>
<path d="M16.6846 19.2736H13.137C12.9023 19.2736 12.7122 19.4637 12.7122 19.6984C12.7122 19.933 12.9023 20.1232 13.137 20.1232H16.6846C16.9193 20.1232 17.1095 19.933 17.1095 19.6984C17.1095 19.4637 16.9193 19.2736 16.6846 19.2736Z" fill="#324979"/>
<path d="M16.6846 20.7891H13.137C12.9023 20.7891 12.7122 20.9792 12.7122 21.2139C12.7122 21.4485 12.9023 21.6387 13.137 21.6387H16.6846C16.9193 21.6387 17.1095 21.4485 17.1095 21.2139C17.1095 20.9792 16.9193 20.7891 16.6846 20.7891Z" fill="#324979"/>
<path d="M16.6846 22.3046H13.137C12.9023 22.3046 12.7122 22.4947 12.7122 22.7294C12.7122 22.964 12.9023 23.1542 13.137 23.1542H16.6846C16.9193 23.1542 17.1095 22.964 17.1095 22.7294C17.1095 22.4947 16.9193 22.3046 16.6846 22.3046Z" fill="#324979"/>
<path d="M16.6846 23.8202H13.137C12.9023 23.8202 12.7122 24.0103 12.7122 24.245C12.7122 24.4797 12.9023 24.6698 13.137 24.6698H16.6846C16.9193 24.6698 17.1095 24.4797 17.1095 24.245C17.1095 24.0103 16.9193 23.8202 16.6846 23.8202Z" fill="#324979"/>
<path d="M24.5919 17.2893H23.75C23.5153 17.2893 23.3252 17.4794 23.3252 17.7141C23.3252 17.9488 23.5153 18.1389 23.75 18.1389H24.5919C24.8265 18.1389 25.0167 17.9488 25.0167 17.7141C25.0167 17.4794 24.8265 17.2893 24.5919 17.2893Z" fill="#324979"/>
<path d="M27.2977 19.2736H23.75C23.5153 19.2736 23.3252 19.4637 23.3252 19.6984C23.3252 19.933 23.5153 20.1232 23.75 20.1232H27.2977C27.5324 20.1232 27.7225 19.933 27.7225 19.6984C27.7225 19.4637 27.5324 19.2736 27.2977 19.2736Z" fill="#324979"/>
<path d="M27.2977 20.7891H23.75C23.5153 20.7891 23.3252 20.9792 23.3252 21.2139C23.3252 21.4485 23.5153 21.6387 23.75 21.6387H27.2977C27.5324 21.6387 27.7225 21.4485 27.7225 21.2139C27.7225 20.9792 27.5324 20.7891 27.2977 20.7891Z" fill="#324979"/>
<path d="M27.2977 22.3046H23.75C23.5153 22.3046 23.3252 22.4947 23.3252 22.7294C23.3252 22.964 23.5153 23.1542 23.75 23.1542H27.2977C27.5324 23.1542 27.7225 22.964 27.7225 22.7294C27.7225 22.4947 27.5324 22.3046 27.2977 22.3046Z" fill="#324979"/>
<path d="M27.2977 23.8202H23.75C23.5153 23.8202 23.3252 24.0103 23.3252 24.245C23.3252 24.4797 23.5153 24.6698 23.75 24.6698H27.2977C27.5324 24.6698 27.7225 24.4797 27.7225 24.245C27.7225 24.0103 27.5324 23.8202 27.2977 23.8202Z" fill="#324979"/>
</svg>
