<svg width="55" height="55" viewBox="0 0 55 55" fill="none" xmlns="http://www.w3.org/2000/svg">
<path d="M49.3735 5.3308C46.6264 2.56514 43.0665 0.763858 39.2215 0.194122C35.3766 -0.375614 31.4515 0.316542 28.0285 2.16793C24.6054 4.01931 21.8667 6.93132 20.2186 10.472C18.5705 14.0127 18.1007 17.9936 18.8789 21.824L15.9749 24.745C15.201 25.5254 14.7664 26.5828 14.7664 27.6851C14.7664 28.7875 15.201 29.8448 15.9749 30.6252L16.7778 31.4324L1.32657 46.9761C0.46709 47.8678 -0.00933978 49.0637 0.000138768 50.3057C0.00961731 51.5476 0.504244 52.736 1.37723 53.6143C2.25021 54.4926 3.43152 54.9902 4.66611 54.9999C5.9007 55.0095 7.08953 54.5303 7.97592 53.6657L23.4271 38.122L24.2312 38.9297C24.615 39.3158 25.0706 39.6221 25.572 39.831C26.0735 40.04 26.6109 40.1475 27.1536 40.1475C27.6964 40.1475 28.2338 40.04 28.7353 39.831C29.2367 39.6221 29.6923 39.3158 30.076 38.9297L32.9694 36.019C34.161 36.2614 35.3737 36.3833 36.5895 36.3829C40.1649 36.3817 43.6598 35.3142 46.6324 33.3154C49.605 31.3166 51.9218 28.4762 53.2901 25.1531C54.6584 21.83 55.0168 18.1735 54.3199 14.6456C53.623 11.1177 51.9021 7.8768 49.3747 5.33252L49.3735 5.3308ZM6.91743 52.6017C6.31101 53.1805 5.50389 53.4981 4.66808 53.4869C3.83227 53.4757 3.03385 53.1366 2.44295 52.5418C1.85206 51.947 1.51542 51.1437 1.50476 50.3028C1.49411 49.462 1.81029 48.6502 2.38592 48.0405L17.8354 32.4968L22.369 37.0555L6.91743 52.6017ZM29.0193 37.8653C28.7744 38.1117 28.4838 38.3071 28.1638 38.4405C27.8439 38.5738 27.501 38.6424 27.1547 38.6424C26.8084 38.6424 26.4655 38.5738 26.1456 38.4405C25.8257 38.3071 25.535 38.1117 25.2902 37.8653L23.9585 36.5257L18.3668 30.9005L17.0351 29.5608C16.5413 29.063 16.264 28.3884 16.264 27.6851C16.264 26.9818 16.5413 26.3073 17.0351 25.8094L19.3086 23.5249C20.1728 26.3647 21.7148 28.9486 23.8 31.0511C25.8851 33.1536 28.45 34.7108 31.2709 35.5868L29.0193 37.8653ZM48.3175 29.9909C46.7807 31.545 44.9527 32.777 42.9394 33.6156C40.926 34.4541 38.7673 34.8825 36.5882 34.8759C35.3588 34.8752 34.1333 34.7381 32.9339 34.467C32.9117 34.4605 32.8911 34.4566 32.8672 34.4519C29.2841 33.6226 26.0765 31.6192 23.7484 28.7565C21.4202 25.8938 20.1035 22.3341 20.0052 18.6367C19.9068 14.9394 21.0324 11.3139 23.2051 8.33006C25.3777 5.34623 28.4742 3.17313 32.0081 2.15225C35.542 1.13138 39.3129 1.32059 42.7282 2.69014C46.1435 4.0597 49.0098 6.53198 50.8765 9.7185C52.7432 12.905 53.5046 16.6251 53.041 20.2943C52.5774 23.9635 50.9151 27.3737 48.3154 29.9892L48.3175 29.9909Z" fill="#1753D0"/>
<path d="M46.9552 7.76412C44.1895 5.07817 40.4859 3.59225 36.6418 3.62631C32.7977 3.66036 29.1207 5.21168 26.4024 7.94622C23.6842 10.6808 22.1421 14.3798 22.1082 18.2469C22.0744 22.114 23.5515 25.8398 26.2214 28.6221C28.9872 31.308 32.6908 32.7939 36.5348 32.7599C40.3789 32.7258 44.0559 31.1745 46.7742 28.4399C49.4925 25.7054 51.0346 22.0064 51.0684 18.1393C51.1023 14.2722 49.6252 10.5464 46.9552 7.76412ZM45.8972 27.5581C44.0559 29.411 41.7097 30.6729 39.1555 31.1843C36.6012 31.6958 33.9536 31.4337 31.5474 30.4313C29.1412 29.4289 27.0845 27.7311 25.6375 25.5527C24.1905 23.3744 23.4182 20.8133 23.4182 18.1933C23.4182 15.5733 24.1905 13.0122 25.6375 10.8339C27.0845 8.6555 29.1412 6.95775 31.5474 5.95532C33.9536 4.9529 36.6012 4.69083 39.1555 5.20226C41.7097 5.71368 44.0559 6.97564 45.8972 8.82852C47.1301 10.0524 48.1092 11.5104 48.7774 13.118C49.4456 14.7257 49.7897 16.4508 49.7897 18.1933C49.7897 19.9358 49.4456 21.6609 48.7774 23.2686C48.1092 24.8762 47.1301 26.3342 45.8972 27.5581Z" fill="#1753D0"/>
</svg>
