<svg width="42" height="42" viewBox="0 0 42 42" fill="none" xmlns="http://www.w3.org/2000/svg">
<path d="M41.4868 39.0132L29.5432 27.0696C31.8567 24.2119 33.2496 20.5807 33.2496 16.6257C33.2496 7.45931 25.7912 0.000854492 16.6248 0.000854492C7.45837 0.000854492 0 7.45923 0 16.6256C0 25.792 7.45845 33.2505 16.6249 33.2505C20.5798 33.2505 24.211 31.8575 27.0687 29.544L39.0124 41.4877C39.3536 41.8289 39.8016 42.0004 40.2496 42.0004C40.6977 42.0004 41.1457 41.8289 41.4869 41.4877C42.1711 40.8035 42.1711 39.6974 41.4868 39.0132ZM16.6249 29.7505C9.38691 29.7505 3.49999 23.8636 3.49999 16.6256C3.49999 9.38768 9.38691 3.50077 16.6249 3.50077C23.8628 3.50077 29.7497 9.38768 29.7497 16.6256C29.7497 23.8636 23.8627 29.7505 16.6249 29.7505Z" fill="#1956D7"/>
</svg>
