<svg width="28" height="28" viewBox="0 0 28 28" fill="none" xmlns="http://www.w3.org/2000/svg">
<path d="M14 9.625C11.5876 9.625 9.625 11.5876 9.625 14C9.625 16.4124 11.5876 18.375 14 18.375C16.4124 18.375 18.375 16.4124 18.375 14C18.375 11.5876 16.4124 9.625 14 9.625ZM14 16.1875C12.7938 16.1875 11.8125 15.2062 11.8125 14C11.8125 12.7938 12.7938 11.8125 14 11.8125C15.2062 11.8125 16.1875 12.7938 16.1875 14C16.1875 15.2062 15.2062 16.1875 14 16.1875Z" fill="#324979"/>
<path d="M14 9.625C11.5876 9.625 9.625 11.5876 9.625 14C9.625 16.4124 11.5876 18.375 14 18.375C16.4124 18.375 18.375 16.4124 18.375 14C18.375 11.5876 16.4124 9.625 14 9.625ZM14 16.1875C12.7938 16.1875 11.8125 15.2062 11.8125 14C11.8125 12.7938 12.7938 11.8125 14 11.8125C15.2062 11.8125 16.1875 12.7938 16.1875 14C16.1875 15.2062 15.2062 16.1875 14 16.1875Z" fill="url(#paint0_linear)"/>
<path d="M27.4621 17.2614L24.63 15.0912C24.7096 14.3406 24.7047 13.6136 24.63 12.9088L27.4621 10.7387C27.9012 10.4022 28.02 9.79092 27.7388 9.31454L24.9961 4.6673C24.7229 4.20432 24.1536 4.00854 23.6534 4.20558L20.2931 5.52902C19.6794 5.08982 19.0225 4.71767 18.3296 4.41662L17.8251 0.936852C17.7472 0.399 17.2861 0 16.7427 0H11.2573C10.7139 0 10.2529 0.399 10.175 0.936906L9.67052 4.41667C8.97758 4.71778 8.32073 5.08987 7.70702 5.52907L4.34675 4.20563C3.84636 4.00854 3.27723 4.20438 3.00401 4.66736L0.261265 9.31454C-0.0198831 9.79092 0.0988981 10.4022 0.537929 10.7387L3.37014 12.9088C3.29052 13.6594 3.29538 14.3864 3.37014 15.0912L0.537984 17.2613C0.0988981 17.5978 -0.0198832 18.2091 0.26132 18.6855L3.00395 23.3327C3.27717 23.7957 3.84636 23.9915 4.3467 23.7944L7.70702 22.471C8.32062 22.9101 8.97752 23.2823 9.67047 23.5834L10.1749 27.0631C10.2529 27.601 10.7139 28 11.2573 28H16.7427C17.2861 28 17.7472 27.601 17.8251 27.0632L18.3296 23.5834C19.0225 23.2824 19.6794 22.9102 20.293 22.4711L23.6534 23.7945C24.1537 23.9915 24.7229 23.7957 24.9961 23.3328L27.7388 18.6855C28.0199 18.2091 27.9011 17.5978 27.4621 17.2614ZM23.5866 21.417L20.5215 20.2099C20.1542 20.0654 19.7379 20.1297 19.4316 20.3782C18.692 20.9783 17.8619 21.4477 16.9644 21.7736C16.5855 21.9111 16.3131 22.2458 16.2552 22.6447L15.7961 25.8125H12.2039L11.7448 22.6447C11.687 22.2458 11.4145 21.9111 11.0356 21.7736C10.1381 21.4477 9.308 20.9782 8.56846 20.3782C8.2621 20.1297 7.8456 20.0654 7.47854 20.2099L4.41347 21.417L2.63771 18.4082L5.20584 16.4403C5.5286 16.193 5.68758 15.787 5.61845 15.3863C5.45745 14.4525 5.46276 13.5167 5.61845 12.6137C5.68758 12.2129 5.5286 11.8069 5.20584 11.5596L2.63771 9.59175L4.41347 6.5829L7.47854 7.79002C7.84577 7.93466 8.2621 7.87024 8.56846 7.62174C9.30805 7.02171 10.1382 6.55227 11.0356 6.22645C11.4145 6.08891 11.687 5.75416 11.7448 5.35527L12.204 2.1875H15.7961L16.2552 5.35527C16.3131 5.75416 16.5855 6.08891 16.9644 6.22645C17.8619 6.55227 18.692 7.02171 19.4316 7.62174C19.7379 7.8703 20.1544 7.93461 20.5215 7.79002L23.5866 6.5829L25.3623 9.59175L22.7942 11.5596C22.4714 11.807 22.3124 12.2129 22.3815 12.6137C22.5425 13.5475 22.5372 14.4833 22.3815 15.3863C22.3124 15.787 22.4714 16.193 22.7942 16.4403L25.3623 18.4082L23.5866 21.417Z" fill="#324979"/>
<path d="M27.4621 17.2614L24.63 15.0912C24.7096 14.3406 24.7047 13.6136 24.63 12.9088L27.4621 10.7387C27.9012 10.4022 28.02 9.79092 27.7388 9.31454L24.9961 4.6673C24.7229 4.20432 24.1536 4.00854 23.6534 4.20558L20.2931 5.52902C19.6794 5.08982 19.0225 4.71767 18.3296 4.41662L17.8251 0.936852C17.7472 0.399 17.2861 0 16.7427 0H11.2573C10.7139 0 10.2529 0.399 10.175 0.936906L9.67052 4.41667C8.97758 4.71778 8.32073 5.08987 7.70702 5.52907L4.34675 4.20563C3.84636 4.00854 3.27723 4.20438 3.00401 4.66736L0.261265 9.31454C-0.0198831 9.79092 0.0988981 10.4022 0.537929 10.7387L3.37014 12.9088C3.29052 13.6594 3.29538 14.3864 3.37014 15.0912L0.537984 17.2613C0.0988981 17.5978 -0.0198832 18.2091 0.26132 18.6855L3.00395 23.3327C3.27717 23.7957 3.84636 23.9915 4.3467 23.7944L7.70702 22.471C8.32062 22.9101 8.97752 23.2823 9.67047 23.5834L10.1749 27.0631C10.2529 27.601 10.7139 28 11.2573 28H16.7427C17.2861 28 17.7472 27.601 17.8251 27.0632L18.3296 23.5834C19.0225 23.2824 19.6794 22.9102 20.293 22.4711L23.6534 23.7945C24.1537 23.9915 24.7229 23.7957 24.9961 23.3328L27.7388 18.6855C28.0199 18.2091 27.9011 17.5978 27.4621 17.2614ZM23.5866 21.417L20.5215 20.2099C20.1542 20.0654 19.7379 20.1297 19.4316 20.3782C18.692 20.9783 17.8619 21.4477 16.9644 21.7736C16.5855 21.9111 16.3131 22.2458 16.2552 22.6447L15.7961 25.8125H12.2039L11.7448 22.6447C11.687 22.2458 11.4145 21.9111 11.0356 21.7736C10.1381 21.4477 9.308 20.9782 8.56846 20.3782C8.2621 20.1297 7.8456 20.0654 7.47854 20.2099L4.41347 21.417L2.63771 18.4082L5.20584 16.4403C5.5286 16.193 5.68758 15.787 5.61845 15.3863C5.45745 14.4525 5.46276 13.5167 5.61845 12.6137C5.68758 12.2129 5.5286 11.8069 5.20584 11.5596L2.63771 9.59175L4.41347 6.5829L7.47854 7.79002C7.84577 7.93466 8.2621 7.87024 8.56846 7.62174C9.30805 7.02171 10.1382 6.55227 11.0356 6.22645C11.4145 6.08891 11.687 5.75416 11.7448 5.35527L12.204 2.1875H15.7961L16.2552 5.35527C16.3131 5.75416 16.5855 6.08891 16.9644 6.22645C17.8619 6.55227 18.692 7.02171 19.4316 7.62174C19.7379 7.8703 20.1544 7.93461 20.5215 7.79002L23.5866 6.5829L25.3623 9.59175L22.7942 11.5596C22.4714 11.807 22.3124 12.2129 22.3815 12.6137C22.5425 13.5475 22.5372 14.4833 22.3815 15.3863C22.3124 15.787 22.4714 16.193 22.7942 16.4403L25.3623 18.4082L23.5866 21.417Z" fill="url(#paint1_linear)"/>
<defs>
<linearGradient id="paint0_linear" x1="14" y1="9.625" x2="14.2125" y2="41.7526" gradientUnits="userSpaceOnUse">
<stop stop-color="#1F4699"/>
<stop offset="1" stop-color="#2254BC" stop-opacity="0"/>
</linearGradient>
<linearGradient id="paint1_linear" x1="14" y1="-1.01354e-08" x2="14.6855" y2="102.808" gradientUnits="userSpaceOnUse">
<stop stop-color="#1F4699"/>
<stop offset="1" stop-color="#2254BC" stop-opacity="0"/>
</linearGradient>
</defs>
</svg>
