<svg width="55" height="55" viewBox="0 0 55 55" fill="none" xmlns="http://www.w3.org/2000/svg">
<path d="M55 33.3756C54.998 31.5654 54.2779 29.8299 52.9979 28.5499C51.7179 27.2699 49.9825 26.5499 48.1723 26.5478H46.7887C45.1327 26.5454 43.5323 27.1454 42.286 28.2358C41.0396 29.3261 40.2323 30.8326 40.0146 32.4742C39.7969 34.1158 40.1836 35.7806 41.1027 37.1582C42.0217 38.5357 43.4104 39.5321 45.0098 39.9614C45.0098 42.6395 43.9459 45.2078 42.0522 47.1015C40.1586 48.9952 37.5902 50.0591 34.9121 50.0591C32.234 50.0591 29.6657 48.9952 27.772 47.1015C25.8783 45.2078 24.8145 42.6395 24.8145 39.9614V34.8318H25.5664C25.7658 34.8317 25.957 34.7524 26.098 34.6114C26.239 34.4704 26.3182 34.2792 26.3184 34.0798V30.4026C26.3187 29.6903 26.6017 29.0072 27.1052 28.5034C27.6087 27.9995 28.2916 27.7161 29.0039 27.7153C29.1027 27.7154 29.2005 27.6959 29.2917 27.6582C29.383 27.6204 29.4659 27.565 29.5357 27.4952C29.6056 27.4253 29.661 27.3424 29.6987 27.2512C29.7365 27.1599 29.7559 27.0621 29.7559 26.9633V26.2114C33.7185 26.1944 37.5134 24.6096 40.3112 21.8033C43.1091 18.997 44.6824 15.1974 44.6875 11.2346V9.88327C44.6848 7.97543 43.9256 6.14654 42.5764 4.79765C41.2271 3.44877 39.3981 2.68999 37.4902 2.68772H31.6465V2.67354C31.6465 1.96482 31.3649 1.28513 30.8638 0.783989C30.3627 0.28285 29.683 0.00131226 28.9743 0.00131226C28.2655 0.00131226 27.5858 0.28285 27.0847 0.783989C26.5836 1.28513 26.302 1.96482 26.302 2.67354V7.64416C26.302 8.35288 26.5836 9.03257 27.0847 9.53371C27.5858 10.0349 28.2655 10.3164 28.9743 10.3164C29.683 10.3164 30.3627 10.0349 30.8638 9.53371C31.3649 9.03257 31.6465 8.35288 31.6465 7.64416V7.62912H37.4902C38.088 7.62981 38.6611 7.86746 39.084 8.29C39.5069 8.71253 39.745 9.28548 39.7461 9.88327V11.2329C39.7432 13.8859 38.6912 16.4301 36.8196 18.3105C34.9481 20.1908 32.4088 21.2547 29.7559 21.27V20.5198C29.7561 20.4209 29.7368 20.3229 29.6991 20.2315C29.6614 20.14 29.6061 20.0569 29.5362 19.9869C29.4664 19.9169 29.3834 19.8614 29.2921 19.8235C29.2007 19.7856 29.1028 19.7661 29.0039 19.7661H15.6836C15.4842 19.7662 15.293 19.8455 15.152 19.9864C15.011 20.1274 14.9318 20.3186 14.9316 20.518V21.27C12.279 21.2547 9.73999 20.191 7.86847 18.3111C5.99695 16.4311 4.94477 13.8873 4.94141 11.2346V9.88327C4.94209 9.28518 5.17998 8.71179 5.60289 8.28889C6.02579 7.86598 6.59918 7.62809 7.19727 7.62741H13.041V7.64245C13.041 8.35116 13.3226 9.03086 13.8237 9.53199C14.3248 10.0331 15.0045 10.3147 15.7132 10.3147C16.422 10.3147 17.1017 10.0331 17.6028 9.53199C18.1039 9.03086 18.3855 8.35116 18.3855 7.64245V2.67354C18.3855 1.96482 18.1039 1.28513 17.6028 0.783989C17.1017 0.28285 16.422 0.00131226 15.7132 0.00131226C15.0045 0.00131226 14.3248 0.28285 13.8237 0.783989C13.3226 1.28513 13.041 1.96482 13.041 2.67354V2.68772H7.19727C5.28943 2.68999 3.46036 3.44877 2.11115 4.79765C0.761941 6.14654 0.00272901 7.97543 0 9.88327L0 11.2329C0.0046191 15.1959 1.57777 18.996 4.37565 21.8027C7.17354 24.6093 10.9687 26.1944 14.9316 26.2114V26.9642C14.9319 27.1635 15.0112 27.3545 15.1522 27.4954C15.2932 27.6362 15.4843 27.7153 15.6836 27.7153C16.3956 27.7161 17.0782 27.9993 17.5817 28.5028C18.0851 29.0062 18.3683 29.6888 18.3691 30.4008V34.0781C18.3693 34.2775 18.4485 34.4687 18.5895 34.6097C18.7305 34.7507 18.9217 34.83 19.1211 34.8301H19.873V39.9614C19.873 43.95 21.4575 47.7752 24.2779 50.5956C27.0983 53.416 30.9235 55.0005 34.9121 55.0005C38.9007 55.0005 42.726 53.416 45.5463 50.5956C48.3667 47.7752 49.9512 43.95 49.9512 39.9614C51.3989 39.57 52.6776 38.7131 53.59 37.5228C54.5025 36.3326 54.9979 34.8753 55 33.3756ZM30.1421 7.64416C30.1421 7.95402 30.0191 8.25119 29.8 8.47029C29.5809 8.68939 29.2837 8.81248 28.9738 8.81248C28.664 8.81248 28.3668 8.68939 28.1477 8.47029C27.9286 8.25119 27.8055 7.95402 27.8055 7.64416V2.67354C27.8055 2.36368 27.9286 2.06651 28.1477 1.84741C28.3668 1.62831 28.664 1.50522 28.9738 1.50522C29.2837 1.50522 29.5809 1.62831 29.8 1.84741C30.0191 2.06651 30.1421 2.36368 30.1421 2.67354V7.64416ZM14.5454 2.67354C14.5454 2.36368 14.6684 2.06651 14.8875 1.84741C15.1066 1.62831 15.4038 1.50522 15.7137 1.50522C16.0235 1.50522 16.3207 1.62831 16.5398 1.84741C16.7589 2.06651 16.882 2.36368 16.882 2.67354V7.64416C16.882 7.95402 16.7589 8.25119 16.5398 8.47029C16.3207 8.68939 16.0235 8.81248 15.7137 8.81248C15.4038 8.81248 15.1066 8.68939 14.8875 8.47029C14.6684 8.25119 14.5454 7.95402 14.5454 7.64416V2.67354ZM41.25 11.2346V9.88327C41.2489 8.88646 40.8524 7.93081 40.1475 7.22597C39.4427 6.52112 38.487 6.12464 37.4902 6.1235H31.6895V4.18991H37.4902C38.9997 4.19161 40.4468 4.79199 41.5142 5.85934C42.5815 6.92668 43.1819 8.37382 43.1836 9.88327V11.2329C43.179 14.7971 41.7643 18.2146 39.2484 20.7392C36.7326 23.2639 33.32 24.6905 29.7559 24.7075V22.7739C32.8072 22.7581 35.7285 21.5359 37.8819 19.374C40.0354 17.2121 41.2462 14.2861 41.25 11.2346ZM24.5927 21.27V21.3439C24.5927 21.9404 24.3558 22.5124 23.934 22.9342C23.5123 23.3559 22.9402 23.5929 22.3438 23.5929C21.7473 23.5929 21.1752 23.3559 20.7535 22.9342C20.3317 22.5124 20.0948 21.9404 20.0948 21.3439V21.27H24.5927ZM1.50391 11.2346V9.88327C1.50607 8.37411 2.10665 6.92742 3.17394 5.86045C4.24124 4.79348 5.68811 4.19333 7.19727 4.19163H12.998V6.12522H7.19727C6.20076 6.12636 5.24537 6.5226 4.54057 7.22708C3.83578 7.93155 3.43909 8.88676 3.4375 9.88327V11.2329C3.44086 14.2846 4.65145 17.2111 6.80495 19.3734C8.95845 21.5356 11.88 22.7581 14.9316 22.7739V24.7075C11.3678 24.6905 7.95548 23.2641 5.43968 20.7399C2.92387 18.2156 1.50897 14.7985 1.50391 11.2346ZM16.4355 26.281V21.27H18.5909V21.3439C18.5909 21.8367 18.6879 22.3247 18.8765 22.7801C19.0651 23.2354 19.3416 23.6491 19.6901 23.9976C20.0385 24.3461 20.4523 24.6225 20.9076 24.8111C21.3629 24.9997 21.8509 25.0968 22.3438 25.0968C22.8366 25.0968 23.3246 24.9997 23.7799 24.8111C24.2352 24.6225 24.649 24.3461 24.9974 23.9976C25.3459 23.6491 25.6224 23.2354 25.811 22.7801C25.9996 22.3247 26.0966 21.8367 26.0966 21.3439V21.27H28.252V26.281C27.2878 26.4583 26.4161 26.9675 25.7882 27.7204C25.1603 28.4733 24.8158 29.4222 24.8145 30.4026V33.3279H19.873V30.4026C19.8717 29.4222 19.5272 28.4733 18.8993 27.7204C18.2714 26.9675 17.3997 26.4583 16.4355 26.281ZM48.4473 40.2029C48.4152 43.7926 46.9585 47.2226 44.3975 49.7383C41.8366 52.254 38.3811 53.6493 34.7914 53.6173C31.2016 53.5853 27.7716 52.1285 25.2559 49.5676C22.7402 47.0066 21.3449 43.5511 21.377 39.9614V34.8318H23.3105V39.9614C23.311 43.017 24.5169 45.949 26.6664 48.1208C28.8158 50.2925 31.7353 51.5286 34.7907 51.5605C37.8461 51.5925 40.7908 50.4178 42.9852 48.2915C45.1797 46.1652 46.4467 43.2591 46.5111 40.2042H48.4447L48.4473 40.2029ZM48.1787 38.699H46.7865C45.3746 38.6984 44.0206 38.137 43.0226 37.1381C42.0246 36.1393 41.4643 34.785 41.4648 33.373C41.4654 31.961 42.0269 30.6071 43.0257 29.6091C44.0245 28.6111 45.3789 28.0507 46.7908 28.0513H48.1744C48.8735 28.051 49.5659 28.1885 50.2119 28.4557C50.8579 28.723 51.445 29.1149 51.9396 29.6091C52.4341 30.1033 52.8265 30.69 53.0943 31.3358C53.3621 31.9816 53.5001 32.6739 53.5004 33.373C53.5007 34.0721 53.3632 34.7645 53.096 35.4105C52.8287 36.0565 52.4368 36.6436 51.9426 37.1381C51.4484 37.6327 50.8617 38.0251 50.2159 38.2929C49.5701 38.5607 48.8778 38.6987 48.1787 38.699Z" fill="#1753D0"/>
<path d="M48.1723 29.9849H46.7887C45.8895 29.9849 45.0272 30.3421 44.3914 30.9779C43.7556 31.6137 43.3984 32.476 43.3984 33.3752C43.3984 34.2743 43.7556 35.1366 44.3914 35.7724C45.0272 36.4082 45.8895 36.7654 46.7887 36.7654H48.1723C49.0714 36.7654 49.9337 36.4082 50.5695 35.7724C51.2053 35.1366 51.5625 34.2743 51.5625 33.3752C51.5625 32.476 51.2053 31.6137 50.5695 30.9779C49.9337 30.3421 49.0714 29.9849 48.1723 29.9849ZM48.1723 35.2615H46.7887C46.2884 35.2615 45.8086 35.0628 45.4548 34.709C45.1011 34.3552 44.9023 33.8754 44.9023 33.3752C44.9023 32.8749 45.1011 32.3951 45.4548 32.0413C45.8086 31.6876 46.2884 31.4888 46.7887 31.4888H48.1723C48.6726 31.4888 49.1523 31.6876 49.5061 32.0413C49.8599 32.3951 50.0586 32.8749 50.0586 33.3752C50.0586 33.8754 49.8599 34.3552 49.5061 34.709C49.1523 35.0628 48.6726 35.2615 48.1723 35.2615Z" fill="#1753D0"/>
</svg>
