<svg width="39" height="35" viewBox="0 0 39 35" fill="none" xmlns="http://www.w3.org/2000/svg">
<path d="M8.40788 24.7953C8.71509 24.7953 8.96407 24.5503 8.96407 24.248V20.5991C8.96407 19.2109 7.81642 18.0814 6.40574 18.0814C4.99506 18.0814 3.84741 19.2109 3.84741 20.5991V24.248C3.84741 24.5503 4.09639 24.7953 4.4036 24.7953H8.40788ZM4.95978 20.5991C4.95978 19.8144 5.60861 19.1761 6.40574 19.1761C7.20316 19.1761 7.8517 19.8144 7.8517 20.5991V23.7006H4.95978V20.5991Z" fill="#67687C"/>
<path d="M38.0296 15.9484L37.5755 11.3534C37.5107 10.6956 36.9554 10.1997 36.2839 10.1997H31.0468C31.0554 10.1398 31.0617 10.0794 31.0617 10.0173V8.84949C31.0617 8.14547 30.4794 7.57242 29.7637 7.57242H29.2876L19.576 0.115808C19.3749 -0.0386028 19.0927 -0.0386028 18.8916 0.115808L15.3732 2.8173C15.1309 3.00332 15.0878 3.34715 15.2769 3.58568C15.4656 3.82393 15.8153 3.86628 16.0573 3.68053L19.2338 1.24157L27.4793 7.57242H10.9897L14.0302 5.24101C14.2726 5.05527 14.3159 4.71116 14.1272 4.47263C13.9382 4.23438 13.5888 4.19147 13.3464 4.3775L9.18007 7.57242H8.70391C7.98825 7.57242 7.40596 8.14547 7.40596 8.84977V10.0173C7.40596 10.0794 7.41198 10.1401 7.42088 10.1997H2.18375C1.51225 10.1997 0.956932 10.6956 0.892106 11.3534L0.438038 15.9484C0.422836 16.1023 0.474467 16.255 0.579737 16.3693C0.685294 16.4837 0.834738 16.5489 0.99164 16.5489H1.32523V19.2622C1.32523 19.5645 1.57421 19.8096 1.88142 19.8096C2.18862 19.8096 2.4376 19.5645 2.4376 19.2622V16.5489H10.3722V25.6998L9.79362 26.2691C9.68921 26.3719 9.63069 26.5111 9.63069 26.6564V28.2982H8.70391C8.39671 28.2982 8.14773 28.5433 8.14773 28.8456V30.9255H2.4376V21.818C2.4376 21.5157 2.18862 21.2707 1.88142 21.2707C1.57421 21.2707 1.32523 21.5157 1.32523 21.818V34.1001C1.32523 34.4024 1.57421 34.6474 1.88142 34.6474H36.5862C36.8931 34.6474 37.1421 34.4024 37.1421 34.1001V27.6563C37.1421 27.354 36.8931 27.109 36.5862 27.109C36.279 27.109 36.03 27.354 36.03 27.6563V30.9255H30.3199V28.8456C30.3199 28.5433 30.0709 28.2982 29.7637 28.2982H28.8369V26.6564C28.8369 26.5111 28.7784 26.3719 28.674 26.2691L28.0952 25.6998V16.5489H36.03V25.1005C36.03 25.4028 36.279 25.6478 36.5862 25.6478C36.8931 25.6478 37.1421 25.4028 37.1421 25.1005V16.5489H37.476C37.6329 16.5489 37.7823 16.4837 37.8876 16.3693C37.9932 16.255 38.0448 16.1023 38.0296 15.9484ZM8.51833 10.0173V8.84949C8.51833 8.749 8.60151 8.66713 8.70391 8.66713H29.0965H29.0971H29.764C29.8661 8.66713 29.9493 8.749 29.9493 8.84949V10.0173C29.9493 10.1178 29.8661 10.1997 29.764 10.1997H8.70391C8.60151 10.1997 8.51833 10.1178 8.51833 10.0173ZM22.237 28.2982V22.1963C22.237 21.5281 21.9009 20.906 21.3378 20.5325L20.3691 19.8895C19.6804 19.4327 18.7889 19.4305 18.0979 19.8838L17.1384 20.513C16.5699 20.8862 16.2306 21.5104 16.2306 22.183V28.2982H15.1922V26.6562C15.1922 26.5111 15.1337 26.3719 15.0296 26.2691L14.4508 25.6998V13.8928L15.0296 13.3235C15.1337 13.221 15.1922 13.0815 15.1922 12.9364V11.2944H23.2754V12.9364C23.2754 13.0815 23.3339 13.2207 23.438 13.3235L24.0169 13.8931V25.6998L23.438 26.2694C23.3339 26.3719 23.2754 26.5114 23.2754 26.6564V28.2985H22.237V28.2982ZM17.3427 28.2982V22.183C17.3427 21.8773 17.497 21.5936 17.7554 21.424L18.7149 20.7948C19.029 20.5887 19.4343 20.5895 19.7473 20.7973L20.7159 21.4401C20.9718 21.61 21.1247 21.8926 21.1247 22.1966V28.2985H17.3427V28.2982ZM14.0802 11.2944V12.7098L13.6642 13.1188H11.1587L10.7431 12.7098V11.2944H14.0802ZM11.4845 14.2135H13.3384V25.3791H11.4845V14.2135ZM25.1292 14.2135H26.9831V25.3791H25.1292V14.2135ZM27.7246 12.7098L27.3087 13.1188H24.8034L24.3875 12.7098V11.2944H27.7246V12.7098ZM1.88142 15.4542H1.60433L1.99902 11.4592C2.00849 11.3652 2.08766 11.2944 2.18375 11.2944H9.63069V12.9364C9.63069 13.0815 9.68921 13.2207 9.79362 13.3235L10.3722 13.8928V15.4542H1.88142ZM10.7431 26.8831L11.1587 26.4738H13.6642L14.0802 26.8831V28.2982H10.7431V26.8831ZM2.4376 32.0202H6.66448V33.5527H2.4376V32.0202ZM36.03 33.5527H31.8032V32.0202H36.03V33.5527ZM30.6908 33.5527H7.77685V32.0202H30.6908V33.5527ZM29.2075 30.9255H9.25981V29.3929H10.186H10.1869H21.6803H21.6809H21.6817H29.2078V30.9255H29.2075ZM24.3875 28.2982V26.8831L24.8034 26.4738H27.3087L27.7246 26.8831V28.2982H24.3875ZM28.0952 15.4542V13.8928L28.674 13.3235C28.7784 13.2207 28.8369 13.0815 28.8369 12.9364V11.2944H36.2839C36.3797 11.2944 36.4591 11.3652 36.4683 11.4592L36.863 15.4542H28.0952Z" fill="#67687C"/>
<path d="M29.5044 20.5991V24.248C29.5044 24.5503 29.7534 24.7953 30.0606 24.7953H34.0649C34.3721 24.7953 34.621 24.5503 34.621 24.248V20.5991C34.621 19.2109 33.4734 18.0814 32.0627 18.0814C30.652 18.0814 29.5044 19.2109 29.5044 20.5991ZM33.5087 20.5991V23.7006H30.6165V20.5991C30.6165 19.8144 31.2653 19.1761 32.0624 19.1761C32.8598 19.1761 33.5087 19.8144 33.5087 20.5991Z" fill="#67687C"/>
<path d="M19.271 12.535C17.7785 12.535 16.5643 13.73 16.5643 15.1987C16.5643 16.6674 17.7785 17.8624 19.271 17.8624C20.7634 17.8624 21.9776 16.6674 21.9776 15.1987C21.9776 13.73 20.7634 12.535 19.271 12.535ZM19.271 16.7679C18.3918 16.7679 17.6767 16.0639 17.6767 15.1987C17.6767 14.3335 18.3918 13.6297 19.271 13.6297C20.1501 13.6297 20.8652 14.3335 20.8652 15.1987C20.8652 16.0639 20.1501 16.7679 19.271 16.7679Z" fill="#67687C"/>
</svg>
