<svg width="30" height="21" viewBox="0 0 30 21" fill="none" xmlns="http://www.w3.org/2000/svg">
<path d="M11.6608 10.5042C11.4368 10.2797 11.0728 10.2797 10.8488 10.5042C10.6243 10.7282 10.6243 11.0922 10.8488 11.3162C11.0728 11.5407 11.4368 11.5407 11.6608 11.3162C11.8853 11.0922 11.8853 10.7282 11.6608 10.5042Z" fill="white"/>
<path d="M14.7 11.4844C13.7501 11.4844 12.9773 12.2572 12.9773 13.207C12.9773 14.1569 13.7501 14.9297 14.7 14.9297C15.6498 14.9297 16.4226 14.1569 16.4226 13.207C16.4226 12.2572 15.6498 11.4844 14.7 11.4844ZM14.7 13.7813C14.3833 13.7813 14.1257 13.5237 14.1257 13.207C14.1257 12.8904 14.3833 12.6328 14.7 12.6328C15.0166 12.6328 15.2742 12.8904 15.2742 13.207C15.2742 13.5237 15.0166 13.7813 14.7 13.7813Z" fill="white"/>
<path d="M14.7 8.61328C14.0581 8.61328 13.4374 8.743 12.8553 8.99887C12.565 9.12652 12.4331 9.46531 12.5607 9.75563C12.6883 10.046 13.0271 10.1778 13.3175 10.0503C13.753 9.85882 14.2182 9.76172 14.7 9.76172C16.5997 9.76172 18.1453 11.3073 18.1453 13.207C18.1453 15.1068 16.5997 16.6523 14.7 16.6523C12.8002 16.6523 11.2546 15.1068 11.2546 13.207C11.2546 13.1874 11.2546 13.1682 11.255 13.1486C11.2624 12.8315 11.0113 12.5686 10.6943 12.5612C10.3768 12.5533 10.1143 12.8048 10.1069 13.1219C10.1063 13.1505 10.1062 13.1784 10.1062 13.207C10.1062 15.74 12.167 17.8008 14.7 17.8008C17.2329 17.8008 19.2937 15.74 19.2937 13.207C19.2937 10.674 17.2329 8.61328 14.7 8.61328Z" fill="white"/>
<path d="M14.7 0C14.3828 0 14.1257 0.257078 14.1257 0.574219V4.01953C14.1257 4.33667 14.3828 4.59375 14.7 4.59375C15.0171 4.59375 15.2742 4.33667 15.2742 4.01953V0.574219C15.2742 0.257078 15.0171 0 14.7 0Z" fill="white"/>
<path d="M8.2849 4.25715L5.84907 1.82131C5.62483 1.59708 5.26124 1.59708 5.03695 1.82131C4.81272 2.04554 4.81272 2.40914 5.03695 2.63343L7.47279 5.06927C7.69702 5.2935 8.06067 5.29356 8.2849 5.06927C8.50914 4.84503 8.50914 4.48144 8.2849 4.25715Z" fill="white"/>
<path d="M24.3632 1.82131C24.1389 1.59708 23.7753 1.59708 23.551 1.82131L21.1152 4.25715C20.891 4.48138 20.891 4.84498 21.1152 5.06927C21.3394 5.2935 21.703 5.29356 21.9273 5.06927L24.3632 2.63343C24.5874 2.4092 24.5874 2.0456 24.3632 1.82131Z" fill="white"/>
<path d="M29.2562 13.3052C25.6084 9.1755 20.1922 5.74219 14.7 5.74219C9.20708 5.74219 3.79087 9.17636 0.143837 13.3052C-0.0660977 13.5429 -0.0435883 13.9058 0.194081 14.1157C0.431808 14.3257 0.794714 14.3032 1.00459 14.0655C1.12696 13.9269 1.25231 13.7889 1.37927 13.6517C4.21677 17.9391 9.36051 20.6719 14.7 20.6719C20.0395 20.6719 25.1832 17.9391 28.0207 13.6517C28.1477 13.7889 28.273 13.927 28.3954 14.0655C28.6047 14.3024 28.9675 14.3263 29.2059 14.1157C29.4436 13.9058 29.4661 13.5429 29.2562 13.3052ZM14.7 19.5234C9.65175 19.5234 4.79639 16.9005 2.19988 12.8062C4.24571 10.8016 8.9728 6.89063 14.7 6.89063C20.4273 6.89063 25.1543 10.8016 27.2001 12.8062C24.6036 16.9005 19.7482 19.5234 14.7 19.5234Z" fill="white"/>
</svg>
