<svg width="30" height="22" viewBox="0 0 30 22" fill="none" xmlns="http://www.w3.org/2000/svg">
<path d="M12.1002 10.9551C11.8763 10.7306 11.5122 10.7306 11.2883 10.9551C11.0637 11.1791 11.0637 11.5431 11.2883 11.7671C11.5122 11.9916 11.8763 11.9916 12.1002 11.7671C12.3247 11.5431 12.3247 11.1791 12.1002 10.9551Z" fill="black"/>
<path d="M15.1394 11.9353C14.1895 11.9353 13.4167 12.7081 13.4167 13.658C13.4167 14.6078 14.1895 15.3806 15.1394 15.3806C16.0893 15.3806 16.8621 14.6078 16.8621 13.658C16.8621 12.7081 16.0893 11.9353 15.1394 11.9353ZM15.1394 14.2322C14.8228 14.2322 14.5652 13.9746 14.5652 13.658C14.5652 13.3413 14.8228 13.0837 15.1394 13.0837C15.456 13.0837 15.7136 13.3413 15.7136 13.658C15.7136 13.9746 15.456 14.2322 15.1394 14.2322Z" fill="black"/>
<path d="M15.1394 9.06421C14.4975 9.06421 13.8769 9.19392 13.2948 9.4498C13.0045 9.57745 12.8726 9.91623 13.0002 10.2066C13.1277 10.4969 13.4666 10.6287 13.7569 10.5012C14.1925 10.3097 14.6576 10.2126 15.1394 10.2126C17.0392 10.2126 18.5847 11.7582 18.5847 13.658C18.5847 15.5577 17.0392 17.1033 15.1394 17.1033C13.2397 17.1033 11.6941 15.5577 11.6941 13.658C11.6941 13.6383 11.694 13.6191 11.6945 13.5995C11.7018 13.2825 11.4508 13.0195 11.1338 13.0121C10.8162 13.0042 10.5538 13.2558 10.5464 13.5729C10.5457 13.6015 10.5457 13.6294 10.5457 13.658C10.5457 16.191 12.6064 18.2517 15.1394 18.2517C17.6724 18.2517 19.7332 16.191 19.7332 13.658C19.7332 11.125 17.6724 9.06421 15.1394 9.06421Z" fill="#324979"/>
<path d="M15.1394 0.450928C14.8223 0.450928 14.5652 0.708006 14.5652 1.02515V4.47046C14.5652 4.7876 14.8223 5.04468 15.1394 5.04468C15.4565 5.04468 15.7136 4.7876 15.7136 4.47046V1.02515C15.7136 0.708006 15.4565 0.450928 15.1394 0.450928Z" fill="#324979"/>
<path d="M8.72436 4.70801L6.28852 2.27218C6.06429 2.04795 5.70069 2.04795 5.4764 2.27218C5.25217 2.49641 5.25217 2.86001 5.4764 3.0843L7.91224 5.52013C8.13647 5.74437 8.50012 5.74442 8.72436 5.52013C8.94859 5.2959 8.94859 4.9323 8.72436 4.70801Z" fill="#324979"/>
<path d="M24.8026 2.27218C24.5784 2.04795 24.2148 2.04795 23.9905 2.27218L21.5546 4.70801C21.3304 4.93225 21.3304 5.29584 21.5546 5.52013C21.7788 5.74437 22.1425 5.74442 22.3668 5.52013L24.8026 3.0843C25.0268 2.86006 25.0268 2.49647 24.8026 2.27218Z" fill="#324979"/>
<path d="M29.6956 13.7562C26.0479 9.62643 20.6316 6.19312 15.1395 6.19312C9.64653 6.19312 4.23033 9.62729 0.58329 13.7562C0.373355 13.9939 0.395865 14.3567 0.633534 14.5667C0.871261 14.7766 1.23417 14.7541 1.44404 14.5164C1.56641 14.3779 1.69176 14.2398 1.81872 14.1026C4.65622 18.39 9.79996 21.1228 15.1395 21.1228C20.4789 21.1228 25.6227 18.39 28.4602 14.1026C28.5871 14.2399 28.7125 14.3779 28.8349 14.5164C29.0441 14.7533 29.407 14.7772 29.6454 14.5667C29.883 14.3567 29.9055 13.9938 29.6956 13.7562ZM15.1395 19.9744C10.0912 19.9744 5.23584 17.3514 2.63934 13.2572C4.68516 11.2525 9.41225 7.34155 15.1395 7.34155C20.8667 7.34155 25.5937 11.2525 27.6396 13.2571C25.0431 17.3514 20.1877 19.9744 15.1395 19.9744Z" fill="#324979"/>
</svg>
