<svg width="243" id="Слой_1" data-name="Слой 1" xmlns="http://www.w3.org/2000/svg" viewBox="0 0 194 67"><defs><style>.cls-1{fill:red;}</style></defs><title>icons</title><path class="cls-1" d="M43.47,50.79A14.56,14.56,0,0,1,28.76,65.22a14.43,14.43,0,1,1,0-28.86A14.56,14.56,0,0,1,43.47,50.79Z"/><path class="cls-1" d="M18.79,28.65a9,9,0,0,1-9.07,8.9,8.9,8.9,0,1,1,0-17.79A9,9,0,0,1,18.79,28.65Z"/><path class="cls-1" d="M46.55,28a5.27,5.27,0,1,1-5.26-5.17A5.24,5.24,0,0,1,46.55,28Z"/><path class="cls-1" d="M13,31.36l-1.65,1.52,8.06,8.43L21,39.78Z"/><path class="cls-1" d="M38.88,30.74l-6.45,9.67,1.9,1.22L40.78,32Z"/><path d="M58.05,29.42h3.68l8.63,13v-13H74.2V49.17H70.49l-8.6-13v13H58.05Z"/><path d="M79.84,28.56a2.34,2.34,0,0,1,1.68.71A2.29,2.29,0,0,1,82.24,31a2.37,2.37,0,0,1-2.37,2.38,2.4,2.4,0,0,1-1.72-.7,2.36,2.36,0,0,1-.71-1.71,2.21,2.21,0,0,1,.68-1.65A2.34,2.34,0,0,1,79.84,28.56Zm-1.87,6h3.74V49.17H78Z"/><path d="M85.54,29.17h3.74v5.39h2.21V37.7H89.28V49.17H85.54V37.7h-1.9V34.56h1.9Z"/><path d="M92.61,34.56h3.21v1.83a3.93,3.93,0,0,1,1.38-1.65,3.4,3.4,0,0,1,1.9-.55,3.5,3.5,0,0,1,1.52.37L99.47,37.7a2.77,2.77,0,0,0-1.09-.33,1.7,1.7,0,0,0-1.46,1,9.2,9.2,0,0,0-.6,4.09v6.61H92.61Z"/><path d="M109.47,34.19a7.79,7.79,0,0,1,4,1,7.52,7.52,0,0,1,3.93,6.63,7.72,7.72,0,0,1-3.93,6.67,8,8,0,0,1-4,1A7.5,7.5,0,0,1,104,47.3a7.38,7.38,0,0,1-2.28-5.41,7.18,7.18,0,0,1,2.56-5.68A7.78,7.78,0,0,1,109.47,34.19Zm.07,3.45a3.88,3.88,0,0,0-2.9,1.2,4.11,4.11,0,0,0-1.15,3A4.21,4.21,0,0,0,106.64,45a3.76,3.76,0,0,0,2.9,1.16,3.94,3.94,0,0,0,2.93-1.19,4.63,4.63,0,0,0,0-6.11A4,4,0,0,0,109.54,37.64Z"/><path d="M129.58,36.6l-2.31,2.27a4,4,0,0,0-2.56-1.38,1.55,1.55,0,0,0-1,.28.75.75,0,0,0-.35.64.88.88,0,0,0,.22.55,4.55,4.55,0,0,0,1.12.67l1.38.67a8.55,8.55,0,0,1,3,2.14,4.21,4.21,0,0,1,.81,2.54,4.16,4.16,0,0,1-1.47,3.24,5.68,5.68,0,0,1-3.92,1.32A6.24,6.24,0,0,1,119.29,47l2.31-2.48a5.79,5.79,0,0,0,1.52,1.23,3.64,3.64,0,0,0,1.56.45,2,2,0,0,0,1.19-.33,1,1,0,0,0,.46-.8c0-.55-.53-1.1-1.62-1.65l-1.24-.61c-2.4-1.19-3.62-2.66-3.62-4.46a3.91,3.91,0,0,1,1.37-3,5,5,0,0,1,3.49-1.22,6.53,6.53,0,0,1,2.75.61A6.72,6.72,0,0,1,129.58,36.6Z"/><path d="M133.22,29.42h4.55a15.33,15.33,0,0,1,6.52,1.07A8.35,8.35,0,0,1,147.81,34a11,11,0,0,1,1.37,5.63,10.68,10.68,0,0,1-.78,4.19A9,9,0,0,1,146.25,47a7.24,7.24,0,0,1-3,1.74,20.66,20.66,0,0,1-5.52.49h-4.61V29.42ZM137,33V45.5h1.78a9.2,9.2,0,0,0,3.83-.58,4.59,4.59,0,0,0,1.93-2,7.16,7.16,0,0,0,.75-3.45,6.4,6.4,0,0,0-1.81-4.89c-1.09-1-2.8-1.56-5.2-1.56Z"/><path d="M163.42,34.56h3.74V49.17h-3.74V47.61a7.75,7.75,0,0,1-2.18,1.47,6.33,6.33,0,0,1-2.4.46,6.7,6.7,0,0,1-5-2.2,7.6,7.6,0,0,1-2.12-5.45,7.79,7.79,0,0,1,2-5.53,6.6,6.6,0,0,1,5-2.17,6.24,6.24,0,0,1,2.53.49,6.93,6.93,0,0,1,2.18,1.5Zm-3.93,3a3.77,3.77,0,0,0-2.86,1.19,4.25,4.25,0,0,0-1.16,3.09A4.34,4.34,0,0,0,156.63,45a3.76,3.76,0,0,0,2.86,1.22A3.89,3.89,0,0,0,162.42,45a4.78,4.78,0,0,0,0-6.24A3.82,3.82,0,0,0,159.49,37.58Z"/><path d="M171.4,29.17h3.74v5.39h2.21V37.7h-2.21V49.17H171.4V37.7h-1.9V34.56h1.9Z"/><path d="M190.38,34.56h3.74V49.17h-3.74V47.61a7.9,7.9,0,0,1-2.18,1.47,6.33,6.33,0,0,1-2.4.46,6.67,6.67,0,0,1-5-2.2,7.6,7.6,0,0,1-2.12-5.45,7.79,7.79,0,0,1,2-5.53,6.6,6.6,0,0,1,4.95-2.17,6.24,6.24,0,0,1,2.53.49,7,7,0,0,1,2.18,1.5Zm-4,3a3.81,3.81,0,0,0-2.87,1.19,4.24,4.24,0,0,0-1.15,3.09A4.33,4.33,0,0,0,183.55,45a3.78,3.78,0,0,0,2.87,1.22A3.9,3.9,0,0,0,189.35,45a4.81,4.81,0,0,0,0-6.24A3.83,3.83,0,0,0,186.42,37.58Z"/><path d="M58.68,57.43h.74V64h2.87v.7H58.71V57.43Z"/><path d="M63.57,57.09a.64.64,0,0,1,.4.15.49.49,0,0,1,.16.4A.64.64,0,0,1,64,58a.5.5,0,0,1-.4.15.69.69,0,0,1-.41-.15.53.53,0,0,1-.15-.4.6.6,0,0,1,.15-.4A.62.62,0,0,1,63.57,57.09Zm-.34,2.2h.71v5.38h-.71Z"/><path d="M65.38,59.29h.71v1a3,3,0,0,1,.94-.83,2.38,2.38,0,0,1,1.12-.27,1.9,1.9,0,0,1,1.09.3,2.13,2.13,0,0,1,.72.83,4.27,4.27,0,0,1,.22,1.62v2.75h-.72V62.07a5.1,5.1,0,0,0-.09-1.22,1.5,1.5,0,0,0-.47-.8,1.41,1.41,0,0,0-.91-.27,1.77,1.77,0,0,0-1.15.43,1.74,1.74,0,0,0-.65,1,6.88,6.88,0,0,0-.1,1.46v2h-.71Z"/><path d="M71.67,57.24h.72v4.25l2.55-2.17h1l-3,2.57,3.18,2.81h-1l-2.77-2.41V64.7h-.72V57.24Z"/><path d="M82,57.24v.67a1.48,1.48,0,0,0-.66-.15.64.64,0,0,0-.34.09c-.09.06-.16.13-.16.19a2.07,2.07,0,0,0,0,.55v.73h1.15v.61H80.77V64.7h-.71V59.93h-.72v-.61h.72V58.5a2.57,2.57,0,0,1,.09-.83.79.79,0,0,1,.37-.4,1.39,1.39,0,0,1,.63-.15A2.25,2.25,0,0,1,82,57.24Z"/><path d="M88.38,59.29v5.38h-.69v-.92a2.63,2.63,0,0,1-1,.8A2.85,2.85,0,0,1,83.48,64a2.85,2.85,0,0,1,0-4,2.76,2.76,0,0,1,2-.82,2.72,2.72,0,0,1,1.21.27,2.55,2.55,0,0,1,1,.86v-1h.69Zm-2.81.55a2.16,2.16,0,0,0-1.09.28,1.92,1.92,0,0,0-.78.79A2.17,2.17,0,0,0,83.42,62a1.92,1.92,0,0,0,.31,1.07,2.08,2.08,0,0,0,.81.8,2.26,2.26,0,0,0,1.06.27,2.31,2.31,0,0,0,1.09-.27,2.08,2.08,0,0,0,.81-.77,2.28,2.28,0,0,0-.34-2.66A2.53,2.53,0,0,0,85.57,59.84Z"/><path d="M95.29,60.42l-.56.34a2.36,2.36,0,0,0-2-.95,2.32,2.32,0,0,0-1.68.64,2.1,2.1,0,0,0-.35,2.63,2.38,2.38,0,0,0,.84.8,2.57,2.57,0,0,0,1.19.27,2.42,2.42,0,0,0,2-1l.56.37a2.54,2.54,0,0,1-1.05.92,3.48,3.48,0,0,1-1.53.33A3,3,0,0,1,90.56,64a2.67,2.67,0,0,1-.88-2,2.54,2.54,0,0,1,.41-1.43,2.66,2.66,0,0,1,1.09-1,3.29,3.29,0,0,1,1.56-.37,4.11,4.11,0,0,1,1.06.15,3.36,3.36,0,0,1,.87.43A1.46,1.46,0,0,1,95.29,60.42Z"/><path d="M97.26,57.3H98v2H99.1v.61H98v4.77h-.71V59.9h-1v-.61h1Z"/><path d="M102.87,59.9l-.47.46a1.61,1.61,0,0,0-1.12-.55.82.82,0,0,0-.59.21.7.7,0,0,0-.25.52.74.74,0,0,0,.18.49,3.11,3.11,0,0,0,.85.58,3.14,3.14,0,0,1,1,.77,1.33,1.33,0,0,1,.29.85,1.59,1.59,0,0,1-.47,1.14,1.66,1.66,0,0,1-1.19.45,1.89,1.89,0,0,1-.9-.21,2.19,2.19,0,0,1-.72-.55l.44-.49a1.59,1.59,0,0,0,1.15.61,1,1,0,0,0,.72-.27.9.9,0,0,0,.31-.61.78.78,0,0,0-.19-.52,3.15,3.15,0,0,0-.9-.59,2.43,2.43,0,0,1-1-.73,1.35,1.35,0,0,1-.28-.82,1.37,1.37,0,0,1,.44-1,1.47,1.47,0,0,1,1.09-.4A1.91,1.91,0,0,1,102.87,59.9Z"/><path d="M104.92,63.57a.62.62,0,0,1,.44.18.6.6,0,0,1,.19.43.59.59,0,0,1-.19.43.62.62,0,0,1-.87,0,.59.59,0,0,1-.19-.43.56.56,0,0,1,.19-.43A.52.52,0,0,1,104.92,63.57Z"/><path d="M110,57.42h1.47a3.15,3.15,0,0,1,1.34.22,1.55,1.55,0,0,1,.75.64,1.76,1.76,0,0,1,.28.95,1.8,1.8,0,0,1-.25.89,1.73,1.73,0,0,1-.72.64,2.15,2.15,0,0,1,.87.46,1.73,1.73,0,0,1,.5.61,1.67,1.67,0,0,1,.19.79,1.91,1.91,0,0,1-.66,1.47,2.48,2.48,0,0,1-1.74.61h-2Zm.72.71v2.32h.44a3.17,3.17,0,0,0,1.12-.15,1.07,1.07,0,0,0,.56-.46,1.12,1.12,0,0,0,.22-.67,1.06,1.06,0,0,0-.35-.8,1.89,1.89,0,0,0-1.12-.27h-.87Zm0,3.06V64h.9a3.45,3.45,0,0,0,1.19-.16,1.13,1.13,0,0,0,.59-.48,1.17,1.17,0,0,0,.22-.71,1.24,1.24,0,0,0-.31-.85,1.59,1.59,0,0,0-.88-.49,6.35,6.35,0,0,0-1.3-.09Z"/><path d="M115.68,59.29h.71V61.8a4.89,4.89,0,0,0,.1,1.25,1.19,1.19,0,0,0,.59.76,1.78,1.78,0,0,0,1,.28,1.67,1.67,0,0,0,1-.28,1.33,1.33,0,0,0,.57-.73,5.88,5.88,0,0,0,.09-1.31V59.26h.72v2.63a4.83,4.83,0,0,1-.25,1.68,2.11,2.11,0,0,1-.81.89,2.61,2.61,0,0,1-1.34.3,2.66,2.66,0,0,1-1.34-.3,2.17,2.17,0,0,1-.81-.89,4,4,0,0,1-.25-1.71Z"/><path d="M122.28,57.09a.69.69,0,0,1,.41.15.52.52,0,0,1,.15.4.68.68,0,0,1-.15.4.54.54,0,0,1-.41.15.66.66,0,0,1-.4-.15.51.51,0,0,1-.16-.4.56.56,0,0,1,.16-.4A.6.6,0,0,1,122.28,57.09Zm-.37,2.2h.72v5.38h-.72Z"/><path d="M124,57.24h.71v7.43H124Z"/><path d="M131.63,57.24v7.43h-.71v-.92a2.79,2.79,0,0,1-2.22,1.07,2.83,2.83,0,0,1,0-5.65,2.76,2.76,0,0,1,1.22.27,2.62,2.62,0,0,1,1,.86V57.24Zm-2.83,2.6a2.23,2.23,0,0,0-1.09.27,1.88,1.88,0,0,0-.78.8,2.17,2.17,0,0,0-.28,1.07,2.2,2.2,0,0,0,1.12,1.86,2.1,2.1,0,0,0,1.06.28,2.24,2.24,0,0,0,1.09-.28,2.12,2.12,0,0,0,.81-.76A2.2,2.2,0,0,0,131,62a2.23,2.23,0,0,0-.62-1.56A2.53,2.53,0,0,0,128.8,59.84Z"/><path d="M136.06,57.24h.71v4.25l2.56-2.17h1l-3,2.57,3.17,2.81h-1l-2.78-2.41V64.7H136V57.24Z"/><path d="M141.23,59.29H142v1a3,3,0,0,1,.93-.83,2.4,2.4,0,0,1,1.12-.27,2,2,0,0,1,1.1.3,2,2,0,0,1,.71.83,4.08,4.08,0,0,1,.22,1.62v2.75h-.72V62.07a5.1,5.1,0,0,0-.09-1.22,1.44,1.44,0,0,0-.47-.8,1.4,1.4,0,0,0-.9-.27,1.75,1.75,0,0,0-1.15.43,1.71,1.71,0,0,0-.66,1,7.89,7.89,0,0,0-.09,1.46v2h-.72Z"/><path d="M150.11,59.17a2.74,2.74,0,0,1,2.09.88A2.79,2.79,0,0,1,153,62a2.91,2.91,0,0,1-4.93,2,2.83,2.83,0,0,1-.81-2,2.79,2.79,0,0,1,.75-1.93A3,3,0,0,1,150.11,59.17Zm0,.67a2,2,0,0,0-1.49.64,2.18,2.18,0,0,0-.35,2.6,1.93,1.93,0,0,0,.78.77,2.14,2.14,0,0,0,1.06.27,2.09,2.09,0,0,0,1.84-1,2.19,2.19,0,0,0-.34-2.6A2,2,0,0,0,150.11,59.84Z"/><path d="M153.54,59.29h.72l1.68,3.91,1.75-3.91h.12l1.78,3.91,1.71-3.91H162l-2.37,5.38h-.13l-1.74-3.85L156,64.67h-.15Z"/><path d="M162.73,57.24h.72v7.43h-.72Z"/><path d="M169.53,62.9l.59.3a3.52,3.52,0,0,1-.69.92,2.58,2.58,0,0,1-.87.52,3,3,0,0,1-1.09.18,2.59,2.59,0,0,1-2.09-.85,2.91,2.91,0,0,1-.74-2,2.71,2.71,0,0,1,.65-1.8,2.64,2.64,0,0,1,2.18-1,2.71,2.71,0,0,1,2.25,1,2.79,2.79,0,0,1,.59,1.83h-5A2.07,2.07,0,0,0,166,63.6a1.94,1.94,0,0,0,1.46.58,2.42,2.42,0,0,0,.81-.15,2.53,2.53,0,0,0,.69-.37A3.87,3.87,0,0,0,169.53,62.9Zm0-1.47a2.23,2.23,0,0,0-.41-.89,1.85,1.85,0,0,0-.71-.52,2.71,2.71,0,0,0-.94-.21,2.11,2.11,0,0,0-1.4.52,2.39,2.39,0,0,0-.66,1.1Z"/><path d="M177.07,57.24v7.43h-.72v-.92a2.76,2.76,0,0,1-2.21,1.07,2.83,2.83,0,0,1,0-5.65,2.79,2.79,0,0,1,1.22.27,2.59,2.59,0,0,1,1,.86V57.24Zm-2.84,2.6a2.29,2.29,0,0,0-1.09.27,2,2,0,0,0-.78.8,2.28,2.28,0,0,0-.28,1.07,1.94,1.94,0,0,0,.32,1.07,1.87,1.87,0,0,0,.81.79,2.1,2.1,0,0,0,1.06.28,2.27,2.27,0,0,0,1.09-.28,2.12,2.12,0,0,0,.81-.76,2.3,2.3,0,0,0,.28-1.1,2.19,2.19,0,0,0-.63-1.56A2.43,2.43,0,0,0,174.23,59.84Z"/><path d="M183.4,59.29h.71v4.28a5.37,5.37,0,0,1-.18,1.65,2,2,0,0,1-1,1.13,3.11,3.11,0,0,1-1.65.4,4.21,4.21,0,0,1-1.28-.18,2.51,2.51,0,0,1-.9-.52,3.27,3.27,0,0,1-.66-1h.78a2,2,0,0,0,.81.79,2.92,2.92,0,0,0,2.43,0,1.62,1.62,0,0,0,.72-.67,2.65,2.65,0,0,0,.22-1.28V63.6a2.88,2.88,0,0,1-1,.77,2.75,2.75,0,0,1-1.21.27,3,3,0,0,1-1.44-.37,2.91,2.91,0,0,1-1-1,2.62,2.62,0,0,1-.37-1.38,2.67,2.67,0,0,1,1.43-2.39,2.9,2.9,0,0,1,1.41-.36,3,3,0,0,1,1.15.24,3.24,3.24,0,0,1,1,.83v-1Zm-2.09.55a2.24,2.24,0,0,0-1.12.28,1.87,1.87,0,0,0-.81.79A2.17,2.17,0,0,0,179.1,62a2,2,0,0,0,.59,1.47,2.11,2.11,0,0,0,1.56.58,2,2,0,0,0,1.55-.58,1.94,1.94,0,0,0,.6-1.5,2.11,2.11,0,0,0-.28-1.07,2,2,0,0,0-.78-.76A1.87,1.87,0,0,0,181.31,59.84Z"/><path d="M190.22,62.9l.59.3a2.75,2.75,0,0,1-1.55,1.44,3.13,3.13,0,0,1-1.1.18,2.57,2.57,0,0,1-2.08-.85,2.92,2.92,0,0,1-.75-2,2.77,2.77,0,0,1,.65-1.8,2.64,2.64,0,0,1,2.18-1,2.7,2.7,0,0,1,2.25,1,2.79,2.79,0,0,1,.59,1.83h-4.95a2.07,2.07,0,0,0,.62,1.53,1.94,1.94,0,0,0,1.46.58,2.42,2.42,0,0,0,.81-.15,2.53,2.53,0,0,0,.69-.37A3.52,3.52,0,0,0,190.22,62.9Zm0-1.47a2.22,2.22,0,0,0-.4-.89,2,2,0,0,0-.72-.52,2.61,2.61,0,0,0-.94-.21,2.13,2.13,0,0,0-1.4.52,2.3,2.3,0,0,0-.65,1.1Z"/><path d="M193.09,63.57a.66.66,0,0,1,.44.18.63.63,0,0,1,.18.43.61.61,0,0,1-.18.43.66.66,0,0,1-.44.18.64.64,0,0,1-.44-.18.61.61,0,0,1-.18-.43.58.58,0,0,1,.18-.43A.59.59,0,0,1,193.09,63.57Z"/><path d="M83.34,4.4H84.8V5.77h.07A3.26,3.26,0,0,1,86.11,4.6,3.79,3.79,0,0,1,88,4.12a4.16,4.16,0,0,1,2.24.63,4.36,4.36,0,0,1,1.58,1.74A5.45,5.45,0,0,1,92.4,9a5.44,5.44,0,0,1-.58,2.52,4.34,4.34,0,0,1-1.58,1.73,4.16,4.16,0,0,1-2.24.63,3.79,3.79,0,0,1-1.89-.47,3.42,3.42,0,0,1-1.24-1.17H84.8l.07,1.26v4H83.34Zm4.48,8.09a2.81,2.81,0,0,0,1.5-.44,2.93,2.93,0,0,0,1.11-1.22A3.82,3.82,0,0,0,90.87,9a3.67,3.67,0,0,0-.44-1.81,3,3,0,0,0-1.11-1.25,2.81,2.81,0,0,0-3,0,3.11,3.11,0,0,0-1.12,1.23A4,4,0,0,0,84.8,9a4,4,0,0,0,.41,1.84,3,3,0,0,0,1.12,1.22A2.81,2.81,0,0,0,87.82,12.49Zm9.29,1.38a4,4,0,0,1-1.8-.39,3.09,3.09,0,0,1-1.23-1.08,3,3,0,0,1-.43-1.59,2.67,2.67,0,0,1,1.1-2.27,4.47,4.47,0,0,1,2.77-.82,6.17,6.17,0,0,1,1.53.18,3.86,3.86,0,0,1,1.1.41V7.75a2.05,2.05,0,0,0-.72-1.64,2.67,2.67,0,0,0-1.82-.63,3,3,0,0,0-1.42.35,2.53,2.53,0,0,0-1,.91L94,5.88a3.75,3.75,0,0,1,1.48-1.3,4.69,4.69,0,0,1,2.1-.46,4.15,4.15,0,0,1,2.94,1,3.38,3.38,0,0,1,1.08,2.66v5.81h-1.46V12.27h-.07a3.51,3.51,0,0,1-3,1.6Zm.14-1.35a2.78,2.78,0,0,0,1.44-.39,3,3,0,0,0,1.06-1.07,2.73,2.73,0,0,0,.4-1.45,3.57,3.57,0,0,0-1.06-.47A4.87,4.87,0,0,0,97.75,9a3,3,0,0,0-1.9.52,1.68,1.68,0,0,0-.63,1.35,1.5,1.5,0,0,0,.57,1.22A2.21,2.21,0,0,0,97.25,12.52Zm9.83,1.35a4.81,4.81,0,0,1-3.63-1.64l1-1a4.84,4.84,0,0,0,1.21.95,3.17,3.17,0,0,0,1.38.31,2.74,2.74,0,0,0,1.62-.42,1.25,1.25,0,0,0,.6-1.08,1.29,1.29,0,0,0-.51-1,1.89,1.89,0,0,0-1.31-.44H106V8.31h1.35a1.77,1.77,0,0,0,1.15-.38,1.25,1.25,0,0,0,0-2,2.1,2.1,0,0,0-1.37-.42,3,3,0,0,0-1.23.24,3.38,3.38,0,0,0-1.08.79l-1-1a4.36,4.36,0,0,1,1.47-1.08,4.64,4.64,0,0,1,1.84-.34,4,4,0,0,1,1.71.36,2.85,2.85,0,0,1,1.24.95,2.25,2.25,0,0,1,.45,1.37,2.24,2.24,0,0,1-.34,1.26,2.12,2.12,0,0,1-.92.75v.08a2.51,2.51,0,0,1,1.15.88,2,2,0,0,1,.43,1.29,2.46,2.46,0,0,1-1,2.06A4.56,4.56,0,0,1,107.08,13.87Zm5.6-9.47h1.46V5.77h.07a3.26,3.26,0,0,1,1.24-1.17,3.79,3.79,0,0,1,1.89-.48,4.11,4.11,0,0,1,2.23.63,4.39,4.39,0,0,1,1.59,1.74,5.44,5.44,0,0,1,.57,2.5,5.44,5.44,0,0,1-.57,2.52,4.36,4.36,0,0,1-1.59,1.73,4.11,4.11,0,0,1-2.23.63,3.79,3.79,0,0,1-1.89-.47,3.42,3.42,0,0,1-1.24-1.17h-.07l.07,1.26v4h-1.53Zm4.48,8.09a2.81,2.81,0,0,0,1.5-.44,3,3,0,0,0,1.11-1.22A3.82,3.82,0,0,0,120.2,9a3.67,3.67,0,0,0-.43-1.81,3.08,3.08,0,0,0-1.11-1.25,2.89,2.89,0,0,0-1.5-.43,2.86,2.86,0,0,0-1.49.43,3.11,3.11,0,0,0-1.12,1.23A4,4,0,0,0,114.14,9a4,4,0,0,0,.41,1.84,3,3,0,0,0,1.12,1.22A2.78,2.78,0,0,0,117.16,12.49Zm9.28,1.38a4,4,0,0,1-1.8-.39,3.13,3.13,0,0,1-1.22-1.08,3,3,0,0,1-.43-1.59,2.64,2.64,0,0,1,1.1-2.27,4.47,4.47,0,0,1,2.77-.82,6.17,6.17,0,0,1,1.53.18,4,4,0,0,1,1.1.41V7.75a2.05,2.05,0,0,0-.72-1.64A2.67,2.67,0,0,0,127,5.48a3,3,0,0,0-1.42.35,2.46,2.46,0,0,0-1,.91l-1.15-.86a3.79,3.79,0,0,1,1.47-1.3,4.76,4.76,0,0,1,2.11-.46,4.11,4.11,0,0,1,2.93,1,3.38,3.38,0,0,1,1.08,2.66v5.81h-1.45V12.27h-.08a3.3,3.3,0,0,1-1.18,1.13A3.4,3.4,0,0,1,126.44,13.87Zm.15-1.35a2.83,2.83,0,0,0,1.44-.39,3,3,0,0,0,1.06-1.07,2.82,2.82,0,0,0,.4-1.45,3.64,3.64,0,0,0-1.07-.47A4.8,4.8,0,0,0,127.09,9a3,3,0,0,0-1.91.52,1.68,1.68,0,0,0-.63,1.35,1.51,1.51,0,0,0,.58,1.22A2.19,2.19,0,0,0,126.59,12.52Zm11.16,1.35a4.63,4.63,0,0,1-2.41-.63,4.44,4.44,0,0,1-1.69-2A7.89,7.89,0,0,1,133,8a11.24,11.24,0,0,1,.43-3.46,5.66,5.66,0,0,1,1.22-2.09,4.85,4.85,0,0,1,1.62-1A5.67,5.67,0,0,1,138.4,1a8.39,8.39,0,0,0,1-.05,1.19,1.19,0,0,0,.5-.2.82.82,0,0,0,.25-.38h1.51a2.24,2.24,0,0,1-1,1.6,4.5,4.5,0,0,1-2.21.42,4.43,4.43,0,0,0-1.66.25,3,3,0,0,0-1.06.68,4.25,4.25,0,0,0-1.17,2.59h.07A4.39,4.39,0,0,1,136,4.64a4.32,4.32,0,0,1,4.32.12,4.45,4.45,0,0,1,1.55,1.77A5.43,5.43,0,0,1,142.45,9a5.07,5.07,0,0,1-.61,2.49,4.51,4.51,0,0,1-1.68,1.76A4.61,4.61,0,0,1,137.75,13.87Zm0-1.38a3.05,3.05,0,0,0,1.57-.42,3.13,3.13,0,0,0,1.17-1.22A3.71,3.71,0,0,0,140.94,9a3.7,3.7,0,0,0-.45-1.85,3.09,3.09,0,0,0-4.3-1.21A3.08,3.08,0,0,0,135,7.14,3.92,3.92,0,0,0,134.6,9a3.88,3.88,0,0,0,.43,1.84,3.1,3.1,0,0,0,1.16,1.22A3,3,0,0,0,137.75,12.49Zm10.68,1.38a4.56,4.56,0,0,1-2.43-.65,4.61,4.61,0,0,1-1.69-1.76,5.13,5.13,0,0,1-.6-2.47,5.09,5.09,0,0,1,.6-2.46,4.79,4.79,0,0,1,6.55-1.77,4.44,4.44,0,0,1,1.67,1.77A5,5,0,0,1,153.15,9a5,5,0,0,1-.62,2.47,4.42,4.42,0,0,1-1.67,1.76A4.56,4.56,0,0,1,148.43,13.87Zm0-1.38a3.08,3.08,0,0,0,1.57-.42,3.13,3.13,0,0,0,1.17-1.22A3.71,3.71,0,0,0,151.62,9a3.7,3.7,0,0,0-.45-1.85A3,3,0,0,0,150,5.93a3.09,3.09,0,0,0-1.57-.43,3.15,3.15,0,0,0-1.58.43,3.08,3.08,0,0,0-1.19,1.21A3.8,3.8,0,0,0,145.23,9a3.81,3.81,0,0,0,.43,1.86,3.17,3.17,0,0,0,1.19,1.22A3.14,3.14,0,0,0,148.43,12.49Zm8.67-6.7h-3V4.4h7.5V5.79h-3v7.79H157.1Zm9.07,8.08a4,4,0,0,1-1.8-.39,2.89,2.89,0,0,1-1.66-2.67,2.67,2.67,0,0,1,1.1-2.27,4.49,4.49,0,0,1,2.77-.82,6.06,6.06,0,0,1,1.53.18,3.86,3.86,0,0,1,1.1.41V7.75a2.05,2.05,0,0,0-.72-1.64,2.65,2.65,0,0,0-1.82-.63,3,3,0,0,0-1.42.35,2.5,2.5,0,0,0-1,.91l-1.16-.86a3.82,3.82,0,0,1,1.48-1.3,4.76,4.76,0,0,1,2.11-.46,4.14,4.14,0,0,1,2.93,1,3.38,3.38,0,0,1,1.08,2.66v5.81h-1.46V12.27h-.07A3.25,3.25,0,0,1,168,13.4,3.36,3.36,0,0,1,166.17,13.87Zm.14-1.35a2.78,2.78,0,0,0,1.44-.39,3,3,0,0,0,1.07-1.07,2.82,2.82,0,0,0,.39-1.45,3.57,3.57,0,0,0-1.06-.47A4.8,4.8,0,0,0,166.82,9a3,3,0,0,0-1.91.52,1.68,1.68,0,0,0-.63,1.35,1.48,1.48,0,0,0,.58,1.22A2.18,2.18,0,0,0,166.31,12.52ZM172.8,4.4h1.53V8.26h5V4.4h1.52v9.18h-1.52V9.68h-5v3.9H172.8Zm14.46,9.47a4.56,4.56,0,0,1-2.43-.65,4.61,4.61,0,0,1-1.69-1.76,5.13,5.13,0,0,1-.6-2.47,5.09,5.09,0,0,1,.6-2.46,4.79,4.79,0,0,1,6.55-1.77,4.44,4.44,0,0,1,1.67,1.77A5,5,0,0,1,192,9a5,5,0,0,1-.62,2.47,4.42,4.42,0,0,1-1.67,1.76A4.56,4.56,0,0,1,187.26,13.87Zm0-1.38a3.08,3.08,0,0,0,1.57-.42A3.13,3.13,0,0,0,190,10.85,3.71,3.71,0,0,0,190.45,9,3.7,3.7,0,0,0,190,7.14a3,3,0,0,0-1.17-1.21,3.09,3.09,0,0,0-1.57-.43,3.15,3.15,0,0,0-1.58.43,3.08,3.08,0,0,0-1.19,1.21A3.8,3.8,0,0,0,184.06,9a3.81,3.81,0,0,0,.43,1.86,3.17,3.17,0,0,0,1.19,1.22A3.14,3.14,0,0,0,187.26,12.49Z"/></svg>