<svg id="Слой_1" data-name="Слой 1" xmlns="http://www.w3.org/2000/svg" viewBox="0 0 64 75" height="75"><defs><style>.cls-1{fill:#fff;}</style></defs><title>icons</title><path class="cls-1" d="M20.37,17.05H14.28a1.79,1.79,0,0,0-1.79,1.78v6a1.79,1.79,0,0,0,1.79,1.79h6.09a1.79,1.79,0,0,0,1.78-1.79v-6A1.78,1.78,0,0,0,20.37,17.05ZM20,24.46H14.68V19.25H20Z"/><path class="cls-1" d="M20.37,31.74H14.28a1.79,1.79,0,0,0-1.79,1.78v6a1.79,1.79,0,0,0,1.79,1.79h6.09a1.79,1.79,0,0,0,1.78-1.79v-6A1.78,1.78,0,0,0,20.37,31.74ZM20,39.15H14.68V33.94H20Z"/><path class="cls-1" d="M20.37,46.65H14.28a1.79,1.79,0,0,0-1.79,1.78v6a1.79,1.79,0,0,0,1.79,1.78h6.09a1.78,1.78,0,0,0,1.78-1.78v-6A1.78,1.78,0,0,0,20.37,46.65ZM20,54.06H14.68V48.85H20Z"/><path class="cls-1" d="M26.93,20.37H38.58a1.1,1.1,0,1,0,0-2.2H26.93a1.1,1.1,0,0,0,0,2.2Z"/><path class="cls-1" d="M26.93,25.53H38.58a1.1,1.1,0,1,0,0-2.19H26.93a1.1,1.1,0,1,0,0,2.19Z"/><path class="cls-1" d="M26.93,35.06H38.58a1.1,1.1,0,1,0,0-2.19H26.93a1.1,1.1,0,1,0,0,2.19Z"/><path class="cls-1" d="M26.93,40.22H38.58a1.1,1.1,0,1,0,0-2.19H26.93a1.1,1.1,0,1,0,0,2.19Z"/><path class="cls-1" d="M26.93,50H38.58a1.1,1.1,0,1,0,0-2.19H26.93a1.1,1.1,0,1,0,0,2.19Z"/><path class="cls-1" d="M31.67,52.94H26.93a1.1,1.1,0,1,0,0,2.19h4.74a1.1,1.1,0,0,0,0-2.19Z"/><path class="cls-1" d="M62.55,53.45a6.83,6.83,0,0,0-2.93-4.35,6.93,6.93,0,0,0-8.77,1V7.83A1.87,1.87,0,0,0,49,6H38.24a2.42,2.42,0,0,0-2.36-1.92h-2V3.83A3.85,3.85,0,0,0,30.06,0H22.11a3.85,3.85,0,0,0-3.86,3.83v.22h-2A2.41,2.41,0,0,0,13.93,6H3.18A1.87,1.87,0,0,0,1.32,7.83v27a1.1,1.1,0,1,0,2.2,0V8.17H13.88v3.06H8.43A1.81,1.81,0,0,0,6.62,13v49.2a1.81,1.81,0,0,0,1.81,1.81H31a9.55,9.55,0,0,0,1.07,3.06H3.52V40.58a1.1,1.1,0,0,0-2.2,0V67.45a1.87,1.87,0,0,0,1.86,1.86H33.73a9.67,9.67,0,0,0,4.68,2.56,9.8,9.8,0,0,0,2.16.24l.63,0A6.89,6.89,0,0,0,52.54,72L57,65.27h0v0l4.48-6.68A6.78,6.78,0,0,0,62.55,53.45Zm-46.48-47a.22.22,0,0,1,.22-.2h3.06a1.1,1.1,0,0,0,1.1-1.1V3.83A1.64,1.64,0,0,1,22.11,2.2h8a1.64,1.64,0,0,1,1.65,1.63V5.15a1.11,1.11,0,0,0,1.1,1.1h3.07a.21.21,0,0,1,.21.2v4.78h-20ZM31.12,60.34a10,10,0,0,0-.22,1.51H8.82V13.42H43.35V34.85a1.1,1.1,0,0,0,2.2,0V13a1.82,1.82,0,0,0-1.82-1.81H38.29V8.17H48.65v45l-1.52,2.26a10,10,0,0,0-1.58-1.18V39.92a1.1,1.1,0,1,0-2.2,0V53.28l-.63-.17A9.71,9.71,0,0,0,31.12,60.34Zm10,4.06a6.73,6.73,0,0,0-1,5.11l.09.39a7.26,7.26,0,0,1-1.3-.18,7.45,7.45,0,0,1-4.69-3.31,7.32,7.32,0,0,1-.94-5.57,7.5,7.5,0,0,1,9-5.58,7.41,7.41,0,0,1,3.66,2Zm9.61,6.34A4.7,4.7,0,0,1,44.24,72a4.62,4.62,0,0,1-2-3,4.55,4.55,0,0,1,.69-3.46h0l3.88-5.79L54.59,65Zm9-13.4-3.89,5.79L48.05,58l3.88-5.78a4.66,4.66,0,0,1,3.89-2.06,4.74,4.74,0,0,1,2.59.77,4.63,4.63,0,0,1,1.3,6.41Z"/></svg>