<svg width="78" height="78" viewBox="0 0 78 78" fill="none" xmlns="http://www.w3.org/2000/svg">
<path d="M37.3593 38.0859H37.2856C37.0431 38.0859 36.8106 38.1822 36.6392 38.3537C36.4678 38.5251 36.3715 38.7576 36.3715 39C36.3715 39.2424 36.4678 39.4749 36.6392 39.6463C36.8106 39.8178 37.0431 39.9141 37.2856 39.9141H37.3593C37.6017 39.9141 37.8342 39.8178 38.0056 39.6463C38.177 39.4749 38.2733 39.2424 38.2733 39C38.2733 38.7576 38.177 38.5251 38.0056 38.3537C37.8342 38.1822 37.6017 38.0859 37.3593 38.0859Z" fill="white"/>
<path d="M34.3992 38.0859H34.3646C34.1222 38.0859 33.8897 38.1822 33.7183 38.3537C33.5469 38.5251 33.4506 38.7576 33.4506 39C33.4506 39.2424 33.5469 39.4749 33.7183 39.6463C33.8897 39.8178 34.1222 39.9141 34.3646 39.9141H34.3992C34.6416 39.9141 34.8741 39.8178 35.0455 39.6463C35.217 39.4749 35.3133 39.2424 35.3133 39C35.3133 38.7576 35.217 38.5251 35.0455 38.3537C34.8741 38.1822 34.6416 38.0859 34.3992 38.0859Z" fill="white"/>
<path d="M31.5403 38.0859H26.5467L27.5405 37.0919C27.7081 36.9197 27.8012 36.6885 27.7996 36.4482C27.798 36.2079 27.7018 35.978 27.5319 35.808C27.362 35.6381 27.1321 35.5419 26.8918 35.5403C26.6515 35.5387 26.4203 35.6317 26.2481 35.7993L23.6936 38.3536C23.6087 38.4385 23.5413 38.5393 23.4954 38.6502C23.4494 38.7611 23.4258 38.8799 23.4258 39C23.4258 39.12 23.4494 39.2389 23.4954 39.3498C23.5413 39.4607 23.6087 39.5615 23.6936 39.6464L26.2488 42.2007C26.421 42.3683 26.6523 42.4613 26.8925 42.4597C27.1328 42.458 27.3628 42.3619 27.5327 42.192C27.7026 42.022 27.7987 41.7921 27.8003 41.5518C27.8019 41.3115 27.7089 41.0803 27.5413 40.9081L26.5467 39.9141H31.5403C31.7828 39.9141 32.0152 39.8178 32.1867 39.6463C32.3581 39.4749 32.4544 39.2424 32.4544 39C32.4544 38.7576 32.3581 38.5251 32.1867 38.3537C32.0152 38.1822 31.7828 38.0859 31.5403 38.0859Z" fill="white"/>
<path d="M51.7519 35.7992C51.6675 35.7125 51.5666 35.6433 51.4552 35.5959C51.3438 35.5484 51.2241 35.5235 51.1031 35.5227C50.982 35.5219 50.8619 35.5452 50.7499 35.5911C50.6379 35.6371 50.5361 35.7048 50.4505 35.7905C50.3649 35.8761 50.2972 35.9779 50.2512 36.0899C50.2053 36.2019 50.182 36.3219 50.1829 36.443C50.1837 36.5641 50.2086 36.6838 50.2561 36.7952C50.3035 36.9066 50.3727 37.0074 50.4594 37.0919L51.4533 38.0859H46.4597C46.2172 38.0859 45.9847 38.1822 45.8133 38.3536C45.6419 38.525 45.5456 38.7575 45.5456 39C45.5456 39.2424 45.6419 39.4749 45.8133 39.6463C45.9847 39.8177 46.2172 39.914 46.4597 39.914H51.4533L50.4594 40.9081C50.3727 40.9925 50.3035 41.0934 50.2561 41.2047C50.2086 41.3161 50.1837 41.4358 50.1829 41.5569C50.182 41.678 50.2053 41.798 50.2512 41.91C50.2972 42.0221 50.3649 42.1238 50.4505 42.2095C50.5361 42.2951 50.6379 42.3628 50.7499 42.4088C50.8619 42.4548 50.982 42.478 51.1031 42.4772C51.2241 42.4764 51.3438 42.4515 51.4552 42.4041C51.5666 42.3566 51.6675 42.2875 51.7519 42.2007L54.3064 39.6464C54.3913 39.5615 54.4587 39.4607 54.5046 39.3498C54.5506 39.2389 54.5742 39.12 54.5742 39C54.5742 38.8799 54.5506 38.761 54.5046 38.6501C54.4587 38.5392 54.3913 38.4385 54.3064 38.3536L51.7519 35.7992Z" fill="white"/>
<path d="M40.7145 38.0859H40.6407C40.3983 38.0859 40.1658 38.1822 39.9944 38.3537C39.823 38.5251 39.7267 38.7576 39.7267 39C39.7267 39.2424 39.823 39.4749 39.9944 39.6463C40.1658 39.8178 40.3983 39.9141 40.6407 39.9141H40.7145C40.9569 39.9141 41.1894 39.8178 41.3608 39.6463C41.5322 39.4749 41.6285 39.2424 41.6285 39C41.6285 38.7576 41.5322 38.5251 41.3608 38.3537C41.1894 38.1822 40.9569 38.0859 40.7145 38.0859Z" fill="white"/>
<path d="M43.6358 38.0859H43.6008C43.3583 38.0859 43.1258 38.1822 42.9544 38.3537C42.783 38.5251 42.6867 38.7576 42.6867 39C42.6867 39.2424 42.783 39.4749 42.9544 39.6463C43.1258 39.8178 43.3583 39.9141 43.6008 39.9141H43.6353C43.8778 39.9141 44.1103 39.8178 44.2817 39.6463C44.4531 39.4749 44.5494 39.2424 44.5494 39C44.5494 38.7576 44.4531 38.5251 44.2817 38.3537C44.1103 38.1822 43.8778 38.0859 43.6353 38.0859H43.6358Z" fill="white"/>
<path d="M37.3593 26.6602H37.2856C37.0431 26.6602 36.8106 26.7565 36.6392 26.9279C36.4678 27.0993 36.3715 27.3318 36.3715 27.5742C36.3715 27.8166 36.4678 28.0491 36.6392 28.2206C36.8106 28.392 37.0431 28.4883 37.2856 28.4883H37.3593C37.6017 28.4883 37.8342 28.392 38.0056 28.2206C38.177 28.0491 38.2733 27.8166 38.2733 27.5742C38.2733 27.3318 38.177 27.0993 38.0056 26.9279C37.8342 26.7565 37.6017 26.6602 37.3593 26.6602Z" fill="white"/>
<path d="M34.3992 26.6602H34.3646C34.1222 26.6602 33.8897 26.7565 33.7183 26.9279C33.5469 27.0993 33.4506 27.3318 33.4506 27.5742C33.4506 27.8166 33.5469 28.0491 33.7183 28.2206C33.8897 28.392 34.1222 28.4883 34.3646 28.4883H34.3992C34.6416 28.4883 34.8741 28.392 35.0455 28.2206C35.217 28.0491 35.3133 27.8166 35.3133 27.5742C35.3133 27.3318 35.217 27.0993 35.0455 26.9279C34.8741 26.7565 34.6416 26.6602 34.3992 26.6602Z" fill="white"/>
<path d="M31.5403 26.6602H26.5467L27.5405 25.6661C27.7081 25.4939 27.8012 25.2627 27.7996 25.0224C27.798 24.7821 27.7018 24.5522 27.5319 24.3823C27.362 24.2124 27.1321 24.1162 26.8918 24.1145C26.6515 24.1129 26.4203 24.2059 26.2481 24.3735L23.6936 26.9278C23.6087 27.0127 23.5413 27.1135 23.4954 27.2244C23.4494 27.3353 23.4258 27.4542 23.4258 27.5742C23.4258 27.6943 23.4494 27.8131 23.4954 27.9241C23.5413 28.035 23.6087 28.1357 23.6936 28.2206L26.2488 30.775C26.421 30.9425 26.6523 31.0356 26.8925 31.0339C27.1328 31.0323 27.3628 30.9361 27.5327 30.7662C27.7026 30.5963 27.7987 30.3663 27.8003 30.126C27.8019 29.8858 27.7089 29.6545 27.5413 29.4823L26.5467 28.4883H31.5403C31.7828 28.4883 32.0152 28.392 32.1867 28.2206C32.3581 28.0491 32.4544 27.8166 32.4544 27.5742C32.4544 27.3318 32.3581 27.0993 32.1867 26.9279C32.0152 26.7565 31.7828 26.6602 31.5403 26.6602Z" fill="white"/>
<path d="M51.7519 24.3734C51.6675 24.2867 51.5666 24.2176 51.4552 24.1701C51.3438 24.1226 51.2241 24.0978 51.1031 24.0969C50.982 24.0961 50.8619 24.1194 50.7499 24.1653C50.6379 24.2113 50.5361 24.2791 50.4505 24.3647C50.3649 24.4503 50.2972 24.5521 50.2512 24.6641C50.2053 24.7761 50.182 24.8962 50.1829 25.0172C50.1837 25.1383 50.2086 25.258 50.2561 25.3694C50.3035 25.4808 50.3727 25.5816 50.4594 25.6661L51.4533 26.6601H46.4597C46.2172 26.6601 45.9847 26.7564 45.8133 26.9278C45.6419 27.0993 45.5456 27.3318 45.5456 27.5742C45.5456 27.8166 45.6419 28.0491 45.8133 28.2205C45.9847 28.3919 46.2172 28.4882 46.4597 28.4882H51.4533L50.4594 29.4823C50.3727 29.5667 50.3035 29.6676 50.2561 29.779C50.2086 29.8903 50.1837 30.01 50.1829 30.1311C50.182 30.2522 50.2053 30.3722 50.2512 30.4843C50.2972 30.5963 50.3649 30.6981 50.4505 30.7837C50.5361 30.8693 50.6379 30.9371 50.7499 30.983C50.8619 31.029 50.982 31.0522 51.1031 31.0514C51.2241 31.0506 51.3438 31.0257 51.4552 30.9783C51.5666 30.9308 51.6675 30.8617 51.7519 30.7749L54.3064 28.2206C54.3913 28.1357 54.4587 28.0349 54.5046 27.924C54.5506 27.8131 54.5742 27.6942 54.5742 27.5742C54.5742 27.4541 54.5506 27.3353 54.5046 27.2243C54.4587 27.1134 54.3913 27.0127 54.3064 26.9278L51.7519 24.3734Z" fill="white"/>
<path d="M40.7145 26.6602H40.6407C40.3983 26.6602 40.1658 26.7565 39.9944 26.9279C39.823 27.0993 39.7267 27.3318 39.7267 27.5742C39.7267 27.8166 39.823 28.0491 39.9944 28.2206C40.1658 28.392 40.3983 28.4883 40.6407 28.4883H40.7145C40.9569 28.4883 41.1894 28.392 41.3608 28.2206C41.5322 28.0491 41.6285 27.8166 41.6285 27.5742C41.6285 27.3318 41.5322 27.0993 41.3608 26.9279C41.1894 26.7565 40.9569 26.6602 40.7145 26.6602Z" fill="white"/>
<path d="M43.6358 26.6602H43.6008C43.3583 26.6602 43.1258 26.7565 42.9544 26.9279C42.783 27.0993 42.6867 27.3318 42.6867 27.5742C42.6867 27.8166 42.783 28.0491 42.9544 28.2206C43.1258 28.392 43.3583 28.4883 43.6008 28.4883H43.6353C43.8778 28.4883 44.1103 28.392 44.2817 28.2206C44.4531 28.0491 44.5494 27.8166 44.5494 27.5742C44.5494 27.3318 44.4531 27.0993 44.2817 26.9279C44.1103 26.7565 43.8778 26.6602 43.6353 26.6602H43.6358Z" fill="white"/>
<path d="M37.3593 49.5117H37.2856C37.0431 49.5117 36.8106 49.608 36.6392 49.7794C36.4678 49.9509 36.3715 50.1834 36.3715 50.4258C36.3715 50.6682 36.4678 50.9007 36.6392 51.0721C36.8106 51.2435 37.0431 51.3398 37.2856 51.3398H37.3593C37.6017 51.3398 37.8342 51.2435 38.0056 51.0721C38.177 50.9007 38.2733 50.6682 38.2733 50.4258C38.2733 50.1834 38.177 49.9509 38.0056 49.7794C37.8342 49.608 37.6017 49.5117 37.3593 49.5117Z" fill="white"/>
<path d="M34.3992 49.5117H34.3646C34.1222 49.5117 33.8897 49.608 33.7183 49.7794C33.5469 49.9509 33.4506 50.1834 33.4506 50.4258C33.4506 50.6682 33.5469 50.9007 33.7183 51.0721C33.8897 51.2435 34.1222 51.3398 34.3646 51.3398H34.3992C34.6416 51.3398 34.8741 51.2435 35.0455 51.0721C35.217 50.9007 35.3133 50.6682 35.3133 50.4258C35.3133 50.1834 35.217 49.9509 35.0455 49.7794C34.8741 49.608 34.6416 49.5117 34.3992 49.5117Z" fill="white"/>
<path d="M31.5403 49.5117H26.5467L27.5405 48.5177C27.7081 48.3455 27.8012 48.1143 27.7996 47.874C27.798 47.6337 27.7018 47.4037 27.5319 47.2338C27.362 47.0639 27.1321 46.9677 26.8918 46.9661C26.6515 46.9644 26.4203 47.0575 26.2481 47.225L23.6936 49.7794C23.6087 49.8643 23.5413 49.965 23.4954 50.076C23.4494 50.1869 23.4258 50.3057 23.4258 50.4258C23.4258 50.5458 23.4494 50.6647 23.4954 50.7756C23.5413 50.8865 23.6087 50.9873 23.6936 51.0722L26.2488 53.6265C26.421 53.7941 26.6523 53.8871 26.8925 53.8855C27.1328 53.8838 27.3628 53.7877 27.5327 53.6177C27.7026 53.4478 27.7987 53.2179 27.8003 52.9776C27.8019 52.7373 27.7089 52.5061 27.5413 52.3339L26.5467 51.3398H31.5403C31.7828 51.3398 32.0152 51.2435 32.1867 51.0721C32.3581 50.9007 32.4544 50.6682 32.4544 50.4258C32.4544 50.1834 32.3581 49.9509 32.1867 49.7794C32.0152 49.608 31.7828 49.5117 31.5403 49.5117Z" fill="white"/>
<path d="M51.7519 47.2251C51.6675 47.1384 51.5666 47.0692 51.4552 47.0218C51.3438 46.9743 51.2241 46.9494 51.1031 46.9486C50.982 46.9478 50.8619 46.9711 50.7499 47.017C50.6379 47.063 50.5361 47.1307 50.4505 47.2164C50.3649 47.302 50.2972 47.4038 50.2512 47.5158C50.2053 47.6278 50.182 47.7478 50.1829 47.8689C50.1837 47.99 50.2086 48.1097 50.2561 48.2211C50.3035 48.3325 50.3727 48.4333 50.4594 48.5178L51.4533 49.5118H46.4597C46.2172 49.5118 45.9847 49.6081 45.8133 49.7795C45.6419 49.9509 45.5456 50.1834 45.5456 50.4259C45.5456 50.6683 45.6419 50.9008 45.8133 51.0722C45.9847 51.2436 46.2172 51.3399 46.4597 51.3399H51.4533L50.4594 52.334C50.3727 52.4184 50.3035 52.5192 50.2561 52.6306C50.2086 52.742 50.1837 52.8617 50.1829 52.9828C50.182 53.1039 50.2053 53.2239 50.2512 53.3359C50.2972 53.448 50.3649 53.5497 50.4505 53.6354C50.5361 53.721 50.6379 53.7887 50.7499 53.8347C50.8619 53.8807 50.982 53.9039 51.1031 53.9031C51.2241 53.9023 51.3438 53.8774 51.4552 53.83C51.5666 53.7825 51.6675 53.7134 51.7519 53.6266L54.3064 51.0723C54.3913 50.9874 54.4587 50.8866 54.5046 50.7757C54.5506 50.6648 54.5742 50.5459 54.5742 50.4259C54.5742 50.3058 54.5506 50.1869 54.5046 50.076C54.4587 49.9651 54.3913 49.8643 54.3064 49.7795L51.7519 47.2251Z" fill="white"/>
<path d="M40.7145 49.5117H40.6407C40.3983 49.5117 40.1658 49.608 39.9944 49.7794C39.823 49.9509 39.7267 50.1834 39.7267 50.4258C39.7267 50.6682 39.823 50.9007 39.9944 51.0721C40.1658 51.2435 40.3983 51.3398 40.6407 51.3398H40.7145C40.9569 51.3398 41.1894 51.2435 41.3608 51.0721C41.5322 50.9007 41.6285 50.6682 41.6285 50.4258C41.6285 50.1834 41.5322 49.9509 41.3608 49.7794C41.1894 49.608 40.9569 49.5117 40.7145 49.5117Z" fill="white"/>
<path d="M43.6358 49.5117H43.6008C43.3583 49.5117 43.1258 49.608 42.9544 49.7794C42.783 49.9509 42.6867 50.1834 42.6867 50.4258C42.6867 50.6682 42.783 50.9007 42.9544 51.0721C43.1258 51.2435 43.3583 51.3398 43.6008 51.3398H43.6353C43.8778 51.3398 44.1103 51.2435 44.2817 51.0721C44.4531 50.9007 44.5494 50.6682 44.5494 50.4258C44.5494 50.1834 44.4531 49.9509 44.2817 49.7794C44.1103 49.608 43.8778 49.5117 43.6353 49.5117H43.6358Z" fill="white"/>
<path d="M67.1403 25.337C68.3884 25.3354 69.5848 24.839 70.4673 23.9565C71.3498 23.074 71.8462 21.8776 71.8478 20.6296V19.1118C71.8478 17.8631 71.3518 16.6656 70.4688 15.7827C69.5859 14.8998 68.3884 14.4038 67.1398 14.4038C65.8912 14.4038 64.6937 14.8998 63.8108 15.7827C62.9279 16.6656 62.4319 17.8631 62.4319 19.1118V20.6296C62.4334 21.8778 62.93 23.0744 63.8127 23.9569C64.6954 24.8394 65.8921 25.3357 67.1403 25.337ZM64.261 19.1113C64.2621 18.348 64.5657 17.6162 65.1055 17.0764C65.6452 16.5367 66.377 16.233 67.1403 16.232C67.9037 16.233 68.6354 16.5367 69.1752 17.0764C69.715 17.6162 70.0186 18.348 70.0196 19.1113V20.6291C70.0196 21.3929 69.7162 22.1254 69.1762 22.6655C68.6361 23.2055 67.9036 23.5089 67.1398 23.5089C66.376 23.5089 65.6435 23.2055 65.1035 22.6655C64.5634 22.1254 64.26 21.3929 64.26 20.6291L64.261 19.1113Z" fill="white"/>
<path d="M73.2443 25.3509C73.1914 25.3456 73.0673 25.3329 69.7369 25.3261H69.7355C69.588 25.326 69.4427 25.3616 69.3119 25.4298C69.1812 25.4981 69.0689 25.597 68.9846 25.718L67.2924 28.1499L65.6964 25.736C65.6132 25.6101 65.5001 25.5068 65.3671 25.4352C65.2342 25.3637 65.0857 25.3262 64.9347 25.3261H61.7916C60.5042 25.3276 59.27 25.8396 58.3596 26.7499C57.4493 27.6602 56.9371 28.8943 56.9355 30.1817C56.9355 30.3138 56.9546 40.3645 56.9556 40.7906C56.9558 41.588 57.2727 42.3526 57.8366 42.9164C58.4004 43.4801 59.1652 43.7968 59.9625 43.7968H59.9634H59.997C60.415 43.7922 60.8272 43.6982 61.2058 43.5211L61.6735 61.1511C61.6881 61.8069 61.9597 62.4308 62.4299 62.8883C62.9001 63.3457 63.5312 63.6002 64.1872 63.5968H64.1881L70.4154 63.5953C71.0724 63.5987 71.7043 63.3435 72.1747 62.8849C72.645 62.4262 72.916 61.8009 72.9291 61.144L73.365 43.543C73.793 43.7321 74.2594 43.8183 74.7268 43.7947C75.5069 43.7507 76.24 43.4076 76.7735 42.8368C77.3069 42.2659 77.5997 41.5113 77.5908 40.73V30.6233C77.7072 29.3492 77.3159 28.0806 76.5021 27.0933C75.6883 26.106 74.5177 25.4799 73.2448 25.3509H73.2443ZM75.7668 30.4873C75.7637 30.5177 75.7622 30.5482 75.7623 30.5787V40.7289C75.7668 41.0392 75.6534 41.3395 75.445 41.5694C75.2367 41.7993 74.9488 41.9416 74.6396 41.9675C74.4837 41.9751 74.3279 41.9518 74.181 41.8989C74.0342 41.846 73.8993 41.7644 73.7842 41.6591C73.6691 41.5537 73.576 41.4265 73.5103 41.2849C73.4446 41.1434 73.4076 40.9901 73.4015 40.8342L73.4006 40.7733C73.3986 40.5308 73.3004 40.2991 73.1275 40.1291C72.9547 39.9592 72.7214 39.8648 72.4789 39.8668C72.2365 39.8688 72.0048 39.9671 71.8348 40.1399C71.6648 40.3128 71.5705 40.5461 71.5725 40.7885C71.5725 40.8179 71.5725 40.8471 71.5737 40.8765L71.1004 61.0974C71.0968 61.2766 71.0229 61.4472 70.8946 61.5723C70.7664 61.6975 70.594 61.7672 70.4148 61.7664L64.1875 61.7679C64.0086 61.7687 63.8366 61.6993 63.7084 61.5746C63.5802 61.4499 63.5061 61.2799 63.5019 61.1011L62.9702 40.7175C62.9666 40.4775 62.8687 40.2485 62.6977 40.0801C62.5266 39.9117 62.2962 39.8173 62.0562 39.8173H62.0492C61.8079 39.8191 61.5772 39.9162 61.4073 40.0874C61.2373 40.2587 61.142 40.4901 61.142 40.7314C61.1477 41.0511 61.0273 41.3602 60.8068 41.5917C60.5863 41.8233 60.2835 41.9587 59.9639 41.9685C59.809 41.9685 59.6556 41.938 59.5125 41.8787C59.3694 41.8194 59.2394 41.7324 59.1299 41.6228C59.0204 41.5132 58.9336 41.3831 58.8744 41.24C58.8153 41.0968 58.7849 40.9434 58.7851 40.7885C58.7851 40.6838 58.765 30.312 58.765 30.1817C58.766 29.379 59.0854 28.6094 59.6531 28.0418C60.2207 27.4742 60.9903 27.155 61.7931 27.154H64.4439L66.5118 30.2819C66.5941 30.4065 66.7056 30.5089 66.8366 30.5804C66.9677 30.6518 67.1142 30.6901 67.2634 30.6919H67.2743C67.4217 30.6919 67.5669 30.6563 67.6975 30.5881C67.8281 30.5198 67.9403 30.421 68.0246 30.3001L70.2128 27.1551C71.3682 27.1583 72.8569 27.1644 73.0822 27.1717C73.8769 27.2579 74.6052 27.6548 75.1084 28.2759C75.6116 28.897 75.8487 29.6919 75.768 30.4872L75.7668 30.4873Z" fill="white"/>
<path d="M10.5941 25.3371C11.8422 25.3355 13.0386 24.8391 13.9211 23.9566C14.8036 23.0741 15.3 21.8777 15.3016 20.6296V19.1118C15.3016 17.8632 14.8055 16.6657 13.9226 15.7828C13.0397 14.8998 11.8422 14.4038 10.5935 14.4038C9.34488 14.4038 8.14738 14.8998 7.26445 15.7828C6.38152 16.6657 5.8855 17.8632 5.8855 19.1118V20.6296C5.88707 21.8779 6.3837 23.0745 7.26644 23.957C8.14917 24.8395 9.34593 25.3358 10.5941 25.3371ZM7.71484 19.1114C7.71585 18.3481 8.01953 17.6163 8.55928 17.0765C9.09904 16.5368 9.83081 16.2331 10.5941 16.2321C11.3575 16.2331 12.0892 16.5368 12.629 17.0765C13.1688 17.6163 13.4724 18.3481 13.4734 19.1114V20.6292C13.4734 21.393 13.17 22.1255 12.6299 22.6656C12.0898 23.2057 11.3573 23.5091 10.5935 23.5091C9.82973 23.5091 9.09722 23.2057 8.55713 22.6656C8.01704 22.1255 7.71362 21.393 7.71362 20.6292L7.71484 19.1114Z" fill="white"/>
<path d="M16.6981 25.3509C16.6452 25.3456 16.5212 25.3329 13.1907 25.326H13.1887C13.0413 25.326 12.8961 25.3617 12.7655 25.43C12.6348 25.4982 12.5226 25.597 12.4384 25.718L10.7462 28.1499L9.15024 25.736C9.06699 25.6101 8.95386 25.5068 8.82094 25.4352C8.68803 25.3637 8.53946 25.3262 8.38852 25.326H5.24582C3.95794 25.326 2.72278 25.8375 1.81204 26.7481C0.901299 27.6587 0.389566 28.8938 0.389404 30.1817C0.389404 30.3145 0.409361 40.7909 0.409361 40.7908C0.41049 41.5878 0.727644 42.3518 1.29127 42.9153C1.8549 43.4789 2.61901 43.7959 3.41602 43.7968H3.41708H3.45045C3.87143 43.7923 4.28647 43.6969 4.66722 43.5173L5.12699 61.1508C5.14149 61.8066 5.4131 62.4306 5.8833 62.8881C6.35349 63.3456 6.98462 63.6001 7.64066 63.5966L13.8683 63.5951C14.5255 63.5985 15.1577 63.3431 15.6281 62.8841C16.0984 62.4251 16.3693 61.7995 16.382 61.1424L16.7913 43.5314C17.2264 43.729 17.7025 43.8194 18.1797 43.795C18.9598 43.751 19.6928 43.4079 20.2263 42.8371C20.7598 42.2662 21.0526 41.5116 21.0437 40.7303V30.6233C21.1601 29.3492 20.7688 28.0806 19.955 27.0933C19.1412 26.106 17.9706 25.4799 16.6977 25.3509H16.6981ZM19.2206 30.4873C19.2176 30.5178 19.216 30.5482 19.216 30.5787V40.7289C19.2206 41.0391 19.1072 41.3395 18.8989 41.5694C18.6905 41.7993 18.4027 41.9415 18.0936 41.9675C17.9338 41.9754 17.7741 41.9508 17.6241 41.8951C17.4741 41.8394 17.3371 41.7538 17.2212 41.6435C17.1053 41.5332 17.0131 41.4005 16.95 41.2535C16.887 41.1065 16.8545 40.9482 16.8546 40.7882C16.8574 40.5458 16.7638 40.3121 16.5943 40.1387C16.4249 39.9653 16.1935 39.8663 15.9511 39.8635C15.7087 39.8607 15.4751 39.9543 15.3016 40.1238C15.1282 40.2932 15.0292 40.5246 15.0264 40.767L14.5542 61.0971C14.5506 61.2763 14.4767 61.4469 14.3484 61.572C14.2202 61.6972 14.0478 61.7669 13.8686 61.7661L7.64127 61.7676C7.46249 61.7685 7.29049 61.6992 7.16229 61.5745C7.03409 61.4499 6.95991 61.28 6.95572 61.1012L6.42267 40.7077C6.41648 40.4695 6.31744 40.243 6.14669 40.0767C5.97594 39.9104 5.74697 39.8174 5.50861 39.8174H5.49642C5.25606 39.8206 5.02661 39.9183 4.85775 40.0893C4.68889 40.2604 4.59422 40.4911 4.59424 40.7315C4.60001 41.0512 4.4796 41.3603 4.2591 41.5919C4.03861 41.8234 3.73577 41.9588 3.41617 41.9687C3.10347 41.9682 2.80373 41.8438 2.58272 41.6226C2.36171 41.4013 2.2375 41.1015 2.23733 40.7888C2.23733 40.7888 2.21738 30.3145 2.21738 30.1819C2.21746 29.3788 2.53653 28.6087 3.10441 28.0409C3.6723 27.4731 4.44247 27.1541 5.24551 27.1542H7.8963L9.96421 30.2821C10.0465 30.4066 10.158 30.5091 10.2891 30.5805C10.4201 30.652 10.5666 30.6903 10.7159 30.6921H10.7267C10.8741 30.6921 11.0193 30.6564 11.1499 30.5882C11.2806 30.52 11.3928 30.4212 11.477 30.3002L13.6652 27.1552C14.8203 27.1584 16.3092 27.1645 16.5343 27.1718C17.3291 27.2579 18.0575 27.6549 18.5607 28.276C19.0639 28.8971 19.3011 29.692 19.2205 30.4873H19.2206Z" fill="white"/>
</svg>
