<svg width="69" height="69" viewBox="0 0 69 69" fill="none" xmlns="http://www.w3.org/2000/svg">
<path d="M69 31.0498C68.9945 27.2868 67.5711 23.664 65.0134 20.9038C62.4557 18.1437 58.9517 16.4488 55.2 16.1572V12.6497H56.35C56.655 12.6497 56.9475 12.5285 57.1632 12.3129C57.3788 12.0972 57.5 11.8047 57.5 11.4997V6.89967C57.5 6.59467 57.3788 6.30216 57.1632 6.08649C56.9475 5.87083 56.655 5.74967 56.35 5.74967H43.0215C42.3358 4.05117 41.1583 2.59632 39.6399 1.57184C38.1215 0.547365 36.3317 0 34.5 0C32.6683 0 30.8785 0.547365 29.3601 1.57184C27.8417 2.59632 26.6642 4.05117 25.9785 5.74967H12.65C12.345 5.74967 12.0525 5.87083 11.8368 6.08649C11.6212 6.30216 11.5 6.59467 11.5 6.89967V11.4997C11.5 11.8047 11.6212 12.0972 11.8368 12.3129C12.0525 12.5285 12.345 12.6497 12.65 12.6497H13.8V16.0997H1.15C0.845001 16.0997 0.552494 16.2209 0.336827 16.4365C0.12116 16.6522 0 16.9447 0 17.2497V60.95C0 61.255 0.12116 61.5475 0.336827 61.7631C0.552494 61.9788 0.845001 62.1 1.15 62.1H48.3V63.25C48.3 64.775 48.9058 66.2375 49.9841 67.3159C51.0625 68.3942 52.525 69 54.05 69C55.575 69 57.0375 68.3942 58.1159 67.3159C59.1942 66.2375 59.8 64.775 59.8 63.25V49.4499C59.8 49.1449 59.6788 48.8524 59.4632 48.6367C59.2475 48.4211 58.955 48.2999 58.65 48.2999H57.5V45.5859C60.7701 44.8051 63.6824 42.9468 65.7683 40.3102C67.8543 37.6735 68.9925 34.4118 69 31.0498ZM13.8 59.7999H2.3V18.3997H13.8V59.7999ZM43.6195 8.04968H55.2V10.3497H43.6195C43.6696 9.96834 43.6965 9.5843 43.7 9.19968C43.6965 8.81507 43.6696 8.43103 43.6195 8.04968ZM34.5 2.29965C35.8647 2.29965 37.1987 2.70433 38.3334 3.46251C39.4681 4.2207 40.3525 5.29834 40.8748 6.55915C41.397 7.81997 41.5337 9.20734 41.2674 10.5458C41.0012 11.8843 40.344 13.1138 39.379 14.0787C38.4141 15.0437 37.1846 15.7009 35.8461 15.9671C34.5077 16.2334 33.1203 16.0967 31.8595 15.5745C30.5987 15.0522 29.521 14.1678 28.7629 13.0331C28.0047 11.8984 27.6 10.5644 27.6 9.19968C27.6 7.36968 28.327 5.61463 29.621 4.32062C30.915 3.02661 32.67 2.29965 34.5 2.29965ZM13.8 8.04968H25.3805C25.3304 8.43103 25.3035 8.81507 25.3 9.19968C25.3035 9.5843 25.3304 9.96834 25.3805 10.3497H13.8V8.04968ZM18.4 40.2498V59.7999H16.1V12.6497H25.9785C26.6642 14.3482 27.8417 15.803 29.3601 16.8275C30.8785 17.852 32.6683 18.3994 34.5 18.3994C36.3317 18.3994 38.1215 17.852 39.6399 16.8275C41.1583 15.803 42.3358 14.3482 43.0215 12.6497H52.9V16.1572C49.2465 16.4404 45.8247 18.0571 43.286 20.6997H21.85C21.545 20.6997 21.2525 20.8209 21.0368 21.0366C20.8212 21.2522 20.7 21.5448 20.7 21.8498V26.4498C20.7 26.7548 20.8212 27.0473 21.0368 27.263C21.2525 27.4786 21.545 27.5998 21.85 27.5998H39.514C39.3366 28.3562 39.2174 29.1251 39.1575 29.8998H21.85C21.545 29.8998 21.2525 30.021 21.0368 30.2366C20.8212 30.4523 20.7 30.7448 20.7 31.0498V35.6498C20.7 35.9548 20.8212 36.2473 21.0368 36.463C21.2525 36.6787 21.545 36.7998 21.85 36.7998H40.25C40.5941 37.5979 41.0018 38.367 41.469 39.0998H19.55C19.245 39.0998 18.9525 39.221 18.7368 39.4367C18.5212 39.6523 18.4 39.9448 18.4 40.2498ZM41.469 22.9998C41.0018 23.7326 40.5941 24.5017 40.25 25.2998H23V22.9998H41.469ZM39.514 34.4998H23V32.1998H39.1575C39.2174 32.9745 39.3366 33.7434 39.514 34.4998ZM33.35 59.7999H20.7V41.3999H33.35V59.7999ZM49.45 48.2999C49.145 48.2999 48.8525 48.4211 48.6368 48.6367C48.4212 48.8524 48.3 49.1449 48.3 49.4499V59.7999H35.65V41.3999H43.286C45.2735 43.466 47.8118 44.9188 50.6 45.5859V48.2999H49.45ZM57.5 63.25C57.5 64.165 57.1365 65.0425 56.4895 65.6895C55.8425 66.3365 54.965 66.7 54.05 66.7C53.135 66.7 52.2575 66.3365 51.6105 65.6895C50.9635 65.0425 50.6 64.165 50.6 63.25V50.5999H57.5V63.25ZM52.9 48.2999V45.9424C53.2795 45.9654 53.659 45.9999 54.05 45.9999C54.441 45.9999 54.8205 45.9654 55.2 45.9424V48.2999H52.9ZM54.05 43.6999C51.5481 43.6999 49.1023 42.958 47.022 41.5679C44.9418 40.1779 43.3204 38.2023 42.3629 35.8908C41.4055 33.5793 41.155 31.0358 41.6431 28.5819C42.1312 26.128 43.336 23.874 45.1051 22.1049C46.8742 20.3357 49.1283 19.1309 51.5821 18.6428C54.036 18.1547 56.5795 18.4052 58.8909 19.3627C61.2024 20.3201 63.1781 21.9415 64.5681 24.0218C65.9581 26.1021 66.7 28.5479 66.7 31.0498C66.6979 34.4042 65.3644 37.6205 62.9925 39.9924C60.6207 42.3643 57.4043 43.6977 54.05 43.6999Z" fill="white"/>
</svg>
