<svg id="Слой_1" data-name="Слой 1" xmlns="http://www.w3.org/2000/svg" viewBox="0 0 65 65" height="65"><defs><style>.cls-1{fill:#fff;}</style></defs><title>icons</title><path class="cls-1" d="M30.29,19.3H26.91V15.93a1.27,1.27,0,0,0-2.54,0V19.3H21a1.27,1.27,0,0,0,0,2.54h3.37v3.37a1.27,1.27,0,0,0,2.54,0V21.84h3.38a1.27,1.27,0,0,0,0-2.54Z"/><path class="cls-1" d="M25.64,9.4A11.17,11.17,0,1,0,36.81,20.57,11.18,11.18,0,0,0,25.64,9.4Zm0,19.8a8.63,8.63,0,1,1,8.64-8.63A8.64,8.64,0,0,1,25.64,29.2Z"/><path class="cls-1" d="M50.91,11.67,39.62.37a1.32,1.32,0,0,0-.9-.37H3.81A3.82,3.82,0,0,0,0,3.81V61.19A3.82,3.82,0,0,0,3.81,65H28.06a1.27,1.27,0,1,0,0-2.54H3.81a1.27,1.27,0,0,1-1.27-1.27V3.81A1.27,1.27,0,0,1,3.81,2.54H37.45V10a3.82,3.82,0,0,0,3.81,3.81h7.49v22.6a1.27,1.27,0,0,0,2.54,0V12.57A1.27,1.27,0,0,0,50.91,11.67Zm-9.65-.37A1.27,1.27,0,0,1,40,10V4.34l7,7Z"/><path class="cls-1" d="M41.89,35.55h-22a1.27,1.27,0,1,0,0,2.53h22a1.27,1.27,0,1,0,0-2.53Z"/><path class="cls-1" d="M13.53,35.55H9.39a1.27,1.27,0,1,0,0,2.53h4.14a1.27,1.27,0,1,0,0-2.53Z"/><path class="cls-1" d="M32.5,42.65H19.85a1.27,1.27,0,1,0,0,2.54H32.5a1.27,1.27,0,1,0,0-2.54Z"/><path class="cls-1" d="M13.53,42.65H9.39a1.27,1.27,0,1,0,0,2.54h4.14a1.27,1.27,0,0,0,0-2.54Z"/><path class="cls-1" d="M20.74,50.14a1.25,1.25,0,0,0-.89-.38,1.27,1.27,0,0,0-.9.38,1.24,1.24,0,0,0-.37.89,1.26,1.26,0,0,0,.37.9,1.27,1.27,0,0,0,1.79,0,1.26,1.26,0,0,0,.37-.9A1.24,1.24,0,0,0,20.74,50.14Z"/><path class="cls-1" d="M13.53,49.76H9.39a1.27,1.27,0,1,0,0,2.54h4.14a1.27,1.27,0,0,0,0-2.54Z"/><path class="cls-1" d="M57.13,49.26a8,8,0,0,0-1.1.07,7.87,7.87,0,0,0-13.1-7.82l-10,10.05A7.87,7.87,0,0,0,44,62.69l5.26-5.26a7.87,7.87,0,1,0,7.86-8.17ZM42.21,60.9a5.33,5.33,0,0,1-9.1-3.77,5.26,5.26,0,0,1,1.56-3.77l4.13-4.13,7.54,7.54ZM48.14,55,40.6,47.43l4.12-4.13a5.33,5.33,0,0,1,7.54,7.54Zm7.72,7.33a5.33,5.33,0,0,1,0-10.35Zm2.54,0V52a5.33,5.33,0,0,1,0,10.35Z"/></svg>