<svg width="106" height="236" viewBox="0 225 306 236" fill="none" xmlns="http://www.w3.org/2000/svg">
<style type="text/css">
	.st0{fill:#F4C08E;stroke:#BF8245;stroke-width:2;stroke-miterlimit:10;}
	.st1{fill:#FFF0E1;stroke:#BA0808;stroke-width:2;stroke-miterlimit:10;}
	.st2{fill:#583415;}
	.st3{fill:#301000;}
	.st4{opacity:0.6;fill:#501F00;enable-background:new    ;}
	.st5{fill:#F4C08E;}
	.st6{fill:#FBD0B4;}
	.st7{fill:#F7CEBA;}
	.st8{fill:#BF8245;}
	.st9{fill:#EDB89A;}
	.st10{fill:#57320F;}
	.st11{opacity:0.3;fill:#FF9B40;enable-background:new    ;}
</style>
<path class="st0" d="M222,129.8c-13.1-8.7-24.1-5.8-49.3-20.8l-2.8-23.6H135l-2.8,23.6c-25,15-51,14.3-49.3,20.8  c4.2,17.8,1.9,16.6,15.2,73c7.2,24.6,6.8,36,5.1,59.6c-3.5,51.9-18.2,69.7-15.7,135.2c1.2,30.4,64.1-17.5,61.7-56.6  c0-1.2,0.9-2.3,2.1-2.3c0.5,0,1.2,0,1.6,0c1.2,0,2.3,1.2,2.1,2.3c-2.6,55,60.6,86.8,61.7,56.6c2.3-65.7-7.7-83.5-15.7-135.2  c-3-19.6-2.6-36.9,3-61.7C216.8,152.2,222,129.8,222,129.8z"/>
<path class="st0" d="M103.2,262.4c-0.3,4.5-0.7,8.8-1.2,12.8c14.3,5.8,32,9,50,9c18.5,0,36.6-3.3,51.1-9.4c-0.7-3.9-1.4-8-2-12.3  c-3-19.6-2.6-36.9,3-61.7c12.6-48.4,17.8-70.9,17.8-70.9c-13.1-8.7-24.1-5.8-49.3-20.8l-2.8-23.6H135l-2.8,23.6  c-25,15-51,14.3-49.3,20.8c4.2,17.8,1.9,16.6,15.2,73C105.3,227.3,104.9,238.8,103.2,262.4z"/>
<path class="st0" d="M207,295.4c6.1,40.9,13.6,36.9,11.2,102.4c-1.2,30.4-10.5,60.6-10.3,71.6c0.2,11.2,0.9,23.9,1.6,31.3  c1.4,12.6,3.5,25.5,3,38.4c-0.5,12.6-5.6,24.3-9.4,36.2c-3,9.6-4.9,19.6-6.5,29.7c-3.5,22.9-6.1,29.5,13.3,57.1  c2.1,3,6.1,8,4.9,11.9c-1.2,3.7-6.1,4.2-9.1,4.4c-23.1,1.6-32.7,1.6-35.1-3.3c-0.9-2.1-0.9-4.7-0.2-6.8c5.4-16.1,2.1-32.5,4-49.1  c1.4-12.4,2.1-14.5-1.2-32.3c-2.1-11.2-4.2-22.4-5.4-33.9c-3-33.9,6.3-41.9,5.8-62.2c-0.5-20.8-19.6-110.6-17.5-149.7  C156.5,340,206.6,291.8,207,295.4z"/>
<path class="st0" d="M222,129.8c-13.1-8.7-24.1-5.8-49.3-20.8l-2.8-23.6H135l-2.8,23.6c-25,15-51,14.3-49.3,20.8  c4.2,17.8,1.9,16.6,15.2,73c1.9,3.5,104.7,1.4,106.4-1.9C216.8,152.2,222,129.8,222,129.8z"/>
<path class="st0" d="M172.7,109l-2.8-23.6H135l-2.8,23.6C133.6,112.5,167.3,112,172.7,109z"/>
<path class="st0" d="M82.7,130.3c-8.2,4.4-16.4,15.9-15.7,49.1c-5.6,18.7-6.3,27.4-7.7,35.3c-2.6,4.7-7,13.8-11.9,31.8  c-1.2,4.7-11,40.7-14.7,50.3c-0.5,1.2-1.2,2.1-2.1,3c-4.2,3.5-12.9,5.4-18,9.4c-4,3-12.6,7.7-10.8,10.3c1.4,1.9,4.2,2.1,8.2-0.5  c4-2.3,6.3-3.3,7.9-3.5c1.2-0.2,2.1,1.2,1.6,2.3c-1.2,2.8-4.4,7.2-8.4,14.7c-0.9,1.9-6.8,9.8-8.9,14.7c-1.2,3,2.6,4.9,4.7,2.8  c3-3,7.5-8.9,9.4-12.6c0.7-1.2,4-6.8,4.9-8.2c-0.5,1.9-3.7,8.2-4.4,10.3c-1.4,3.5-5.6,13.3-7.2,17.1c-0.9,2.6,3.3,4.7,5.1,2.1  c1.9-2.6,6.3-9.1,9.4-17.3c0,0,2.8-6.1,4.2-9.8c-0.9,4-1.6,5.6-2.6,9.6c0,0-4.4,11.2-4.9,14.7c-0.5,2.8,3.5,4.2,5.1,1.9  c2.1-3,6.1-13.3,6.5-14.7c2.3-6.1,4-10.8,4-10.8S35.7,337,35,340c-0.2,1.6-2.8,8.2-3,12.6c0,2.3,2.6,2.8,3.7,1.9  c3-2.1,5.8-13.6,5.8-13.6c1.2-4.9,4-15.2,5.1-18c2.8-7.3,1.6-11.7,1.4-16.1c0.2-0.9,0.2-1.6,0.7-3c1.4-3.3,5.4-10.8,19.2-33.4  c13.1-21.5,15.9-38.6,15.9-38.6c6.8-9.6,10.3-20.3,13.8-28.3L82.7,130.3z"/>
<path class="st0" d="M82.7,130.3c-8.2,4.4-16.4,15.9-15.7,49.1c-5.6,18.7-6.3,27.4-7.7,35.3c-1.6,1.2,24.8,16.8,24.8,16.8  c6.8-9.6,10.3-20.3,13.8-28.3L82.7,130.3z"/>
<path class="st0" d="M32.6,295.8c-0.5,1.2-1.2,2.1-2.1,3c-4.2,3.5-12.9,5.4-18,9.4c-4,3-12.6,7.7-10.8,10.3c1.4,1.9,4.2,2.1,8.2-0.5  c4-2.3,6.3-3.3,7.9-3.5c1.2-0.2,2.1,1.2,1.6,2.3c-1.2,2.8-4.4,7.2-8.4,14.7c-0.9,1.9-6.8,9.8-8.9,14.7c-1.2,3,2.6,4.9,4.7,2.8  c3-3,7.5-8.9,9.4-12.6c0.7-1.2,4-6.8,4.9-8.2c-0.5,1.9-3.7,8.2-4.4,10.3c-1.4,3.5-5.6,13.3-7.2,17.1c-0.9,2.6,3.3,4.7,5.1,2.1  c1.9-2.6,6.3-9.1,9.4-17.3c0,0,2.8-6.1,4.2-9.8c-0.9,4-1.6,5.6-2.6,9.6c0,0-4.4,11.2-4.9,14.7c-0.5,2.8,3.5,4.2,5.1,1.9  c2.1-3,6.1-13.3,6.5-14.7c2.3-6.1,4-10.8,4-10.8s-0.7,4.7-1.4,7.7c-0.2,1.6-2.8,8.2-3,12.6c0,2.3,2.6,2.8,3.7,1.9  c3-2.1,5.8-13.6,5.8-13.6c1.2-4.9,4-15.2,5.1-18c2.8-7.2,1.6-11.7,1.4-16.1c0.2-0.9,0.2-1.6,0.7-3L32.6,295.8z"/>
<path class="st0" d="M99.7,295.4c-6.1,40.9-13.6,36.9-11.2,102.4c1.2,30.4,10.5,60.6,10.3,71.6c-0.2,11.2-0.9,23.9-1.6,31.3  c-1.4,12.6-3.5,25.5-3,38.4c0.5,12.6,5.6,24.3,9.4,36.2c3,9.6,4.9,19.6,6.5,29.7c3.5,22.9,6.1,29.5-13.3,57.1c-2.1,3-6.1,8-4.9,11.9  c1.2,3.7,6.1,4.2,9.1,4.4c23.1,1.6,32.7,1.6,35.1-3.3c0.9-2.1,0.9-4.7,0.2-6.8c-5.4-16.1-2.1-32.5-4-49.1  c-1.4-12.4-2.1-14.5,1.2-32.3c2.1-11.2,4.2-22.4,5.4-33.9c3-33.9-6.3-41.9-5.8-62.2c0.5-20.8,19.6-110.6,17.5-149.7  C150.2,340,100.4,291.8,99.7,295.4z"/>
<path class="st0" d="M99.1,293.7c-6.1,40.9-13.6,36.9-11.2,102.4c1.2,30.4,11.5,60.8,10.3,71.6c-2.8,25.5,33.9,21.5,33.9,21.5  c0.5-20.8,19.6-110.6,17.5-149.7C149.6,338.1,99.8,290,99.1,293.7z"/>
<path class="st0" d="M220.3,128.4c8.2,4.4,16.4,15.9,15.7,49.1c5.6,18.7,6.3,27.4,7.7,35.3c2.6,4.7,7,13.8,11.9,31.8  c1.2,4.7,11,40.7,14.7,50.3c0.5,1.2,1.2,2.1,2.1,3c4.2,3.5,12.9,5.4,18,9.4c4,3,12.6,7.7,10.8,10.3c-1.4,1.9-4.2,2.1-8.2-0.5  c-4-2.3-6.3-3.3-7.9-3.5c-1.2-0.2-2.1,1.2-1.6,2.3c1.2,2.8,4.4,7.2,8.4,14.7c0.9,1.9,6.8,9.8,8.9,14.7c1.2,3-2.6,4.9-4.7,2.8  c-3-3-7.5-8.9-9.4-12.6c-0.7-1.2-4-6.8-4.9-8.2c0.5,1.9,3.7,8.2,4.4,10.3c1.4,3.5,5.6,13.3,7.2,17.1c0.9,2.6-3.3,4.7-5.1,2.1  c-1.9-2.6-6.3-9.1-9.4-17.3c0,0-2.8-6.1-4.2-9.8c0.9,4,1.6,5.6,2.6,9.6c0,0,4.4,11.2,4.9,14.7c0.5,2.8-3.5,4.2-5.1,1.9  c-2.1-3-6.1-13.3-6.5-14.7c-2.3-6.1-4-10.8-4-10.8s0.7,4.7,1.4,7.7c0.2,1.6,2.8,8.2,3,12.6c0,2.3-2.6,2.8-3.7,1.9  c-3-2.1-5.8-13.6-5.8-13.6c-1.2-4.9-4-15.2-5.1-18c-2.8-7.3-1.6-11.7-1.4-16.1c-0.2-0.9-0.2-1.6-0.7-3c-1.4-3.3-5.4-10.8-19.2-33.4  c-13.1-21.5-15.9-38.6-15.9-38.6c-6.8-9.6-10.3-20.3-13.8-28.3L220.3,128.4z"/>
<path class="st0" d="M220.3,128.4c8.2,4.4,16.4,15.9,15.7,49.1c5.6,18.7,6.3,27.4,7.7,35.3c1.6,1.2-24.8,16.8-24.8,16.8  c-6.8-9.6-10.3-20.3-13.8-28.3L220.3,128.4z"/>
<path class="st0" d="M270.4,295.8c0.5,1.2,1.2,2.1,2.1,3c4.2,3.5,12.9,5.4,18,9.4c4,3,12.6,7.7,10.8,10.3c-1.4,1.9-4.2,2.1-8.2-0.5  c-4-2.3-6.3-3.3-7.9-3.5c-1.2-0.2-2.1,1.2-1.6,2.3c1.2,2.8,4.4,7.2,8.4,14.7c0.9,1.9,6.8,9.8,8.9,14.7c1.2,3-2.6,4.9-4.7,2.8  c-3-3-7.5-8.9-9.4-12.6c-0.7-1.2-4-6.8-4.9-8.2c0.5,1.9,3.7,8.2,4.4,10.3c1.4,3.5,5.6,13.3,7.2,17.1c0.9,2.6-3.3,4.7-5.1,2.1  c-1.9-2.6-6.3-9.1-9.4-17.3c0,0-2.8-6.1-4.2-9.8c0.9,4,1.6,5.6,2.6,9.6c0,0,4.4,11.2,4.9,14.7c0.5,2.8-3.5,4.2-5.1,1.9  c-2.1-3-6.1-13.3-6.5-14.7c-2.3-6.1-4-10.8-4-10.8s0.7,4.7,1.4,7.7c0.2,1.6,2.8,8.2,3,12.6c0,2.3-2.6,2.8-3.7,1.9  c-3-2.1-5.8-13.6-5.8-13.6c-1.2-4.9-4-15.2-5.1-18c-2.8-7.2-1.6-11.7-1.4-16.1c-0.2-0.9-0.2-1.6-0.7-3L270.4,295.8z"/>
<path class="st0" d="M207,293.7c6.1,40.9,13.6,36.9,11.2,102.4c-1.2,30.4-11.5,60.8-10.3,71.6c2.8,25.5-33.9,21.5-33.9,21.5  c-0.5-20.8-19.6-110.6-17.5-149.7C156.5,338.1,206.6,290,207,293.7z"/>
<path class="st0" d="M111.6,615.3c2.3,21.3-0.2,19.2-14.3,47c-1.6,3.3-6.1,8-4.9,11.9c1.2,3.7,6.1,4.2,9.1,4.4  c23.1,1.6,32.7,1.6,35.1-3.3c0.9-2.1,0.9-4.7,0.2-6.8c-5.4-16.1-2.8-29.9-4.7-49.1C132,616.2,111.4,613.2,111.6,615.3z"/>
<path class="st0" d="M195.6,616c-0.7,15.7-4.2,18.5,15.2,46.3c2.1,3,6.1,8,4.9,11.9c-1.2,3.7-6.1,4.2-9.1,4.4  c-23.1,1.6-32.7,1.6-35.1-3.3c-0.9-2.1-0.9-4.7-0.2-6.8c5.4-16.1,2.3-29.9,4-49.1C175.2,616.2,195.8,613.9,195.6,616z"/>
<path class="st2" d="M202.1,29.2c-0.2,0.2-0.5,0.2-0.7,0.5c-3.5-1.2-6.5-4.2-9.1-7c-2.3-2.6-4.4-5.6-6.8-8.2c-2.6-3-7.7-8-11.9-6.5  c-3-3.3-7.2-4.7-11.5-5.8c-6.5-1.6-13.1-1.9-19.6,0C136,4,130.1,8,125,12.9c-2.8,2.8-5.8,5.4-9.4,7.5c-1.4,0.9-2.8,1.6-4.4,2.3  c-1.4,0.7-3,1.4-4.7,0.9c-0.2,0-0.2,0.2,0,0.2c0.2,0,0.5,0.2,0.5,0.2s-0.2,0,0,0.2c1.4,1.6,3.3,2.1,5.1,1.9  c-0.7,0.7-1.4,1.4-1.9,2.1c-2.3,3-2.6,6.8-2.8,10.5h0.2c0-0.2,0.2-0.7,0.2-0.9c0.9-1.9,2.1-3.5,3.5-4.9c-2.3,5.6-2.1,11.9,0,17.8  c1.2,3.7,3.3,7.2,5.4,10.8c2.3,4,4.4,7.7,6.3,11.9c0,0,0,0,0.2,0.2c0.9,2.8,2.3,5.4,4.7,7.5c2.6,2.6,6.1,4,9.4,5.1  c7.7,2.8,16.1,3.7,24.1,2.8c7.2-0.7,13.3-4.2,17.8-10.5c2.3-3.5,4-7.5,6.1-11c2.3-4,5.6-7.2,7.5-11.7c0.9-2.1,0.9-4.4,0.7-6.8  c0.2,0.7,0.5,1.4,0.5,2.3c0,0.2,0,0.2-0.2,0.5c2.8-4.4,5.4-11,3-16.1c1.4,1.2,2.6,2.6,2.8,4.4c0,0.2,0,0.2,0,0.5c0,0,0.2,0.2,0.2,0  c0,0,0,0,0-0.2c0.9-2.8,0.5-6.5-1.6-8.9C199.8,31.6,201.4,31.1,202.1,29.2C202.3,29.2,202.3,29,202.1,29.2z"/>
<path class="st3" d="M155.4,89.3c-6.3,0-12.6-1.2-18.5-3.3c-3.3-1.2-6.8-2.6-9.4-5.1c-2.3-2.1-3.7-4.4-4.7-7.5c0,0,0-0.2-0.2-0.2  c-2.3-4.9-4.2-8.4-6.3-11.9c-2.1-3.3-4-6.8-5.4-10.8c-1.9-5.8-2.1-11.5-0.5-16.4c-0.9,1.2-1.6,2.3-2.3,3.7c0,0,0,0,0,0.2  c0,0.2-0.2,0.5-0.2,0.7c0,0.2-0.2,0.2-0.5,0.2h-0.2l-0.2-0.2v-0.2v-0.2c0.2-3.7,0.5-7.5,2.8-10.5c0.5-0.5,0.7-0.9,1.2-1.4  c-1.9,0-3.3-0.7-4.4-2.1c0,0,0,0,0-0.2h-0.2c-0.2,0-0.2-0.2-0.2-0.5c0-0.2,0.2-0.5,0.5-0.5c0.2,0,0.5,0,0.9,0c1.2,0,2.6-0.5,3.7-1.2  c1.6-0.7,3-1.4,4.4-2.3c3-1.9,6.1-4.4,9.1-7.5C130.1,7,136,3.3,142.3,1.4c6.3-1.9,12.6-1.9,19.9,0c4.2,1.2,8.4,2.6,11.5,5.8  c3.3-0.9,7.5,1.2,12.2,6.8c0.9,1.2,1.9,2.3,2.8,3.5c1.2,1.6,2.6,3.3,4,4.7c2.6,2.6,5.4,5.6,8.9,6.8c0.2,0,0.2-0.2,0.5-0.2  c0.2-0.2,0.5,0,0.7,0.2c0,0.2,0,0.2,0,0.5c-0.7,1.4-2.1,2.1-3.7,2.1c1.6,2.3,2.1,5.8,1.2,8.7v0.2c0,0.2-0.5,0.2-0.7,0v-0.2V40  c-0.2-1.2-0.7-2.3-1.6-3.5c1.6,5.4-1.4,11.7-3.5,15.2v0.2h-0.2h-0.2c0,1.2-0.2,2.6-0.9,3.7c-1.2,2.6-2.8,4.7-4.2,6.8  c-1.2,1.6-2.3,3.3-3.3,4.9c-0.7,1.2-1.4,2.6-2.1,4c-1.2,2.3-2.6,4.9-4.2,7.2c-4.4,6.3-10.5,9.8-18,10.8  C159.1,89.1,157.2,89.3,155.4,89.3z M112.3,31.1l-0.7,1.6c-2.1,5.1-2.1,11.2,0,17.5c1.2,3.7,3.3,7.2,5.4,10.5c2.1,3.5,4,7,6.3,11.9  V73c0.9,3,2.3,5.1,4.7,7.2c2.6,2.6,5.8,4,9.1,4.9c7.5,2.8,16.1,3.7,24.1,2.8c7.2-0.7,13.1-4.2,17.5-10.5c1.6-2.3,2.8-4.7,4-7.2  c0.7-1.4,1.4-2.6,2.1-4c0.9-1.9,2.1-3.5,3.3-4.9c1.6-2.1,3-4.2,4.2-6.5c0.9-2.1,0.9-4.4,0.7-6.5l-0.2-2.8l0.7,2.6  c0.2,0.7,0.5,1.4,0.5,2.1c2.1-3.7,4.9-10.1,2.6-15l-0.5-1.2l0.9,0.9c0.9,0.9,2.3,2.1,2.8,4c0.5-2.8,0-5.6-1.9-7.5l-0.5-0.7h0.7  c0.2,0,0.2,0,0.5,0c1.2,0,2.3-0.5,3-1.2h-0.2c-3.7-1.2-6.8-4.2-9.4-7c-1.4-1.6-2.8-3.3-4-4.9c-0.9-1.2-1.9-2.3-2.8-3.5  c-4.4-5.4-8.6-7.5-11.7-6.5h-0.2l-0.2-0.2c-3-3.3-7.2-4.7-11.5-5.8c-7.2-1.9-13.3-1.9-19.6,0C136,3.3,129.9,7,124.7,12.2  c-3,3-6.1,5.6-9.4,7.5c-1.4,0.9-2.8,1.6-4.4,2.3c-0.9,0.5-2.1,0.9-3.3,1.2l0.9,1.2l-1.4,0.2c1.2,1.2,2.6,1.6,4.4,1.4l0.9-0.2  l-0.7,0.7c-0.7,0.7-1.4,1.4-1.9,1.9c-2.1,2.6-2.3,5.6-2.6,8.9c0.9-1.9,2.1-3.5,3.5-4.9L112.3,31.1z"/>
<path class="st4" d="M143.2,2.1c3.3-0.7,6.8-1.2,10.3-0.9c6.1,0.2,13.1,1.4,17.1,6.8c0.2,0.2,0,0.5-0.2,0.5c-2.1,0-4.4-0.2-6.5-0.2  c4.4-0.5,10.5,2.8,13.3,6.5c0.9,1.4,1.9,2.8,2.3,4.4c-0.7-1.6-1.2-3.3-2.1-4.7c-0.9-1.6-2.6-2.6-3.5-4.4c0-0.2,0-0.5,0.2-0.5  c2.8-1.4,6.5,0.7,8.7,2.6c0.9,0.7,1.9,1.4,2.6,2.3c-2.8-3-7.5-8-11.9-6.3c-3-3.3-7.2-4.7-11.5-5.8c-6.5-1.6-13.1-1.9-19.6,0  c-1.6,0.5-3.3,1.2-4.7,1.9C139.5,3,141.3,2.6,143.2,2.1z"/>
<path class="st4" d="M202.3,29.2c-0.9,0.7-2.3,0.9-3.7,0.5c-2.8-0.9-4.9-3-7.7-4c3.5,3.5,8.2,5.8,9.1,11.2c0,0.2-0.5,0.5-0.5,0.2  c-1.6-2.8-3.3-5.8-6.5-6.5c2.8,4.2,5.4,9.4,2.6,14.3c-0.2,0.2-0.5,0.2-0.5-0.2c-0.5-4.2-0.9-10.3-4.7-12.9c0.7,1.9,1.6,3.7,2.1,5.8  c0.5,2.1,0.2,4.2-0.2,6.3c0,0.5-0.5,0.2-0.5,0c-0.2-2.3-0.2-5.6-1.9-7.2c0.7,2.3,0.7,5.1,0.2,7.5c-0.5,2.6-2.1,4.7-3.5,7  c-0.2,0.2-0.7,0-0.5-0.2c2.8-7.7,2.8-17.1-1.6-23.6h-0.2c-1.9-1.9-4.9-2.1-7.2-1.9c-2.6,0.2-4.9,0.5-7.2,0  c-5.1-0.7-10.1-1.4-15.2-2.6c-2.6-0.7-4.9-1.2-7.5-1.6c-2.6-0.5-5.4-1.2-8.2-1.2c-5.4,0-10.5,2.8-15.2,5.1h-0.2  c-0.2,0.5-0.7,0.7-0.9,1.2c-1.6,2.1-3.5,4.9-4,7.7c-0.5,2.6,0,5.1-0.7,7.7c-0.5,2.6-1.4,4.7-0.9,7.2c0,0.5-0.5,0.5-0.5,0.2  c-0.7-4-0.9-7.2,0.5-10.8c-1.6,1.2-3,2.8-3.5,4.7c-0.2,0.5-0.7,0.2-0.5-0.2c1.2-4.4,3.5-8.2,5.6-12.2c-3.5,2.1-6.1,5.1-7.5,9.1  c0,0.2-0.5,0.2-0.5-0.2c0.2-5.1,2.8-9.4,6.3-12.9c-2.8,1.9-5.8,3.7-7,7c-0.2,0.2-0.7,0.2-0.5-0.2c0.5-3.3,2.6-5.6,4.9-7.5  c2.1-1.6,4.4-3,6.3-5.1c-2.1,1.9-4.7,3.5-7.5,4.2c-1.2,0.2-3.5,0.5-5.1-0.2c1.4,1.4,3,1.6,4.7,1.4c-0.7,0.7-1.4,1.4-1.9,2.1  c-2.3,3-2.6,6.8-2.8,10.5h0.2c0-0.2,0.2-0.7,0.2-0.9c0.9-1.9,2.1-3.5,3.5-4.9c-2.3,5.6-2.1,11.9,0,17.8c1.2,3.7,3.3,7.2,5.4,10.8  c2.3,4,4.4,7.7,6.3,11.9c0,0,0,0,0.2,0.2c0.9,2.8,2.3,5.4,4.7,7.5c2.6,2.6,6.1,4,9.4,5.1c7.7,2.8,16.1,3.7,24.1,2.8  c7.2-0.7,13.3-4.2,17.8-10.5c2.3-3.5,4-7.5,6.1-11c2.3-4,5.6-7.2,7.5-11.7c0.9-2.1,0.9-4.4,0.7-6.8c0.2,0.7,0.5,1.4,0.5,2.3  c0,0.2,0,0.2-0.2,0.5c2.8-4.4,5.4-11,3-16.1c1.4,1.2,2.6,2.6,2.8,4.4c0,0.2,0,0.2,0,0.5c0,0,0.2,0.2,0.2,0c0,0,0,0,0-0.2  c0.9-2.8,0.5-6.5-1.6-8.9C199.8,31.6,201.4,31.1,202.3,29.2z"/>
<path class="st5" d="M123.8,80c-0.2,0.2-0.5,0.2-0.5,0c-2.6,0.9-5.1-1.6-6.1-4c-0.7-2.3-0.9-4.7-1.9-7c-0.7-1.4-1.4-3-1.4-4.7  c0.2-2.3,2.1-7.2,4.9-6.5c1.4,0.2,2.1,2.1,2.6,3.3c0.7,1.6,1.4,3.5,1.9,5.4c0.9,2.1,1.4,4.4,1.4,6.5C125,75.1,125,78.3,123.8,80z"/>
<path class="st6" d="M124.7,73.2c0-2.3-0.5-4.7-1.4-6.5c-0.5-1.9-1.2-3.7-1.9-5.4c-0.5-1.2-1.2-2.8-2.3-3.3c1.2,1.9,1.6,4.2,0.9,7  c0,0.2-0.2,0.2-0.5,0.2c-1.4-0.5-3-2.1-4.4-0.7c-0.7,0.7-0.9,1.4-0.9,2.1c0.2,0.9,0.7,1.9,1.2,2.6c0.9,2.1,1.2,4.7,1.9,7  c0.9,2.6,3.3,4.9,6.1,4c0,0.2,0.5,0.2,0.5,0C125,78.3,125,75.1,124.7,73.2z"/>
<path class="st7" d="M117,67.1c0,0.5,0.9,5.4,0.9,5.1c0.9-0.5,1.4,2.1,1.6,2.6c0.7,1.6,0.9,3.5,1.6,5.1c0.5,0.2,1.2,0.2,1.9,0  c-0.7-3-1.6-5.8-2.6-8.7c-0.5-1.6-0.5-4-1.6-5.4c-0.9-0.9-2.1-1.2-3.3-1.2C116.3,65.5,116.8,66.2,117,67.1z"/>
<path class="st8" d="M115.4,65c2.3-0.2,3.5,1.9,4,4.2h-0.2c-0.7,0.7-1.2,1.6-1.6,2.6c0,0,0,0.2,0.2,0c0.5-0.7,1.2-1.4,1.6-2.1  c0.5,1.9,0.7,4,1.2,5.1h0.2C120.5,71.8,120.3,63.1,115.4,65z"/>
<path class="st8" d="M124.7,73.2c0-2.3-0.5-4.7-1.4-6.5c-0.5-1.9-1.2-3.7-1.9-5.4c-0.5-1.2-1.4-3-2.6-3.3c-2.8-0.5-4.7,4.4-4.9,6.5  c-0.2,1.6,0.7,3.3,1.4,4.7c0.9,2.1,1.2,4.7,1.9,7c0.9,2.6,3.3,4.9,6.1,4c0,0.2,0.5,0.2,0.5,0C125,78.3,125,75.1,124.7,73.2z   M123.1,79.5c-0.9-0.2-1.6-0.2-2.6-0.5c-1.6-0.7-2.3-2.3-2.8-4c-0.9-2.6-1.6-5.1-2.8-7.5c-0.7-1.4-0.9-3-0.5-4.7  c0.5-1.6,2.1-4.4,3.7-4.4c1.4,0,2.6,3,3.3,4c0.5,0.9,0.9,2.1,1.2,3C124.7,69.9,124.3,75.1,123.1,79.5z"/>
<path class="st5" d="M179.4,78.1c0.2,0.2,0.5,0.2,0.5,0c2.6,0.9,5.1-1.6,6.1-4c0.7-2.3,0.9-4.7,1.9-7c0.7-1.4,1.4-3,1.4-4.7  c-0.2-2.3-2.1-7.2-4.9-6.5c-1.4,0.2-2.1,2.1-2.6,3.3c-0.7,1.6-1.4,3.5-1.9,5.4c-0.9,2.1-1.4,4.4-1.4,6.5  C178.3,73.2,178.3,76.5,179.4,78.1z"/>
<path class="st6" d="M178.5,71.1c0-2.3,0.5-4.7,1.4-6.5c0.5-1.9,1.2-3.7,1.9-5.4c0.5-1.2,1.2-2.8,2.3-3.3c-1.2,1.9-1.6,4.2-0.9,7  c0,0.2,0.2,0.2,0.5,0.2c1.4-0.5,3-2.1,4.4-0.7c0.7,0.7,0.9,1.4,0.9,2.1c-0.2,0.9-0.7,1.9-1.2,2.6c-0.9,2.1-1.2,4.7-1.9,7  c-0.9,2.6-3.3,4.9-6.1,4c0,0.2-0.5,0.2-0.5,0C178.3,76.5,178.3,73.2,178.5,71.1z"/>
<path class="st7" d="M186.2,65c0,0.5-0.9,5.4-0.9,5.1c-0.9-0.5-1.4,2.1-1.6,2.6c-0.7,1.6-0.9,3.5-1.6,5.1c-0.5,0.2-1.2,0.2-1.9,0  c0.7-3,1.6-5.8,2.6-8.7c0.5-1.6,0.5-4,1.6-5.4c0.9-0.9,2.1-1.2,3.3-1.2C186.9,63.6,186.5,64.3,186.2,65z"/>
<path class="st8" d="M187.9,62.9C187.9,63.1,187.9,63.1,187.9,62.9c-2.3-0.2-3.5,1.9-4,4.2h0.2c0.7,0.7,1.2,1.6,1.6,2.6  c0,0,0,0.2-0.2,0c-0.5-0.7-1.2-1.4-1.6-2.1c-0.5,1.9-0.7,4-1.2,5.1h-0.2C182.7,69.9,182.9,61.3,187.9,62.9z"/>
<path class="st8" d="M179.4,78.1c0.2,0.2,0.5,0.2,0.5,0c2.6,0.9,5.1-1.6,6.1-4c0.7-2.3,0.9-4.7,1.9-7c0.7-1.4,1.4-3,1.4-4.7  c-0.2-2.3-2.1-7.2-4.9-6.5c-1.4,0.2-2.1,2.1-2.6,3.3c-0.7,1.6-1.4,3.5-1.9,5.4c-0.9,2.1-1.4,4.4-1.4,6.5  C178.3,73.2,178.3,76.5,179.4,78.1z M180.4,63.8c0.2-1.2,0.7-2.1,1.2-3.3c0.5-1.2,1.6-4,3.3-4c1.6,0,3.3,3,3.7,4.4  c0.5,1.6,0.2,3-0.5,4.7c-1.2,2.3-1.9,4.9-2.8,7.5c-0.5,1.6-1.4,3.3-2.8,4c-0.9,0.2-1.6,0.5-2.6,0.5C179,73.2,178.5,68,180.4,63.8z"/>
<path class="st0" d="M181.5,34.6c-0.9-1.4-2.6-2.8-3.7-3.7c-1.4-1.2-3-2.3-4.7-3.3c-3-1.9-6.3-3-9.8-3.3c-3.7-0.2-7.7,0.2-11.5,0.7  c-3.7,0.5-7.5,0.9-11.2,2.1c-3.7,1.2-7.5,3-10.8,5.6c-3,2.3-6.1,5.6-8.2,9.1c-1.6,2.3-0.9,5.4-0.2,8.2c0.9,6.5,1.2,13.3,1.6,20.1  c0.2,3.7,0.2,7.7,1.6,11.2c0.9,2.8,2.8,5.1,4.9,7.2c2.3,2.3,4.9,4,7.7,5.8c3,2.1,6.1,4,9.4,5.4c3,1.2,5.8,1.4,9.1,0.7  c1.4-0.5,2.8-1.2,4.2-1.9c1.4-0.7,3-1.6,4.4-2.6c1.9-0.9,3.3-2.1,4.9-3.3c1.9-1.6,3.7-3,5.6-4.4c3.3-2.6,5.4-5.8,5.8-10.3  c0.7-5.8,0.2-11.9,0.5-18c0.2-6.3,0.5-12.4,0.9-18.7C182.5,38.6,182.7,36.2,181.5,34.6z"/>
<path class="st9" d="M181.5,34.6c-0.9-1.4-2.6-2.8-3.7-3.7c-1.4-1.2-3-2.3-4.7-3.3c-3-1.9-6.3-3-9.8-3.3c-3.7-0.2-7.7,0.2-11.5,0.7  c-3.7,0.5-7.5,0.9-11.2,2.1c-3.7,1.2-7.5,3-10.8,5.6c-3,2.3-6.1,5.6-8.2,9.1c-1.6,2.3-0.9,5.4-0.2,8.2c0.2,2.3,0.5,4.9,0.7,7.2  c2.1-5.1,7.2-10.1,12.6-9.6c6.5,1.6,13.1,0,19.4-2.1c4.9,0.9,9.6,0.7,14.3-1.4c-0.7,1.2-1.9,1.9-2.8,2.6c4.9,0.5,10.3-0.2,14.3-3.7  c-0.2,4.2-1.2,8-2.6,11.7c0.2,0,0.2-0.2,0.5,0c1.2-1.2,2.6-2.3,3.7-3.5c0.2-3.3,0.5-6.5,0.7-9.8C182.5,38.6,182.7,36.2,181.5,34.6z"/>
<path class="st10" d="M186,30.9c-0.7-2.6-2.1-4.9-4.4-6.3c-1.9-0.9-4-1.2-6.1-1.2c-1.6-3.7-5.8-6.5-9.1-8.4c-4.4-2.3-9.4-3-14.3-3  c-5.4,0-11,1.2-16.1,3c-3.3,1.2-7.5,3.3-9.4,6.5c-1.9,1.4-3.5,3.3-4.7,5.1c-2.6,4-3.3,8.9-3.7,13.6c0,0.2,0.2,0.2,0.2,0  c0-0.2,0-0.5,0.2-0.7c0.9-2.1,1.9-4.2,3.5-5.8c-2.1,3-3.3,7-3.3,10.8c-0.2,0.7-0.2,1.2,0,1.6v-0.2c0.7-2.8,1.4-5.4,3-8  c0.5-0.9,1.2-1.6,1.9-2.3c-1.2,1.4-2.1,2.8-2.8,4.7c-0.9,1.9-1.4,4.2-1.9,6.3c-0.2,2.6,0.2,5.1,0.5,7.5c0,0.2,0.2,0,0.2,0s0,0,0-0.2  h0.2c0.7-3.3,1.9-6.3,4-8.9c0.5-0.7,1.2-1.4,1.9-1.9c-1.4,1.9-2.8,4-3.3,6.3c0,0,0,0.2-0.2,0.2c0,0,0,0.2,0.2,0.2  c1.4-1.9,4-2.6,6.1-3.3c2.6-0.7,5.1-1.9,7.5-2.8c2.1-0.7,4.2-1.4,6.5-2.3c-2.3,1.6-4.7,3-7.5,3.5v0.2c0.2,0,0.5,0,0.7,0  c6.1,0.9,12.4-0.2,18.2-1.9c4.7-1.2,8.6-3.7,12.2-6.8c-0.7,0.7-1.6,1.4-2.3,2.1c-2.3,1.9-4.7,3.3-7.5,4.4c-0.2,0-0.2,0-0.5,0  c0,0,0,0,0,0.2c0,0,0,0,0.2,0c2.3,0,4.7,0.2,7.2-0.2c2.1-0.2,4.2-0.9,6.3-1.6c1.9-0.7,3.7-1.9,5.1-3.3c-1.6,2.6-3.7,4.9-6.3,6.5  c-0.2,0-0.2,0-0.5,0.2c3,0.5,6.3-1.4,8.9-3c1.2-0.9,2.1-1.9,3-3c0.2,2.3,0.5,4.4,0.2,6.8c-0.2,2.3-0.2,4.4-1.2,6.5c0,0,0,0,0,0.2  c-0.2,0.2-0.5,0.5-0.7,0.7c0,0,0,0.2,0.2,0.2c4.4-3,7.2-8.4,7.9-14C187.6,36.5,187.2,33.4,186,30.9z"/>
<path class="st4" d="M186,30.9c-0.7-2.6-2.1-4.9-4.4-6.3c-0.2-0.2-0.7-0.2-0.9-0.5l0.2,0.2c1.4,1.4,2.3,3.3,3.3,5.1  c2.1,4.7,1.6,9.4,0.2,14c0,0.2-0.7,0.2-0.5-0.2c0.7-4,0.5-9.1-2.3-12.2c0,1.6,0,3.3-0.9,4.7c-0.9,1.6-2.1,2.8-3,4.2  c-0.2,0.2-0.7,0.2-0.5-0.2c0.9-3.5,1.4-7,0.7-10.5c-0.5,2.6-1.2,5.1-3,7c-2.8,2.8-6.5,4-10.3,5.1c-0.2,0-0.5-0.2-0.2-0.5  c1.9-2.1,4-4.2,4.7-7c0.7-2.1,0.7-4.4,0.7-6.8c-1.6,4.2-5.6,7.2-9.1,9.8c-5.1,3.5-11,6.1-17.1,6.5c-0.2,0-0.5-0.5-0.2-0.5  c4.7-2.6,8.9-6.3,11.7-11c-1.6,1.6-3.5,3-5.4,4c-2.8,1.4-5.8,2.1-8.6,3c-5.4,1.4-10.8,2.8-15,6.8c-0.2,0.2-0.5-0.2-0.5-0.5  c2.6-4.7,6.1-8.2,10.5-11c-5.8,2.1-11.7,4.9-14.3,11c-0.2,0.5-0.7,0-0.5-0.2c2.3-6.3,5.6-11.9,10.8-15.7c-4.4,2.1-8.9,5.1-11,9.8  c-0.2,0.5-0.7,0-0.5-0.2c1.2-3.7,3-7.7,5.8-10.5c-2.1,1.6-4,3.5-5.6,5.6c-0.2,0.2-0.7,0-0.5-0.2c0.9-3,1.6-6.1,3.3-8.7  c0.7-0.9,1.4-1.9,2.1-2.6c-1.4,1.2-2.6,2.6-3.5,4.2c-2.6,4-3.3,8.9-3.7,13.6c0,0.2,0.2,0.2,0.2,0c0-0.2,0-0.5,0.2-0.7  c0.9-2.1,1.9-4.2,3.5-5.8c-2.1,3-3.3,7-3.3,10.8c-0.2,0.7-0.2,1.2,0,1.6v-0.2c0.7-2.8,1.4-5.4,3-8c0.5-0.9,1.2-1.6,1.9-2.3  c-1.2,1.4-2.1,2.8-2.8,4.7c-0.9,1.9-1.4,4.2-1.9,6.3c-0.2,2.6,0.2,5.1,0.5,7.5c0,0.2,0.2,0,0.2,0s0,0,0-0.2h0.2  c0.7-3.3,1.9-6.3,4-8.9c0.5-0.7,1.2-1.4,1.9-1.9c-1.4,1.9-2.8,4-3.3,6.3c0,0,0,0.2-0.2,0.2c0,0,0,0.2,0.2,0.2c1.4-1.9,4-2.6,6.1-3.3  c2.6-0.7,5.1-1.9,7.5-2.8c2.1-0.7,4.2-1.4,6.5-2.3c-2.3,1.6-4.7,3-7.5,3.5v0.2c0.2,0,0.5,0,0.7,0c6.1,0.9,12.4-0.2,18.2-1.9  c4.7-1.2,8.7-3.7,12.2-6.8c-0.7,0.7-1.6,1.4-2.3,2.1c-2.3,1.9-4.7,3.3-7.5,4.4c-0.2,0-0.2,0-0.5,0c0,0,0,0,0,0.2c0,0,0,0,0.2,0  c2.3,0,4.7,0.2,7.2-0.2c2.1-0.2,4.2-0.9,6.3-1.6c1.9-0.7,3.7-1.9,5.1-3.3c-1.6,2.6-3.7,4.9-6.3,6.5c-0.2,0-0.2,0-0.5,0.2  c3,0.5,6.3-1.4,8.9-3c1.2-0.9,2.1-1.9,3-3c0.2,2.3,0.5,4.4,0.2,6.8c-0.2,2.3-0.2,4.4-1.2,6.5c0,0,0,0,0,0.2  c-0.2,0.2-0.5,0.5-0.7,0.7c0,0,0,0.2,0.2,0.2c4.4-3,7.2-8.4,7.9-14C187.6,36.5,187.2,33.4,186,30.9z"/>
<path class="st11" d="M166.3,25.3c-2.3,3.7-5.4,7.7-9.6,8.9c-0.5,0.2-0.7-0.5-0.5-0.7c2.8-3.3,5.4-7.2,6.3-11.7  c-2.1,2.1-5.1,4-7.2,4.9c-5.8,2.8-12.2,5.1-18.7,5.1c-0.2,0-0.5-0.5-0.2-0.7c3.3-1.4,6.1-3.5,8.9-5.8c1.4-1.4,3-2.8,4.2-4.7  c-1.9,0.9-3.7,1.6-5.6,2.3c-2.1,0.7-4.4,1.4-6.5,2.1c-1.4,0.5-3,1.2-4.7,0.7c-0.2,0-0.2-0.5-0.2-0.5c1.6-3,5.1-4.7,7.2-7.2  c-3.3,0.7-6.8,1.9-9.6,3.7c1.6-1.6,3.3-3.3,4.9-4.7c-6.8,2.6-12.4,7.7-14,15c1.6-2.3,3.5-3.7,5.8-5.1c0.9-0.5,2.1-0.9,3-1.6  c-0.5,0.5-0.9,0.9-1.2,1.2c-1.4,1.4-2.6,3-3.5,4.7c0.5-0.2,0.9-0.5,1.2-0.5c1.4-0.5,3-1.2,4.4-1.6c0.5-0.2,0.9-0.2,1.4-0.5  c0.9-0.2,1.9-0.5,2.8-0.7h0.2c1.4-0.5,3-0.7,4.4-1.4c-1.6,1.9-3.5,3.5-5.4,4.9c-0.9,0.7-1.9,1.4-2.8,2.1c-0.5,0.2-0.9,0.7-1.4,0.9  c-1.6,0.7-3.3,1.6-4.4,3c0.5-0.2,0.7-0.5,1.2-0.5c3.5-2.3,7.7-3,11.7-4c-1.4,0.7-2.8,1.6-4.2,2.6c-1.9,1.4-3.7,3.3-5.6,4.9  c1.9-1.4,4-2.3,6.1-3c1.4-0.5,2.8-0.9,4.4-1.2c1.6-0.5,3-0.9,4.7-1.2c4-0.9,8.4-2.1,11.7-4.7c-2.1,4-5.1,7.7-8.6,10.3v0.2  c-0.7,0.2-1.4,0.7-2.1,0.9v0.2c2.1-0.2,4-0.9,6.1-2.1c4.7-1.6,9.1-4.7,12.4-8.4c3-3.3,4.7-7.2,5.1-11.7  C168.4,22,167.3,23.9,166.3,25.3z"/>
<path class="st11" d="M185,40c1.2-3.7,0.9-7.7-0.9-11.7c-0.5-0.9-0.9-1.9-1.6-2.6c-1.4-1.6-3-3-4.9-4.2c1.6,2.6,2.3,5.8,2.3,8.9  c0,0,0,0,0,0.2c-0.2-3.7-1.6-7.7-4-10.1c-0.2-0.2-0.5-0.2-0.7-0.5c-0.2,0-0.2,0-0.5-0.2c1.9,2.6,0.5,7.2-0.5,9.8  c0-2.8-1.2-5.8-2.8-8c1.4,5.1,1.2,12.4-1.9,16.6c0.9-0.5,1.9-0.9,2.8-1.6c1.2-0.9,2.3-2.3,3-3.7c1.2-2.1,1.9-4.9,1.6-7.5  c0,0.9,0.7,2.1,0.9,3c0.2,1.2,0.7,2.3,0.7,3.5c0.2,2.3,0,4.4-0.9,6.8c0.5-0.7,0.9-1.6,1.2-2.1c0.2-0.5,0.5-0.7,0.7-1.2  c1.2-3.5,1.2-7.5,0.2-11c0.2,0.9,1.2,1.6,1.6,2.3C182,27.6,185.8,33,185,40z"/>
<path class="st3" d="M180.6,22.4c-0.2,0-1.6-1.2-1.4-0.9c6.5,5.6,7.9,11.9,7.7,16.8c-0.2,2.8-1.2,5.6-2.3,8.2  c-0.7,1.4-1.4,2.6-2.6,3.7c-0.5,0.7-0.9,1.2-1.6,1.6c-0.2,0.2-0.7,0.5-0.9,0.9c-0.9,0.7,0.2-0.2,0.5-0.2c-0.2-0.2,0.5-1.4,0.5-1.6  c0.2-0.5,0.2-1.2,0.2-1.6c0.2-0.9,0.2-1.9,0.2-2.8c0.2-2.6,0-4.9-0.2-7.5c0.9-1.4,1.2-3,1.2-4.7c-0.2,1.2-0.5,2.3-0.9,3.3  c-0.2,0.9-0.9,1.6-1.4,2.3c-1.2,1.2-2.3,2.1-3.7,3c-1.2,0.7-2.3,1.2-3.5,1.6c-0.7,0.2-1.4,0.5-2.1,0.5c1.4-0.2-1.2,0.2-0.9,0  c1.2-0.5,2.3-1.6,3-2.6c1.2-0.9,1.9-2.1,2.8-3.5c1.9-2.1,2.8-6.1,2.3-8.9h-0.2c0.2,3-1.2,5.8-2.6,8.4c-2.3,2.1-4.9,3.3-7.9,4  c-3,0.9-6.1,0.7-9.1,0.7c-0.2,0-0.7,0-0.9,0c0,0,0,0,0.2,0c1.2-0.5,2.3-1.2,3.5-1.6c2.3-1.4,4.4-3,6.3-4.9c0.2-0.2,4.2-4.9,3.5-10.8  c-0.5,11.5-9.6,15-12.9,16.4c-3.5,1.4-7.5,2.3-11.2,2.8c-1.9,0.2-4,0.5-5.8,0.5c-0.9,0-1.9,0-2.8-0.2c-0.5,0-0.9-0.2-1.4-0.2  c0.2,0,0.7-0.2,0.9-0.2c0.7-0.2,1.2-0.5,1.9-0.7c1.4-0.7,6.3-2.6,13.3-9.4c0.2-0.2-6.5,5.4-10.1,7c-5.1,2.1-10.3,3.7-15.7,5.6  c-1.4,0.5-3,1.2-4.2,2.3c0,0,0-0.2,0-0.5c0.2-0.7,0.5-1.4,0.7-1.9c4.9-8.2,9.4-10.3,10.3-11.5c0.2-0.2-3.5,1.9-7,5.4  c-1.4,1.4-3.7,5.1-4.7,6.8c-0.5,0.9-0.9,1.9-1.2,2.8c-0.2,0.5-0.2,0.9-0.5,1.4c0,0.2-0.2,1.4-0.5,1.9c-0.2-0.7-0.2-1.6-0.2-1.9  c0-0.7-0.2-1.6-0.2-2.3c-0.2-1.9,0-3.7,0.5-5.6c0.7-3,2.3-6.8,9.4-12.9c0.2-0.2-3.7,2.1-5.8,4.7c-1.2,1.6-2.6,3.3-3.3,5.1  c-0.5,0.9-0.7,1.9-0.9,2.8c0,0.2-0.2,1.2-0.5,2.1c0-0.5,0-0.9,0-1.6c0-1.4,0.2-2.6,0.5-4c0.5-2.3,2.3-5.8,3.5-7.7  c0-0.2-1.2,1.4-1.4,1.4c-0.7,0.9-1.4,1.9-2.1,2.8c-0.2,0.5-0.7,1.2-0.9,1.6c0,0.2-0.2,0.5-0.2,0.9c0-0.5,0.2-1.2,0.2-1.2  c0-0.7,0.2-1.6,0.5-2.3c0.2-1.4,0.7-3,1.2-4.4c0.7-2.6,2.1-4.9,3.7-6.8c3-4,8.4-8,13.1-9.6c0.5-0.2-1.2,0.2-1.4,0.5  c-4.7,1.9-9.1,5.1-12.4,9.4c-1.6,2.1-3,4.4-3.7,7c-0.5,1.6-0.9,3.3-1.2,5.1c-0.2,0.7-0.9,3.5-0.5,4.2c0,0.2,0.5,0,0.5,0  c0.5-0.2,0.9-1.9,1.2-2.6c0-0.2,0.2-0.5,0.2-0.7c-0.5,1.2-0.9,2.6-1.2,4s-0.2,2.8-0.5,4c0,0.5,0,0.9,0.2,1.4c0,0.2,0.5,0,0.5,0  s0,0,0.2,0c-0.2,1.2-0.2,2.1,0,3.3c0,0.9,0.2,1.9,0.2,3c0,0.5,0,1.6,0.5,1.9c0.2,0,0.5,0,0.5,0l0.2-0.2c0.2-1.4,0.7-2.6,1.2-4  c0.2-0.5,0.5-1.2,0.7-1.6c-0.2,0.5-0.2,1.2-0.2,1.4h0.2c0,0,0.2,0,0.5-0.2c0.7-0.9,1.6-1.6,2.8-2.1c1.6-0.9,3.7-1.2,5.4-1.9  c3.5-1.2,7.2-2.6,10.8-4c-0.9,0.7-2.1,1.4-3.3,1.9c-0.9,0.5-2.1,0.7-3,0.9c-0.2,0-0.2,0-0.2,0.2c0.5,0.5,1.6,0.2,1.9,0.2  c1.4,0.2,3,0.2,4.4,0.2c3.3,0,6.5-0.7,9.8-1.4c4.2-0.9,8.2-2.6,11.7-4.7c-0.7,0.5-1.4,0.9-2.1,1.4c-0.9,0.7-2.1,1.2-3.3,1.9  c-0.5,0.2-1.2,0.2-1.6,0.7c0,0.2,0.2,0.2,0.2,0.2c0.7,0,1.6,0,2.3,0c2.1,0,4.2,0,6.3-0.5c3.3-0.5,6.5-1.9,9.4-4  c-0.7,0.9-1.6,2.1-2.6,3c-0.9,0.9-2.1,2.1-3.3,2.6c0,0-0.2,0-0.2,0.2h0.2c4.2,0.5,8.4-2.1,11.5-5.1c0-0.2,0.2-0.2,0.2-0.5  c0.2,2.6,0.2,4.9,0.2,7.5c0,1.4-0.2,3-0.7,4.4l-0.5,1.2c0,0.2-0.7,0.7-0.7,0.9c0.7,0.2,1.2-0.5,1.6-0.9c1.2-0.9,2.3-2.1,3-3.3  c2.1-2.8,3.3-6.3,3.7-9.8C188.1,34.1,186.5,27.8,180.6,22.4z"/>
<path class="st11" d="M167.3,6.3c-2.3-2.1-5.6-3.7-8.6-4.2c-0.7-0.2-1.4-0.2-2.1-0.2c-6.8-1.4-14,0.5-20.1,4  c-4.4,2.3-7.9,5.8-11.9,9.1c-4.2,3.5-8.7,6.5-13.8,8.4v0.2c5.6-0.5,10.5-4,15-7.2c3.5-2.6,7.2-4.7,11.2-6.5c-1.6,1.2-3,2.3-4.4,3.5  c-4,3.5-7.5,7.5-11.9,10.3v0.2c2.3-1.2,4.4-3,6.5-4.7c4.9-3,9.8-6.1,15.4-8.2c2.8-1.2,5.6-1.6,8.7-2.1c3-0.5,6.1-0.2,9.1,0.2  c0.5,0.2,0.9,0.2,1.4,0.5l0.2-0.2c-0.2,0-0.2-0.2-0.5-0.2V8.9c0,0-0.2,0-0.2-0.2c-2.8-1.9-6.3-2.8-9.8-2.8c2.1-0.2,4-0.5,6.1-0.5  c3.3,0,6.5,0.5,9.6,1.2C167.3,6.5,167.5,6.3,167.3,6.3z"/>
<path class="st11" d="M197.2,27.8c-7-4-10.3-12.6-17.3-16.1c0,0-0.2,0,0,0.2c3.5,2.1,6.1,5.6,8.6,8.9  C190.9,23.4,193.7,26.7,197.2,27.8C197.2,28.1,197.4,27.8,197.2,27.8z"/>
</svg>
