<svg width="106" height="236" viewBox="0 225 306 236" fill="none" xmlns="http://www.w3.org/2000/svg">
<style type="text/css">
	.st0{fill:#F4C08E;stroke:#BF8245;stroke-width:2;stroke-miterlimit:10;}
	.st1{fill:#FFF0E1;stroke:#BA0808;stroke-width:2;stroke-miterlimit:10;}
	.st2{fill:#FCC992;}
	.st3{fill:#E8A96B;}
	.st4{fill:#F4C08E;}
	.st5{fill:#FBD0B4;}
	.st6{fill:#BF8245;}
	.st7{fill:#583415;}
	.st8{fill:#301000;}
	.st9{opacity:0.6;fill:#501F00;enable-background:new    ;}
</style>
<path class="st0" d="M182.6,322.3c-11.5,10.8-26.2,13.6-26.2,14c-2.1,39.1,17.1,129,17.5,149.9c0.5,20.4-8.9,28.3-5.8,62.3  c1.2,11.5,3.3,22.7,5.4,34c3.3,17.8,2.6,19.9,1.2,32.3c-1.9,16.6,1.4,33-4,49.2c-0.7,2.1-0.7,4.7,0.2,6.8c2.3,4.9,5.6,5.4,28.8,3.7  c25.5,0.7-6.3-51-2.8-74c1.6-10.1,3.5-20.1,6.5-29.7c3.7-11.9,8.9-23.7,9.4-36.3c0.5-12.9-1.6-25.8-3-38.4  c-0.7-7.5-1.4-20.1-1.6-31.4c-0.2-11,9.1-41.2,10.3-71.7c2.3-65.6-5.1-61.6-11.2-102.6C206.7,288.5,196.2,309.6,182.6,322.3z"/>
<path class="st0" d="M222,126.2c-13.1-8.7-24.1-5.8-49.3-20.8l-2.8-23.6H135l-2.8,23.6c-25,15-51,14.3-49.3,20.8  c4.2,17.8,1.9,16.6,15.2,73c7.2,24.6,6.8,36,5.1,59.6C99.7,310.8,85,328.5,87.6,394c1.2,30.4,64.1-17.5,61.7-56.6  c0-1.2,0.9-2.3,2.1-2.3c0.5,0,1.2,0,1.6,0c1.2,0,2.3,1.2,2.1,2.3c-2.6,55,60.6,86.8,61.7,56.6c2.3-65.7-7.7-83.5-15.7-135.2  c-3-19.6-2.6-36.9,3-61.7C216.8,148.7,222,126.2,222,126.2z"/>
<path class="st0" d="M103.2,258.8c-0.3,4.5-0.7,8.8-1.2,12.8c14.3,5.8,32,9,50,9c18.5,0,36.6-3.3,51.1-9.4c-0.7-3.9-1.4-8-2-12.3  c-3-19.6-2.6-36.9,3-61.7c12.6-48.4,17.8-70.9,17.8-70.9c-13.1-8.7-24.1-5.8-49.3-20.8l-2.8-23.6H135l-2.8,23.6  c-25,15-51,14.3-49.3,20.8c4.2,17.8,1.9,16.6,15.2,73C105.3,223.8,104.9,235.2,103.2,258.8z"/>
<path class="st0" d="M222,126.3c-13.1-8.7-24.1-5.9-49.3-20.8l-2.8-23.7H135l-2.8,23.7c-25,15-51,14.3-49.3,20.8  c4.2,17.8,1.9,16.6,15.2,73.1c1.9,3.5,104.7,1.4,106.4-1.9C216.8,148.8,222,126.3,222,126.3z"/>
<path class="st0" d="M172.7,105.5l-2.8-23.7H135l-2.8,23.7C133.6,109,167.3,108.5,172.7,105.5z"/>
<path class="st0" d="M82.7,126.8c-8.2,4.4-16.4,15.9-15.7,49.2c-5.6,18.7-6.3,27.4-7.7,35.4c-2.6,4.7-7,13.8-11.9,31.8  c-1.2,4.7-11,40.7-14.7,50.3c-0.5,1.2-1.2,2.1-2.1,3c-4.2,3.5-12.9,5.4-18,9.4c-4,3-12.6,7.7-10.8,10.3c1.4,1.9,4.2,2.1,8.2-0.5  c4-2.3,6.3-3.3,7.9-3.5c1.2-0.2,2.1,1.2,1.6,2.3c-1.2,2.8-4.4,7.3-8.4,14.8c-0.9,1.9-6.8,9.8-8.9,14.8c-1.2,3,2.6,4.9,4.7,2.8  c3-3,7.5-8.9,9.4-12.6c0.7-1.2,4-6.8,4.9-8.2c-0.5,1.9-3.7,8.2-4.4,10.3c-1.4,3.5-5.6,13.3-7.2,17.1c-0.9,2.6,3.3,4.7,5.1,2.1  c1.9-2.6,6.3-9.1,9.4-17.3c0,0,2.8-6.1,4.2-9.8c-0.9,4-1.6,5.6-2.6,9.6c0,0-4.4,11.2-4.9,14.8c-0.5,2.8,3.5,4.2,5.1,1.9  c2.1-3,6.1-13.3,6.5-14.8c2.3-6.1,4-10.8,4-10.8s-0.7,4.7-1.4,7.7c-0.2,1.6-2.8,8.2-3,12.6c0,2.3,2.6,2.8,3.7,1.9  c3-2.1,5.8-13.6,5.8-13.6c1.2-4.9,4-15.2,5.1-18c2.8-7.3,1.6-11.7,1.4-16.2c0.2-0.9,0.2-1.6,0.7-3c1.4-3.3,5.4-10.8,19.2-33.5  c13.1-21.5,15.9-38.6,15.9-38.6c6.8-9.6,10.3-20.4,13.8-28.3L82.7,126.8z"/>
<path class="st0" d="M82.7,126.8c-8.2,4.4-16.4,15.9-15.7,49.2c-5.6,18.7-6.3,27.4-7.7,35.4c-1.6,1.2,24.8,16.9,24.8,16.9  c6.8-9.6,10.3-20.4,13.8-28.3L82.7,126.8z"/>
<path class="st0" d="M32.6,292.6c-0.5,1.2-1.2,2.1-2.1,3c-4.2,3.5-12.9,5.4-18,9.4c-4,3-12.6,7.7-10.8,10.3c1.4,1.9,4.2,2.1,8.2-0.5  c4-2.3,6.3-3.3,7.9-3.5c1.2-0.2,2.1,1.2,1.6,2.3c-1.2,2.8-4.4,7.3-8.4,14.8c-0.9,1.9-6.8,9.8-8.9,14.8c-1.2,3,2.6,4.9,4.7,2.8  c3-3,7.5-8.9,9.4-12.6c0.7-1.2,4-6.8,4.9-8.2c-0.5,1.9-3.7,8.2-4.4,10.3c-1.4,3.5-5.6,13.3-7.2,17.1c-0.9,2.6,3.3,4.7,5.1,2.1  c1.9-2.6,6.3-9.1,9.4-17.3c0,0,2.8-6.1,4.2-9.8c-0.9,4-1.6,5.6-2.6,9.6c0,0-4.4,11.2-4.9,14.8c-0.5,2.8,3.5,4.2,5.1,1.9  c2.1-3,6.1-13.3,6.5-14.8c2.3-6.1,4-10.8,4-10.8s-0.7,4.7-1.4,7.7c-0.2,1.6-2.8,8.2-3,12.6c0,2.3,2.6,2.8,3.7,1.9  c3-2.1,5.8-13.6,5.8-13.6c1.2-4.9,4-15.2,5.1-18c2.8-7.3,1.6-11.7,1.4-16.2c0.2-0.9,0.2-1.6,0.7-3L32.6,292.6z"/>
<path class="st0" d="M99.7,292.1c-6.1,41-13.6,37-11.2,102.6c1.2,30.4,10.5,60.6,10.3,71.7c-0.2,11.2-0.9,23.9-1.6,31.4  c-1.4,12.6-3.5,25.5-3,38.4c0.5,12.6,5.6,24.4,9.4,36.3c3,9.6,4.9,19.7,6.5,29.7c3.5,22.9-28.3,74.7-2.8,74  c23.1,1.6,26.4,1.2,28.8-3.7c0.9-2.1,0.9-4.7,0.2-6.8c-5.4-16.2-2.1-32.5-4-49.2c-1.4-12.4-2.1-14.5,1.2-32.3  c2.1-11.2,4.2-22.5,5.4-34c3-34-6.3-41.9-5.8-62.3c0.5-20.8,19.6-110.8,17.5-149.9c0-0.5-14.7-3.3-26.2-14  C110.7,311.3,100.2,290.2,99.7,292.1z"/>
<path class="st0" d="M99.7,290.5c-6.1,41-13.6,37-11.2,102.6c1.2,30.4,11.5,60.9,10.3,71.7c-2.8,25.5,33.9,21.5,33.9,21.5  c0.5-20.8,19.6-110.8,17.5-149.9c0-0.7-17.3-4-28.3-14.3C108.1,309,100.2,288.4,99.7,290.5z"/>
<path class="st0" d="M220.3,124.9c8.2,4.4,16.4,15.9,15.7,49.2c5.6,18.7,6.3,27.4,7.7,35.4c2.6,4.7,7,13.8,11.9,31.8  c1.2,4.7,11,40.7,14.7,50.3c0.5,1.2,1.2,2.1,2.1,3c4.2,3.5,12.9,5.4,18,9.4c4,3,12.6,7.7,10.8,10.3c-1.4,1.9-4.2,2.1-8.2-0.5  c-4-2.3-6.3-3.3-7.9-3.5c-1.2-0.2-2.1,1.2-1.6,2.3c1.2,2.8,4.4,7.3,8.4,14.8c0.9,1.9,6.8,9.8,8.9,14.8c1.2,3-2.6,4.9-4.7,2.8  c-3-3-7.5-8.9-9.4-12.6c-0.7-1.2-4-6.8-4.9-8.2c0.5,1.9,3.7,8.2,4.4,10.3c1.4,3.5,5.6,13.3,7.2,17.1c0.9,2.6-3.3,4.7-5.1,2.1  c-1.9-2.6-6.3-9.1-9.4-17.3c0,0-2.8-6.1-4.2-9.8c0.9,4,1.6,5.6,2.6,9.6c0,0,4.4,11.2,4.9,14.8c0.5,2.8-3.5,4.2-5.1,1.9  c-2.1-3-6.1-13.3-6.5-14.8c-2.3-6.1-4-10.8-4-10.8s0.7,4.7,1.4,7.7c0.2,1.6,2.8,8.2,3,12.6c0,2.3-2.6,2.8-3.7,1.9  c-3-2.1-5.8-13.6-5.8-13.6c-1.2-4.9-4-15.2-5.1-18c-2.8-7.3-1.6-11.7-1.4-16.2c-0.2-0.9-0.2-1.6-0.7-3c-1.4-3.3-5.4-10.8-19.2-33.5  c-13.1-21.5-15.9-38.6-15.9-38.6c-6.8-9.6-10.3-20.4-13.8-28.3L220.3,124.9z"/>
<path class="st0" d="M220.3,124.9c8.2,4.4,16.4,15.9,15.7,49.2c5.6,18.7,6.3,27.4,7.7,35.4c1.6,1.2-24.8,16.9-24.8,16.9  c-6.8-9.6-10.3-20.4-13.8-28.3L220.3,124.9z"/>
<path class="st0" d="M270.4,292.6c0.5,1.2,1.2,2.1,2.1,3c4.2,3.5,12.9,5.4,18,9.4c4,3,12.6,7.7,10.8,10.3c-1.4,1.9-4.2,2.1-8.2-0.5  c-4-2.3-6.3-3.3-7.9-3.5c-1.2-0.2-2.1,1.2-1.6,2.3c1.2,2.8,4.4,7.3,8.4,14.8c0.9,1.9,6.8,9.8,8.9,14.8c1.2,3-2.6,4.9-4.7,2.8  c-3-3-7.5-8.9-9.4-12.6c-0.7-1.2-4-6.8-4.9-8.2c0.5,1.9,3.7,8.2,4.4,10.3c1.4,3.5,5.6,13.3,7.2,17.1c0.9,2.6-3.3,4.7-5.1,2.1  c-1.9-2.6-6.3-9.1-9.4-17.3c0,0-2.8-6.1-4.2-9.8c0.9,4,1.6,5.6,2.6,9.6c0,0,4.4,11.2,4.9,14.8c0.5,2.8-3.5,4.2-5.1,1.9  c-2.1-3-6.1-13.3-6.5-14.8c-2.3-6.1-4-10.8-4-10.8s0.7,4.7,1.4,7.7c0.2,1.6,2.8,8.2,3,12.6c0,2.3-2.6,2.8-3.7,1.9  c-3-2.1-5.8-13.6-5.8-13.6c-1.2-4.9-4-15.2-5.1-18c-2.8-7.3-1.6-11.7-1.4-16.2c-0.2-0.9-0.2-1.6-0.7-3L270.4,292.6z"/>
<path class="st0" d="M207,290.5c6.1,41,13.6,37,11.2,102.6c-1.2,30.4-11.5,60.9-10.3,71.7c2.8,25.5-33.9,21.5-33.9,21.5  c-0.5-20.8-19.6-110.8-17.5-149.9c0-0.7,18.2-5.4,29.7-16.4C199.8,307.3,206.8,288.4,207,290.5z"/>
<path class="st2" d="M178.7,48.1c4.2-1.2,6.1,0.7,6.8,2.1c0.9,1.4,0.9,3,0.5,4.4c-0.5,1.4-0.9,3-2.1,5.6c-1.9,4.4,0,8.2-5.1,8.2  c-1.6,0-5.6,1.2-5.6-1.4C173.4,63.8,177.8,49.7,178.7,48.1z"/>
<path class="st3" d="M175.5,70.1c-0.9,0-1.9-0.2-2.6-0.7c-0.5-0.2-0.7-0.9-0.7-2.1c0.2-3.5,4.7-18,5.8-19.7l0.2-0.2h0.2  c3.5-1.2,6.1-0.2,7.9,2.6c0.9,1.4,1.2,3.3,0.5,5.4c-0.5,1.6-1.2,3.3-2.1,5.9c-0.5,1.4-0.7,2.6-0.9,3.7c-0.5,2.6-0.7,4.9-5.1,4.9  c-0.2,0-0.5,0-0.9,0.2C177.1,69.9,176.2,70.1,175.5,70.1z M179.4,49c-1.2,2.3-4.9,15-5.1,18.5c0,0.2,0,0.5,0,0.5  c0.5,0.5,2.3,0.2,3.3,0c0.5,0,0.7,0,1.2-0.2c2.8,0,2.8-0.9,3.3-3.5c0.2-1.2,0.5-2.8,1.2-4.2c0.9-2.3,1.6-4,2.1-5.6  c0.5-1.4,0.2-2.8-0.2-3.7C183.9,49.5,182.5,48.1,179.4,49z"/>
<path class="st2" d="M126.6,48.1c-4.2-1.2-6.1,0.7-6.8,2.1c-0.9,1.4-0.9,3-0.5,4.4c0.5,1.4,0.9,3,2.1,5.6c1.9,4.4,0,8.2,5.1,8.2  c1.6,0,5.6,1.2,5.6-1.4C132,63.8,127.5,49.7,126.6,48.1z"/>
<path class="st3" d="M129.9,70.1c-0.7,0-1.6-0.2-2.3-0.2c-0.5,0-0.7,0-0.9-0.2c-4.2,0-4.7-2.6-5.1-4.9c-0.2-1.2-0.5-2.6-0.9-3.7  c-0.9-2.3-1.6-4.2-2.1-5.9c-0.5-1.9-0.2-4,0.5-5.4c1.6-2.8,4.4-3.5,7.9-2.6h0.2l0.2,0.2c1.2,1.6,5.4,16.2,5.8,19.7  c0,0.9-0.2,1.6-0.7,2.1C131.7,69.9,130.8,70.1,129.9,70.1z M124,48.8c-1.9,0-2.8,0.9-3.5,2.1c-0.7,0.9-0.7,2.3-0.2,3.7  c0.5,1.4,1.2,3.3,2.1,5.6c0.7,1.6,0.9,3,1.2,4.2c0.5,2.6,0.5,3.5,3.3,3.5c0.5,0,0.7,0,1.2,0.2c0.9,0.2,2.8,0.5,3.3,0  c0,0,0.2-0.2,0-0.5c-0.2-3.3-4.2-16.2-5.1-18.5C125.2,48.8,124.7,48.8,124,48.8z"/>
<path class="st0" d="M109.8,615.7c-3,9.4-1.9,4.4-3.3,11c-4.7,19.2-4.7,19.2-5.1,20.8c-8.9,30.4-4.7,30.7-0.5,31.4  c2.1,0.9,32.7,1.6,35.3-3.5c0.9-2.1,0.9-4.9,0.2-7c-5.6-16.6-3-31.1-4.9-51C131.3,614.1,110,612.2,109.8,615.7z"/>
<path class="st0" d="M174.8,617.4c-1.9,19.9,0.7,34.2-4.9,51c-0.7,2.1-0.7,4.9,0.2,7c2.3,5.2,33.2,4.4,35.3,3.5  c4.2-0.7,8.6-0.9-0.5-31.4c-0.5-1.4-0.5-1.4-5.1-20.8c-1.6-6.6-0.5-1.6-3.3-11C196.5,612.2,175,614.1,174.8,617.4z"/>
<path class="st4" d="M176.9,76.9c0.2,0.2,0.5,0.2,0.5,0c2.6,0.9,5.1-1.2,6.3-3.7c0.9-2.1,1.2-4.7,2.3-6.8c0.7-1.4,1.6-3,1.6-4.7  c0-2.3-1.9-7.3-4.4-7c-1.4,0.2-2.3,1.9-2.8,3c-0.9,1.6-1.6,3.5-2.1,5.4c-1.2,1.9-1.6,4.2-1.9,6.6C175.9,71.7,175.7,75,176.9,76.9z"/>
<path class="st5" d="M176.2,69.9c0.2-2.3,0.7-4.7,1.9-6.6c0.5-1.9,1.4-3.5,2.1-5.4c0.5-1.2,1.4-2.8,2.6-3c-1.4,1.9-1.9,4.2-1.4,6.8  c0,0.2,0.2,0.2,0.5,0.2c1.4-0.5,3.3-2.1,4.4-0.5c0.5,0.7,0.7,1.4,0.7,2.3c-0.2,0.9-0.7,1.9-1.2,2.6c-1.2,2.1-1.4,4.4-2.3,6.8  c-0.9,2.3-3.7,4.7-6.3,3.7c-0.2,0.2-0.5,0.2-0.5,0C175.7,75,175.9,71.7,176.2,69.9z"/>
<path class="st6" d="M176.9,76.9c0.2,0.2,0.5,0.2,0.5,0c2.6,0.9,5.1-1.2,6.3-3.7c0.9-2.1,1.2-4.7,2.3-6.8c0.7-1.4,1.6-3,1.6-4.7  c0-2.3-1.9-7.3-4.4-7c-1.4,0.2-2.3,1.9-2.8,3c-0.9,1.6-1.6,3.5-2.1,5.4c-1.2,1.9-1.6,4.2-1.9,6.6C175.9,71.7,175.7,75,176.9,76.9z   M178.7,62.6C178.7,62.4,178.7,62.4,178.7,62.6c0.5-1.2,0.9-2.1,1.4-3c0.7-1.2,1.9-4,3.5-3.7c1.6,0.2,3.3,3.3,3.5,4.7  c0.5,1.6,0,3-0.7,4.7c-1.2,2.3-2.1,4.7-3.3,7.3c-0.7,1.6-1.4,3.3-3,3.7c-0.9,0.2-1.6,0.2-2.6,0.5C176.6,71.7,176.6,66.6,178.7,62.6z  "/>
<path class="st4" d="M122.4,77.1c-0.2,0.2-0.5,0.2-0.5,0c-2.6,0.9-5.1-1.6-6.1-4c-0.7-2.3-0.9-4.7-1.9-7c-0.7-1.4-1.4-3-1.4-4.7  c0.2-2.3,2.1-7.3,4.9-6.6c1.4,0.2,2.1,2.1,2.6,3.3c0.7,1.6,1.4,3.5,1.9,5.4c0.9,2.1,1.4,4.4,1.4,6.6  C123.8,72.2,123.8,75.3,122.4,77.1z"/>
<path class="st5" d="M123.6,70.1c0-2.3-0.5-4.7-1.4-6.6c-0.5-1.9-1.2-3.7-1.9-5.4c-0.5-1.2-1.2-2.8-2.3-3.3c1.2,1.9,1.6,4.2,0.9,7  c0,0.2-0.2,0.2-0.5,0.2c-1.4-0.5-3-2.1-4.4-0.7c-0.7,0.7-0.9,1.4-0.9,2.1c0.2,0.9,0.7,1.9,1.2,2.6c0.9,2.1,1.2,4.7,1.9,7  c0.9,2.6,3.3,4.9,6.1,4c0,0.2,0.5,0.2,0.5,0C123.8,75.3,123.8,72.2,123.6,70.1z"/>
<path class="st6" d="M123.6,70.1c0-2.3-0.5-4.7-1.4-6.6c-0.5-1.9-1.2-3.7-1.9-5.4c-0.5-1.2-1.4-3-2.6-3.3c-2.8-0.5-4.7,4.4-4.9,6.6  c-0.2,1.6,0.7,3.3,1.4,4.7c0.9,2.1,1.2,4.7,1.9,7c0.9,2.6,3.3,4.9,6.1,4c0,0.2,0.5,0.2,0.5,0C123.8,75.3,123.8,72.2,123.6,70.1z   M121.9,76.4c-0.9-0.2-1.6-0.2-2.6-0.5c-1.6-0.7-2.3-2.3-2.8-4c-0.9-2.6-1.6-5.2-2.8-7.5c-0.7-1.4-0.9-3-0.5-4.7  c0.5-1.6,2.1-4.4,3.7-4.4c1.4,0,2.6,3,3.3,4c0.5,0.9,0.9,2.1,1.2,3C123.6,67.1,123.1,72,121.9,76.4z"/>
<path class="st7" d="M194.9,30.5c-0.2,0.2-0.5,0.2-0.5,0.5c-3.3-1.2-6.1-4.4-8.4-7.3c-2.3-2.8-4-5.9-6.1-8.7c-2.3-3.3-7-8.4-11-7  c-2.8-3.5-6.5-4.9-10.5-6.1c-6.1-1.9-11.9-2.1-18,0c-6.1,2.1-11.5,6.1-15.9,11.2c-2.6,3-5.4,5.6-8.4,8c-1.4,0.9-2.6,1.9-4,2.6  c-1.4,0.7-2.8,1.4-4.2,0.9c0,0-0.2,0.2,0,0.2s0.2,0.2,0.5,0.2c0,0,0,0,0,0.2c1.2,1.9,2.8,2.3,4.7,2.1c-0.7,0.7-1.2,1.4-1.6,2.1  c-2.1,3.3-2.3,7-2.3,11h0.2c0-0.2,0.2-0.7,0.2-0.9c0.9-2.1,1.9-3.7,3.3-5.2c-2.1,5.9-1.9,12.4,0,18.7c1.2,4,3,7.7,4.9,11.2  c2.1,4,4,8.2,5.6,12.4c0,0,0,0,0,0.2c0.9,3,2.1,5.6,4.2,7.7c2.3,2.6,5.4,4,8.4,5.4c7,2.8,14.7,4,22,3c6.8-0.7,12.2-4.4,16.1-11  c2.1-3.5,3.7-7.7,5.6-11.7c2.1-4.2,5.1-7.7,6.8-12.2c0.9-2.1,0.9-4.7,0.7-7c0.2,0.7,0.5,1.6,0.5,2.3c0,0.2,0,0.2,0,0.5  c2.3-4.7,4.9-11.5,2.8-16.9c1.2,1.2,2.3,2.8,2.6,4.7c0,0.2,0,0.2,0,0.5c0,0,0.2,0.2,0.2,0c0,0,0,0,0-0.2c0.9-3,0.5-6.8-1.4-9.4  C192.8,33.1,194.4,32.4,194.9,30.5C195.1,30.5,195.1,30.5,194.9,30.5z"/>
<path class="st8" d="M152.3,93.5c-5.8,0-11.7-1.2-16.8-3.3c-3-1.2-6.1-2.8-8.4-5.4c-2.1-2.1-3.5-4.7-4.2-7.7c0,0,0-0.2-0.2-0.2  c-2.1-5.2-4-8.9-5.6-12.4c-1.9-3.5-3.7-7.3-4.9-11.2c-1.9-6.1-1.9-12.2-0.5-17.3c-0.7,1.2-1.6,2.3-2.1,4c0,0,0,0,0,0.2  c0,0.2-0.2,0.5-0.2,0.7c0,0.2-0.2,0.2-0.2,0.2l-0.2-0.2v-0.2v-0.2c0.2-4,0.2-7.7,2.6-11c0.2-0.5,0.7-0.9,1.2-1.4c-1.6,0-3-0.7-4-2.1  c0,0,0,0,0-0.2h-0.2c-0.2,0-0.2-0.2-0.2-0.5c0-0.2,0.2-0.5,0.5-0.5s0.5,0,0.7,0c1.2,0,2.3-0.5,3.3-1.2c1.4-0.7,2.8-1.6,4-2.6  c2.8-2.1,5.6-4.7,8.4-8c4.7-5.4,10.3-9.4,15.9-11.5c5.6-1.9,11.5-2.1,18,0c3.7,1.2,7.7,2.6,10.5,6.1c3-1.2,6.8,1.4,11,7  c0.9,1.2,1.6,2.3,2.6,3.7c1.2,1.6,2.3,3.5,3.5,4.9c2.3,2.8,4.9,5.9,8.2,7.3c0.2,0,0.2-0.2,0.5-0.2c0.2-0.2,0.5,0,0.7,0.2  c0,0.2,0,0.2,0,0.5c-0.7,1.4-1.9,2.1-3.3,2.3c1.6,2.3,2.1,6.1,1.2,9.1v0.2c0,0.2-0.5,0.2-0.7,0c0,0,0-0.2,0-0.5V42  c0-1.4-0.7-2.6-1.6-3.7c1.4,5.6-1.4,12.4-3.3,15.9v0.2h-0.2c0,0,0,0-0.2,0c0,1.2-0.2,2.6-0.7,3.7c-0.9,2.6-2.6,4.9-4,7  c-1.2,1.6-2.1,3.3-3,5.2c-0.7,1.4-1.2,2.8-1.9,4c-1.2,2.6-2.3,5.2-3.7,7.5c-4,6.6-9.6,10.3-16.4,11.2  C155.8,93.5,154.2,93.5,152.3,93.5z M113,32.6l-0.5,1.6c-1.9,5.4-2.1,11.7,0,18.5c1.2,4,3,7.7,4.9,11.2c1.9,3.5,3.5,7.5,5.6,12.4  v0.2c0.9,3,2.1,5.4,4.2,7.7c2.3,2.6,5.4,4,8.4,5.2c6.8,2.8,14.5,4,21.7,3c6.5-0.7,11.9-4.4,15.9-11c1.4-2.3,2.6-4.9,3.7-7.5  c0.7-1.4,1.2-2.8,1.9-4.2c0.9-1.9,2.1-3.5,3-5.2c1.4-2.1,2.8-4.4,3.7-7c0.9-2.1,0.7-4.7,0.7-6.8l-0.2-2.8l0.7,2.8  c0.2,0.7,0.5,1.4,0.5,2.1c1.9-4,4.4-10.5,2.3-15.7l-0.5-1.2l0.9,0.9c0.9,0.9,2.1,2.3,2.6,4.2c0.5-2.8,0-5.9-1.6-8l-0.5-0.7h0.7  c0.2,0,0.2,0,0.5,0c1.2,0,2.1-0.5,2.8-1.2c-3.3-1.4-6.1-4.4-8.4-7.3c-1.4-1.6-2.6-3.3-3.7-5.2c-0.7-1.2-1.6-2.3-2.6-3.5  c-4.2-5.6-7.7-8-10.8-6.8h-0.2V8.5c-2.8-3.5-6.5-4.9-10.3-6.1c-6.5-1.9-12.2-1.9-17.8,0c-5.6,1.9-11,5.9-15.7,11.2  c-2.8,3.3-5.6,5.9-8.4,8c-1.2,0.9-2.6,1.9-4,2.6c-0.9,0.5-1.9,0.9-3,1.2l0.5,0.2l-1.2,0.2c0.9,1.2,2.3,1.9,4.2,1.6l0.9-0.2l-0.7,0.7  c-0.7,0.7-1.2,1.4-1.6,2.1c-1.9,2.8-2.1,5.9-2.3,9.4c0.9-2.1,2.1-3.5,3-5.2L113,32.6z"/>
<path class="st9" d="M136.9,4.5c3.3-0.7,6.8-1.2,10.3-0.9c6.1,0.2,13.1,1.4,17.1,6.8c0.2,0.2,0,0.5-0.2,0.5c-2.1,0-4.4-0.2-6.5-0.2  c4.4-0.5,10.5,2.8,13.3,6.6c0.9,1.4,1.9,2.8,2.3,4.4c-0.7-1.6-1.2-3.3-2.1-4.7c-0.9-1.6-2.6-2.6-3.5-4.4c0-0.2,0-0.5,0.2-0.5  c2.8-1.4,6.5,0.7,8.6,2.6c0.9,0.7,1.9,1.4,2.6,2.3c-2.8-3-7.5-8-11.9-6.3c-3-3.3-7.2-4.7-11.5-5.9c-6.5-1.6-13.1-1.9-19.6,0  c-1.6,0.5-3.3,1.2-4.7,1.9C133.1,5.7,135,5,136.9,4.5z"/>
</svg>