<svg width="297" height="746" viewBox="0 0 297 746" fill="none" xmlns="http://www.w3.org/2000/svg">
<path d="M203.894 457.002C204.119 467.792 204.794 477.234 205.468 484.427C206.817 496.566 208.84 508.93 208.39 521.294C207.941 533.433 202.995 544.673 199.398 556.138C196.476 565.354 194.003 584.912 192.43 594.578C187.934 593.904 177.818 594.128 172.423 598.624C173.772 586.71 172.648 579.517 170.624 567.378C168.601 556.587 166.578 545.797 165.454 534.782C162.532 502.186 171.748 492.97 171.299 473.412C181.19 473.188 193.329 477.684 203.894 457.002Z" fill="#F4C08E" stroke="#BF8245" stroke-width="2" stroke-miterlimit="10"/>
<path d="M98.2395 195.788C105.208 219.392 101.162 263.227 99.5883 285.932C129.037 310.884 147.02 329.992 148.144 329.992C148.594 329.992 153.989 329.992 154.439 329.992C155.563 329.992 175.12 307.737 203.22 284.133C202.096 276.49 202.096 274.692 196.476 244.569C193.553 225.686 195.127 217.593 200.522 193.765C166.128 197.586 127.913 197.586 98.2395 195.788Z" fill="#F4C08E" stroke="#BF8245" stroke-width="2" stroke-miterlimit="10"/>
<path d="M217.382 125.651C204.794 117.334 194.228 120.032 169.95 105.645H131.06C107.007 120.032 82.0543 119.357 83.6279 125.651C87.6742 142.736 85.4262 141.612 98.2397 195.788C100.038 199.16 198.949 197.137 200.522 193.99C212.437 147.232 217.382 125.651 217.382 125.651Z" fill="#F4C08E" stroke="#BF8245" stroke-width="2" stroke-miterlimit="10"/>
<path d="M169.95 105.644L167.252 82.9398H133.758L131.06 105.644C132.409 109.016 164.78 108.567 169.95 105.644Z" fill="#F4C08E" stroke="#BF8245" stroke-width="2" stroke-miterlimit="10"/>
<path d="M239.412 207.477C241.885 211.973 246.156 220.74 250.877 238.05C252.001 242.546 261.442 277.164 265.039 286.381C265.489 287.505 249.978 294.474 249.528 293.125C248.179 289.978 244.358 282.784 231.095 260.979C218.506 240.298 215.809 223.887 215.809 223.887C223.227 219.841 236.04 211.524 239.412 207.477Z" fill="#F4C08E" stroke="#BF8245" stroke-width="2" stroke-miterlimit="10"/>
<path d="M217.607 126.55C225.475 130.821 233.343 141.837 232.668 173.758C238.064 191.741 238.738 200.059 240.087 207.702C241.66 208.826 216.258 223.888 216.258 223.888C209.739 214.671 205.018 201.408 201.646 193.765L217.607 126.55Z" fill="#F4C08E" stroke="#BF8245" stroke-width="2" stroke-miterlimit="10"/>
<path d="M265.714 287.505C266.163 288.629 266.838 289.528 267.737 290.427C271.783 293.799 280.101 295.598 285.046 299.419C288.868 302.342 297.185 306.838 295.387 309.31C294.038 311.109 291.341 311.334 287.519 308.861C283.697 306.613 281.449 305.714 279.876 305.489C278.752 305.264 277.853 306.613 278.302 307.737C279.426 310.434 282.573 314.706 286.395 321.899C287.294 323.697 292.914 331.341 294.937 336.061C296.061 338.984 292.465 340.782 290.441 338.759C287.519 335.837 283.248 330.217 281.449 326.62C277.178 318.527 277.178 318.527 277.178 318.527C276.054 317.853 280.325 326.62 281 328.643C282.349 332.015 286.395 341.456 287.969 345.053C288.868 347.526 284.821 349.549 283.023 347.076C281.225 344.604 276.954 338.309 274.031 330.441C274.031 330.441 271.334 324.597 269.985 321C270.884 324.821 271.558 326.395 272.458 330.217C272.458 330.217 276.729 341.007 277.178 344.379C277.628 347.076 273.806 348.425 272.233 346.177C270.21 343.255 266.388 333.364 265.938 332.015C263.69 326.17 262.117 321.674 262.117 321.674C262.117 321.674 262.791 326.17 263.466 329.093C263.69 330.666 266.163 336.961 266.388 341.232C266.388 343.48 263.915 343.929 262.791 343.03C259.869 341.007 257.171 329.992 257.171 329.992C256.047 325.271 253.35 315.38 252.226 312.682C249.528 305.714 250.652 301.443 250.877 297.171C250.652 296.272 250.652 295.598 250.203 294.249L265.714 287.505Z" fill="#F4C08E" stroke="#BF8245" stroke-width="2" stroke-miterlimit="10"/>
<path d="M202.995 284.133C208.84 323.473 216.033 323.248 213.785 386.191C212.661 415.415 202.77 444.638 203.894 454.979C206.592 479.482 171.299 475.66 171.299 475.66C170.849 455.653 152.416 369.331 154.439 331.79C154.439 330.441 202.545 280.536 202.995 284.133Z" fill="#F4C08E" stroke="#BF8245" stroke-width="2" stroke-miterlimit="10"/>
<path d="M191.98 595.252C191.306 610.313 187.934 613.011 206.592 639.762C208.615 642.684 212.437 647.405 211.313 651.227C210.189 654.823 205.468 655.273 202.546 655.498C180.291 657.071 171.074 657.071 168.826 652.351C167.927 650.327 167.927 647.855 168.601 645.831C173.772 630.32 170.849 617.057 172.423 598.624C172.423 595.477 192.205 593.229 191.98 595.252Z" fill="#F4C08E" stroke="#BF8245" stroke-width="2" stroke-miterlimit="10"/>
<path d="M198.274 28.9887C198.05 29.2135 197.825 29.2135 197.6 29.4383C194.228 28.3143 191.306 25.392 188.833 22.6944C186.585 20.2216 184.562 17.2993 182.314 14.8265C179.841 11.9041 174.895 7.18339 170.849 8.53218C167.927 5.38502 163.88 4.03623 159.834 2.91225C153.54 1.33867 147.245 1.11387 140.951 2.91225C134.657 4.71063 129.037 8.53218 124.091 13.2529C121.394 15.9505 118.471 18.4233 115.099 20.4464C113.751 21.3456 112.402 22.02 110.828 22.6944C109.479 23.3688 107.906 24.0432 106.332 23.5936C106.107 23.5936 106.107 23.8184 106.332 23.8184C106.557 23.8184 106.782 24.0432 106.782 24.0432C106.782 24.0432 106.557 24.0432 106.782 24.268C108.131 25.8416 109.929 26.2912 111.727 26.0664C111.053 26.7407 110.379 27.4151 109.929 28.0895C107.681 31.0119 107.456 34.6087 107.231 38.2054H107.456C107.456 37.9806 107.681 37.531 107.681 37.3062C108.58 35.5078 109.704 33.9343 111.053 32.5855C108.805 37.9806 109.03 44.0501 111.053 49.6701C112.177 53.2668 114.2 56.6388 116.223 60.0107C118.471 63.8323 120.495 67.429 122.293 71.4754C122.293 71.4754 122.293 71.4754 122.518 71.7002C123.417 74.3978 124.766 76.8705 127.014 78.8937C129.486 81.3665 132.858 82.7152 136.006 83.8392C143.424 86.5368 151.517 87.436 159.16 86.5368C166.128 85.8624 171.973 82.4904 176.244 76.4209C178.492 73.049 180.066 69.2274 182.089 65.8555C184.337 62.0339 187.484 58.8867 189.282 54.6156C190.182 52.5924 190.182 50.3445 189.957 48.0965C190.182 48.7709 190.406 49.4453 190.406 50.3445C190.406 50.5693 190.406 50.5692 190.182 50.794C192.879 46.5229 195.352 40.2286 193.104 35.283C194.453 36.407 195.577 37.7558 195.802 39.5542C195.802 39.779 195.802 39.779 195.802 40.0038C195.802 40.0038 196.026 40.2286 196.026 40.0038C196.026 40.0038 196.026 40.0038 196.026 39.779C196.926 37.0814 196.476 33.4847 194.453 31.2367C196.026 31.2367 197.6 30.7871 198.274 28.9887C198.499 28.9887 198.499 28.7639 198.274 28.9887Z" fill="#583415"/>
<path d="M153.315 86.7615C147.245 86.7615 141.176 85.6375 135.556 83.6143C132.409 82.4903 129.037 81.1415 126.564 78.6688C124.316 76.6456 122.967 74.3976 122.068 71.4752C122.068 71.4752 122.068 71.2504 121.843 71.2504C119.595 66.5297 117.797 63.1577 115.774 59.7858C113.75 56.6386 111.952 53.2667 110.603 49.4451C108.805 43.8252 108.58 38.43 110.154 33.7093C109.255 34.8333 108.58 35.9573 107.906 37.3061C107.906 37.3061 107.906 37.3061 107.906 37.5309C107.906 37.7557 107.681 37.9805 107.681 38.2053C107.681 38.43 107.456 38.43 107.231 38.43H107.007L106.782 38.2053V37.9805V37.7557C107.007 34.1589 107.231 30.5621 109.479 27.6398C109.929 27.1902 110.154 26.7406 110.603 26.291C108.805 26.291 107.456 25.6166 106.332 24.2678C106.332 24.2678 106.332 24.2678 106.332 24.043H106.107C105.883 24.043 105.883 23.8182 105.883 23.5934C105.883 23.3686 106.107 23.1438 106.332 23.1438C106.557 23.1438 106.782 23.1438 107.231 23.1438C108.355 23.1438 109.704 22.6942 110.828 22.0199C112.402 21.3455 113.75 20.6711 115.099 19.7719C118.022 17.9735 120.944 15.5007 123.866 12.5784C129.037 7.63283 134.657 4.03608 140.726 2.2377C146.796 0.439322 152.865 0.439322 159.834 2.2377C163.88 3.36169 167.927 4.71047 170.849 7.85763C173.996 6.95844 178.042 8.98162 182.538 14.3767C183.438 15.5007 184.337 16.6247 185.236 17.7487C186.36 19.3223 187.709 20.8959 189.057 22.2447C191.53 24.7174 194.228 27.6398 197.6 28.7638C197.825 28.7638 197.825 28.539 198.049 28.539C198.274 28.3142 198.499 28.539 198.724 28.7638C198.724 28.9886 198.724 28.9886 198.724 29.2134C198.049 30.5621 196.701 31.2365 195.127 31.2365C196.701 33.4845 197.15 36.8565 196.251 39.554V39.7788C196.251 40.0036 195.801 40.0036 195.577 39.7788V39.554V39.3292C195.352 38.2053 194.902 37.0813 194.003 35.9573C195.577 41.1276 192.654 47.1971 190.631 50.5691V50.7939H190.406H190.181C190.181 51.9179 189.957 53.2667 189.282 54.3907C188.158 56.8634 186.585 58.8866 185.236 60.9098C184.112 62.4833 182.988 64.0569 182.089 65.6305C181.414 66.7545 180.74 68.1033 180.066 69.4521C178.942 71.7 177.593 74.1728 176.019 76.4208C171.748 82.4903 165.903 85.8623 158.71 86.7615C156.911 86.5367 155.113 86.7615 153.315 86.7615ZM111.952 30.7869L111.278 32.3605C109.255 37.3061 109.255 43.1508 111.278 49.2203C112.402 52.8171 114.425 56.189 116.448 59.3362C118.471 62.7081 120.27 66.0801 122.518 70.8008V71.0256C123.417 73.948 124.766 75.9712 127.014 77.9944C129.486 80.4671 132.633 81.8159 135.781 82.7151C142.974 85.4127 151.292 86.3119 158.935 85.4127C165.903 84.7383 171.523 81.3663 175.794 75.2968C177.368 73.0488 178.492 70.8008 179.616 68.3281C180.29 66.9793 180.965 65.8553 181.639 64.5065C182.538 62.7081 183.662 61.1346 184.786 59.7858C186.36 57.7626 187.709 55.7394 188.833 53.4915C189.732 51.4683 189.732 49.2203 189.507 47.1971L189.282 44.4996L189.957 46.9723C190.181 47.6467 190.406 48.3211 190.406 48.9955C192.429 45.3988 195.127 39.3292 192.879 34.6085L192.429 33.4845L193.329 34.3837C194.228 35.2829 195.577 36.4069 196.026 38.2053C196.476 35.5077 196.026 32.8101 194.228 31.0117L193.778 30.3374H194.453C194.677 30.3374 194.677 30.3374 194.902 30.3374C196.026 30.3374 197.15 29.8878 197.825 29.2134H197.6C194.003 28.0894 191.081 25.167 188.608 22.4694C187.259 20.8959 185.91 19.3223 184.786 17.7487C183.887 16.6247 182.988 15.5007 182.089 14.3767C177.818 9.20641 173.771 7.18324 170.849 8.08243H170.624L170.399 7.85763C167.477 4.71047 163.431 3.36169 159.384 2.2377C152.416 0.439322 146.571 0.439322 140.501 2.2377C134.657 4.03608 128.812 7.63283 123.866 12.5784C120.944 15.5007 118.022 17.9735 114.874 19.7719C113.526 20.6711 112.177 21.3455 110.603 22.0199C109.704 22.4694 108.58 22.919 107.456 23.1438L108.355 24.2678L107.007 24.4926C108.131 25.6166 109.479 26.0662 111.278 25.8414L112.177 25.6166L111.502 26.291C110.828 26.9654 110.154 27.6398 109.704 28.0894C107.681 30.5621 107.456 33.4845 107.231 36.6317C108.131 34.8333 109.255 33.2597 110.603 31.9109L111.952 30.7869Z" fill="#301000"/>
<path opacity="0.6" d="M141.625 2.91182C144.772 2.23742 148.144 1.78783 151.516 2.01263C157.361 2.23742 164.105 3.36141 167.927 8.53174C168.151 8.75654 167.927 8.98134 167.702 8.98134C165.679 8.98134 163.431 8.75654 161.407 8.75654C165.679 8.30695 171.523 11.4541 174.221 15.0509C175.12 16.3996 176.019 17.7484 176.469 19.322C175.794 17.7484 175.345 16.1748 174.446 14.8261C173.546 13.2525 171.973 12.3533 171.074 10.5549C171.074 10.3301 171.074 10.1053 171.298 10.1053C173.996 8.75654 177.593 10.7797 179.616 12.5781C180.515 13.2525 181.414 13.9269 182.089 14.8261C179.391 11.9037 174.895 7.18296 170.624 8.75654C167.702 5.60938 163.655 4.2606 159.609 3.13661C153.315 1.56303 147.02 1.33824 140.726 3.13661C139.152 3.58621 137.579 4.2606 136.23 4.93499C138.028 3.811 139.827 3.36141 141.625 2.91182Z" fill="#501F00"/>
<path opacity="0.6" d="M198.499 28.9888C197.6 29.6632 196.251 29.888 194.903 29.4384C192.205 28.5392 190.182 26.516 187.484 25.6168C190.856 28.9888 195.352 31.2367 196.251 36.4071C196.251 36.6319 195.802 36.8567 195.802 36.6319C194.228 33.9343 192.655 31.0119 189.508 30.3376C192.205 34.3839 194.678 39.3294 191.98 44.0502C191.755 44.275 191.531 44.275 191.531 43.8254C191.081 39.779 190.632 33.9343 187.035 31.4615C187.709 33.2599 188.608 35.0583 189.058 37.0815C189.507 39.1046 189.283 41.1278 188.833 43.151C188.833 43.6006 188.384 43.3758 188.384 43.151C188.159 40.903 188.159 37.7559 186.585 36.1823C187.26 38.4302 187.26 41.1278 186.81 43.3758C186.36 45.8486 184.787 47.8717 183.438 50.1197C183.213 50.3445 182.764 50.1197 182.988 49.8949C185.686 42.4766 185.686 33.4847 181.415 27.1904H181.19C179.392 25.392 176.469 25.1672 174.221 25.392C171.749 25.6168 169.501 25.8416 167.253 25.392C162.307 24.7176 157.586 24.0432 152.641 22.9192C150.168 22.2449 147.92 21.7953 145.447 21.3457C142.974 20.8961 140.277 20.2217 137.579 20.2217C132.409 20.2217 127.463 22.9192 122.968 25.1672H122.743C122.518 25.6168 122.068 25.8416 121.844 26.2912C120.27 28.3144 118.472 31.0119 118.022 33.7095C117.572 36.1823 118.022 38.655 117.348 41.1278C116.898 43.6006 115.999 45.6238 116.448 48.0965C116.448 48.5461 115.999 48.5461 115.999 48.3213C115.324 44.4998 115.1 41.3526 116.448 37.9807C114.875 39.1046 113.526 40.6782 113.076 42.4766C112.852 42.9262 112.402 42.7014 112.627 42.2518C113.751 37.9807 115.999 34.3839 118.022 30.5623C114.65 32.5855 112.177 35.5079 110.828 39.3294C110.828 39.5542 110.379 39.5542 110.379 39.1046C110.604 34.1591 113.076 30.1128 116.448 26.7408C113.751 28.5392 110.828 30.3376 109.705 33.4847C109.48 33.7095 109.03 33.7095 109.255 33.2599C109.704 30.1128 111.728 27.8648 113.976 26.0664C115.999 24.4928 118.247 23.144 120.045 21.1209C118.022 22.9192 115.549 24.4928 112.852 25.1672C111.728 25.392 109.48 25.6168 107.906 24.9424C109.255 26.2912 110.828 26.516 112.402 26.2912C111.728 26.9656 111.053 27.64 110.604 28.3144C108.356 31.2367 108.131 34.8335 107.906 38.4302H108.131C108.131 38.2055 108.356 37.7559 108.356 37.5311C109.255 35.7327 110.379 34.1591 111.728 32.8103C109.48 38.2055 109.704 44.275 111.728 49.8949C112.852 53.4917 114.875 56.8636 116.898 60.2356C119.146 64.0571 121.169 67.6539 122.968 71.7002C122.968 71.7002 122.968 71.7002 123.192 71.925C124.092 74.6226 125.44 77.0954 127.688 79.1185C130.161 81.5913 133.533 82.9401 136.68 84.0641C144.098 86.7616 152.191 87.6608 159.834 86.7616C166.803 86.0872 172.648 82.7153 176.919 76.6458C179.167 73.2738 180.74 69.4523 182.764 66.0803C185.012 62.2587 188.159 59.1116 189.957 54.8404C190.856 52.8173 190.856 50.5693 190.632 48.3213C190.856 48.9957 191.081 49.6701 191.081 50.5693C191.081 50.7941 191.081 50.7941 190.856 51.0189C193.554 46.7477 196.027 40.4534 193.779 35.5079C195.127 36.6319 196.251 37.9807 196.476 39.779C196.476 40.0038 196.476 40.0038 196.476 40.2286C196.476 40.2286 196.701 40.4534 196.701 40.2286C196.701 40.2286 196.701 40.2286 196.701 40.0038C197.6 37.3063 197.151 33.7095 195.127 31.4615C196.027 31.2367 197.6 30.7871 198.499 28.9888Z" fill="#501F00"/>
<path d="M122.967 77.7694C122.743 77.9942 122.518 77.9942 122.518 77.7694C120.045 78.6686 117.572 76.1958 116.673 73.9479C115.999 71.6999 115.774 69.4519 114.875 67.2039C114.2 65.8552 113.526 64.2816 113.526 62.708C113.751 60.46 115.549 55.7393 118.247 56.4137C119.595 56.6385 120.27 58.4369 120.719 59.5608C121.394 61.1344 122.068 62.9328 122.518 64.7312C123.417 66.7543 123.867 69.0023 123.867 71.0255C124.091 73.0487 124.091 76.1958 122.967 77.7694Z" fill="#F4C08E"/>
<path d="M123.867 71.2505C123.867 69.0025 123.417 66.7545 122.518 64.9562C122.069 63.1578 121.394 61.3594 120.72 59.7858C120.27 58.6618 119.596 57.0883 118.472 56.6387C119.596 58.437 120.045 60.685 119.371 63.3826C119.371 63.6074 119.146 63.6074 118.921 63.6074C117.573 63.1578 115.999 61.5842 114.65 62.933C113.976 63.6074 113.751 64.2818 113.751 64.9562C113.976 65.8553 114.425 66.7545 114.875 67.4289C115.774 69.4521 115.999 71.9249 116.673 74.1728C117.573 76.6456 119.821 78.8936 122.518 77.9944C122.518 78.2192 122.968 78.2192 122.968 77.9944C124.092 76.196 124.092 73.0489 123.867 71.2505Z" fill="#FBD0B4"/>
<path d="M116.448 65.4057C116.448 65.8553 117.347 70.576 117.347 70.3512C118.247 69.9016 118.696 72.3744 118.921 72.824C119.595 74.3976 119.82 76.1959 120.495 77.7695C120.944 77.9943 121.619 77.9943 122.293 77.7695C121.619 74.8472 120.719 72.1496 119.82 69.452C119.371 67.8785 119.371 65.6305 118.247 64.2817C117.347 63.3825 116.223 63.1577 115.099 63.1577C115.774 63.8321 116.223 64.5065 116.448 65.4057Z" fill="#F7CEBA"/>
<path d="M114.875 63.3822C117.123 63.1574 118.247 65.1806 118.696 67.4286H118.472C117.797 68.103 117.348 69.0021 116.898 69.9013C116.898 69.9013 116.898 70.1261 117.123 69.9013C117.572 69.2269 118.247 68.5526 118.696 67.8782C119.146 69.6765 119.371 71.6997 119.82 72.8237H120.045C119.82 69.9013 119.595 61.5838 114.875 63.3822Z" fill="#BF8245"/>
<path d="M123.867 71.2503C123.867 69.0024 123.417 66.7544 122.518 64.956C122.068 63.1576 121.394 61.3593 120.72 59.7857C120.27 58.6617 119.371 56.8633 118.247 56.6385C115.549 56.1889 113.751 60.9097 113.526 62.9328C113.301 64.5064 114.2 66.08 114.875 67.4288C115.774 69.452 115.999 71.9247 116.673 74.1727C117.572 76.6455 119.82 78.8934 122.518 77.9943C122.518 78.2191 122.968 78.2191 122.968 77.9943C124.092 76.1959 124.092 73.0487 123.867 71.2503ZM122.293 77.3199C121.394 77.0951 120.72 77.0951 119.82 76.8703C118.247 76.1959 117.572 74.6223 117.123 73.0487C116.224 70.5759 115.549 68.1032 114.425 65.8552C113.751 64.5064 113.526 62.9328 113.976 61.3593C114.425 59.7857 115.999 57.0881 117.572 57.0881C118.921 57.0881 120.045 60.0105 120.72 60.9097C121.169 61.8089 121.619 62.9328 121.844 63.832C123.867 68.1032 123.417 73.0487 122.293 77.3199Z" fill="#BF8245"/>
<path d="M176.469 75.9711C176.694 76.1959 176.919 76.1959 176.919 75.9711C179.391 76.8703 181.864 74.3975 182.763 72.1495C183.438 69.9015 183.662 67.6536 184.562 65.4056C185.236 64.0568 185.91 62.4832 185.91 60.9097C185.686 58.6617 183.887 53.9409 181.19 54.6153C179.841 54.8401 179.167 56.6385 178.717 57.7625C178.043 59.3361 177.368 61.1345 176.919 62.9328C176.019 64.956 175.57 67.204 175.57 69.2272C175.345 71.2503 175.345 74.3975 176.469 75.9711Z" fill="#F4C08E"/>
<path d="M175.57 69.2272C175.57 66.9792 176.019 64.7312 176.919 62.9329C177.368 61.1345 178.043 59.3361 178.717 57.7625C179.167 56.6385 179.841 55.065 180.965 54.6154C179.841 56.4137 179.391 58.6617 180.066 61.3593C180.066 61.5841 180.291 61.5841 180.515 61.5841C181.864 61.1345 183.438 59.5609 184.786 60.9097C185.461 61.5841 185.686 62.2585 185.686 62.9329C185.461 63.832 185.011 64.7312 184.562 65.4056C183.662 67.4288 183.438 69.9016 182.763 72.1495C181.864 74.6223 179.616 76.8703 176.919 75.9711C176.919 76.1959 176.469 76.1959 176.469 75.9711C175.345 74.3975 175.345 71.2503 175.57 69.2272Z" fill="#FBD0B4"/>
<path d="M182.988 63.3822C182.988 63.8318 182.089 68.5526 182.089 68.3278C181.19 67.8782 180.74 70.351 180.515 70.8005C179.841 72.3741 179.616 74.1725 178.942 75.7461C178.492 75.9709 177.818 75.9709 177.143 75.7461C177.818 72.8237 178.717 70.1262 179.616 67.4286C180.066 65.855 180.066 63.607 181.19 62.2583C182.089 61.3591 183.213 61.1343 184.337 61.1343C183.662 62.0335 183.213 62.7079 182.988 63.3822Z" fill="#F7CEBA"/>
<path d="M184.561 61.3591C184.561 61.5839 184.561 61.5839 184.561 61.3591C182.313 61.1343 181.189 63.1575 180.74 65.4055H180.965C181.639 66.0799 182.089 66.979 182.538 67.8782C182.538 67.8782 182.538 68.103 182.313 67.8782C181.864 67.2038 181.189 66.5295 180.74 65.8551C180.29 67.6534 180.065 69.6766 179.616 70.8006H179.391C179.616 68.103 179.841 59.7855 184.561 61.3591Z" fill="#BF8245"/>
<path d="M176.469 75.9711C176.694 76.1959 176.919 76.1959 176.919 75.9711C179.391 76.8703 181.864 74.3975 182.763 72.1495C183.438 69.9015 183.662 67.6536 184.562 65.4056C185.236 64.0568 185.91 62.4832 185.91 60.9097C185.686 58.6617 183.887 53.9409 181.19 54.6153C179.841 54.8401 179.167 56.6385 178.717 57.7625C178.043 59.3361 177.368 61.1345 176.919 62.9328C176.019 64.956 175.57 67.204 175.57 69.2272C175.345 71.2503 175.345 74.3975 176.469 75.9711ZM177.368 62.2584C177.593 61.1345 178.043 60.2353 178.492 59.1113C178.942 57.9873 180.066 55.2897 181.639 55.2897C183.213 55.2897 184.786 58.2121 185.236 59.5609C185.686 61.1345 185.461 62.4832 184.786 64.0568C183.662 66.3048 182.988 68.7776 182.089 71.2503C181.639 72.8239 180.74 74.3975 179.391 75.0719C178.492 75.2967 177.818 75.5215 176.919 75.5215C176.019 71.2503 175.57 66.3048 177.368 62.2584Z" fill="#BF8245"/>
<path d="M178.492 34.1588C177.593 32.81 176.019 31.4612 174.895 30.562C173.547 29.438 171.973 28.314 170.4 27.4148C167.477 25.6165 164.33 24.4925 160.958 24.2677C157.361 24.0429 153.54 24.4925 149.943 24.9421C146.346 25.3917 142.749 25.8413 139.153 26.9652C135.556 28.0892 131.959 29.8876 128.812 32.3604C125.89 34.6083 122.967 37.7555 120.944 41.1275C119.371 43.3754 120.045 46.2978 120.719 48.9954C121.619 55.2897 121.843 61.8088 122.293 68.3279C122.518 71.9247 122.518 75.7462 123.866 79.1182C124.766 81.8158 126.564 84.0637 128.587 86.0869C130.835 88.3349 133.308 89.9084 136.006 91.7068C138.928 93.73 141.85 95.5284 144.997 96.8772C147.92 98.0011 150.617 98.2259 153.765 97.5516C155.113 97.102 156.462 96.4276 157.811 95.7532C159.16 95.0788 160.733 94.1796 162.082 93.2804C163.88 92.3812 165.229 91.2572 166.803 90.1332C168.601 88.5597 170.4 87.2109 172.198 85.8621C175.345 83.3893 177.368 80.2422 177.818 75.971C178.492 70.3511 178.043 64.5064 178.267 58.6616C178.492 52.5921 178.717 46.7474 179.167 40.6779C179.391 37.9803 179.616 35.7323 178.492 34.1588Z" fill="#F4C08E" stroke="#BF8245" stroke-width="2" stroke-miterlimit="10"/>
<path d="M178.492 34.1588C177.593 32.81 176.019 31.4612 174.895 30.562C173.547 29.438 171.973 28.314 170.4 27.4148C167.477 25.6165 164.33 24.4925 160.958 24.2677C157.361 24.0429 153.54 24.4925 149.943 24.9421C146.346 25.3917 142.749 25.8413 139.153 26.9652C135.556 28.0892 131.959 29.8876 128.812 32.3604C125.89 34.6083 122.967 37.7555 120.944 41.1275C119.371 43.3754 120.045 46.2978 120.719 48.9954C120.944 51.2433 121.169 53.7161 121.394 55.9641C123.417 51.0185 128.362 46.2978 133.533 46.7474C139.827 48.321 146.121 46.7474 152.191 44.7242C156.912 45.6234 161.408 45.3986 165.904 43.3754C165.229 44.4994 164.105 45.1738 163.206 45.8482C167.927 46.2978 173.097 45.6234 176.919 42.2515C176.694 46.2978 175.795 49.8946 174.446 53.4913C174.671 53.4913 174.671 53.2665 174.895 53.4913C176.019 52.3673 177.368 51.2433 178.492 50.1194C178.717 46.9722 178.942 43.825 179.167 40.6779C179.391 37.9803 179.616 35.7323 178.492 34.1588Z" fill="#EDB89A"/>
<path d="M182.764 30.5623C182.089 28.0896 180.74 25.8416 178.492 24.4928C176.694 23.5936 174.671 23.3688 172.648 23.3688C171.074 19.7721 167.028 17.0745 163.881 15.2761C159.61 13.0282 154.889 12.3538 150.168 12.3538C144.998 12.3538 139.603 13.4777 134.657 15.2761C131.51 16.4001 127.464 18.4233 125.665 21.5704C123.867 22.9192 122.293 24.7176 121.169 26.516C118.696 30.3375 118.022 35.0583 117.573 39.5542C117.573 39.779 117.797 39.779 117.797 39.5542C117.797 39.3294 117.797 39.1046 118.022 38.8798C118.921 36.8567 119.82 34.8335 121.394 33.2599C119.371 36.1823 118.247 40.0038 118.247 43.6006C118.022 44.275 118.022 44.7246 118.247 45.1741V44.9494C118.921 42.2518 119.596 39.779 121.169 37.3062C121.619 36.4071 122.293 35.7327 122.968 35.0583C121.844 36.4071 120.944 37.7558 120.27 39.5542C119.371 41.3526 118.921 43.6006 118.472 45.6237C118.247 48.0965 118.696 50.5693 118.921 52.8173C118.921 53.042 119.146 52.8173 119.146 52.8173C119.146 52.8173 119.146 52.8173 119.146 52.5925H119.371C120.045 49.4453 121.169 46.5229 123.192 44.0502C123.642 43.3758 124.316 42.7014 124.991 42.2518C123.642 44.0502 122.293 46.0733 121.844 48.3213C121.844 48.3213 121.844 48.5461 121.619 48.5461C121.619 48.5461 121.619 48.7709 121.844 48.7709C123.192 46.9725 125.665 46.2981 127.688 45.6237C130.161 44.9494 132.634 43.8254 134.882 42.9262C136.905 42.2518 138.928 41.5774 141.176 40.6782C138.928 42.2518 136.68 43.6006 133.983 44.0502V44.275C134.207 44.275 134.432 44.275 134.657 44.275C140.502 45.1741 146.571 44.0502 152.191 42.4766C156.687 41.3526 160.509 38.8798 163.881 35.9575C163.206 36.6319 162.307 37.3062 161.633 37.9806C159.385 39.779 157.137 41.1278 154.439 42.2518C154.214 42.2518 154.214 42.2518 153.99 42.2518C153.99 42.2518 153.99 42.2518 153.99 42.4766C153.99 42.4766 153.99 42.4766 154.214 42.4766C156.462 42.4766 158.71 42.7014 161.183 42.2518C163.206 42.027 165.229 41.3526 167.253 40.6782C169.051 40.0038 170.849 38.8798 172.198 37.531C170.625 40.0038 168.601 42.2518 166.129 43.8254C165.904 43.8254 165.904 43.8254 165.679 44.0502C168.601 44.4998 171.749 42.7014 174.221 41.1278C175.345 40.2286 176.245 39.3294 177.144 38.2054C177.369 40.4534 177.593 42.4766 177.368 44.7246C177.144 46.9725 177.144 48.9957 176.245 51.0189C176.245 51.0189 176.245 51.0189 176.245 51.2437C176.02 51.4685 175.795 51.6933 175.57 51.9181C175.57 51.9181 175.57 52.1429 175.795 52.1429C180.066 49.2205 182.764 44.0502 183.438 38.655C184.337 35.9575 183.888 33.0351 182.764 30.5623Z" fill="#57320F"/>
<path opacity="0.6" d="M182.763 30.5621C182.089 28.0893 180.74 25.8414 178.492 24.4926C178.267 24.2678 177.818 24.2678 177.593 24.043L177.818 24.2678C179.167 25.6166 180.066 27.415 180.965 29.2133C182.988 33.7093 182.539 38.2052 181.19 42.7012C181.19 42.926 180.515 42.926 180.74 42.4764C181.415 38.6548 181.19 33.7093 178.492 30.7869C178.492 32.3605 178.492 33.9341 177.593 35.2829C176.694 36.8564 175.57 37.9804 174.671 39.3292C174.446 39.554 173.996 39.554 174.221 39.1044C175.12 35.7325 175.57 32.3605 174.896 28.9885C174.446 31.4613 173.772 33.9341 171.973 35.7325C169.276 38.43 165.679 39.554 162.082 40.678C161.857 40.678 161.633 40.4532 161.857 40.2284C163.656 38.2052 165.679 36.182 166.353 33.4845C167.028 31.4613 167.028 29.2133 167.028 26.9654C165.454 31.0117 161.633 33.9341 158.261 36.4068C153.315 39.7788 147.695 42.2516 141.85 42.7012C141.626 42.7012 141.401 42.2516 141.626 42.2516C146.122 39.7788 150.168 36.182 152.865 31.6861C151.292 33.2597 149.493 34.6085 147.695 35.5077C144.998 36.8564 142.075 37.5308 139.378 38.43C134.207 39.7788 129.037 41.1276 124.991 44.9491C124.766 45.1739 124.541 44.7243 124.541 44.4995C127.014 40.0036 130.386 36.6316 134.657 33.9341C129.037 35.9572 123.417 38.6548 120.944 44.4995C120.719 44.9491 120.27 44.4995 120.495 44.2747C122.743 38.2052 125.89 32.8101 130.835 29.2133C126.564 31.2365 122.293 34.1589 120.27 38.6548C120.045 39.1044 119.596 38.6548 119.82 38.43C120.944 34.8333 122.743 31.0117 125.44 28.3141C123.417 29.8877 121.619 31.6861 120.045 33.7093C119.82 33.9341 119.371 33.7093 119.596 33.4845C120.495 30.5621 121.169 27.6398 122.743 25.167C123.417 24.2678 124.091 23.3686 124.766 22.6942C123.417 23.8182 122.293 25.167 121.394 26.7406C118.921 30.5621 118.247 35.2829 117.797 39.7788C117.797 40.0036 118.022 40.0036 118.022 39.7788C118.022 39.554 118.022 39.3292 118.247 39.1044C119.146 37.0812 120.045 35.0581 121.619 33.4845C119.595 36.4068 118.472 40.2284 118.472 43.8252C118.247 44.4995 118.247 44.9491 118.472 45.3987V45.1739C119.146 42.4764 119.82 40.0036 121.394 37.5308C121.843 36.6316 122.518 35.9572 123.192 35.2829C122.068 36.6316 121.169 37.9804 120.495 39.7788C119.595 41.5772 119.146 43.8252 118.696 45.8483C118.472 48.3211 118.921 50.7939 119.146 53.0418C119.146 53.2666 119.371 53.0418 119.371 53.0418C119.371 53.0418 119.371 53.0418 119.371 52.817H119.596C120.27 49.6699 121.394 46.7475 123.417 44.2747C123.867 43.6004 124.541 42.926 125.215 42.4764C123.867 44.2747 122.518 46.2979 122.068 48.5459C122.068 48.5459 122.068 48.7707 121.843 48.7707C121.843 48.7707 121.843 48.9955 122.068 48.9955C123.417 47.1971 125.89 46.5227 127.913 45.8483C130.386 45.1739 132.859 44.0499 135.106 43.1508C137.13 42.4764 139.153 41.802 141.401 40.9028C139.153 42.4764 136.905 43.8251 134.207 44.2747V44.4995C134.432 44.4995 134.657 44.4995 134.882 44.4995C140.726 45.3987 146.796 44.2747 152.416 42.7012C156.912 41.5772 160.733 39.1044 164.105 36.182C163.431 36.8564 162.532 37.5308 161.857 38.2052C159.609 40.0036 157.361 41.3524 154.664 42.4764C154.439 42.4764 154.439 42.4764 154.214 42.4764C154.214 42.4764 154.214 42.4764 154.214 42.7012C154.214 42.7012 154.214 42.7012 154.439 42.7012C156.687 42.7012 158.935 42.926 161.408 42.4764C163.431 42.2516 165.454 41.5772 167.477 40.9028C169.276 40.2284 171.074 39.1044 172.423 37.7556C170.849 40.2284 168.826 42.4764 166.353 44.0499C166.128 44.0499 166.128 44.0499 165.904 44.2747C168.826 44.7243 171.973 42.926 174.446 41.3524C175.57 40.4532 176.469 39.554 177.368 38.43C177.593 40.678 177.818 42.7012 177.593 44.9491C177.368 47.1971 177.368 49.2203 176.469 51.2435C176.469 51.2435 176.469 51.2435 176.469 51.4683C176.244 51.6931 176.02 51.9178 175.795 52.1426C175.795 52.1426 175.795 52.3674 176.02 52.3674C180.291 49.4451 182.988 44.2747 183.663 38.8796C184.337 35.9572 183.887 33.0349 182.763 30.5621Z" fill="#501F00"/>
<path opacity="0.3" d="M163.881 25.1671C161.633 28.7638 158.71 32.5854 154.664 33.7094C154.214 33.9342 153.989 33.2598 154.214 33.035C156.912 29.8878 159.385 26.0663 160.284 21.7951C158.261 23.8183 155.338 25.6167 153.315 26.5159C147.695 29.2134 141.626 31.4614 135.331 31.4614C135.107 31.4614 134.882 31.0118 135.107 30.787C138.254 29.4382 140.951 27.4151 143.649 25.1671C144.998 23.8183 146.571 22.4695 147.695 20.6712C145.897 21.5703 144.098 22.2447 142.3 22.9191C140.277 23.5935 138.029 24.2679 136.006 24.9423C134.657 25.3919 133.083 26.0663 131.51 25.6167C131.285 25.6167 131.285 25.1671 131.285 25.1671C132.859 22.2447 136.231 20.6712 138.254 18.1984C135.107 18.8728 131.735 19.9968 129.037 21.7951C130.611 20.2216 132.184 18.648 133.758 17.2992C127.239 19.772 121.843 24.7175 120.27 31.6862C121.843 29.4382 123.642 28.0895 125.89 26.7407C126.789 26.2911 127.913 25.8415 128.812 25.1671C128.363 25.6167 127.913 26.0663 127.688 26.2911C126.339 27.6399 125.215 29.2134 124.316 30.787C124.766 30.5622 125.215 30.3374 125.44 30.3374C126.789 29.8878 128.363 29.2134 129.711 28.7638C130.161 28.5391 130.611 28.539 131.06 28.3143C131.959 28.0895 132.859 27.8647 133.758 27.6399H133.983C135.331 27.1903 136.905 26.9655 138.254 26.2911C136.68 28.0895 134.882 29.663 133.083 31.0118C132.184 31.6862 131.285 32.3606 130.386 33.035C129.936 33.2598 129.487 33.7094 129.037 33.9342C127.463 34.6086 125.89 35.5078 124.766 36.8565C125.215 36.6317 125.44 36.4069 125.89 36.4069C129.262 34.159 133.308 33.4846 137.13 32.5854C135.781 33.2598 134.432 34.159 133.083 35.0582C131.285 36.4069 129.487 38.2053 127.688 39.7789C129.487 38.4301 131.51 37.5309 133.533 36.8565C134.882 36.4069 136.231 35.9574 137.804 35.7326C139.378 35.283 140.726 34.8334 142.3 34.6086C146.122 33.7094 150.393 32.5854 153.54 30.1126C151.517 33.9342 148.594 37.5309 145.222 40.0037V40.2285C144.548 40.4533 143.874 40.9029 143.199 41.1277V41.3525C145.222 41.1277 147.021 40.4533 149.044 39.3293C153.54 37.7557 157.811 34.8334 160.958 31.2366C163.881 28.0895 165.454 24.2679 165.904 19.9968C165.904 22.0199 164.78 23.8183 163.881 25.1671Z" fill="#FF9B40"/>
<path opacity="0.3" d="M181.864 39.3293C182.988 35.7325 182.764 31.911 180.965 28.0894C180.516 27.1902 180.066 26.291 179.392 25.6166C178.043 24.0431 176.469 22.6943 174.671 21.5703C176.244 24.0431 176.919 27.1902 176.919 30.1126C176.919 30.1126 176.919 30.1126 176.919 30.3374C176.694 26.7406 175.345 22.9191 173.097 20.6711C172.872 20.4463 172.648 20.4463 172.423 20.2215C172.198 20.2215 172.198 20.2215 171.973 19.9967C173.772 22.4695 172.423 26.9654 171.524 29.4382C171.524 26.7406 170.4 23.8183 168.826 21.7951C170.175 26.7406 169.95 33.7093 167.028 37.7557C167.927 37.3061 168.826 36.8565 169.725 36.1821C170.849 35.2829 171.973 33.9341 172.648 32.5853C173.772 30.5622 174.446 27.8646 174.221 25.3918C174.221 26.291 174.896 27.415 175.12 28.3142C175.345 29.4382 175.795 30.5622 175.795 31.6862C176.02 33.9341 175.795 35.9573 174.896 38.2053C175.345 37.5309 175.795 36.6317 176.02 36.1821C176.244 35.7325 176.469 35.5077 176.694 35.0581C177.818 31.6862 177.818 27.8646 176.919 24.4926C177.144 25.3918 178.043 26.0662 178.492 26.7406C178.942 27.415 182.539 32.5853 181.864 39.3293Z" fill="#FF9B40"/>
<path d="M177.593 22.4695C177.368 22.4695 176.02 21.3455 176.244 21.5703C182.539 26.9654 183.887 33.035 183.663 37.7557C183.438 40.4533 182.539 43.1508 181.415 45.6236C180.74 46.9724 180.066 48.0964 178.942 49.2203C178.492 49.8947 178.043 50.3443 177.368 50.7939C177.144 51.0187 176.694 51.2435 176.469 51.6931C175.57 52.3675 176.694 51.4683 176.919 51.4683C176.694 51.2435 177.368 50.1195 177.368 49.8947C177.593 49.4451 177.593 48.7708 177.593 48.3212C177.818 47.422 177.818 46.5228 177.818 45.6236C178.043 43.1508 177.818 40.9029 177.593 38.4301C178.492 37.0813 178.717 35.5077 178.717 33.9341C178.492 35.0581 178.268 36.1821 177.818 37.0813C177.593 37.9805 176.919 38.6549 176.469 39.3293C175.345 40.4533 174.221 41.3524 172.872 42.2516C171.748 42.926 170.624 43.3756 169.5 43.8252C168.826 44.05 168.152 44.2748 167.477 44.2748C168.826 44.05 166.353 44.4996 166.578 44.2748C167.702 43.8252 168.826 42.7012 169.5 41.802C170.624 40.9029 171.299 39.7789 172.198 38.4301C173.996 36.4069 174.896 32.5854 174.446 29.8878H174.221C174.446 32.8102 173.097 35.5077 171.748 37.9805C169.5 40.0037 167.028 41.1276 164.105 41.802C161.183 42.7012 158.261 42.4764 155.338 42.4764C155.113 42.4764 154.664 42.4764 154.439 42.4764C154.439 42.4764 154.439 42.4764 154.664 42.4764C155.788 42.0268 156.912 41.3524 158.036 40.9029C160.284 39.5541 162.307 37.9805 164.105 36.1821C164.33 35.9573 168.152 31.4614 167.477 25.8414C167.028 36.8565 158.261 40.2285 155.113 41.5772C151.742 42.926 147.92 43.8252 144.323 44.2748C142.525 44.4996 140.502 44.7244 138.703 44.7244C137.804 44.7244 136.905 44.7244 136.006 44.4996C135.556 44.4996 135.107 44.2748 134.657 44.2748C134.882 44.2748 135.331 44.05 135.556 44.05C136.231 43.8252 136.68 43.6004 137.354 43.3756C138.703 42.7012 143.424 40.9029 150.168 34.3837C150.393 34.1589 143.874 39.5541 140.502 41.1276C135.556 43.1508 130.611 44.7244 125.44 46.5228C124.091 46.9724 122.518 47.6468 121.394 48.7708C121.394 48.7708 121.394 48.546 121.394 48.3212C121.619 47.6468 121.843 46.9724 122.068 46.5228C126.789 38.6549 131.06 36.6317 131.959 35.5077C132.184 35.2829 128.587 37.3061 125.215 40.6781C123.867 42.0268 121.619 45.6236 120.719 47.1972C120.27 48.0964 119.82 48.9955 119.596 49.8947C119.371 50.3443 119.371 50.7939 119.146 51.2435C119.146 51.4683 118.921 52.5923 118.696 53.0419C118.472 52.3675 118.472 51.4683 118.472 51.2435C118.472 50.5691 118.247 49.6699 118.247 48.9955C118.022 47.1972 118.247 45.3988 118.696 43.6004C119.371 40.6781 120.944 37.0813 127.688 31.2366C127.913 31.0118 124.091 33.2598 122.068 35.7325C120.944 37.3061 119.595 38.8797 118.921 40.6781C118.472 41.5772 118.247 42.4764 118.022 43.3756C118.022 43.6004 117.797 44.4996 117.572 45.3988C117.572 44.9492 117.572 44.4996 117.572 43.8252C117.572 42.4764 117.797 41.3524 118.022 40.0037C118.472 37.7557 120.27 34.3837 121.394 32.5854C121.394 32.3606 120.27 33.9341 120.045 33.9341C119.371 34.8333 118.696 35.7325 118.022 36.6317C117.797 37.0813 117.348 37.7557 117.123 38.2053C117.123 38.4301 116.898 38.6549 116.898 39.1045C116.898 38.6549 117.123 37.9805 117.123 37.9805C117.123 37.3061 117.348 36.4069 117.572 35.7325C117.797 34.3837 118.247 32.8102 118.696 31.4614C119.371 28.9886 120.719 26.7406 122.293 24.9423C125.215 21.1207 130.386 17.2992 134.882 15.7256C135.331 15.5008 133.758 15.9504 133.533 16.1752C129.037 17.9735 124.766 21.1207 121.619 25.1671C120.045 27.1902 118.696 29.4382 118.022 31.911C117.572 33.4845 117.123 35.0581 116.898 36.8565C116.673 37.5309 115.999 40.2285 116.448 40.9029C116.448 41.1276 116.898 40.9029 116.898 40.9029C117.348 40.6781 117.797 39.1045 118.022 38.4301C118.022 38.2053 118.247 37.9805 118.247 37.7557C117.797 38.8797 117.348 40.2285 117.123 41.5772C116.898 42.926 116.898 44.2748 116.673 45.3988C116.673 45.8484 116.673 46.298 116.898 46.7476C116.898 46.9724 117.348 46.7476 117.348 46.7476C117.348 46.7476 117.348 46.7476 117.572 46.7476C117.348 47.8716 117.348 48.7708 117.572 49.8947C117.572 50.7939 117.797 51.6931 117.797 52.8171C117.797 53.2667 117.797 54.3907 118.247 54.6155C118.472 54.6155 118.696 54.6155 118.696 54.6155L118.921 54.3907C119.146 53.0419 119.595 51.9179 120.045 50.5691C120.27 50.1195 120.495 49.4451 120.719 48.9955C120.495 49.4451 120.495 50.1195 120.495 50.3443H120.719C120.719 50.3443 120.944 50.3443 121.169 50.1195C121.843 49.2203 122.743 48.546 123.867 48.0964C125.44 47.1972 127.463 46.9724 129.037 46.298C132.409 45.174 136.006 43.8252 139.378 42.4764C138.478 43.1508 137.354 43.8252 136.23 44.2748C135.331 44.7244 134.207 44.9492 133.308 45.174C133.083 45.174 133.083 45.174 133.083 45.3988C133.533 45.8484 134.657 45.6236 134.882 45.6236C136.231 45.8484 137.804 45.8484 139.153 45.8484C142.3 45.8484 145.447 45.174 148.594 44.4996C152.641 43.6004 156.462 42.0268 159.834 40.0037C159.16 40.4533 158.485 40.9029 157.811 41.3524C156.912 42.0268 155.788 42.4764 154.664 43.1508C154.214 43.3756 153.54 43.3756 153.09 43.8252C153.09 44.05 153.315 44.05 153.315 44.05C153.989 44.05 154.889 44.05 155.563 44.05C157.586 44.05 159.609 44.05 161.633 43.6004C164.78 43.1508 167.927 41.802 170.624 39.7789C169.95 40.6781 169.051 41.802 168.152 42.7012C167.253 43.6004 166.129 44.7244 165.005 45.174C165.005 45.174 164.78 45.174 164.78 45.3988H165.005C169.051 45.8484 173.097 43.3756 176.02 40.4533C176.02 40.2285 176.244 40.2285 176.244 40.0037C176.469 42.4764 176.469 44.7244 176.469 47.1972C176.469 48.546 176.244 50.1195 175.795 51.4683L175.345 52.5923C175.345 52.8171 174.671 53.2667 174.671 53.4915C175.345 53.7163 175.795 53.0419 176.244 52.5923C177.368 51.6931 178.492 50.5691 179.167 49.4451C181.19 46.7476 182.314 43.3756 182.764 40.0037C184.787 33.7093 183.213 27.6398 177.593 22.4695Z" fill="#301000"/>
<path opacity="0.3" d="M164.78 6.95838C162.532 4.93521 159.384 3.36163 156.462 2.91203C155.788 2.68723 155.113 2.68723 154.439 2.68723C147.92 1.33845 140.951 3.13683 135.106 6.50879C130.835 8.75676 127.463 12.1287 123.642 15.2759C119.595 18.6478 115.324 21.5702 110.379 23.3686V23.5934C115.774 23.1438 120.495 19.7718 124.766 16.6247C128.138 14.1519 131.734 12.1287 135.556 10.3303C133.982 11.4543 132.634 12.5783 131.285 13.7023C127.463 17.0743 124.091 20.8958 119.82 23.5934V23.8182C122.068 22.6942 124.091 20.8958 126.114 19.3222C130.835 16.3999 135.556 13.4775 140.951 11.4543C143.649 10.3303 146.346 9.88074 149.269 9.43115C152.191 8.98155 155.113 9.20635 158.036 9.65595C158.485 9.88074 158.935 9.88074 159.384 10.1055L159.609 9.88074C159.384 9.88074 159.384 9.65595 159.16 9.65595V9.43115C159.16 9.43115 158.935 9.43115 158.935 9.20635C156.237 7.40798 152.865 6.50879 149.493 6.50879C151.517 6.28399 153.315 6.05919 155.338 6.05919C158.485 6.05919 161.632 6.50879 164.555 7.18318C164.78 7.18318 165.004 6.95838 164.78 6.95838Z" fill="#FF9B40"/>
<path opacity="0.3" d="M193.554 27.6398C186.81 23.8182 183.663 15.5007 176.919 12.1288C176.919 12.1288 176.694 12.1288 176.919 12.3536C180.291 14.3768 182.763 17.7487 185.236 20.8959C187.484 23.3686 190.182 26.5158 193.554 27.6398C193.554 27.8646 193.779 27.6398 193.554 27.6398Z" fill="#FF9B40"/>
<path d="M176.02 641.785C181.415 649.653 178.717 655.948 178.717 655.948L180.965 646.731L176.02 641.785Z" fill="#BF8245"/>
<path d="M184.112 641.785C189.957 648.979 187.035 654.823 187.035 654.823L189.507 646.281L184.112 641.785Z" fill="#BF8245"/>
<path d="M194.003 642.46C199.174 648.979 196.476 654.374 196.476 654.374L198.724 646.731L194.003 642.46Z" fill="#BF8245"/>
<path d="M201.421 643.584C206.592 649.428 203.894 654.149 203.894 654.149L206.142 647.181L201.421 643.584Z" fill="#BF8245"/>
<path d="M131.285 473.862C130.835 493.419 140.052 502.636 137.13 535.231C136.006 546.247 133.983 557.037 131.959 567.827C129.936 579.966 128.812 587.16 130.161 599.074C124.766 594.578 114.65 594.353 110.154 595.027C108.581 585.361 106.108 565.804 103.185 556.587C99.5887 545.123 94.6431 533.883 94.1935 521.744C93.7439 509.38 95.7671 497.016 97.1159 484.877C97.7903 477.683 98.4647 468.242 98.6895 457.452C109.255 478.133 121.394 473.637 131.285 473.862Z" fill="#F4C08E" stroke="#BF8245" stroke-width="2" stroke-miterlimit="10"/>
<path d="M148.145 329.992C150.168 367.533 131.734 453.855 131.285 473.862C131.285 473.862 95.9916 477.684 98.6892 453.181C99.8132 442.84 89.9221 413.617 88.7981 384.393C86.5502 321.45 93.7437 325.271 99.5884 285.932C100.038 282.335 148.145 328.643 148.145 329.992Z" fill="#F4C08E" stroke="#BF8245" stroke-width="2" stroke-miterlimit="10"/>
<path d="M130.161 599.074C131.734 617.507 128.812 630.77 133.982 646.281C134.657 648.305 134.657 650.777 133.758 652.8C131.51 657.521 122.293 657.521 100.038 655.948C97.1157 655.723 92.395 655.273 91.271 651.677C90.147 647.855 93.9685 643.134 95.9917 640.212C114.65 613.461 111.278 610.763 110.604 595.702C110.379 593.679 130.161 595.927 130.161 599.074Z" fill="#F4C08E" stroke="#BF8245" stroke-width="2" stroke-miterlimit="10"/>
<path d="M121.618 647.18L123.866 656.397C123.866 656.397 121.169 650.103 126.564 642.235L121.618 647.18Z" fill="#BF8245"/>
<path d="M113.077 646.731L115.549 655.273C115.549 655.273 112.627 649.428 118.472 642.235L113.077 646.731Z" fill="#BF8245"/>
<path d="M103.86 647.181L106.108 654.824C106.108 654.824 103.41 649.429 108.58 642.909L103.86 647.181Z" fill="#BF8245"/>
<path d="M96.4413 647.63L98.6893 654.599C98.6893 654.599 95.9917 649.878 101.162 644.033L96.4413 647.63Z" fill="#BF8245"/>
<path d="M81.6048 224.337C81.6048 224.337 78.9072 240.747 66.3186 261.429C53.0556 283.234 49.234 290.427 47.8852 293.575C47.4356 294.923 31.9246 287.955 32.3742 286.831C35.971 277.614 45.4125 242.995 46.5364 238.499C51.2572 221.19 55.5283 212.423 58.0011 207.927C61.5979 211.748 74.4113 220.066 81.6048 224.337Z" fill="#CA484A" stroke="#BA0808" stroke-width="2" stroke-miterlimit="10"/>
<path d="M97.7899 193.765C94.4179 201.408 87.8988 214.896 81.3797 224.112C81.3797 224.112 55.9776 209.051 57.5512 207.927C58.8999 200.284 59.5743 191.966 64.9695 173.982C64.2951 142.061 75.7597 127.899 83.6277 123.628L97.7899 193.765Z" fill="#F4C08E" stroke="#BF8245" stroke-width="2" stroke-miterlimit="10"/>
<path d="M47.4354 294.474C46.9858 295.823 46.9858 296.497 46.761 297.396C46.9858 301.667 48.1098 305.939 45.4122 312.907C44.2883 315.605 41.5907 325.496 40.4667 330.217C40.4667 330.217 37.7691 341.232 34.8468 343.255C33.7228 344.154 31.25 343.705 31.25 341.457C31.4748 337.185 33.9476 330.891 34.1724 329.317C34.8468 326.395 35.5212 321.899 35.5212 321.899C35.5212 321.899 33.9476 326.395 31.6996 332.24C31.25 333.589 27.4285 343.48 25.4053 346.402C23.8317 348.65 20.0101 347.301 20.4597 344.604C20.9093 341.232 25.1805 330.441 25.1805 330.441C26.0797 326.62 26.7541 325.046 27.6533 321.225C26.3045 324.822 23.6069 330.666 23.6069 330.666C20.6846 338.534 16.4134 344.828 14.615 347.301C12.8167 349.774 8.77031 347.751 9.6695 345.278C11.2431 341.681 15.2894 332.24 16.6382 328.868C17.3126 326.845 21.5837 318.078 20.4597 318.752C20.4597 318.752 20.4598 318.752 16.1886 326.845C14.3902 330.441 10.1191 336.061 7.19672 338.984C5.17354 341.007 1.57679 339.209 2.70077 336.286C4.72395 331.565 10.3439 323.922 11.2431 322.124C15.0646 314.93 18.2118 310.659 19.3358 307.962C19.7853 306.838 18.8862 305.489 17.7622 305.714C16.1886 305.939 13.9406 306.838 10.1191 309.086C6.29753 311.558 3.59997 311.334 2.25118 309.535C0.452807 307.063 8.77028 302.567 12.5918 299.644C17.5374 295.823 25.8549 294.024 29.9012 290.652C30.8004 289.753 31.4748 288.854 31.9244 287.73L47.4354 294.474Z" fill="#F4C08E" stroke="#BF8245" stroke-width="2" stroke-miterlimit="10"/>
<path d="M178.366 716.93C177.175 716.13 175.524 716.397 174.68 717.526C166.27 728.778 149.81 731.475 137.988 723.54C132.863 720.099 129.311 715.167 127.777 709.547L129.849 710.938C131.04 711.737 132.691 711.47 133.535 710.341C134.378 709.213 134.097 707.648 132.906 706.849L125.823 702.095C125.804 702.082 125.783 702.075 125.765 702.063C125.681 702.01 125.593 701.966 125.502 701.922C125.436 701.89 125.371 701.854 125.302 701.828C125.219 701.795 125.131 701.773 125.044 701.748C124.963 701.726 124.884 701.7 124.801 701.685C124.723 701.671 124.642 701.666 124.562 701.658C124.467 701.649 124.373 701.64 124.277 701.64C124.253 701.641 124.23 701.635 124.205 701.636C124.148 701.638 124.095 701.652 124.04 701.657C123.947 701.666 123.855 701.675 123.763 701.693C123.678 701.709 123.598 701.732 123.517 701.756C123.436 701.78 123.356 701.805 123.277 701.835C123.196 701.867 123.12 701.904 123.044 701.942C122.969 701.98 122.896 702.019 122.825 702.064C122.753 702.111 122.686 702.161 122.619 702.214C122.555 702.265 122.49 702.315 122.431 702.372C122.364 702.436 122.304 702.505 122.244 702.575C122.209 702.615 122.169 702.649 122.137 702.692L117.1 709.431C116.256 710.56 116.538 712.125 117.729 712.924C118.92 713.724 120.571 713.457 121.415 712.328L122.63 710.702C124.456 717.499 128.736 723.47 134.931 727.629C149.134 737.162 168.901 733.928 178.995 720.422C179.839 719.294 179.557 717.729 178.366 716.93Z" fill="#324979"/>
<path d="M127.523 716.304C128.678 715.49 130.368 715.79 131.296 716.973C140.545 728.766 157.397 731.791 168.861 723.716C173.831 720.215 177.111 715.145 178.301 709.332L176.292 710.748C175.137 711.561 173.447 711.261 172.519 710.078C171.591 708.895 171.775 707.275 172.93 706.462L179.798 701.624C179.817 701.611 179.838 701.605 179.856 701.592C179.937 701.538 180.024 701.494 180.113 701.45C180.178 701.417 180.241 701.381 180.309 701.354C180.391 701.322 180.479 701.3 180.566 701.275C180.646 701.254 180.725 701.228 180.807 701.213C180.886 701.199 180.967 701.195 181.048 701.189C181.144 701.181 181.238 701.172 181.335 701.174C181.36 701.175 181.383 701.169 181.409 701.17C181.466 701.173 181.52 701.188 181.577 701.195C181.671 701.205 181.766 701.215 181.86 701.236C181.947 701.254 182.03 701.279 182.113 701.305C182.197 701.331 182.28 701.357 182.362 701.389C182.445 701.424 182.525 701.464 182.605 701.504C182.683 701.544 182.76 701.586 182.834 701.634C182.91 701.683 182.981 701.736 183.053 701.792C183.121 701.846 183.19 701.899 183.253 701.959C183.326 702.026 183.39 702.099 183.456 702.172C183.494 702.214 183.537 702.25 183.572 702.295L189.112 709.358C190.039 710.541 189.855 712.162 188.7 712.975C187.545 713.789 185.855 713.489 184.927 712.306L183.591 710.602C182.181 717.632 178.231 723.771 172.223 728.002C158.45 737.702 138.213 734.076 127.112 719.92C126.184 718.737 126.368 717.117 127.523 716.304Z" fill="#324979"/>
</svg>
